<svg width="44" height="44" viewBox="0 0 44 44" fill="none" xmlns="http://www.w3.org/2000/svg">
<path fill-rule="evenodd" clip-rule="evenodd" d="M31.6287 31.6765C31.6287 34.1592 33.6255 36.1718 36.0886 36.1718C38.5517 36.1718 40.5484 34.1592 40.5484 31.6765C40.5484 29.1938 38.5517 27.1812 36.0886 27.1812C33.6255 27.1812 31.6287 29.1938 31.6287 31.6765Z" stroke="#FFBB18" stroke-width="1.6" stroke-linecap="round" stroke-linejoin="round"/>
<path d="M7.91461 31.6765C7.91461 34.1592 9.91142 36.1718 12.3745 36.1718C14.8376 36.1718 16.8343 34.1592 16.8343 31.6765" stroke="#FFBB18" stroke-width="1.6" stroke-linecap="round" stroke-linejoin="round"/>
<path fill-rule="evenodd" clip-rule="evenodd" d="M38.9583 11.6565C36.4747 11.6565 34.4613 12.8995 34.4613 14.4328C34.4613 15.9661 36.4747 17.2092 38.9583 17.2092V11.6565Z" stroke="#FFBB18" stroke-width="1.6" stroke-linecap="round" stroke-linejoin="round"/>
<path d="M29.0653 19.3683L29.0665 20.3314C29.0657 21.5253 28.7114 22.6966 28.0412 23.7203C27.0025 25.3071 25.132 26.2779 23.1133 26.2779H18.2725V22.376" stroke="white" stroke-width="1.6" stroke-linecap="round" stroke-linejoin="round"/>
<path d="M21.8696 19.0223H11.0767C7.10285 19.0223 3.88153 22.2692 3.88153 26.2748V31.7141H25.6729C27.2235 31.7141 28.2489 30.4352 29.0708 29.1098L30.3631 27.0885C31.9096 25.3368 33.6043 24.4616 35.1549 24.4616C35.7622 24.4616 36.3243 24.1385 36.6336 23.6116C36.9429 23.0849 36.9532 22.4325 36.6608 21.896L32.6598 10.223C32.3712 9.69322 31.9305 8.78223 30.3631 9.36532C28.7957 9.94841 29.0712 12.5216 29.0708 13.1259L29.0648 14.4895" stroke="white" stroke-width="1.6" stroke-linecap="round" stroke-linejoin="round"/>
<path d="M21.9293 16.426V16.3863C21.9293 15.2741 21.0276 14.3724 19.9154 14.3724H11.077" stroke="white" stroke-width="1.6" stroke-linecap="round" stroke-linejoin="round"/>
<path d="M23.408 9.16666L31.6293 9.17725" stroke="white" stroke-width="1.6" stroke-linecap="round" stroke-linejoin="round"/>
</svg>
