<svg width="48" height="48" viewBox="0 0 48 48" fill="none" xmlns="http://www.w3.org/2000/svg">
<path d="M24 39.9999C26.2075 39.9999 27.9981 38.2093 27.9981 35.9999H20.0019C20.0019 38.2093 21.7925 39.9999 24 39.9999ZM37.4618 30.6431C36.2543 29.3456 33.995 27.3937 33.995 21C33.995 16.1437 30.59 12.2562 25.9987 11.3025V9.99999C25.9987 8.89562 25.1037 8 24 8C22.8963 8 22.0013 8.89562 22.0013 9.99999V11.3025C17.41 12.2562 14.005 16.1437 14.005 21C14.005 27.3937 11.7457 29.3456 10.5382 30.6431C10.1632 31.0462 9.99692 31.5281 10 31.9999C10.0069 33.0249 10.8113 33.9999 12.0063 33.9999H35.9937C37.1887 33.9999 37.9937 33.0249 38 31.9999C38.0031 31.5281 37.8368 31.0456 37.4618 30.6431Z" fill="white"/>
<path fill-rule="evenodd" clip-rule="evenodd" d="M27.9981 35.9999C27.9981 38.2093 26.2075 39.9999 24 39.9999C21.7925 39.9999 20.0019 38.2093 20.0019 35.9999H27.9981Z" fill="#FFBB18"/>
</svg>
