<svg width="48" height="48" viewBox="0 0 48 48" fill="none" xmlns="http://www.w3.org/2000/svg">
<path d="M13.5 18.5L20.9 17.0386L17.6966 27.5618L11 25.5232L13.5 18.5Z" fill="#FFBB18"/>
<path d="M36.9135 14.6743L32.3095 13.5693C32.1253 13.0168 31.757 12.4644 31.757 12.096C31.0203 10.2544 29.7312 9.70191 27.5212 9.33359C25.1271 8.7811 19.7864 8.96526 17.3923 9.51775C13.709 10.6227 12.9724 12.8327 11.4991 17.8051C10.9466 19.0942 10.3941 20.7517 9.65746 22.5933C9.28914 23.6983 9.4733 24.8032 10.0258 25.7241C10.3941 26.4607 11.1308 27.1974 12.0516 27.5657C11.4991 30.5123 10.21 34.748 8 37.3263L10.3941 39.5363C13.3407 36.2213 14.6299 31.0648 15.1823 28.3023L17.024 28.6707C17.5765 28.8548 18.1289 28.8548 18.6814 28.6707C19.2339 28.4865 19.6022 28.3023 20.1547 27.934C20.5231 27.5657 20.8914 27.1974 21.2597 26.6449C21.4439 26.0924 21.628 25.7241 21.8122 25.1716C22.733 18.91 22.1805 16.7001 22.1805 16.5159L18.6814 17.4367C18.6814 17.4367 19.0498 19.4625 18.3131 24.8032C18.3131 24.9874 18.3131 24.9874 18.1289 25.1716C18.1289 25.3557 17.9448 25.3557 17.9448 25.3557C17.9448 25.3557 17.7606 25.3557 17.5765 25.5399L13.3407 24.6191C13.1566 24.6191 12.9724 24.4349 12.7882 24.2508C12.7882 24.0666 12.6041 23.8824 12.7882 23.6983C13.5249 21.6725 14.0774 20.015 14.4457 18.7259C16.1032 13.7535 16.2873 13.201 18.1289 12.6485C19.9706 12.096 24.7588 12.096 26.7846 12.4644C28.442 12.8327 28.442 13.0168 28.6262 13.3852C28.9945 14.1218 29.547 15.7793 29.547 15.7793C29.7312 16.3318 30.0995 16.5159 30.652 16.7001L36.1769 17.9892C36.5452 17.9892 36.9135 18.1734 36.7294 19.0942C36.5452 19.6467 35.4402 22.0408 34.5194 24.2508L29.9153 25.3557C29.1787 25.5399 28.6262 26.2765 28.6262 27.1974L29.547 39.5363L32.8619 39.3521L31.9411 28.1182L35.9927 27.1974C36.5452 27.0132 36.9135 26.829 37.0977 26.2765C38.0185 24.2508 39.676 20.5675 39.8601 19.6467C40.4126 17.0684 39.3076 15.2268 36.9135 14.6743Z" fill="white"/>
</svg>
