<svg width="124" height="103" viewBox="0 0 124 103" fill="none" xmlns="http://www.w3.org/2000/svg">
<g clip-path="url(#clip0_103_1243)">
<path d="M69.1928 6.12475L66.1536 0.991266C65.8243 0.432174 65.1152 0.254281 64.558 0.584654L47.6904 10.5975L69.1928 6.12475Z" fill="#E6E6E6"/>
<path d="M40.7508 88.2863C40.1176 88.4134 39.5098 88.0068 39.3832 87.3714L26.1373 23.4316L0.55719 38.6288C9.31323e-10 38.9592 -0.177288 39.6707 0.151961 40.2298L36.8758 102.442C37.2051 103.001 37.9142 103.178 38.4714 102.848L74.942 81.1706L40.7508 88.2863Z" fill="#E6E6E6"/>
<path d="M66.1789 6.76028L64.5327 3.99023L56.5041 8.76793L66.1789 6.76028Z" fill="white"/>
<path d="M40.7508 88.2856C40.1176 88.4127 39.5098 88.006 39.3832 87.3707L26.7704 26.4297L3.57108 40.2291L38.5221 99.4166L66.1789 82.9742L40.7508 88.2856Z" fill="white"/>
<path d="M29.1005 37.7891L14.5376 46.4296C14.1324 46.6837 14.1577 47.4461 14.5629 48.1831C14.9935 48.8947 15.652 49.3013 16.0825 49.0471L29.7337 40.9149L29.1005 37.7891Z" fill="#E6E6E6"/>
<path d="M56.5041 21.6266C55.7949 22.0587 55.5417 22.9736 55.9722 23.7105C56.4028 24.4221 57.3145 24.6762 58.049 24.2442L63.241 21.1438C63.9502 20.7118 64.2034 19.7969 63.7729 19.0599C63.3423 18.3483 62.4306 18.0942 61.6961 18.5262L56.5041 21.6266Z" fill="#E6E6E6"/>
<path d="M61.1642 29.5046C60.4551 29.9366 60.2018 30.8515 60.6324 31.5885C61.0629 32.3 61.9747 32.5542 62.7092 32.1221L67.9011 29.0217C68.6103 28.5897 68.8636 27.6748 68.433 26.9378C68.0024 26.2263 67.0907 25.9721 66.3562 26.4042L61.1642 29.5046Z" fill="#E6E6E6"/>
<path d="M65.799 37.3571C65.0899 37.7892 64.8366 38.704 65.2672 39.441C65.6977 40.1526 66.6095 40.4067 67.3439 39.9747L72.5359 36.8743C73.2451 36.4422 73.4984 35.5274 73.0678 34.7904C72.6373 34.0788 71.7255 33.8247 70.991 34.2567L65.799 37.3571Z" fill="#E6E6E6"/>
<path d="M70.4592 45.236C69.75 45.668 69.4967 46.5829 69.9273 47.3199C70.3578 48.0315 71.2696 48.2856 72.0041 47.8536L77.1961 44.7532C77.9052 44.3211 78.1585 43.4063 77.7279 42.6693C77.2974 41.9577 76.3856 41.7036 75.6511 42.1356L70.4592 45.236Z" fill="#E6E6E6"/>
<path d="M76.6642 59.3657C75.7525 59.8994 75.4485 61.0938 75.9804 62.0087C76.5123 62.9236 77.7026 63.2285 78.6144 62.6949L85.25 58.7558C86.1618 58.2221 86.4657 57.0277 85.9338 56.1128C85.402 55.1979 84.2116 54.893 83.2998 55.4267L76.6642 59.3657Z" fill="#FFB835"/>
<path d="M25.6307 15.2223C24.9975 15.3494 24.5923 15.9593 24.719 16.5946L39.3832 87.396C39.5098 88.0314 40.1176 88.438 40.7508 88.3109L113.565 73.1138C114.199 72.9867 114.604 72.3768 114.477 71.7415L99.8129 0.940064C99.6863 0.304732 99.0784 -0.10188 98.4453 0.0251863L25.6307 15.2223Z" fill="#E6E6E6"/>
<path d="M41.8905 85.0583L111.286 70.5727L97.3309 3.22754L27.9355 17.7131L41.8905 85.0583Z" fill="white"/>
<path d="M38.2181 36.2899C37.7623 36.3916 37.509 37.1286 37.6863 37.9418C37.8636 38.755 38.3701 39.3395 38.826 39.2633L70.4845 32.6558C70.9404 32.5542 71.1936 31.8172 71.0163 31.004C70.8391 30.1907 70.3325 29.6062 69.8766 29.6825L38.2181 36.2899Z" fill="#E6E6E6"/>
<path d="M40.0923 45.3114C39.6364 45.413 39.3832 46.15 39.5605 46.9633C39.7377 47.7765 40.2443 48.361 40.7002 48.2847L72.3587 41.6773C72.8145 41.5756 73.0678 40.8387 72.8905 40.0254C72.7132 39.2122 72.2067 38.6277 71.7508 38.7039L40.0923 45.3114Z" fill="#E6E6E6"/>
<path d="M41.9918 54.4608C41.536 54.5625 41.2827 55.2995 41.46 56.1127C41.6373 56.9259 42.1438 57.5104 42.5997 57.4342L74.2582 50.8267C74.714 50.7251 74.9673 49.9881 74.79 49.1749C74.6127 48.3616 74.1062 47.7771 73.6503 47.8534L41.9918 54.4608Z" fill="#E6E6E6"/>
<path d="M85.8832 26.2776C85.0727 26.4555 84.5409 27.2433 84.7181 28.0565C84.8954 28.8697 85.6806 29.4034 86.491 29.2255L92.4175 27.9803C93.2279 27.8024 93.7598 27.0146 93.5825 26.1759C93.4052 25.3627 92.6201 24.829 91.7843 25.0069L85.8832 26.2776Z" fill="#E6E6E6"/>
<path d="M87.7574 35.2229C86.9469 35.4008 86.415 36.1886 86.5923 37.0272C86.7696 37.8404 87.5547 38.3741 88.3905 38.1962L94.317 36.951C95.1274 36.7731 95.6593 35.9853 95.482 35.1466C95.3047 34.3334 94.5196 33.7997 93.6838 33.9776L87.7574 35.2229Z" fill="#E6E6E6"/>
<path d="M89.6062 44.1936C88.7958 44.3715 88.2639 45.1593 88.4412 45.9979C88.6185 46.8111 89.4036 47.3448 90.2141 47.1669L96.1405 45.9217C96.951 45.7438 97.4829 44.956 97.3056 44.1173C97.1283 43.3041 96.3431 42.7704 95.5327 42.9483L89.6062 44.1936Z" fill="#E6E6E6"/>
<path d="M90.9232 59.5684C89.8848 59.7971 89.201 60.8136 89.4289 61.8556C89.6569 62.8975 90.6699 63.5837 91.7083 63.355L99.2557 61.7793C100.294 61.5506 100.953 60.5341 100.75 59.4921C100.522 58.4502 99.509 57.7895 98.4706 57.9928L90.9232 59.5684Z" fill="#FFB835"/>
<path d="M99.0427 52.6139L43.2484 64.25L43.3515 64.7476L99.1457 53.1115L99.0427 52.6139Z" fill="#E6E6E6"/>
<path d="M41.4853 31.8427C45.0661 31.8427 47.9689 28.9299 47.9689 25.3369C47.9689 21.7438 45.0661 18.8311 41.4853 18.8311C37.9045 18.8311 35.0016 21.7438 35.0016 25.3369C35.0016 28.9299 37.9045 31.8427 41.4853 31.8427Z" fill="#FFB835"/>
<path d="M44.2712 23.6855L42.2198 24.1429L41.7639 22.0844C41.6373 21.5508 41.1307 21.2204 40.5989 21.322C40.067 21.4237 39.7377 21.9574 39.8391 22.4911L40.2949 24.5495L38.2435 25.007C37.7116 25.134 37.3824 25.6423 37.4837 26.176C37.6103 26.7097 38.1168 27.04 38.6487 26.9384L40.7002 26.4809L41.156 28.5394C41.2827 29.0731 41.7892 29.4035 42.3211 29.3018C42.8529 29.2002 43.1822 28.6665 43.0809 28.1328L42.625 26.0743L44.6765 25.6169C45.2083 25.4898 45.5376 24.9816 45.4363 24.4479C45.335 23.9142 44.8031 23.5838 44.2712 23.6855Z" fill="white"/>
<path d="M112.375 89.3274C118.795 89.3274 124 84.105 124 77.6627C124 71.2205 118.795 65.998 112.375 65.998C105.955 65.998 100.75 71.2205 100.75 77.6627C100.75 84.105 105.955 89.3274 112.375 89.3274Z" fill="#FFB835"/>
<path d="M111.235 82.1358C110.957 82.1358 110.703 82.0341 110.526 81.8562L107.766 79.7977C107.234 79.3403 107.132 78.6287 107.487 78.0951C107.842 77.5614 108.652 77.4597 109.184 77.8155L110.982 79.1624L115.186 73.6986C115.642 73.1649 116.351 73.0632 116.883 73.419C117.415 73.8765 117.516 74.588 117.162 75.1217L112.198 81.6021C111.944 81.9579 111.59 82.1358 111.235 82.1358Z" fill="white"/>
<path d="M31.1013 47.4463L19.299 54.4604C18.8938 54.7145 18.9191 55.4769 19.3243 56.2139C19.7549 56.9254 20.4134 57.3321 20.844 57.0779L31.7598 50.5721L31.1013 47.4463Z" fill="#E6E6E6"/>
<path d="M33.0768 57.002L23.9845 62.415C23.5792 62.6691 23.6046 63.4315 24.0098 64.1685C24.4404 64.8801 25.0989 65.2867 25.5294 65.0325L33.7353 60.1532L33.0768 57.002Z" fill="#E6E6E6"/>
<path d="M35.0776 66.6592L28.7206 70.4458C28.3154 70.6999 28.3407 71.4623 28.7459 72.1993C29.1765 72.9109 29.835 73.3175 30.2655 73.0633L35.7361 69.8104L35.0776 66.6592Z" fill="#E6E6E6"/>
<path d="M37.2051 76.8242L33.0768 79.2893L33.3301 79.7213L37.3064 77.3579L37.2051 76.8242Z" fill="#E6E6E6"/>
</g>
<defs>
<clipPath id="clip0_103_1243">
<rect width="124" height="103" fill="white"/>
</clipPath>
</defs>
</svg>
