<svg width="138" height="127" viewBox="0 0 138 127" fill="none" xmlns="http://www.w3.org/2000/svg">
<g clip-path="url(#clip0_102_1214)">
<path d="M45.0628 126.731C41.4557 127.27 37.7947 127.432 34.1607 127.27C25.3582 126.812 16.7173 124.25 9.3415 119.449C6.05741 117.319 2.93482 114.676 1.23894 111.17C-1.07608 106.37 -0.268516 100.329 3.01558 96.1488C4.22693 94.6386 5.68054 93.3711 7.34951 92.4272C7.59178 92.2924 7.86097 92.1575 8.10324 92.0227C10.8759 90.6204 14.0254 90.054 17.121 90.3776C22.3971 90.944 27.2425 94.1802 30.069 98.6839C32.5724 102.702 33.4338 107.449 33.9722 112.195C34.0799 113.085 34.1607 114.002 34.2414 114.892C33.7838 117.481 33.0839 120.016 32.1417 122.47C32.0879 122.578 32.061 122.713 32.0341 122.847C32.5724 124.007 33.0839 125.194 33.5684 126.38C34.0261 126.623 34.5375 126.758 35.049 126.758L45.0628 126.731Z" fill="#F2F2F2"/>
<path d="M33.3262 126.973C33.057 127.108 32.734 126.973 32.5994 126.703C32.5455 126.595 32.5186 126.487 32.4648 126.406C32.0879 125.462 31.6841 124.519 31.2534 123.602C25.8158 111.655 17.6863 101.11 7.51103 92.8309C7.40335 92.75 7.3226 92.6152 7.34952 92.4534C7.40335 92.1567 7.69946 91.9679 7.99557 92.0219C8.04941 92.0219 8.07633 92.0488 8.10324 92.0488C8.15708 92.0758 8.184 92.1028 8.21092 92.1298C12.5718 95.6896 16.5558 99.6539 20.136 103.996C23.7162 108.338 26.8657 113.003 29.5306 117.938C30.2574 119.287 30.9573 120.662 31.6034 122.038C31.738 122.307 31.8726 122.577 31.9802 122.874C32.5186 124.033 33.0301 125.22 33.5146 126.406C33.5146 126.433 33.5415 126.46 33.5415 126.46C33.6492 126.649 33.5684 126.892 33.3531 127C33.38 126.946 33.3531 126.973 33.3262 126.973Z" fill="#83AA5D"/>
<path fill-rule="evenodd" clip-rule="evenodd" d="M124.004 103.612C123.185 103.916 122.572 103.942 122.374 103.942H122.32H118.351C118.35 103.951 118.349 103.96 118.348 103.969H122.266H122.32C122.524 103.969 123.167 103.941 124.004 103.612ZM110.663 115.673H110.61H106.538C106.538 115.673 106.538 115.673 106.538 115.673H110.583H110.637C110.645 115.673 110.654 115.673 110.663 115.673ZM103.438 124.905C103.433 124.911 103.428 124.917 103.423 124.923C101.512 127.269 99.358 127.377 98.9543 127.377H98.9004H35.0221C34.726 127.377 34.4299 127.35 34.1337 127.269C33.8646 127.215 33.5954 127.107 33.3262 126.973C33.0032 126.811 32.707 126.622 32.4648 126.379C31.7818 125.742 31.3666 124.899 31.2735 123.975C31.3666 124.899 31.7817 125.742 32.4648 126.38C32.707 126.622 33.0032 126.811 33.3262 126.973C33.5954 127.108 33.8646 127.216 34.1337 127.27C34.4299 127.35 34.726 127.377 35.0221 127.377H98.9004H98.9543C99.3581 127.377 101.512 127.27 103.423 124.923C103.428 124.917 103.433 124.911 103.438 124.905ZM31.9493 75.1829C31.9064 74.9448 31.8629 74.7057 31.8187 74.4655C30.3046 66.1931 29.5088 59.2405 29.2076 53.4083C29.5088 59.2406 30.3045 66.1933 31.8187 74.4658C31.8629 74.7059 31.9064 74.9449 31.9493 75.1829ZM41.698 24.2237H41.7965C42.8213 18.7393 44.4073 15.6516 45.6012 14.0569C46.2943 13.0955 47.4097 12.5043 48.6077 12.4929H48.5353C47.324 12.4929 46.1934 13.0592 45.4935 14.057C44.3091 15.6751 42.7209 18.7494 41.698 24.2237ZM53.3807 12.4927H53.5062C54.531 7.00834 56.117 3.92058 57.3108 2.32587C58.0107 1.35502 59.1413 0.761719 60.3527 0.761719H60.2181C59.0067 0.761719 57.8762 1.32805 57.1763 2.32587C55.9918 3.94395 54.4037 7.01828 53.3807 12.4927ZM101.727 24.2237H42.4338C43.4076 18.9165 44.9529 15.9646 46.0857 14.4075C46.6779 13.5984 47.6201 13.113 48.6161 13.113H113.49C113.787 13.113 114.083 13.1669 114.352 13.2478C115.994 13.7333 116.963 15.4592 116.478 17.1312C113.76 26.5701 108.134 51.5427 114.863 79.8054C119.843 100.841 117.528 109.363 114.702 112.787C112.823 115.04 110.815 115.027 110.644 115.026L110.637 115.026H106.591C106.973 109.733 106.337 102.171 103.773 91.3745C97.0969 63.2467 102.669 38.409 105.361 29.0241C105.926 27.0284 104.769 24.9249 102.777 24.3586C102.427 24.2507 102.077 24.2237 101.727 24.2237ZM118.401 103.295H122.347L122.354 103.295C122.525 103.296 124.533 103.309 126.411 101.056C129.238 97.6315 131.553 89.1096 126.573 68.0744C119.843 39.8117 125.469 14.8391 128.188 5.40025C128.673 3.72822 127.704 2.00226 126.061 1.51683C125.792 1.43592 125.496 1.38199 125.2 1.38199H60.3257C59.3297 1.38199 58.3876 1.86742 57.7954 2.67646C56.6626 4.23361 55.1173 7.18552 54.1435 12.4927H113.517C115.59 12.4927 117.286 14.1647 117.286 16.2683C117.286 16.6189 117.232 16.9694 117.151 17.32C114.433 26.705 108.86 51.5427 115.563 79.6705C118.122 90.4552 118.768 98.007 118.401 103.295ZM102.992 124.491C101.151 126.757 99.1309 126.732 98.938 126.73L98.9273 126.73H35.0221C33.9722 126.73 33.0032 126.217 32.4379 125.354C31.9264 124.599 31.7649 123.682 32.0072 122.819C32.0206 122.752 32.0408 122.691 32.061 122.631C32.0812 122.57 32.1014 122.509 32.1148 122.442C33.057 119.988 33.7569 117.453 34.2145 114.864C35.722 106.558 36.0181 93.7747 32.4379 74.3306C26.408 41.4564 31.738 29.6713 34.2953 26.1385C34.8875 25.3294 35.8296 24.844 36.8256 24.844H101.7C103.423 24.844 104.823 26.2463 104.823 27.9723C104.823 28.2689 104.769 28.5656 104.688 28.8353C101.969 38.2741 96.37 63.2467 103.073 91.5094C108.134 112.545 105.819 121.04 102.992 124.491Z" fill="white"/>
<path d="M86.7331 56.0742C88.6658 56.0742 90.2326 54.5046 90.2326 52.5684C90.2326 50.6321 88.6658 49.0625 86.7331 49.0625C84.8004 49.0625 83.2337 50.6321 83.2337 52.5684C83.2337 54.5046 84.8004 56.0742 86.7331 56.0742Z" fill="#FFB835"/>
<path d="M86.3832 53.916C86.3024 53.916 86.2217 53.889 86.1678 53.8351L85.3333 53.2148C85.1718 53.08 85.1449 52.8642 85.2526 52.7024C85.3603 52.5406 85.6025 52.5136 85.764 52.6215L86.3024 53.026L87.5676 51.381C87.7022 51.2192 87.9175 51.1922 88.0791 51.3001C88.2406 51.4349 88.2675 51.6507 88.1598 51.8125L86.6793 53.7542C86.5985 53.8621 86.4908 53.916 86.3832 53.916Z" fill="white"/>
<path d="M86.7331 66.3213C88.6658 66.3213 90.2326 64.7517 90.2326 62.8154C90.2326 60.8792 88.6658 59.3096 86.7331 59.3096C84.8004 59.3096 83.2337 60.8792 83.2337 62.8154C83.2337 64.7517 84.8004 66.3213 86.7331 66.3213Z" fill="#FFB835"/>
<path d="M86.3832 64.164C86.3024 64.164 86.2217 64.1371 86.1678 64.0831L85.3333 63.4629C85.1718 63.328 85.1449 63.1123 85.2526 62.9505C85.3603 62.7887 85.6025 62.7617 85.764 62.8696L86.3024 63.2741L87.5676 61.629C87.7022 61.4672 87.9175 61.4402 88.0791 61.5481C88.2406 61.683 88.2675 61.8987 88.1598 62.0605L86.6793 64.0022C86.5985 64.1101 86.4908 64.164 86.3832 64.164Z" fill="white"/>
<path d="M88.6174 78.1875C90.5501 78.1875 92.1169 76.6179 92.1169 74.6816C92.1169 72.7454 90.5501 71.1758 88.6174 71.1758C86.6847 71.1758 85.118 72.7454 85.118 74.6816C85.118 76.6179 86.6847 78.1875 88.6174 78.1875Z" fill="#FFB835"/>
<path d="M88.2675 76.0303C88.1867 76.0303 88.106 76.0033 88.0521 75.9493L87.2176 75.3291C87.0561 75.1942 87.0292 74.9785 87.1369 74.8167C87.2446 74.6549 87.4868 74.6279 87.6484 74.7358L88.1867 75.1403L89.4519 73.4952C89.5865 73.3334 89.8019 73.3065 89.9634 73.4143C90.1249 73.5492 90.1518 73.7649 90.0441 73.9267L88.5636 75.8684C88.4828 75.9763 88.3752 76.0303 88.2675 76.0303Z" fill="white"/>
<path d="M72.9507 54.8329H39.5175C38.0908 54.8329 36.9602 53.6733 36.9602 52.271C36.9602 50.8686 38.1177 49.709 39.5175 49.709H72.9507C74.3774 49.709 75.508 50.8686 75.508 52.271C75.508 53.6733 74.3505 54.8329 72.9507 54.8329Z" fill="#CCCCCC"/>
<path d="M72.9507 65.8896H39.5175C38.0908 65.8896 36.9602 64.7299 36.9602 63.3276C36.9602 61.9253 38.1177 60.7656 39.5175 60.7656H72.9507C74.3774 60.7656 75.508 61.9253 75.508 63.3276C75.508 64.7299 74.3505 65.8896 72.9507 65.8896Z" fill="#CCCCCC"/>
<path d="M75.6426 77.2167H42.2094C40.7827 77.2167 39.6521 76.0571 39.6521 74.6548C39.6521 73.2524 40.8096 72.0928 42.2094 72.0928H75.6426C77.0693 72.0928 78.1999 73.2524 78.1999 74.6548C78.1999 76.0571 77.0424 77.2167 75.6426 77.2167Z" fill="#CCCCCC"/>
<path d="M77.5269 89.0829H44.0937C42.667 89.0829 41.5364 87.9233 41.5364 86.521C41.5364 85.1186 42.6939 83.959 44.0937 83.959H77.5269C78.9536 83.959 80.0842 85.1186 80.0842 86.521C80.0842 87.9233 78.9267 89.0829 77.5269 89.0829Z" fill="#CCCCCC"/>
<path d="M77.5269 34.9033H53.5153C52.0886 34.9033 50.958 33.7436 50.958 32.3413C50.958 30.9389 52.1155 29.7793 53.5153 29.7793H77.5269C78.9536 29.7793 80.0842 30.9389 80.0842 32.3413C80.0842 33.7436 78.9536 34.9033 77.5269 34.9033Z" fill="#FFB835"/>
<path d="M90.7709 90.0264C92.7036 90.0264 94.2704 88.4567 94.2704 86.5205C94.2704 84.5843 92.7036 83.0146 90.7709 83.0146C88.8382 83.0146 87.2715 84.5843 87.2715 86.5205C87.2715 88.4567 88.8382 90.0264 90.7709 90.0264Z" fill="#CCCCCC"/>
<path d="M79.142 100.679H45.7088C44.2821 100.679 43.1516 99.519 43.1516 98.1167C43.1516 96.7143 44.3091 95.5547 45.7088 95.5547H79.142C80.5687 95.5547 81.6993 96.7143 81.6993 98.1167C81.6993 99.519 80.5418 100.679 79.142 100.679Z" fill="#CCCCCC"/>
<path d="M92.3861 101.623C94.3188 101.623 95.8855 100.053 95.8855 98.1172C95.8855 96.181 94.3188 94.6113 92.3861 94.6113C90.4534 94.6113 88.8866 96.181 88.8866 98.1172C88.8866 100.053 90.4534 101.623 92.3861 101.623Z" fill="#CCCCCC"/>
<path d="M34.1977 34.9712C39.271 34.9712 43.3837 30.8509 43.3837 25.7683C43.3837 20.6857 39.271 16.5654 34.1977 16.5654C29.1244 16.5654 25.0116 20.6857 25.0116 25.7683C25.0116 30.8509 29.1244 34.9712 34.1977 34.9712Z" fill="#FFB835"/>
<path d="M33.4159 29.4492C33.2204 29.4492 33.025 29.3752 32.8947 29.227L30.8751 27.5235C30.4842 27.1531 30.419 26.5606 30.6796 26.1162C30.9402 25.6718 31.5266 25.5977 31.9174 25.894L33.2204 27.005L36.2825 22.4869C36.6082 22.0425 37.1294 21.9684 37.5203 22.2647C37.9112 22.635 37.9763 23.2276 37.7157 23.672L34.1325 29.0048C33.9371 29.3011 33.6765 29.4492 33.4159 29.4492Z" fill="white"/>
</g>
<defs>
<clipPath id="clip0_102_1214">
<rect width="138" height="127" fill="white"/>
</clipPath>
</defs>
</svg>
