<svg width="209" height="147" viewBox="0 0 209 147" fill="none" xmlns="http://www.w3.org/2000/svg">
<path d="M82.185 92.253C82.2494 91.8158 82.217 91.3698 82.0902 90.9465C81.9633 90.5231 81.745 90.1327 81.4507 89.8027C81.1564 89.4727 80.7933 89.2112 80.3869 89.0365C79.9804 88.8619 79.5406 88.7783 79.0983 88.7918L59.7141 69.2168L55.8848 74.5634L76.143 92.1238C76.2149 92.8643 76.5563 93.5528 77.1025 94.0587C77.6487 94.5646 78.3618 94.8529 79.1065 94.8688C79.8513 94.8847 80.576 94.6273 81.1434 94.1452C81.7108 93.6631 82.0814 92.9898 82.185 92.253Z" fill="#FFB8B8"/>
<path d="M73.0029 80.9499L68.0553 85.8859C67.8184 86.1209 67.4984 86.2534 67.1644 86.2548C66.8305 86.2561 66.5094 86.1262 66.2706 85.8931L52.7511 72.6179C52.2836 72.1589 51.912 71.6118 51.6576 71.0084C51.4031 70.405 51.271 69.7572 51.2688 69.1025C51.2666 68.4478 51.3944 67.7992 51.6448 67.1941C51.8952 66.589 52.2632 66.0395 52.7276 65.5774C53.1919 65.1152 53.7434 64.7496 54.3501 64.5017C54.9568 64.2538 55.6067 64.1284 56.2622 64.1329C56.9177 64.1374 57.5658 64.2717 58.169 64.5279C58.7723 64.7842 59.3186 65.1573 59.7766 65.6258L73.0141 79.1695C73.2462 79.4085 73.375 79.729 73.3729 80.062C73.3708 80.3949 73.2379 80.7138 73.0029 80.9499Z" fill="#FFB835"/>
<path d="M55.6512 56.7216C59.4727 56.7216 62.5707 53.6274 62.5707 49.8105C62.5707 45.9936 59.4727 42.8994 55.6512 42.8994C51.8296 42.8994 48.7316 45.9936 48.7316 49.8105C48.7316 53.6274 51.8296 56.7216 55.6512 56.7216Z" fill="#FFB8B8"/>
<path d="M32.2702 132.629L34.0222 135.602L46.3372 130.267L43.7512 125.879L32.2702 132.629Z" fill="#FFB8B8"/>
<path d="M32.7952 131.299L36.2456 137.154L36.2457 137.154C36.5345 137.644 36.7238 138.186 36.8028 138.749C36.8819 139.312 36.8491 139.885 36.7064 140.435C36.5636 140.986 36.3138 141.503 35.971 141.957C35.6283 142.411 35.1993 142.793 34.7087 143.081L34.5873 143.152L28.938 133.566L32.7952 131.299Z" fill="#2F2E41"/>
<path d="M52.5707 143.339H56.0247L57.6678 130.033L52.5702 130.033L52.5707 143.339Z" fill="#FFB8B8"/>
<path d="M51.6898 142.213L58.4918 142.213H58.4921C59.0614 142.213 59.625 142.325 60.151 142.542C60.6769 142.76 61.1548 143.079 61.5573 143.481C61.9598 143.883 62.2791 144.36 62.497 144.885C62.7148 145.411 62.8269 145.974 62.8269 146.542V146.683L51.69 146.683L51.6898 142.213Z" fill="#2F2E41"/>
<path d="M38.6847 135.277C38.4859 135.277 38.2899 135.231 38.1125 135.141C37.9352 135.052 37.7814 134.922 37.6637 134.762L34.3326 130.243C34.231 130.105 34.1584 129.948 34.1192 129.781C34.0801 129.615 34.0752 129.442 34.1048 129.273C34.1344 129.105 34.1979 128.944 34.2915 128.801C34.3852 128.657 34.5069 128.534 34.6494 128.439L49.4724 118.551L40.5284 95.0625L59.6548 96.639L60.299 116.824C60.3595 118.662 59.9183 120.482 59.0228 122.089C58.1273 123.696 56.8111 125.03 55.2151 125.947L39.3181 135.107C39.1256 135.219 38.9071 135.277 38.6847 135.277Z" fill="#2F2E41"/>
<path d="M52.675 140.637C52.347 140.637 52.032 140.509 51.7962 140.282C51.5603 140.054 51.4221 139.744 51.4104 139.416L50.7095 119.753L59.3891 119.296L58.698 139.101C58.6878 139.415 58.561 139.713 58.3422 139.939C58.1235 140.164 57.8285 140.3 57.5148 140.32L52.7612 140.635C52.7324 140.637 52.7036 140.637 52.675 140.637Z" fill="#2F2E41"/>
<path d="M61.8683 100.544C59.66 100.544 51.9468 98.0633 49.269 97.179C48.8684 97.4991 46.6678 99.1426 44.099 98.8423C42.514 98.6565 41.1186 97.7605 39.9516 96.1788C37.3747 92.6857 40.5575 77.7055 43.6815 65.7539C44.3077 63.338 45.8474 61.2588 47.9767 59.9532C50.106 58.6477 52.6592 58.2175 55.0996 58.7531C56.8683 59.143 58.4931 60.0179 59.7914 61.2794C61.0897 62.5408 62.0101 64.1389 62.4492 65.894C63.0374 68.2852 62.5314 71.098 62.162 73.152C61.9883 74.1176 61.8511 74.8804 61.898 75.2552C62.0793 76.7039 63.0866 99.4238 62.4389 100.394C62.3699 100.497 62.1705 100.544 61.8683 100.544Z" fill="#FFB835"/>
<path d="M53.7897 100.584C54.1447 100.32 54.4373 99.9816 54.6471 99.5926C54.8569 99.2035 54.9788 98.7732 55.0041 98.332C55.0294 97.8908 54.9575 97.4495 54.7935 97.039C54.6295 96.6286 54.3775 96.259 54.055 95.9564L54.1918 68.4248L47.6994 69.5046L49.6065 96.2277C49.1333 96.8024 48.8878 97.5305 48.9162 98.274C48.9447 99.0174 49.2452 99.7247 49.7608 100.262C50.2765 100.799 50.9714 101.128 51.714 101.187C52.4565 101.247 53.1951 101.032 53.7897 100.584Z" fill="#FFB8B8"/>
<path d="M55.2914 86.1058H48.2983C47.9644 86.1048 47.6442 85.9727 47.407 85.7379C47.1698 85.5032 47.0346 85.1846 47.0305 84.8511L46.8589 65.9162C46.8529 65.2615 46.977 64.6121 47.2239 64.0055C47.4708 63.399 47.8357 62.8474 48.2974 62.3825C48.7592 61.9177 49.3086 61.549 49.9139 61.2976C50.5192 61.0462 51.1684 60.9172 51.824 60.918C52.4796 60.9188 53.1285 61.0494 53.7332 61.3022C54.3379 61.5551 54.8864 61.9252 55.347 62.3911C55.8076 62.8571 56.1711 63.4096 56.4166 64.0167C56.662 64.6239 56.7845 65.2736 56.7769 65.9283L56.5591 84.8542C56.5541 85.1871 56.4185 85.5048 56.1814 85.7388C55.9443 85.9729 55.6247 86.1047 55.2914 86.1058Z" fill="#FFB835"/>
<path d="M53.8893 56.6926C50.7211 56.6984 47.7323 54.1973 47.1833 51.0809C46.9867 49.8567 47.0754 48.6036 47.4423 47.4191C47.8407 46.0706 48.5239 44.8232 49.4458 43.7608C50.3678 42.6984 51.5071 41.8457 52.7869 41.2603C54.0667 40.6749 55.4573 40.3704 56.865 40.3672C58.2726 40.364 59.6646 40.6623 60.9471 41.2419C61.7946 41.625 62.6294 42.1751 63.0175 43.0196C63.4056 43.864 63.1627 45.0442 62.3137 45.4241C61.759 45.6724 61.0628 45.5505 60.5706 45.9069C59.8637 46.4189 60.0457 47.5084 60.3614 48.3215C60.677 49.1347 61.0341 50.1187 60.5049 50.8124C60.0118 51.4589 59.0262 51.4388 58.2498 51.1955C57.4735 50.9522 56.7072 50.5447 55.8977 50.6276C54.7172 50.7485 53.8688 51.9213 53.7118 53.0962C53.5547 54.2711 53.9244 55.4454 54.2894 56.5733L53.8893 56.6926Z" fill="#2F2E41"/>
<path d="M140.476 63.7463C140.476 44.847 155.815 0 174.738 0C193.66 0 209 44.847 209 63.7463C209 72.822 205.39 81.5261 198.965 87.9436C192.539 94.3611 183.825 97.9664 174.738 97.9664C165.651 97.9664 156.936 94.3611 150.511 87.9436C144.085 81.5261 140.476 72.822 140.476 63.7463Z" fill="#FFB835"/>
<path d="M174.738 147C174.663 147 174.591 146.97 174.539 146.917C174.486 146.864 174.456 146.793 174.456 146.718V28.7384C174.456 28.6638 174.486 28.5922 174.539 28.5394C174.591 28.4867 174.663 28.457 174.738 28.457C174.813 28.457 174.884 28.4867 174.937 28.5394C174.99 28.5922 175.02 28.6638 175.02 28.7384V146.718C175.02 146.793 174.99 146.864 174.937 146.917C174.884 146.97 174.813 147 174.738 147Z" fill="#3F3D56"/>
<path d="M174.738 51.5159C174.701 51.5159 174.664 51.5087 174.63 51.4945C174.596 51.4804 174.565 51.4596 174.539 51.4334L160.978 37.8892C160.925 37.8363 160.896 37.7649 160.896 37.6906C160.897 37.6163 160.926 37.5451 160.979 37.4926C161.032 37.44 161.103 37.4104 161.177 37.4102C161.252 37.4099 161.323 37.4391 161.376 37.4913L174.937 51.0355C174.976 51.0749 175.003 51.125 175.014 51.1796C175.025 51.2342 175.019 51.2908 174.998 51.3422C174.977 51.3936 174.941 51.4375 174.894 51.4684C174.848 51.4994 174.794 51.5159 174.738 51.5159V51.5159Z" fill="#3F3D56"/>
<path d="M174.738 74.9636C174.682 74.9636 174.628 74.9471 174.581 74.9161C174.535 74.8852 174.499 74.8413 174.478 74.7899C174.456 74.7385 174.451 74.6819 174.461 74.6273C174.472 74.5727 174.499 74.5226 174.539 74.4833L197.249 51.8008C197.302 51.7486 197.373 51.7195 197.448 51.7197C197.522 51.72 197.593 51.7496 197.646 51.8021C197.698 51.8546 197.728 51.9258 197.728 52.0001C197.729 52.0744 197.699 52.1458 197.647 52.1987L174.937 74.8811C174.911 74.9073 174.88 74.9281 174.846 74.9422C174.811 74.9564 174.775 74.9636 174.738 74.9636Z" fill="#3F3D56"/>
<path d="M79.9204 92.0934C84.4153 91.0785 89.5077 94.5902 89.6656 99.3046C89.71 100.631 89.3209 102.023 88.2993 102.925C87.4558 103.67 86.2008 104.046 85.1105 103.682C83.0123 102.981 82.9003 100.061 84.0258 98.5015C85.5498 96.3898 88.5689 96.0292 90.9646 96.2803C93.8935 96.5874 96.6772 97.87 99.0131 99.6281C103.689 103.148 106.667 108.542 109.077 113.753C111.545 119.1 113.339 124.731 114.419 130.518C114.555 131.245 114.679 131.974 114.792 132.705C114.824 132.812 114.897 132.902 114.995 132.956C115.093 133.009 115.209 133.022 115.316 132.992C115.422 132.958 115.511 132.885 115.565 132.788C115.618 132.69 115.632 132.576 115.604 132.469C114.617 126.153 112.795 119.997 110.185 114.161C107.661 108.513 104.48 102.654 99.4187 98.8852C96.8957 97.0062 93.9163 95.6986 90.7633 95.419C88.1089 95.1836 84.9657 95.7445 83.315 98.0502C82.0128 99.8693 82.1451 102.892 84.16 104.159C85.2678 104.856 86.6754 104.774 87.8256 104.233C88.436 103.932 88.9735 103.502 89.4009 102.973C89.8283 102.443 90.1354 101.828 90.3009 101.168C91.0163 98.5499 89.9299 95.7179 88.0673 93.8463C86.3191 92.0849 83.9434 91.0871 81.4603 91.0713C80.8623 91.0778 80.2668 91.1487 79.6841 91.2828C79.1534 91.4026 79.3906 92.213 79.9204 92.0934V92.0934Z" fill="#CCCCCC"/>
<path d="M101.598 143.942L98.8043 139.179L102.249 137.164L105.042 141.927V141.927C105.309 142.384 105.385 142.927 105.251 143.439C105.117 143.95 104.785 144.388 104.328 144.655C103.872 144.922 103.327 144.997 102.815 144.864C102.303 144.73 101.865 144.399 101.598 143.942Z" fill="#FFB835"/>
<path d="M92.3618 134.042C93.7184 134.042 94.8182 132.943 94.8182 131.588C94.8182 130.233 93.7184 129.135 92.3618 129.135C91.0052 129.135 89.9054 130.233 89.9054 131.588C89.9054 132.943 91.0052 134.042 92.3618 134.042Z" fill="#FFB835"/>
<path d="M112.405 143.942L109.612 139.179L113.056 137.164L115.849 141.927C116.116 142.383 116.191 142.927 116.057 143.438C115.923 143.949 115.592 144.386 115.135 144.653C114.679 144.92 114.135 144.995 113.623 144.862C113.111 144.729 112.673 144.398 112.405 143.942Z" fill="#FFB835"/>
<path d="M92.8285 136.53C92.8301 135.148 93.3805 133.822 94.3591 132.845C95.3377 131.868 96.6644 131.318 98.0483 131.316H114.572C115.157 131.317 115.718 131.549 116.131 131.963C116.545 132.376 116.778 132.936 116.778 133.52V135.398C116.776 137.08 116.106 138.693 114.915 139.883C113.724 141.072 112.11 141.741 110.425 141.743H98.0483C96.6644 141.742 95.3377 141.192 94.3591 140.215C93.3805 139.237 92.8301 137.912 92.8285 136.53Z" fill="#3F3D56"/>
<path d="M96.639 144.556V139.036H100.631V144.556C100.631 145.085 100.42 145.592 100.046 145.966C99.6718 146.34 99.1642 146.55 98.6348 146.55C98.1055 146.55 97.5979 146.34 97.2236 145.966C96.8493 145.592 96.639 145.085 96.639 144.556Z" fill="#3F3D56"/>
<path d="M108.222 144.556V139.036H112.213V144.556C112.214 144.818 112.162 145.078 112.062 145.32C111.962 145.562 111.815 145.782 111.63 145.967C111.444 146.153 111.224 146.3 110.982 146.4C110.739 146.5 110.48 146.552 110.217 146.552C109.955 146.552 109.695 146.5 109.453 146.4C109.211 146.3 108.991 146.153 108.805 145.967C108.62 145.782 108.473 145.562 108.373 145.32C108.273 145.078 108.221 144.818 108.222 144.556Z" fill="#3F3D56"/>
<path d="M124.462 122.716C124.87 122.21 125.463 121.887 126.11 121.817C126.757 121.747 127.405 121.936 127.912 122.343C128.419 122.75 128.744 123.342 128.816 123.987C128.887 124.633 128.699 125.281 128.292 125.789L124.255 130.81L120.424 127.737L124.462 122.716Z" fill="#FFB835"/>
<path d="M114.736 132.608L117.971 128.585C118.757 127.61 119.899 126.985 121.146 126.849C122.393 126.713 123.643 127.077 124.622 127.86L125.632 128.671C126.797 129.608 127.543 130.967 127.705 132.452C127.867 133.937 127.433 135.426 126.498 136.591L123.833 139.905C123.538 140.271 123.111 140.504 122.644 140.555C122.177 140.606 121.709 140.47 121.343 140.177L115.008 135.095C114.642 134.801 114.408 134.374 114.357 133.908C114.306 133.441 114.442 132.974 114.736 132.608Z" fill="#3F3D56"/>
<path d="M124.943 122.119C125.082 121.946 125.253 121.802 125.448 121.696C125.642 121.589 125.856 121.522 126.076 121.498C126.297 121.474 126.52 121.494 126.732 121.556C126.945 121.618 127.144 121.721 127.317 121.86C127.49 121.999 127.634 122.17 127.74 122.364C127.847 122.558 127.914 122.772 127.938 122.992C127.962 123.212 127.943 123.435 127.88 123.648C127.818 123.86 127.715 124.058 127.576 124.231L123.058 129.85L120.424 127.738L124.943 122.119Z" fill="#3F3D56"/>
<path d="M118.47 131.511L125.412 137.08C125.918 137.488 126.242 138.08 126.311 138.725C126.381 139.371 126.192 140.018 125.784 140.525C125.377 141.031 124.785 141.356 124.139 141.427C123.492 141.498 122.844 141.311 122.336 140.905L115.393 135.336L118.47 131.511Z" fill="#3F3D56"/>
<path d="M126.087 140.71C126.445 140.264 126.534 139.742 126.287 139.543C126.039 139.344 125.547 139.544 125.189 139.99C124.83 140.436 124.741 140.958 124.989 141.157C125.237 141.356 125.728 141.156 126.087 140.71Z" fill="#FFB835"/>
<path d="M194.957 146.948H0.281737C0.207018 146.948 0.135359 146.918 0.0825241 146.865C0.0296896 146.812 7.62939e-06 146.741 7.62939e-06 146.666C7.62939e-06 146.592 0.0296896 146.52 0.0825241 146.467C0.135359 146.414 0.207018 146.385 0.281737 146.385H194.957C195.032 146.385 195.103 146.414 195.156 146.467C195.209 146.52 195.239 146.592 195.239 146.666C195.239 146.741 195.209 146.812 195.156 146.865C195.103 146.918 195.032 146.948 194.957 146.948Z" fill="#CCCCCC"/>
</svg>
