<svg width="136" height="104" viewBox="0 0 136 104" fill="none" xmlns="http://www.w3.org/2000/svg">
<g clip-path="url(#clip0_103_1294)">
<path d="M13.6926 89.2664L15.5839 94.933L17.4751 102.111C17.4751 102.111 22.3924 104.755 22.7706 102.866C23.1489 100.977 20.8794 100.599 20.8794 100.599L20.1229 96.8218L25.7966 86.6221L13.6926 89.2664Z" fill="#FFB835"/>
<path d="M45.8438 87L49.2481 102.488C49.2481 102.488 51.8958 104 53.7871 103.244C55.6783 102.488 52.6523 100.6 52.6523 100.6C52.6523 100.6 53.7871 91.1554 59.4608 90.0221C65.1345 88.8888 45.8438 87 45.8438 87Z" fill="#FFB835"/>
<path d="M67.7445 68.8675C67.7445 68.8675 60.1795 71.5119 53.371 70.0008C53.371 70.0008 40.1323 68.112 38.9975 67.7342C37.8628 67.3564 25.0023 66.6009 18.1938 67.7342C18.1938 67.7342 -0.718673 53.0013 9.87231 46.5792C9.87231 46.5792 14.4113 48.8458 15.546 47.3348C15.9621 46.7681 15.773 46.0503 15.3191 45.3704C14.3357 43.8593 12.6714 42.9149 10.8558 42.8771C6.88414 42.726 -0.189124 44.1615 3.026 57.0812C3.93379 60.6322 5.63592 63.9565 7.98106 66.7898C9.72101 68.9053 11.4988 71.8519 10.6288 74.194C9.11581 78.3495 8.73756 84.7715 8.73756 84.7715L3.44207 92.7046C3.44207 92.7046 0.416075 102.527 0.416075 102.904C0.416075 103.282 4.53899 104.075 5.33332 103.282C6.08982 102.527 4.19857 101.016 4.19857 101.016C4.19857 101.016 5.71157 97.9934 8.35931 97.2379C11.0071 96.4823 18.1938 93.838 19.3285 92.7046C20.4633 91.5713 44.6712 84.7715 51.4797 91.1936C55.3001 94.8201 59.3473 98.2578 63.5837 101.393C63.5837 101.393 65.475 104.038 67.7445 104.038C70.014 104.038 70.3922 100.638 67.7445 100.26C65.0967 99.8822 61.3142 90.8158 61.3142 90.8158C61.3142 90.8158 60.1795 84.016 65.8532 82.8827C68.9927 82.2405 70.8461 82.2027 71.9052 82.2783C72.7373 82.3538 73.5695 82.0894 74.2125 81.5227C74.8934 80.8805 75.4986 80.1628 76.0281 79.3694C76.2929 78.9539 76.3685 78.4628 76.2172 78.0095C75.7255 76.6495 75.3094 75.2518 74.969 73.8163C74.5908 71.9274 71.5648 70.4164 71.5648 70.4164C71.5648 70.4164 70.8083 65.1276 69.6735 66.6387C69.0305 67.3942 68.4253 68.1498 67.7445 68.8675Z" fill="#3F3D56"/>
</g>
<g clip-path="url(#clip1_103_1294)">
<path d="M108.835 61.4393C106.598 61.4393 104.795 59.6156 104.795 57.3517C104.795 56.5971 104.981 55.9054 105.354 55.2765L111.011 45.5293L117.973 49.6797L112.316 59.427C111.633 60.6847 110.265 61.5022 108.835 61.4393Z" fill="#FFB835"/>
<path d="M131.027 39.1779C133.774 39.1779 136 36.9255 136 34.147C136 31.3686 133.774 29.1162 131.027 29.1162C128.281 29.1162 126.054 31.3686 126.054 34.147C126.054 36.9255 128.281 39.1779 131.027 39.1779Z" fill="#FFB835"/>
<path d="M86.9545 61.4393C84.7167 61.4393 82.914 59.6156 82.914 57.3517C82.914 56.5971 83.1005 55.9054 83.4735 55.2765L89.1302 45.5293L96.0923 49.6797L90.4356 59.427C89.7518 60.6847 88.3843 61.5022 86.9545 61.4393Z" fill="#FFB835"/>
<path d="M119.527 54.9621H94.4761C87.3897 54.9621 81.6087 49.1137 81.6087 41.9448V38.1088C81.6087 35.5934 83.5978 33.5811 86.0843 33.5811H119.527C125.37 33.5811 130.095 38.3603 130.095 44.2716C130.095 50.1828 125.37 54.9621 119.527 54.9621Z" fill="#3F3D56"/>
<path d="M118.346 64.7721C116.108 64.7721 114.306 62.9485 114.306 60.6846V49.3652H122.387V60.6846C122.387 62.9485 120.584 64.7721 118.346 64.7721Z" fill="#3F3D56"/>
<path d="M94.9112 64.7721C92.6734 64.7721 90.8707 62.9485 90.8707 60.6846V49.3652H98.9517V60.6846C98.9517 62.9485 97.149 64.7721 94.9112 64.7721Z" fill="#3F3D56"/>
<path d="M89.3167 18.2368H79.3708V5.03083C79.3708 2.26387 81.6087 0 84.3438 0C87.0789 0 89.3167 2.26387 89.3167 5.03083V18.2368Z" fill="#FFB835"/>
<path d="M88.5086 36.9769H72.0358C70.0466 36.9769 68.4304 35.3419 68.4304 33.3295V24.5885C68.4304 18.2371 73.5277 13.0176 79.8681 13.0176H82.5411C87.8248 13.0176 92.114 17.3567 92.114 22.7019V33.3295C92.114 35.3419 90.4978 36.914 88.5086 36.9769Z" fill="#3F3D56"/>
<path d="M89.3167 18.2368H82.4789V3.4587C82.4789 1.57213 84.033 0 85.8978 0C87.7626 0 89.3167 1.57213 89.3167 3.4587V18.2368Z" fill="#3F3D56"/>
<path d="M87.5762 36.8507H69.5493C66.8142 36.8507 64.5764 34.5868 64.5764 31.8199C64.5764 29.0529 66.8142 26.7891 69.5493 26.7891H87.5762V36.8507Z" fill="#3F3D56"/>
<path d="M65.0737 33.8319C65.726 33.8319 66.2548 32.8746 66.2548 31.6938C66.2548 30.5129 65.726 29.5557 65.0737 29.5557C64.4214 29.5557 63.8926 30.5129 63.8926 31.6938C63.8926 32.8746 64.4214 33.8319 65.0737 33.8319Z" fill="#FFB835"/>
</g>
<defs>
<clipPath id="clip0_103_1294">
<rect width="76.6711" height="61.1228" fill="white" transform="translate(0 42.877)"/>
</clipPath>
<clipPath id="clip1_103_1294">
<rect width="72.1074" height="64.7719" fill="white" transform="translate(63.8926)"/>
</clipPath>
</defs>
</svg>
