<svg width="108" height="76" viewBox="0 0 108 76" fill="none" xmlns="http://www.w3.org/2000/svg">
<g clip-path="url(#clip0_100_1157)">
<path d="M108.173 7.95801H0V75.5987H108.173V7.95801Z" fill="#E6E6E6"/>
<path d="M27.0657 20.9883H7.25385V33.9196H27.0657V20.9883Z" fill="white"/>
<path d="M51.6834 20.9883H31.8716V33.9196H51.6834V20.9883Z" fill="white"/>
<path d="M76.3012 20.9883H56.4893V33.9196H76.3012V20.9883Z" fill="white"/>
<path d="M100.919 20.9883H81.1071V33.9196H100.919V20.9883Z" fill="white"/>
<path d="M27.0657 39.291H7.25385V52.2223H27.0657V39.291Z" fill="white"/>
<path d="M51.6834 39.291H31.8716V52.2223H51.6834V39.291Z" fill="white"/>
<path d="M76.3012 39.291H56.4893V52.2223H76.3012V39.291Z" fill="white"/>
<path d="M100.919 39.291H81.1071V52.2223H100.919V39.291Z" fill="white"/>
<path d="M27.0657 57.5938H7.25385V70.525H27.0657V57.5938Z" fill="white"/>
<path d="M51.6834 57.5938H31.8716V70.525H51.6834V57.5938Z" fill="white"/>
<path d="M76.3012 57.5938H56.4893V70.525H76.3012V57.5938Z" fill="white"/>
<path d="M100.919 57.5938H81.1071V70.525H100.919V57.5938Z" fill="white"/>
<path d="M28.331 15.9156C29.9722 15.9156 31.3027 14.5795 31.3027 12.9314C31.3027 11.2833 29.9722 9.94727 28.331 9.94727C26.6897 9.94727 25.3592 11.2833 25.3592 12.9314C25.3592 14.5795 26.6897 15.9156 28.331 15.9156Z" fill="white"/>
<path d="M77.4644 15.9155C79.1057 15.9155 80.4362 14.5795 80.4362 12.9314C80.4362 11.2833 79.1057 9.94727 77.4644 9.94727C75.8231 9.94727 74.4926 11.2833 74.4926 12.9314C74.4926 14.5795 75.8231 15.9155 77.4644 15.9155Z" fill="white"/>
<path d="M29.5197 0H27.1422V13.7271H29.5197V0Z" fill="#E6E6E6"/>
<path d="M78.6531 0H76.2756V13.7271H78.6531V0Z" fill="#E6E6E6"/>
<path d="M95.4931 27.4543C95.4921 28.5347 95.1029 29.5784 94.3969 30.3937C93.691 31.2089 92.7158 31.741 91.6505 31.8921C90.5852 32.0432 89.5013 31.8033 88.5981 31.2162C87.6949 30.6292 87.033 29.7346 86.734 28.6968C86.435 27.659 86.519 26.5477 86.9705 25.5671C87.4221 24.5865 88.2109 23.8025 89.192 23.3591C90.1731 22.9157 91.2806 22.8427 92.311 23.1536C93.3414 23.4644 94.2254 24.1382 94.8008 25.0511C95.2538 25.77 95.494 26.6035 95.4931 27.4543Z" fill="#FFB835"/>
<path d="M94.8008 25.0508L90.3907 29.4784C90.1135 29.0475 88.5693 27.045 88.5693 27.045C88.7672 26.8441 88.9784 26.6569 89.2014 26.4847L90.4819 28.1991L94.2844 24.3809C94.4772 24.5873 94.6501 24.8116 94.8008 25.0508Z" fill="white"/>
<path d="M46.2577 45.757C46.2567 46.8374 45.8674 47.8811 45.1615 48.6964C44.4555 49.5117 43.4803 50.0437 42.415 50.1949C41.3497 50.346 40.2659 50.106 39.3627 49.519C38.4594 48.932 37.7975 48.0374 37.4985 46.9996C37.1995 45.9618 37.2835 44.8505 37.7351 43.8699C38.1866 42.8893 38.9754 42.1052 39.9565 41.6618C40.9376 41.2184 42.0451 41.1455 43.0755 41.4563C44.1059 41.7671 44.99 42.4409 45.5653 43.3538C46.0184 44.0728 46.2585 44.9063 46.2577 45.757Z" fill="#FFB835"/>
<path d="M45.5653 43.3535L41.1552 47.7812C40.878 47.3503 39.3338 45.3477 39.3338 45.3477C39.5317 45.1469 39.7429 44.9597 39.9659 44.7874L41.2464 46.5019L45.0489 42.6836C45.2417 42.89 45.4146 43.1143 45.5653 43.3535Z" fill="white"/>
<path d="M21.64 45.7571C21.6389 46.8374 21.2497 47.8811 20.5437 48.6964C19.8378 49.5117 18.8626 50.0438 17.7973 50.1949C16.732 50.346 15.6481 50.106 14.7449 49.519C13.8417 48.932 13.1798 48.0374 12.8807 46.9996C12.5817 45.9618 12.6657 44.8505 13.1173 43.8699C13.5689 42.8893 14.3577 42.1052 15.3388 41.6618C16.3199 41.2184 17.4274 41.1455 18.4578 41.4563C19.4882 41.7671 20.3722 42.4409 20.9476 43.3539C21.4006 44.0728 21.6408 44.9063 21.64 45.7571Z" fill="#FFB835"/>
<path d="M20.9476 43.3535L16.5374 47.7812C16.2603 47.3503 14.716 45.3477 14.716 45.3477C14.9139 45.1469 15.1251 44.9597 15.3481 44.7874L16.6287 46.5019L20.4311 42.6836C20.624 42.89 20.7969 43.1143 20.9476 43.3535Z" fill="white"/>
</g>
<defs>
<clipPath id="clip0_100_1157">
<rect width="108" height="76" fill="white"/>
</clipPath>
</defs>
</svg>
