<svg width="76" height="76" viewBox="0 0 76 76" fill="none" xmlns="http://www.w3.org/2000/svg">
<rect x="24.1819" y="28.5" width="26.7727" height="40.5909" fill="#FFB835"/>
<path d="M47.5 14.25H28.5L21.4641 3.69312C20.4102 2.11375 21.5383 0 23.4383 0H52.5617C54.4617 0 55.5898 2.11375 54.5359 3.69312L47.5 14.25ZM28.5 19H47.5C48.0641 19.3711 48.7023 19.7867 49.2961 20.2469C57.8461 25.6352 76 37.243 76 61.75C76 69.6172 69.6172 76 61.75 76H14.25C6.37984 76 0 69.6172 0 61.75C0 37.243 18.1539 25.6352 26.5703 20.2469C27.2977 19.7867 27.9359 19.3711 28.5 19ZM40.9836 33.25C40.9836 31.6023 39.6477 30.2664 37.8664 30.2664C36.3523 30.2664 35.0164 31.6023 35.0164 33.25V34.1406C34.1852 34.3188 33.2648 34.5711 32.6562 34.8977C30.4445 35.907 28.5148 37.7773 28.0398 40.4937C27.7727 42.0078 27.9211 43.4773 28.5445 44.7984C29.168 46.1047 30.1328 47.025 31.1125 47.693C32.8344 48.8656 35.1055 49.5484 36.8422 50.068L37.1687 50.157C39.2469 50.7953 40.6422 51.2555 41.518 51.8938C41.8891 52.1609 42.0227 52.3688 42.0672 52.5023C42.1266 52.6211 42.2156 52.8883 42.1117 53.482C42.0227 54.0016 41.7406 54.4469 40.9242 54.7883C40.0188 55.1742 38.5492 55.3672 36.6492 55.0703C35.7586 54.9219 34.1703 54.3875 32.7602 53.9125C32.4336 53.7938 32.107 53.6898 31.8102 53.5859C30.2516 53.0664 28.5742 53.9125 28.0547 55.4711C27.5352 57.0297 28.3812 58.707 29.9398 59.093C30.118 59.2859 30.3406 59.3602 30.593 59.4492C31.632 59.85 33.6062 60.4734 35.0164 60.8V61.75C35.0164 63.3977 36.3523 64.7336 37.8664 64.7336C39.6477 64.7336 40.9836 63.3977 40.9836 61.75V60.9336C41.7703 60.7852 42.5422 60.4289 43.2547 60.2508C45.6 59.2562 47.4703 57.3266 47.9602 54.5063C48.2273 52.9625 48.1086 51.4781 47.5148 50.1273C46.9359 48.7914 46.0008 47.8117 45.0063 47.0992C43.2102 45.7781 40.8055 45.0656 39.0094 44.5164L38.757 44.4867C36.7828 43.8484 35.3578 43.4031 34.4523 42.7797C34.0664 42.5125 33.9477 42.3344 33.918 42.2602C33.8883 42.2008 33.7992 42.0227 33.8883 41.518C33.9477 41.2211 34.1703 40.7313 35.1055 40.3156C35.9367 39.8852 37.5398 39.6477 39.3508 39.7961C40.0039 40.0336 42.0078 40.4195 42.5867 40.568C44.1602 40.9984 45.793 40.0484 46.2086 38.4602C46.6391 36.8867 45.6891 35.2539 44.1008 34.8383C43.4477 34.6602 41.9633 34.3633 40.9836 34.1852V33.25Z" fill="white"/>
</svg>
