<svg width="124" height="103" viewBox="0 0 124 103" fill="none" xmlns="http://www.w3.org/2000/svg">
<g clip-path="url(#clip0_410_65)">
<path d="M69.1928 6.12475L66.1536 0.991266C65.8243 0.432174 65.1152 0.254281 64.558 0.584654L47.6904 10.5975L69.1928 6.12475Z" fill="#E6E6E6"/>
<path d="M40.7508 88.2863C40.1176 88.4134 39.5098 88.0068 39.3832 87.3714L26.1373 23.4316L0.55719 38.6288C1.19209e-07 38.9592 -0.177288 39.6707 0.151961 40.2298L36.8758 102.442C37.2051 103.001 37.9142 103.178 38.4714 102.848L74.942 81.1706L40.7508 88.2863Z" fill="#E6E6E6"/>
<path d="M66.179 6.76028L64.5327 3.99023L56.5042 8.76793L66.179 6.76028Z" fill="white"/>
<path d="M40.7508 88.2856C40.1176 88.4127 39.5098 88.006 39.3832 87.3707L26.7704 26.4297L3.57104 40.2291L38.5221 99.4166L66.1789 82.9742L40.7508 88.2856Z" fill="white"/>
<path d="M29.1005 37.7891L14.5376 46.4296C14.1324 46.6837 14.1577 47.4461 14.5629 48.1831C14.9935 48.8947 15.652 49.3013 16.0825 49.0471L29.7337 40.9149L29.1005 37.7891Z" fill="#E6E6E6"/>
<path d="M56.5042 21.6266C55.795 22.0587 55.5418 22.9736 55.9723 23.7105C56.4029 24.4221 57.3146 24.6762 58.0491 24.2442L63.2411 21.1438C63.9503 20.7118 64.2035 19.7969 63.773 19.0599C63.3424 18.3483 62.4307 18.0942 61.6962 18.5262L56.5042 21.6266Z" fill="#E6E6E6"/>
<path d="M61.1643 29.5046C60.4552 29.9366 60.2019 30.8515 60.6325 31.5885C61.063 32.3 61.9748 32.5542 62.7093 32.1221L67.9012 29.0217C68.6104 28.5897 68.8637 27.6748 68.4331 26.9378C68.0025 26.2263 67.0908 25.9721 66.3563 26.4042L61.1643 29.5046Z" fill="#E6E6E6"/>
<path d="M65.799 37.3571C65.0899 37.7892 64.8366 38.704 65.2672 39.441C65.6977 40.1526 66.6095 40.4067 67.3439 39.9747L72.5359 36.8743C73.2451 36.4422 73.4984 35.5274 73.0678 34.7904C72.6373 34.0788 71.7255 33.8247 70.991 34.2567L65.799 37.3571Z" fill="#E6E6E6"/>
<path d="M70.4593 45.236C69.7501 45.668 69.4968 46.5829 69.9274 47.3199C70.3579 48.0315 71.2697 48.2856 72.0042 47.8536L77.1962 44.7532C77.9053 44.3211 78.1586 43.4063 77.728 42.6693C77.2975 41.9577 76.3857 41.7036 75.6512 42.1356L70.4593 45.236Z" fill="#E6E6E6"/>
<path d="M76.6643 59.3657C75.7526 59.8994 75.4486 61.0938 75.9805 62.0087C76.5124 62.9236 77.7027 63.2285 78.6145 62.6949L85.2501 58.7558C86.1619 58.2221 86.4658 57.0277 85.9339 56.1128C85.4021 55.1979 84.2117 54.893 83.2999 55.4267L76.6643 59.3657Z" fill="#FFB835"/>
<path d="M25.6307 15.2223C24.9975 15.3494 24.5923 15.9593 24.719 16.5946L39.3832 87.396C39.5098 88.0314 40.1176 88.438 40.7508 88.3109L113.565 73.1138C114.199 72.9867 114.604 72.3768 114.477 71.7415L99.8129 0.940064C99.6863 0.304732 99.0784 -0.10188 98.4453 0.0251863L25.6307 15.2223Z" fill="#E6E6E6"/>
<path d="M41.8905 85.0583L111.286 70.5727L97.3309 3.22754L27.9355 17.7131L41.8905 85.0583Z" fill="white"/>
<path d="M38.2181 36.2899C37.7623 36.3916 37.509 37.1286 37.6863 37.9418C37.8636 38.755 38.3701 39.3395 38.826 39.2633L70.4845 32.6558C70.9404 32.5542 71.1936 31.8172 71.0163 31.004C70.8391 30.1907 70.3325 29.6062 69.8766 29.6825L38.2181 36.2899Z" fill="#E6E6E6"/>
<path d="M40.0924 45.3114C39.6365 45.413 39.3833 46.15 39.5606 46.9633C39.7378 47.7765 40.2444 48.361 40.7003 48.2847L72.3588 41.6773C72.8146 41.5756 73.0679 40.8387 72.8906 40.0254C72.7133 39.2122 72.2068 38.6277 71.7509 38.7039L40.0924 45.3114Z" fill="#E6E6E6"/>
<path d="M41.9918 54.4608C41.536 54.5625 41.2827 55.2995 41.46 56.1127C41.6373 56.9259 42.1438 57.5104 42.5997 57.4342L74.2582 50.8267C74.714 50.7251 74.9673 49.9881 74.79 49.1749C74.6127 48.3616 74.1062 47.7771 73.6503 47.8534L41.9918 54.4608Z" fill="#E6E6E6"/>
<path d="M85.8833 26.2776C85.0728 26.4555 84.541 27.2433 84.7182 28.0565C84.8955 28.8697 85.6807 29.4034 86.4911 29.2255L92.4176 27.9803C93.228 27.8024 93.7599 27.0146 93.5826 26.1759C93.4053 25.3627 92.6202 24.829 91.7844 25.0069L85.8833 26.2776Z" fill="#E6E6E6"/>
<path d="M87.7573 35.2229C86.9468 35.4008 86.4149 36.1886 86.5922 37.0272C86.7695 37.8404 87.5546 38.3741 88.3904 38.1962L94.3169 36.951C95.1273 36.7731 95.6592 35.9853 95.4819 35.1466C95.3046 34.3334 94.5195 33.7997 93.6837 33.9776L87.7573 35.2229Z" fill="#E6E6E6"/>
<path d="M89.6061 44.1936C88.7957 44.3715 88.2638 45.1593 88.4411 45.9979C88.6184 46.8111 89.4035 47.3448 90.214 47.1669L96.1404 45.9217C96.9509 45.7438 97.4828 44.956 97.3055 44.1173C97.1282 43.3041 96.343 42.7704 95.5326 42.9483L89.6061 44.1936Z" fill="#E6E6E6"/>
<path d="M90.9232 59.5684C89.8848 59.7971 89.201 60.8136 89.4289 61.8556C89.6569 62.8975 90.6699 63.5837 91.7083 63.355L99.2557 61.7793C100.294 61.5506 100.953 60.5341 100.75 59.4921C100.522 58.4502 99.509 57.7895 98.4706 57.9928L90.9232 59.5684Z" fill="#FFB835"/>
<path d="M99.0426 52.6138L43.2483 64.2499L43.3514 64.7475L99.1456 53.1114L99.0426 52.6138Z" fill="#E6E6E6"/>
<path d="M41.4854 31.8427C45.0662 31.8427 47.969 28.9299 47.969 25.3369C47.969 21.7438 45.0662 18.8311 41.4854 18.8311C37.9046 18.8311 35.0017 21.7438 35.0017 25.3369C35.0017 28.9299 37.9046 31.8427 41.4854 31.8427Z" fill="#FFB835"/>
<path d="M44.2711 23.6855L42.2197 24.1429L41.7638 22.0844C41.6372 21.5508 41.1306 21.2204 40.5988 21.322C40.0669 21.4237 39.7376 21.9574 39.839 22.4911L40.2948 24.5495L38.2434 25.007C37.7115 25.134 37.3823 25.6423 37.4836 26.176C37.6102 26.7097 38.1167 27.04 38.6486 26.9384L40.7001 26.4809L41.1559 28.5394C41.2826 29.0731 41.7891 29.4035 42.321 29.3018C42.8528 29.2002 43.1821 28.6665 43.0808 28.1328L42.6249 26.0743L44.6764 25.6169C45.2082 25.4898 45.5375 24.9816 45.4362 24.4479C45.3349 23.9142 44.803 23.5838 44.2711 23.6855Z" fill="white"/>
<path d="M31.1014 47.4463L19.2991 54.4604C18.8939 54.7145 18.9192 55.4769 19.3244 56.2139C19.755 56.9254 20.4135 57.3321 20.8441 57.0779L31.7599 50.5721L31.1014 47.4463Z" fill="#E6E6E6"/>
<path d="M33.0768 57.002L23.9845 62.415C23.5792 62.6691 23.6046 63.4315 24.0098 64.1685C24.4404 64.8801 25.0989 65.2867 25.5294 65.0325L33.7353 60.1532L33.0768 57.002Z" fill="#E6E6E6"/>
<path d="M35.0775 66.6592L28.7205 70.4458C28.3153 70.6999 28.3406 71.4623 28.7458 72.1993C29.1764 72.9109 29.8349 73.3175 30.2654 73.0633L35.736 69.8104L35.0775 66.6592Z" fill="#E6E6E6"/>
<path d="M37.2052 76.8242L33.0769 79.2893L33.3302 79.7213L37.3065 77.3579L37.2052 76.8242Z" fill="#E6E6E6"/>
<mask id="mask0_410_65" style="mask-type:alpha" maskUnits="userSpaceOnUse" x="98" y="60" width="24" height="25">
<circle cx="110" cy="72.3706" r="12" fill="#D9D9D9"/>
</mask>
<g mask="url(#mask0_410_65)">
<circle cx="110" cy="74" r="10" fill="white"/>
<path d="M105.864 58.2041L113.77 49.3024C115.329 47.715 114.225 45 112.02 45H74.4796C72.2749 45 71.171 47.715 72.7296 49.3024L86.9999 65.3704V77.7772C86.9999 78.779 87.4632 79.7219 88.2499 80.3235L94.4991 85.0978C96.1288 86.3423 98.2858 85.6524 99.1257 84.018C96.2811 81.2354 94.4999 77.334 94.4999 73.0093C94.4999 65.8645 99.3475 59.8664 105.864 58.2041ZM109.5 60.2778C102.596 60.2778 96.9999 65.9775 96.9999 73.0093C96.9999 80.041 102.596 85.7407 109.5 85.7407C116.404 85.7407 122 80.041 122 73.0093C122 65.9775 116.404 60.2778 109.5 60.2778ZM110.75 79.3655V80.6481C110.75 80.9999 110.47 81.2847 110.125 81.2847H108.875C108.53 81.2847 108.25 80.9999 108.25 80.6481V79.3519C107.368 79.3058 106.51 78.9923 105.799 78.4488C105.494 78.2156 105.479 77.7509 105.755 77.4828L106.673 76.5908C106.889 76.3807 107.211 76.3712 107.464 76.5327C107.766 76.7253 108.109 76.8287 108.466 76.8287H110.662C111.169 76.8287 111.583 76.3576 111.583 75.7792C111.583 75.3057 111.301 74.8887 110.898 74.7662L107.383 73.692C105.93 73.248 104.916 71.8284 104.916 70.2394C104.916 68.2883 106.404 66.7032 108.249 66.6531V65.3704C108.249 65.0187 108.529 64.7338 108.874 64.7338H110.124C110.469 64.7338 110.749 65.0187 110.749 65.3704V66.6666C111.631 66.7127 112.489 67.0255 113.2 67.5697C113.505 67.8029 113.52 68.2676 113.244 68.5357L112.326 69.4277C112.11 69.6378 111.788 69.6474 111.535 69.4858C111.233 69.2925 110.89 69.1898 110.533 69.1898H108.337C107.83 69.1898 107.416 69.6609 107.416 70.2394C107.416 70.7128 107.698 71.1298 108.101 71.2523L111.616 72.3265C113.069 72.7705 114.083 74.1901 114.083 75.7792C114.083 77.7311 112.596 79.3153 110.75 79.3655Z" fill="#FFB835"/>
</g>
</g>
<defs>
<clipPath id="clip0_410_65">
<rect width="124" height="103" fill="white"/>
</clipPath>
</defs>
</svg>
