<svg width="21" height="21" viewBox="0 0 21 21" fill="none" xmlns="http://www.w3.org/2000/svg">
<path d="M20.8496 10.5004C20.8496 4.78436 16.2156 0.15039 10.4996 0.15039C4.78358 0.15039 0.149608 4.78436 0.149608 10.5004C0.149608 16.2164 4.78358 20.8504 10.4996 20.8504C16.2156 20.8504 20.8496 16.2164 20.8496 10.5004ZM1.87462 10.5004C1.87462 5.73705 5.73626 1.8754 10.4996 1.8754C15.263 1.8754 19.1246 5.73705 19.1246 10.5004C19.1246 15.2637 15.263 19.1254 10.4996 19.1254C5.73626 19.1254 1.87462 15.2637 1.87462 10.5004Z" fill="#107A47"/>
<path d="M15.4212 9.38449C15.758 9.04767 15.758 8.50154 15.4212 8.16472C15.0844 7.8279 14.5383 7.8279 14.2014 8.16472L10.4988 11.8674L6.79619 8.16472C6.45937 7.8279 5.91324 7.8279 5.57642 8.16472C5.2396 8.50154 5.2396 9.04767 5.57642 9.38449L9.88894 13.697C10.2258 14.0338 10.7719 14.0338 11.1087 13.697L15.4212 9.38449Z" fill="#107A47"/>
</svg>
