<svg width="150" height="136" viewBox="0 0 150 136" fill="none" xmlns="http://www.w3.org/2000/svg">
<path d="M126.965 112.589C124.276 115.406 121.733 117.222 119.721 118.657C96.092 135.527 68.1321 130.611 62.19 129.41C53.4151 127.637 36.4531 124.209 24.1897 109.858C5.63666 88.1471 8.52634 53.9434 22.9163 31.3647C25.5484 27.2332 39.4533 4.31166 67.715 0.635175C84.8177 -1.58936 104.755 2.89762 119.194 14.9335C149.5 40.1996 147.343 91.2406 126.965 112.589V112.589Z" fill="#F5F2B1" fill-opacity="0.7"/>
<path d="M101.629 0.364258H100.996C100.686 0.364258 100.293 0.514351 100.293 0.92513V8.76629C100.293 9.17865 100.686 9.52623 100.996 9.52623H101.629C101.939 9.52623 101.871 9.17707 101.871 8.76629V0.92513C101.871 0.512771 101.939 0.364258 101.629 0.364258V0.364258Z" fill="#ADD3AA"/>
<path d="M110.995 0.364258H110.361C110.051 0.364258 109.456 0.514351 109.456 0.92513V8.76629C109.456 9.17865 110.051 9.52623 110.361 9.52623H110.995C111.304 9.52623 111.35 9.17707 111.35 8.76629V0.92513C111.35 0.512771 111.304 0.364258 110.995 0.364258V0.364258Z" fill="#ADD3AA"/>
<path d="M113.089 3.9156C113.089 4.32006 112.836 4.62973 112.406 4.62973H98.9328C98.5015 4.62973 98.0797 4.32006 98.0797 3.9156V3.77341C98.0797 3.36895 98.5015 3.0498 98.9328 3.0498H112.406C112.838 3.0498 113.089 3.36895 113.089 3.77341V3.9156Z" fill="#ADD3AA"/>
<path d="M112.642 7.63244H100.715C99.4826 7.63244 98.0797 8.99275 98.0797 10.6264V109.537H114.092C114.523 109.537 114.511 109.065 114.511 108.493V10.6248C114.511 8.99117 113.874 7.63086 112.642 7.63086V7.63244Z" fill="#ADD3AA"/>
<path d="M105.663 20.9043H19.8732V26.118H105.663V20.9043Z" fill="#ADD3AA"/>
<path d="M105.663 74.3057H19.8732V79.8354H105.663V74.3057Z" fill="#ADD3AA"/>
<path d="M107.085 89.3154H19.8732V94.8452H107.085V89.3154Z" fill="#ADD3AA"/>
<path d="M114.511 110.328H13.3959C12.6976 110.328 12.132 109.762 12.132 109.064V104.798H114.511V110.328Z" fill="#ADD3AA"/>
<path d="M105.663 48.8691H19.8732V54.0829H105.663V48.8691Z" fill="#ADD3AA"/>
<path d="M104.557 65.1426H20.9792V66.7225H104.557V65.1426Z" fill="#ADD3AA"/>
<path d="M26.5933 7.63281H14.668C13.4357 7.63281 12.1339 8.98523 12.1339 10.6062V107.792C12.1339 108.359 12.7864 108.906 13.2177 108.906H28.565V10.6062C28.565 8.98523 27.8272 7.63281 26.5949 7.63281H26.5933Z" fill="#ADD3AA"/>
<path d="M15.582 0.364258H14.9484C14.6388 0.364258 14.3449 0.514351 14.3449 0.92513V8.76629C14.3449 9.17865 14.6388 9.52623 14.9484 9.52623H15.582C15.8917 9.52623 15.7668 9.17707 15.7668 8.76629V0.92513C15.7668 0.512771 15.8917 0.364258 15.582 0.364258V0.364258Z" fill="#ADD3AA"/>
<path d="M24.9474 0.364258H24.3138C24.0042 0.364258 23.5081 0.514351 23.5081 0.92513V8.76629C23.5081 9.17865 24.0042 9.52623 24.3138 9.52623H24.9474C25.257 9.52623 25.088 9.17707 25.088 8.76629V0.92513C25.088 0.512771 25.257 0.364258 24.9474 0.364258V0.364258Z" fill="#ADD3AA"/>
<path d="M27.1421 3.9156C27.1421 4.32006 26.8183 4.62973 26.3869 4.62973H12.9134C12.482 4.62973 12.1329 4.32006 12.1329 3.9156V3.77341C12.1329 3.36895 12.482 3.0498 12.9134 3.0498H26.3869C26.8183 3.0498 27.1421 3.36895 27.1421 3.77341V3.9156Z" fill="#ADD3AA"/>
<path d="M69.1288 15.2178H57.202C55.9697 15.2178 54.6315 16.4391 54.6315 17.9653V109.448C54.6315 109.982 55.3203 110.486 55.7516 110.486H71.2207V17.9653C71.2207 16.4391 70.3612 15.2178 69.1288 15.2178V15.2178Z" fill="#ADD3AA"/>
<path d="M58.1167 7.63537H57.4831C57.1734 7.63537 56.3693 8.01929 56.3693 8.43165V16.2728C56.3693 16.6852 57.1734 16.9569 57.4831 16.9569H58.1167C58.4263 16.9569 58.4232 16.6852 58.4232 16.2728V8.43007C58.4232 8.01771 58.4263 7.63379 58.1167 7.63379V7.63537Z" fill="#ADD3AA"/>
<path d="M67.4824 7.63537H66.8488C66.5391 7.63537 66.0067 8.01929 66.0067 8.43165V16.2728C66.0067 16.6852 66.5391 16.9569 66.8488 16.9569H67.4824C67.792 16.9569 67.5866 16.6852 67.5866 16.2728V8.43007C67.5866 8.01771 67.792 7.63379 67.4824 7.63379V7.63537Z" fill="#ADD3AA"/>
<path d="M69.6407 11.4138C69.6407 11.8183 69.2552 12.2164 68.8239 12.2164H55.3503C54.919 12.2164 54.6315 11.8183 54.6315 11.4138V11.2716C54.6315 10.8672 54.9206 10.4785 55.3503 10.4785H68.8239C69.2552 10.4785 69.6407 10.8672 69.6407 11.2716V11.4138Z" fill="#ADD3AA"/>
<path d="M137.103 38.917H100.923V43.4988H137.103V38.917Z" fill="#ADD3AA"/>
<path d="M100.923 84.8926V89.6323H140.781C141.585 89.6323 142.001 88.9814 142.001 88.1772V84.8926H100.923Z" fill="#ADD3AA"/>
<path d="M99.6591 98.6377V103.377H139.723C140.527 103.377 140.895 102.727 140.895 101.922V98.6377H99.6591Z" fill="#ADD3AA"/>
<path d="M137.103 63.0898H100.923V67.5136H137.103V63.0898Z" fill="#ADD3AA"/>
<path d="M136.945 76.9922H101.081V78.7301H136.945V76.9922Z" fill="#ADD3AA"/>
<path d="M136.945 52.3467H101.081V53.9266H136.945V52.3467Z" fill="#ADD3AA"/>
<path d="M106.228 27.3834H96.6127C95.619 27.3834 94.4467 28.9254 94.4467 30.3821V117.603C94.4467 118.112 95.096 118.543 95.4436 118.543H108.034V30.3805C108.034 28.9254 107.223 27.3818 106.23 27.3818L106.228 27.3834Z" fill="#ADD3AA"/>
<path d="M97.3485 21.3818H96.8366C96.587 21.3818 96.1825 21.4893 96.1825 21.8432V28.5847C96.1825 28.9386 96.587 29.1235 96.8366 29.1235H97.3485C97.5981 29.1235 97.4464 28.9386 97.4464 28.5847V21.8432C97.4464 21.4893 97.5981 21.3818 97.3485 21.3818V21.3818Z" fill="#ADD3AA"/>
<path d="M104.901 21.3818H104.389C104.139 21.3818 103.766 21.4893 103.766 21.8432V28.5847C103.766 28.9386 104.139 29.1235 104.389 29.1235H104.901C105.15 29.1235 105.19 28.9386 105.19 28.5847V21.8432C105.19 21.4893 105.152 21.3818 104.901 21.3818V21.3818Z" fill="#ADD3AA"/>
<path d="M105.981 23.751H95.0735C94.7263 23.751 94.4447 24.0325 94.4447 24.3798V24.5441C94.4447 24.8914 94.7263 25.1729 95.0735 25.1729H105.981C106.329 25.1729 106.61 24.8914 106.61 24.5441V24.3798C106.61 24.0325 106.329 23.751 105.981 23.751Z" fill="#ADD3AA"/>
<path d="M140.524 33.8613H130.908C129.915 33.8613 128.889 35.2501 128.889 36.5756V116.017C128.889 116.48 129.392 117.123 129.739 117.123H142.003V36.5756C142.003 35.2501 141.519 33.8613 140.525 33.8613H140.524Z" fill="#ADD3AA"/>
<path d="M131.645 27.3838H131.133C130.883 27.3838 130.468 27.9368 130.468 28.2907V35.0322C130.468 35.3861 130.883 35.7574 131.133 35.7574H131.645C131.894 35.7574 131.889 35.3861 131.889 35.0322V28.2907C131.889 27.9368 131.894 27.3838 131.645 27.3838Z" fill="#ADD3AA"/>
<path d="M139.196 27.3838H138.684C138.435 27.3838 137.893 27.9368 137.893 28.2907V35.0322C137.893 35.3861 138.435 35.7574 138.684 35.7574H139.196C139.446 35.7574 139.316 35.3861 139.316 35.0322V28.2907C139.316 27.9368 139.448 27.3838 139.196 27.3838Z" fill="#ADD3AA"/>
<path d="M140.424 30.2266H129.516C129.169 30.2266 128.887 30.5081 128.887 30.8554V31.0197C128.887 31.367 129.169 31.6485 129.516 31.6485H140.424C140.771 31.6485 141.053 31.367 141.053 31.0197V30.8554C141.053 30.5081 140.771 30.2266 140.424 30.2266Z" fill="#ADD3AA"/>
<path d="M17.7771 2.17285C17.567 1.41448 18.6239 0.86309 19.3033 1.37183C26.2092 6.53501 42.9295 22.1541 40.0398 50.7128C36.4139 86.5439 45.5221 99.207 56.5342 106.718C56.5342 106.718 41.6924 103.566 31.9285 90.737C7.95472 59.2365 21.5089 15.6512 17.7771 2.17285Z" fill="#80C379"/>
<g style="mix-blend-mode:soft-light">
<path d="M23.3081 13.1004C24.3018 17.0344 25.204 20.9842 25.9386 24.9577C26.697 28.9281 27.3148 32.9174 27.7872 36.9193C28.2422 40.9228 28.6103 44.9327 28.7809 48.9536C28.9721 52.9729 28.9626 56.997 28.9373 61.0368C28.9373 65.0751 28.9121 69.1419 29.3687 73.2196C29.8189 77.2895 30.8412 81.372 32.6976 85.1639C33.1621 86.1086 33.6471 87.0503 34.1922 87.9556C34.7183 88.8719 35.2918 89.7662 35.8843 90.6525C37.0787 92.4189 38.4121 94.1204 39.8862 95.7256C42.8454 98.9313 46.3718 101.739 50.2268 104.08C50.6328 104.327 51.1969 104.24 51.486 103.886C51.7704 103.538 51.6851 103.064 51.298 102.813H51.2948C50.3753 102.219 49.4669 101.617 48.5916 100.984C48.1476 100.672 47.721 100.345 47.2881 100.025C46.8695 99.6897 46.435 99.3705 46.0289 99.0245C44.3779 97.6674 42.8407 96.2107 41.4361 94.6608C38.6128 91.5783 36.314 88.1088 34.5334 84.4892C33.6661 82.6692 32.9567 80.7969 32.4179 78.8821C31.8807 76.9656 31.5126 75.0097 31.274 73.0332C30.7969 69.0771 30.7827 65.0514 30.7495 61.0132C30.7084 56.9749 30.6358 52.9176 30.3703 48.8714C30.2439 46.8476 30.0749 44.8284 29.8648 42.8109C29.7668 41.8013 29.6451 40.7949 29.5267 39.7885C29.3971 38.7821 29.2596 37.7772 29.1143 36.774C28.5218 32.761 27.7872 28.7653 26.9071 24.7982C26.005 20.8341 24.9812 16.8938 23.7821 12.9961C23.7473 12.884 23.6146 12.8192 23.4866 12.8508C23.3602 12.8808 23.2844 12.9914 23.3112 13.0988L23.3081 13.1004Z" fill="white"/>
</g>
<path d="M36.641 73.3931C35.9 74.2431 34.5334 74.0614 34.0278 73.0535C31.2408 67.4921 24.7821 51.0578 33.6107 31.4841C41.0664 14.9549 43.5374 5.28424 44.3558 0.816214C44.528 -0.12858 45.8077 -0.303951 46.2295 0.558687C50.8856 10.0793 63.4681 42.5878 36.641 73.3931V73.3931Z" fill="#5FAA58"/>
<g style="mix-blend-mode:soft-light">
<path d="M35.2143 72.8498C35.1875 72.8561 35.159 72.8593 35.1306 72.8593C34.8873 72.8656 34.6866 72.6728 34.6803 72.4295C34.674 72.1546 34.1273 44.615 43.4552 21.1626C43.5453 20.9367 43.8012 20.8261 44.0272 20.9161C44.2531 21.0062 44.3637 21.2621 44.2736 21.4881C35.0137 44.7682 35.554 72.1341 35.5619 72.4074C35.5667 72.6207 35.4181 72.804 35.2175 72.8482L35.2143 72.8498Z" fill="white"/>
</g>
<path d="M136.428 43.9231C136.205 40.4741 134.121 37.4169 131 35.935L90.5424 16.7199C87.9514 15.4892 84.9448 15.4892 82.3537 16.7199L41.8966 35.935C38.7747 37.4185 36.6907 40.4741 36.468 43.9231C32.673 102.582 70.2846 123.954 82.6144 129.354C85.0601 130.425 87.8376 130.425 90.2833 129.354C102.613 123.956 140.225 102.582 136.43 43.9231H136.428Z" fill="#0C4F2F"/>
<path d="M74.2109 25.2098C73.8475 25.2098 73.4999 25.006 73.334 24.6553C73.105 24.1718 73.3103 23.5936 73.7938 23.3629L83.3523 18.8222C83.8374 18.5931 84.4156 18.7985 84.6447 19.282C84.8738 19.7654 84.6684 20.3437 84.1849 20.5743L74.6264 25.115C74.4921 25.1782 74.3499 25.2083 74.2109 25.2083V25.2098Z" fill="#ADD3AA"/>
<path d="M39.5614 56.8723C39.0416 56.8723 38.6103 56.46 38.5929 55.9354C38.465 52.1073 38.5313 48.118 38.7936 44.0749C38.9611 41.476 40.5347 39.163 42.8966 38.0412L70.1124 25.1159C70.5959 24.8852 71.1741 25.0922 71.4048 25.5756C71.6339 26.0591 71.4285 26.6373 70.945 26.868L43.7293 39.7933C42.0008 40.6133 40.8522 42.3023 40.729 44.2013C40.4715 48.1812 40.4051 52.1073 40.5315 55.8722C40.5489 56.4078 40.1302 56.8565 39.5946 56.8739C39.5835 56.8739 39.5725 56.8739 39.5614 56.8739V56.8723Z" fill="#ADD3AA"/>
<path d="M126.643 46.2125C126.599 45.3372 126.078 44.5567 125.288 44.1823L87.4674 26.2201C86.8212 25.9136 86.0724 25.9136 85.4262 26.2201L47.606 44.1823C46.8144 44.5583 46.2946 45.3388 46.2504 46.2125C45.1318 68.0944 50.186 86.352 61.2834 100.502C69.7438 111.289 79.6405 117.072 85.4404 119.769C86.0787 120.066 86.8149 120.066 87.4532 119.769C93.2531 117.072 103.15 111.289 111.61 100.502C122.708 86.352 127.762 68.0944 126.643 46.2125Z" fill="#5FAA58"/>
<path d="M84.9613 86.3538C83.6658 86.3538 82.4808 85.7328 81.8299 84.7217L71.6947 68.9604C70.8162 67.5937 71.2886 65.6078 72.7659 64.4876C74.2763 63.3422 76.2844 63.5128 77.2339 64.9063L84.6911 75.8488L95.8169 54.9054C96.8976 52.872 99.5519 51.5923 101.786 52.0836C104.082 52.5876 105.012 54.7458 103.822 56.8661L88.3581 84.4357C87.7183 85.578 86.4606 86.3095 85.0908 86.3538C85.0466 86.3538 85.0039 86.3553 84.9597 86.3553L84.9613 86.3538Z" fill="#FFBB18"/>
<path d="M4.12913 114.473C2.65822 114.473 1.28685 113.75 0.552183 112.475C-0.184061 111.201 -0.184061 109.652 0.552183 108.378L28.3399 60.2631C29.0761 58.9897 30.4459 58.2061 31.9168 58.2061C33.3877 58.2061 34.7591 59.0023 35.4938 60.2758L63.283 108.41C64.0193 109.683 64.0193 111.2 63.283 112.475C62.5484 113.748 61.177 114.473 59.7061 114.473H4.12913V114.473Z" fill="#0C4F2F"/>
<path d="M61.7318 111.722C61.3147 112.445 60.5405 112.965 59.7063 112.965H4.1278C3.29202 112.965 2.52102 112.445 2.10234 111.722C1.68366 110.998 1.68366 110.069 2.10234 109.345L29.8916 61.1957C30.2344 60.6032 30.8127 60.1877 31.47 60.0597C31.6153 60.0313 31.7654 60.0107 31.9186 60.0107C32.7544 60.0107 33.527 60.4547 33.9441 61.1783L61.7334 109.345C62.1505 110.069 62.1505 110.998 61.7334 111.722H61.7318Z" fill="#FFBB18"/>
<path d="M149.714 128.774L147.038 128.661C142.796 127.224 134.5 126.248 124.958 126.248C114.766 126.248 105.996 127.362 102.068 128.961L99.5722 128.978L99.8708 130.846C99.8708 133.385 111.102 135.442 124.958 135.442C138.814 135.442 149.212 133.533 149.999 131.124C150.021 130.964 149.774 128.765 149.714 128.774Z" fill="url(#paint0_linear_1108_602)"/>
<path d="M124.66 133.574C138.515 133.574 149.747 131.516 149.747 128.978C149.747 126.44 138.515 124.382 124.66 124.382C110.804 124.382 99.5722 126.44 99.5722 128.978C99.5722 131.516 110.804 133.574 124.66 133.574Z" fill="#C58040"/>
<path d="M142.881 127.863C142.881 129.541 137.602 130.844 130.316 131.183C128.477 131.268 126.51 131.29 124.47 131.244C114.442 131.014 106.383 129.148 106.383 127.083C106.383 127.035 106.389 126.934 106.397 126.934H106.383L106.424 126.835C106.434 126.801 106.446 126.77 106.462 126.738L108.775 120.692L111.568 113.396L115.48 103.171L118.474 95.3436L122.198 85.6113C122.664 84.3931 123.527 83.6348 124.46 83.6348C124.587 83.6348 124.712 83.6474 124.835 83.6758C125.623 83.8481 126.326 84.5574 126.731 85.6128L130.486 95.4131L133.485 103.343L137.443 113.773L140.283 121.27L140.329 121.276L142.696 127.367C142.799 127.53 142.882 127.696 142.882 127.863H142.881Z" fill="#FFBB18"/>
<path opacity="0.9" d="M140.327 121.276C138.044 122.039 134.394 122.589 130.024 122.793C128.263 122.875 126.4 122.902 124.458 122.866C117.72 122.738 111.879 121.87 108.77 120.692L111.566 113.396C114.838 114.132 119.398 114.628 124.465 114.704C126.103 114.729 127.7 114.707 129.22 114.647C132.42 114.52 135.241 114.212 137.464 113.776L140.281 121.27L140.327 121.276Z" fill="white"/>
<path opacity="0.9" d="M133.518 103.344C131.776 103.532 129.859 103.66 127.827 103.719C126.739 103.752 125.617 103.762 124.47 103.751C121.19 103.719 118.124 103.509 115.48 103.171L118.474 95.3438C120.348 95.4923 122.366 95.576 124.47 95.5886C125.214 95.5934 125.946 95.5886 126.666 95.5728C127.985 95.5476 129.265 95.4954 130.485 95.4133L133.518 103.343V103.344Z" fill="white"/>
<path d="M24.1016 100.922L24.1015 100.921C24.0386 100.683 23.9865 100.441 23.9452 100.198L20.9631 105.325L20.9627 105.326C20.8266 105.558 20.5827 105.69 20.3293 105.689C20.3173 105.689 20.3056 105.689 20.2942 105.687C20.1815 105.681 20.068 105.65 19.9644 105.59L19.9634 105.589C19.6153 105.386 19.4966 104.938 19.6997 104.59L24.1885 96.8739L24.1886 96.8737C24.3202 96.648 24.5614 96.5094 24.8224 96.5099L30.0574 96.5192C29.7577 95.9941 29.5852 95.3649 29.5864 94.6924L29.587 94.3585L25.6777 94.3515C25.2734 94.3508 24.9472 94.0234 24.9479 93.6192C24.9486 93.215 25.276 92.8887 25.6803 92.8895L29.5896 92.8964L29.5934 90.7512C29.5965 88.9787 30.8245 87.4648 32.4163 87.4676L32.9342 87.4686C34.5245 87.4714 35.747 88.9897 35.7439 90.7621L35.7369 94.7033C35.7338 96.4757 34.5058 97.9897 32.9156 97.9869L32.3977 97.9859C32.3248 97.9858 32.2526 97.9824 32.181 97.9759C32.1433 97.9818 32.1048 97.9849 32.0657 97.9848L25.2397 97.9727L25.072 98.261C25.2067 98.3937 25.29 98.5785 25.2896 98.783C25.2886 99.3803 25.3649 99.9747 25.5155 100.549C26.3052 103.535 29.0178 105.625 32.1099 105.631C35.8778 105.637 38.9493 102.577 38.956 98.8072C38.9587 97.2798 38.4697 95.8384 37.5421 94.6348L37.5419 94.6345C37.2961 94.3146 37.3561 93.857 37.6747 93.6098C37.996 93.3605 38.454 93.4243 38.7003 93.7418L38.7007 93.7423C39.829 95.2042 40.423 96.9572 40.4197 98.8098C40.4116 103.385 36.6838 107.101 32.1089 107.093H32.1089L32.1073 107.093L24.1016 100.922ZM24.1016 100.922C25.0607 104.549 28.3527 107.086 32.1073 107.093L24.1016 100.922ZM32.1094 106.843L32.1077 106.843L32.1094 106.843ZM32.1094 106.843C36.5461 106.851 40.1618 103.246 40.1697 98.8094C40.1729 97.0119 39.5971 95.3129 38.5028 93.8951L32.1094 106.843ZM29.0226 82.5982C29.0195 84.3237 30.4197 85.7289 32.1452 85.7319C33.8707 85.735 35.2759 84.3348 35.2789 82.6093C35.282 80.8838 33.8818 79.4787 32.1563 79.4756C30.4308 79.4725 29.0256 80.8727 29.0226 82.5982ZM30.4846 82.6008C30.4863 81.6822 31.2351 80.936 32.1537 80.9377C33.0723 80.9393 33.8185 81.6881 33.8169 82.6067C33.8152 83.5253 33.0664 84.2715 32.1478 84.2699C31.2292 84.2683 30.483 83.5194 30.4846 82.6008ZM32.0732 92.9008L31.0516 92.899L31.0554 90.7554C31.0573 89.6849 31.7228 88.9301 32.4137 88.9313L32.9316 88.9322C33.6208 88.9334 34.2837 89.6904 34.2818 90.7611L34.2748 94.7023C34.2729 95.7732 33.6088 96.5276 32.9182 96.5264L32.4002 96.5255C31.7093 96.5243 31.0465 95.7671 31.0484 94.6966L31.049 94.361L32.0706 94.3629C32.4748 94.3636 32.8022 94.0374 32.8029 93.6331C32.8036 93.2289 32.4774 92.9015 32.0732 92.9008Z" fill="#0C4F2F" stroke="#0C4F2F" stroke-width="0.5" stroke-linejoin="round"/>
<defs>
<linearGradient id="paint0_linear_1108_602" x1="125.102" y1="122.668" x2="122.63" y2="180.553" gradientUnits="userSpaceOnUse">
<stop stop-color="#FFBB18"/>
<stop offset="1" stop-color="#FE7062"/>
</linearGradient>
</defs>
</svg>
