<svg width="185" height="150" viewBox="0 0 185 150" fill="none" xmlns="http://www.w3.org/2000/svg">
<path d="M142.678 128.311C139.626 131.524 136.739 133.595 134.457 135.233C107.639 154.476 75.9068 148.867 69.163 147.496C59.2044 145.473 39.9547 141.564 26.0361 125.197C4.98044 100.436 8.25849 61.4261 24.591 35.6744C27.5804 30.9639 43.3608 4.81897 75.4341 0.626258C94.8444 -1.9103 117.471 3.20611 133.858 16.9335C168.253 45.7503 165.805 103.963 142.678 128.309V128.311Z" fill="#F1EEC1"/>
<path d="M120.999 125.382C120.999 119.461 117.827 115.892 113.909 115.892C113.052 115.892 112.232 115.828 111.47 116.178C110.225 113.088 107.691 110.829 104.754 110.829C104.468 110.829 104.19 110.783 103.911 110.829C102.329 106.19 98.6747 102.907 94.4194 102.907C90.523 102.907 87.1393 105.609 85.3742 109.63C84.2462 108.671 82.884 108.099 81.4265 108.099C80.5329 108.099 79.676 108.311 78.885 108.699C76.7391 104.954 73.2601 102.501 69.3197 102.501C64.4565 102.501 60.2891 106.208 58.4728 111.511C57.5426 110.995 56.5172 110.7 55.4406 110.7C52.5402 110.7 50.0281 112.766 48.7757 115.8C48.0872 115.514 47.3475 115.901 46.5858 115.901C42.6747 115.901 39.496 119.47 39.496 125.391" stroke="white" stroke-width="2" stroke-linecap="round" stroke-linejoin="round"/>
<path d="M112.767 134.55C113.499 133.951 114.371 133.517 115.308 133.517C115.484 133.517 115.652 133.49 115.821 133.517C116.963 129.589 119.915 126.767 123.379 126.767C126.411 126.767 129.055 128.906 130.432 132.079C130.96 131.83 131.524 131.673 132.117 131.673C133.552 131.673 134.834 132.485 135.713 133.766C136.585 130.603 138.936 128.325 141.704 128.325C142.693 128.325 143.63 128.62 144.465 129.146C146.728 126.167 149.885 124.627 153.386 124.627C160.256 124.627 165.83 131.784 165.83 140.886" stroke="white" stroke-width="2" stroke-linecap="round" stroke-linejoin="round"/>
<path d="M60.0006 22.5282C63.5269 18.8263 71.4861 21.5315 75.1131 23.5332C84.8859 28.9101 94.2893 39.6807 94.2893 39.6807L137.637 82.5787C137.637 82.5787 141.642 87.0929 142.339 92.8216C142.339 92.8216 126.303 81.0544 119.183 81.9338C119.183 81.9338 123.692 97.0092 130.215 104.204C130.215 104.204 125.455 103.877 120.14 99.9071L91.1744 70.9622C84.1974 63.9689 77.1617 57.0342 70.3191 49.9068C64.442 43.818 57.9184 36.5065 58.3214 27.4026C58.3295 26.0518 58.6605 24.7224 59.287 23.5248C59.4857 23.1664 59.7252 22.832 60.0006 22.5282Z" fill="#065F34"/>
<path d="M82.6694 69.5473L83.509 68.5088L108.823 94.07C108.823 94.07 110.829 95.4603 109.259 97.1103C107.689 98.7602 89.3861 147.177 89.3861 147.177L76.616 134.271C76.616 134.271 75.3986 133.434 76.0955 129.062C76.7923 124.69 82.6694 69.5473 82.6694 69.5473Z" fill="#065F34"/>
<path d="M105.473 45.6272L132.205 71.8082C132.205 71.8082 133.515 73.2404 138.342 70.5017C143.17 67.763 183.94 52.5284 183.94 52.5284C183.94 52.5284 184.78 51.8165 183.101 50.3843L174.285 41.4898L171.053 38.4663C171.053 38.4663 171.38 38.1062 168.861 38.592C166.342 39.0777 105.473 45.6272 105.473 45.6272Z" fill="#065F34"/>
<path d="M113.046 40.4676C113.046 40.4676 111.711 40.3085 112.038 38.3236C112.117 37.0932 112.558 35.9134 113.306 34.9316C114.028 33.8931 116.572 32.8462 117 33.0723C118.299 32.9142 119.612 33.2392 120.686 33.9852C122.693 35.5745 124.579 37.3101 126.328 39.1778L114.977 40.4676C114.344 40.6345 113.678 40.6345 113.046 40.4676Z" fill="#065F34"/>
<path d="M137.629 34.396C138.202 32.9681 139.314 31.8221 140.727 31.205C142.256 30.6662 143.93 30.711 145.428 31.3306L151.305 36.5149L138.964 37.9554C138.964 37.9554 137.075 38.0811 137.1 36.2804C137.1 36.2218 137.461 34.7812 137.629 34.396Z" fill="#065F34"/>
<path d="M125.715 87.9971C125.715 87.9971 127.537 95.384 137.981 106.975C139.417 108.567 141.583 109.831 143.329 111.029C145.076 112.227 146.982 113.449 148.888 114.521C150.567 115.485 152.985 117.151 154.949 117.361C154.815 115.325 153.27 112.855 152.338 111.071C150.347 107.306 147.8 103.862 144.782 100.853C144.782 100.853 136.546 91.5566 125.715 87.9971Z" fill="#065F34"/>
<path d="M133.934 108.794C133.615 110.352 133.934 111.767 134.002 113.317C134.002 114.992 134.094 116.759 134.111 118.484C134.111 121.951 133.842 125.41 133.699 128.878C133.59 131.39 133.641 134.255 135.572 136.148C136.986 137.567 138.489 138.896 140.072 140.126C142.277 133.565 144.485 127.007 146.696 120.452C146.847 120.203 146.943 119.925 146.979 119.636C147.015 119.347 146.989 119.054 146.904 118.776C146.818 118.498 146.675 118.241 146.483 118.021C146.291 117.802 146.054 117.626 145.789 117.504C141.871 114.567 137.92 111.664 133.934 108.794Z" fill="#065F34"/>
<path d="M146.344 96.3555C146.344 96.3555 154.63 105.928 156.007 108.801C156.007 108.801 156.654 109.773 159.206 108.801C165.587 106.356 172.194 104.32 178.71 102.243C177.187 101.137 175.78 99.8803 174.512 98.4912C173.672 97.6536 172.681 96.3638 171.338 96.3638L146.344 96.3555Z" fill="#065F34"/>
<path d="M74.0721 112.378C71.8677 111.242 70.0004 109.55 68.6567 107.47C66.5662 104.12 70.2184 101.088 70.2184 101.088C70.2184 101.088 73.5767 98.2906 75.1803 100.25C75.4337 100.88 75.4921 101.572 75.3482 102.235C75.1803 103.651 74.0721 112.378 74.0721 112.378Z" fill="#065F34"/>
<path d="M77.1785 88.4243C74.7567 87.1702 72.7092 85.3011 71.2427 83.0055C68.9506 79.2953 72.9218 76.0122 72.9218 76.0122C72.9218 76.0122 76.574 72.9469 78.3623 75.0826C78.6339 75.7755 78.6952 76.5327 78.5387 77.2601C78.3959 78.8682 77.1785 88.4243 77.1785 88.4243Z" fill="#065F34"/>
<path d="M68.3965 38.0477C68.5096 38.0398 68.6219 38.023 68.7323 37.9975C69.6978 37.763 69.6559 36.7915 69.8741 36.0126C70.111 35.2005 70.5086 34.4442 71.0437 33.7882C71.5787 33.1322 72.2402 32.5899 72.989 32.1934C74.2484 31.5486 76.5237 31.7579 76.1794 29.6809C75.7932 27.4028 72.7539 27.8969 71.2595 28.6256C69.749 29.3218 68.451 30.4056 67.4981 31.7663C66.7173 32.9305 65.4663 35.5435 66.2807 36.9673C66.4957 37.3278 66.8083 37.6205 67.1826 37.8116C67.5568 38.0028 67.9776 38.0846 68.3965 38.0477V38.0477Z" fill="white"/>
<path d="M53.8244 79.077C56.065 65.3342 46.7406 52.377 32.9977 50.1363C19.2549 47.8957 6.29766 57.2201 4.05702 70.963C1.81639 84.7059 11.1408 97.6631 24.8837 99.9037C38.6266 102.144 51.5838 92.8199 53.8244 79.077Z" fill="#FFBB18"/>
<path d="M27.7501 92.6427V88.2565C25.2784 88.2081 22.7117 87.4341 21.2066 86.3375L22.2364 83.4188C23.7733 84.467 25.9914 85.2894 28.3838 85.2894C31.4259 85.2894 33.4697 83.4994 33.4697 81.0322C33.4697 78.565 31.8061 77.162 28.6373 75.8558C24.2803 74.1143 21.5868 72.1147 21.5868 68.3252C21.5868 64.5356 24.106 61.9716 28.0353 61.3266V56.9404H30.6812V61.1654C33.2479 61.246 34.9907 61.9555 36.2424 62.6812L35.1809 65.5515C34.2778 65.0355 32.5349 64.068 29.7939 64.068C26.4984 64.068 25.2626 66.0676 25.2626 67.8091C25.2626 70.0667 26.847 71.1955 30.5703 72.7758C34.9749 74.598 37.193 76.8718 37.193 80.7419C37.193 84.1767 34.8481 87.4018 30.4435 88.1436V92.6749H27.7501V92.6427Z" fill="#FFF8E8"/>
<g clip-path="url(#clip0_1110_134)">
<path d="M46.1856 85.101L50.4183 89.8029C50.9393 90.3822 50.8941 91.2746 50.313 91.7956C49.7346 92.3165 48.8422 92.2695 48.3212 91.6902L46.5486 89.722L46.5486 98.2701C46.5486 99.0497 45.9176 99.6807 45.1381 99.6807C44.3585 99.6807 43.7275 99.0497 43.7275 98.2701L43.7275 89.7201L41.9549 91.6912C41.4329 92.2705 40.5415 92.3175 39.9631 91.7965C39.6537 91.5172 39.4958 91.1326 39.4958 90.747C39.4958 90.4104 39.6152 90.0728 39.8578 89.8038L44.0886 85.1019C44.3557 84.8048 44.7374 84.6346 45.1371 84.6346C45.5368 84.6346 45.9186 84.8048 46.1856 85.101Z" fill="#065F34"/>
</g>
<defs>
<clipPath id="clip0_1110_134">
<rect width="15.0461" height="15.0461" fill="white" transform="matrix(1.19249e-08 -1 -1 -1.19249e-08 52.6614 99.6807)"/>
</clipPath>
</defs>
</svg>
