<svg width="151" height="160" viewBox="0 0 151 160" fill="none" xmlns="http://www.w3.org/2000/svg">
<path d="M132.929 134.043C129.864 137.399 126.966 139.563 124.674 141.274C97.7467 161.376 65.8849 155.517 59.1136 154.084C49.1143 151.972 29.786 147.888 15.8106 130.79C-5.33103 104.922 -2.0396 64.1699 14.3596 37.268C17.3612 32.3471 33.2061 5.03423 65.4103 0.654232C84.8998 -1.99563 107.619 3.34933 124.073 17.6899C158.608 47.7939 156.15 108.607 132.929 134.041V134.043Z" fill="#ADD3AA"/>
<path d="M143.888 11.4624C143.647 10.5653 142.488 10.6256 142.325 11.5434C140.756 20.4222 135.986 43.5604 127.043 56.4045C112.481 77.315 104.108 109.928 115.477 125.437C115.477 125.437 170.085 109.176 143.888 11.4643V11.4624Z" fill="#107A47"/>
<path opacity="0.43" d="M143.227 23.9915C143.227 24.278 143.207 24.5136 143.196 24.768L143.147 25.5181L143.035 27.0146C142.954 28.0116 142.859 29.0067 142.765 30.0018C142.57 31.992 142.35 33.9785 142.117 35.963C141.642 39.9303 141.07 43.8844 140.445 47.8252C139.825 51.7699 139.106 55.6938 138.314 59.5988C137.519 63.5039 136.673 67.3977 135.713 71.2575C133.807 78.9809 131.523 86.5969 128.768 94.0018C127.355 97.6864 125.855 101.333 124.171 104.875C122.462 108.401 120.62 111.848 118.559 115.129C118.513 115.201 118.426 115.218 118.361 115.167C118.3 115.118 118.283 115.024 118.323 114.952C120.26 111.593 122.033 108.128 123.649 104.571C125.274 101.02 126.714 97.366 128.065 93.6758C129.415 89.9837 130.632 86.2313 131.773 82.4525C132.913 78.6718 133.911 74.8384 134.889 71.0012C136.818 63.3154 138.378 55.5166 139.745 47.6782C140.421 43.7562 141.028 39.8191 141.57 35.8726C141.843 33.8993 142.102 31.9223 142.338 29.9434L142.671 26.9712L142.823 25.4842L142.892 24.7398C142.912 24.4966 142.935 24.2328 142.944 24.0198V23.984C142.95 23.8973 143.015 23.8313 143.093 23.8351C143.167 23.8389 143.227 23.9086 143.227 23.9915V23.9915Z" fill="white"/>
<path d="M124.058 0.706873C123.737 -0.0583065 122.708 0.164086 122.672 1.00842C122.315 9.17285 120.783 30.547 114.305 43.3364C103.759 64.1603 100.121 94.5281 112.104 106.714C112.104 106.714 158.979 84.1605 124.06 0.706873H124.058Z" fill="#2E9A66"/>
<path opacity="0.43" d="M124.767 12.3771C124.801 12.6334 124.81 12.8464 124.83 13.0763L124.875 13.7529L124.951 15.1061C124.997 16.0089 125.029 16.9116 125.062 17.8144C125.122 19.6199 125.161 21.4273 125.185 23.2347C125.229 26.8496 125.185 30.4663 125.091 34.0792C125.002 37.694 124.823 41.3069 124.575 44.9123C124.325 48.5177 124.028 52.1212 123.625 55.7115C122.834 62.8922 121.689 70.0332 120.098 77.0536C119.271 80.5535 118.359 84.0326 117.269 87.4439C116.157 90.8457 114.916 94.1967 113.461 97.4308C113.429 97.5024 113.351 97.5307 113.287 97.4949C113.224 97.4591 113.199 97.3761 113.228 97.3064C114.563 94.0214 115.736 90.6629 116.76 87.2479C117.792 83.8366 118.647 80.3594 119.421 76.8652C120.193 73.3672 120.838 69.8372 121.41 66.2921C121.982 62.747 122.423 59.1756 122.845 55.6041C123.663 48.4536 124.138 41.256 124.437 34.0528C124.58 30.4493 124.656 26.8439 124.678 23.2366C124.691 21.433 124.689 19.6294 124.667 17.8257L124.614 15.1212L124.576 13.7699L124.551 13.0952C124.54 12.8747 124.529 12.6372 124.513 12.445L124.509 12.4129C124.502 12.3338 124.555 12.264 124.625 12.2546C124.694 12.2471 124.756 12.3017 124.765 12.3771H124.767Z" fill="white"/>
<path d="M24.1052 21.5322H112.141C116.997 21.5322 121.002 25.4919 121.249 30.5391L126.542 143.271C126.736 147.22 123.747 150.552 119.946 150.623L19.0458 152.531C15.4754 152.599 12.5463 149.606 12.5463 145.889L13.7509 32.3032C13.7509 26.3551 18.3864 21.5322 24.1034 21.5322H24.1052Z" fill="#065F34"/>
<path d="M24.3751 20.4564C36.3978 22.1526 77.7372 27.3977 111.918 24.6687C113.476 24.5443 114.829 25.7731 114.912 27.3977L120.52 140.722C120.615 142.55 119.272 144.114 117.513 144.223C103.138 145.109 43.9353 148.53 22.8191 146.229C21.5347 146.089 20.5584 144.962 20.5511 143.619L20.9641 23.5774C20.9533 21.6739 22.5618 20.202 24.3751 20.4564V20.4564Z" fill="#F4EF7D"/>
<path d="M25.6631 23.9167C37.2329 25.5489 77.0163 30.5979 109.909 27.9707C111.409 27.8501 112.711 29.0337 112.791 30.5961L118.144 138.897C118.234 140.658 116.941 142.162 115.251 142.267C101.417 143.119 44.4444 146.412 24.1215 144.197C22.8843 144.061 21.946 142.98 21.9387 141.685L22.3807 26.9209C22.3699 25.089 23.9187 23.6717 25.6631 23.9186V23.9167Z" fill="#D7E38B"/>
<g opacity="0.85">
<path opacity="0.6" d="M31.8456 56.7706C31.5956 56.7668 31.4598 56.9289 31.5449 57.1305L33.0466 60.6851C33.1317 60.8867 33.4071 61.0526 33.6571 61.0526H104.168C104.418 61.0526 104.617 60.8773 104.61 60.6624L104.525 58.2406C104.518 58.0258 104.306 57.8486 104.056 57.8448L31.8456 56.7706V56.7706Z" fill="white"/>
</g>
<g opacity="0.85">
<path opacity="0.6" d="M31.3964 65.4893C31.2152 65.4856 31.1156 65.6476 31.179 65.8493L32.2695 69.4038C32.3311 69.6055 32.5303 69.7713 32.7133 69.7713H83.9142C84.0954 69.7713 84.2403 69.596 84.2348 69.3812L84.1732 66.9594C84.1678 66.7445 84.0138 66.5674 83.8327 66.5636L31.3946 65.4893H31.3964Z" fill="white"/>
</g>
<g opacity="0.85">
<path opacity="0.6" d="M31.3964 84.3438C31.2152 84.34 31.1156 84.5021 31.179 84.7038L32.2695 88.2583C32.3311 88.46 32.5303 88.6258 32.7133 88.6258H83.9142C84.0954 88.6258 84.2403 88.4505 84.2348 88.2357L84.1732 85.8139C84.1678 85.599 84.0138 85.4219 83.8327 85.4181L31.3946 84.3438H31.3964Z" fill="white"/>
</g>
<g opacity="0.85">
<path opacity="0.6" d="M31.4489 103.198C31.2261 103.195 31.1065 103.357 31.1826 103.558L32.5176 107.113C32.5937 107.314 32.8383 107.48 33.0593 107.48H95.7431C95.9659 107.48 96.1416 107.305 96.1362 107.09L96.0601 104.668C96.0529 104.454 95.8663 104.276 95.6435 104.273L31.4489 103.198V103.198Z" fill="white"/>
</g>
<g opacity="0.85">
<path opacity="0.6" d="M33.3944 121.04C33.2006 121.036 33.0955 121.198 33.1625 121.4L34.3219 124.955C34.3871 125.156 34.6008 125.322 34.7928 125.322H89.3035C89.4973 125.322 89.6513 125.147 89.6458 124.932L89.5806 122.51C89.5752 122.295 89.4122 122.118 89.2183 122.114L33.3962 121.04H33.3944Z" fill="white"/>
</g>
<g opacity="0.85">
<path opacity="0.6" d="M31.8456 75.1632C31.5956 75.1594 31.4598 75.3215 31.5449 75.5231L33.0466 79.0776C33.1317 79.2793 33.4071 79.4451 33.6571 79.4451H104.168C104.418 79.4451 104.617 79.2699 104.61 79.055L104.525 76.6332C104.518 76.4183 104.306 76.2412 104.056 76.2374L31.8456 75.1632V75.1632Z" fill="white"/>
</g>
<g opacity="0.85">
<path opacity="0.6" d="M31.8456 93.5577C31.5956 93.5539 31.4616 93.716 31.5467 93.9177L33.0701 97.474C33.1571 97.6757 33.4324 97.8397 33.6824 97.8397H105.279C105.529 97.8397 105.728 97.6644 105.721 97.4495L105.634 95.0277C105.626 94.8129 105.415 94.6357 105.165 94.6319L31.8456 93.5577V93.5577Z" fill="white"/>
</g>
<g opacity="0.85">
<path opacity="0.6" d="M31.8456 111.95C31.5956 111.946 31.4634 112.109 31.5521 112.308L33.1227 115.867C33.2114 116.066 33.4886 116.232 33.7386 116.232H107.462C107.712 116.232 107.911 116.057 107.902 115.842L107.813 113.42C107.806 113.205 107.594 113.028 107.344 113.025L31.8474 111.95H31.8456Z" fill="white"/>
</g>
<g opacity="0.85">
<path opacity="0.6" d="M33.5157 130.296C33.2658 130.292 33.1335 130.454 33.2205 130.654L34.7874 134.212C34.8762 134.412 35.1533 134.578 35.4033 134.578H109.001C109.251 134.578 109.45 134.403 109.443 134.188L109.354 131.766C109.347 131.551 109.135 131.374 108.885 131.37L33.5157 130.296V130.296Z" fill="white"/>
</g>
<path opacity="0.85" d="M98.7937 48.5906H38.7074C38.0227 48.5906 37.4684 47.9196 37.4684 47.0904V38.6753C37.4684 37.8366 38.0354 37.16 38.7292 37.1751L98.8154 38.4359C99.4911 38.451 100.033 39.1182 100.033 39.9361V47.0904C100.033 47.9196 99.4784 48.5906 98.7937 48.5906Z" fill="white"/>
<path d="M40.1892 19.9531H95.7269C97.7231 19.9531 99.4313 21.4458 99.7719 23.4944L99.819 23.7771C100.192 26.0199 98.5328 28.0704 96.3446 28.0704H39.3668C38.0571 28.0704 37.0137 26.9321 37.0771 25.5713L37.2003 22.9177C37.2764 21.2573 38.5933 19.9531 40.1892 19.9531V19.9531Z" fill="#107A47"/>
<path d="M44.4824 111.641L7.92523 153.039C6.39273 154.775 6.60467 157.502 8.38897 158.957L8.68242 159.197C10.2602 160.484 12.5427 160.19 13.7708 158.541L47.0275 113.853L44.4842 111.643L44.4824 111.641Z" fill="#065F34"/>
<path opacity="0.27" d="M78.1371 115.542C92.6367 107.712 98.4001 89.3558 91.0101 74.5417C83.6201 59.7276 65.875 54.0656 51.3754 61.8953C36.8758 69.725 31.1123 88.0815 38.5023 102.896C45.8924 117.71 63.6374 123.372 78.1371 115.542Z" fill="white"/>
<path d="M49.8661 58.8778C33.7314 67.5888 27.3151 88.013 35.5374 104.498C43.7596 120.984 63.5028 127.284 79.6393 118.573C95.774 109.862 102.19 89.4378 93.968 72.9526C85.7476 56.4691 66.0026 50.1668 49.8661 58.8778V58.8778ZM77.4511 114.189C63.6857 121.621 46.8427 116.246 39.8287 102.182C32.8147 88.1186 38.2872 70.6947 52.0525 63.2634C65.8178 55.8321 82.6626 61.2091 89.6748 75.2707C96.6888 89.3342 91.2164 106.758 77.4511 114.189V114.189Z" fill="#065F34"/>
<path d="M39.5135 106.879C39.4827 106.883 39.4519 106.87 39.432 106.841C38.9954 106.185 38.577 105.501 38.1893 104.808C38.1658 104.766 38.1802 104.712 38.2201 104.687C38.26 104.663 38.3125 104.678 38.336 104.719C38.7219 105.407 39.1385 106.087 39.5733 106.739C39.6004 106.779 39.5896 106.834 39.5515 106.862C39.5407 106.87 39.528 106.875 39.5153 106.877L39.5135 106.879ZM35.5518 98.4242C35.512 98.4299 35.4721 98.4054 35.4594 98.3639C34.8363 96.2757 34.4269 94.1121 34.2421 91.9315C33.7204 85.7573 34.9721 79.5774 37.8614 74.0591C40.8196 68.4107 45.312 63.8441 50.8532 60.8531C56.0648 58.0393 61.8814 56.8105 67.6763 57.3005C67.7234 57.3042 67.7578 57.3476 67.7542 57.3947C67.7506 57.4437 67.7089 57.4795 67.6636 57.4758C61.9014 56.9895 56.1155 58.2127 50.9329 61.0095C45.4225 63.9854 40.9536 68.5275 38.0118 74.1439C35.1388 79.6302 33.8943 85.7761 34.4124 91.9164C34.5954 94.0838 35.0029 96.2361 35.6225 98.3131C35.637 98.3602 35.6116 98.4092 35.5663 98.4224C35.5627 98.4224 35.5573 98.4242 35.5536 98.4261L35.5518 98.4242Z" fill="#B4FFA8"/>
<path d="M14.5787 147.297C14.5588 147.301 14.5371 147.294 14.5226 147.28C14.4936 147.254 14.49 147.207 14.5153 147.175L15.0751 146.512C15.1004 146.481 15.1457 146.478 15.1765 146.504C15.2055 146.53 15.2091 146.577 15.1838 146.61L14.624 147.273C14.6132 147.286 14.5969 147.296 14.5806 147.297H14.5787Z" fill="#B4FFA8"/>
<g clip-path="url(#clip0_1108_651)">
<path d="M77.4392 85.5541L62.2069 101.401C61.079 102.575 59.2492 102.575 58.1202 101.401L50.2572 93.2195C49.1289 92.0458 49.1289 90.1418 50.2572 88.9678C51.3858 87.7936 53.2154 87.7936 54.3435 88.9674L60.1642 95.0234L73.3522 81.3022C74.4808 80.128 76.3106 80.1289 77.4387 81.3022C78.5669 82.4762 78.5669 84.3795 77.4392 85.5541Z" fill="#FFBB18"/>
</g>
<defs>
<clipPath id="clip0_1108_651">
<rect width="28.8739" height="30.041" fill="white" transform="translate(49.411 76.3311)"/>
</clipPath>
</defs>
</svg>
