<svg width="94" height="96" viewBox="0 0 94 96" fill="none" xmlns="http://www.w3.org/2000/svg">
<g clip-path="url(#clip0_813_511)">
<path d="M82.2452 80.3155C80.3345 82.3267 78.5277 83.6231 77.0992 84.6485C60.3126 96.6932 40.4499 93.1823 36.2287 92.3241C29.9952 91.0582 17.9459 88.6111 9.23363 78.3664C-3.94604 62.8672 -1.89417 38.4491 8.32908 22.33C10.2003 19.3815 20.078 3.01617 40.1541 0.391759C52.3039 -1.19599 66.4671 2.00661 76.7243 10.5992C98.2537 28.6369 96.7213 65.0749 82.2452 80.3144V80.3155Z" fill="#ADD3AA"/>
<path d="M89.0763 6.86827C88.9261 6.33075 88.2033 6.36688 88.1017 6.91683C87.1238 12.2368 84.1504 26.1008 78.5752 33.7967C69.4971 46.3259 64.2776 65.8666 71.3649 75.1594C71.3649 75.1594 105.408 65.4161 89.0763 6.8694V6.86827Z" fill="#107A47"/>
<path opacity="0.43" d="M88.6637 14.3756C88.6637 14.5472 88.6512 14.6884 88.6445 14.8408L88.614 15.2903L88.544 16.1869C88.4932 16.7843 88.4344 17.3805 88.3757 17.9768C88.2537 19.1693 88.1171 20.3595 87.9714 21.5487C87.6756 23.9258 87.3187 26.2949 86.9291 28.6562C86.5429 31.0198 86.0946 33.3709 85.6011 35.7108C85.1054 38.0506 84.578 40.3837 83.9795 42.6964C82.7915 47.3241 81.3675 51.8875 79.6499 56.3244C78.7691 58.5321 77.834 60.7172 76.7838 62.8391C75.7189 64.9519 74.5704 67.0174 73.2853 68.9834C73.2571 69.0263 73.2029 69.0365 73.1623 69.006C73.1239 68.9766 73.1137 68.9202 73.1385 68.8773C74.3457 66.8649 75.4513 64.7882 76.4586 62.6573C77.4715 60.5297 78.3693 58.3401 79.2117 56.129C80.053 53.9168 80.8119 51.6684 81.5233 49.4042C82.2336 47.1389 82.8559 44.842 83.4657 42.5428C84.6683 37.9377 85.6406 33.2648 86.4932 28.5682C86.9144 26.2182 87.2927 23.8591 87.6304 21.4944C87.8009 20.3121 87.9624 19.1275 88.1092 17.9418L88.317 16.1609L88.4118 15.2699L88.4548 14.8239C88.4672 14.6782 88.4819 14.5201 88.4875 14.3925V14.371C88.4909 14.3191 88.5315 14.2796 88.5801 14.2818C88.6264 14.2841 88.6637 14.3259 88.6637 14.3756Z" fill="white"/>
<path d="M76.7135 0.423594C76.5136 -0.0348873 75.8722 0.0983657 75.8496 0.604276C75.6271 5.49624 74.6718 18.3032 70.6335 25.9664C64.0589 38.4436 61.7914 56.6395 69.2615 63.9413C69.2615 63.9413 98.4835 50.4274 76.7146 0.423594H76.7135Z" fill="#2E9A66"/>
<path opacity="0.43" d="M77.1559 7.41586C77.1774 7.56944 77.1831 7.69705 77.1955 7.83482L77.2237 8.24022L77.2711 9.05103C77.2994 9.59195 77.3197 10.1329 77.34 10.6738C77.3773 11.7556 77.4021 12.8386 77.4168 13.9215C77.4439 16.0875 77.4168 18.2545 77.3581 20.4193C77.3028 22.5853 77.191 24.75 77.0362 26.9103C76.8804 29.0706 76.6952 31.2298 76.4445 33.381C75.951 37.6835 75.2373 41.9623 74.2458 46.1688C73.7297 48.2658 73.1617 50.3504 72.4819 52.3944C71.7885 54.4327 71.015 56.4406 70.1082 58.3784C70.0879 58.4213 70.0393 58.4382 69.9998 58.4168C69.9603 58.3953 69.9444 58.3456 69.9625 58.3038C70.7948 56.3355 71.5265 54.3232 72.1646 52.277C72.8083 50.233 73.3413 48.1495 73.8235 46.0559C74.3045 43.9599 74.7066 41.8448 75.0634 39.7207C75.4203 37.5965 75.6947 35.4566 75.9578 33.3166C76.4682 29.0322 76.7641 24.7196 76.9504 20.4035C77.0396 18.2444 77.0871 16.0841 77.1006 13.9227C77.1085 12.842 77.1074 11.7613 77.0938 10.6806L77.0611 9.06007L77.0374 8.25038L77.0216 7.84611C77.0148 7.71399 77.008 7.5717 76.9979 7.45651L76.9956 7.43732C76.9911 7.38989 77.0238 7.3481 77.0679 7.34246C77.1108 7.33794 77.1492 7.37069 77.1548 7.41586H77.1559Z" fill="white"/>
<path d="M14.4031 12.9019H69.2844C72.3119 12.9019 74.8087 15.2744 74.9623 18.2986L78.262 85.8455C78.3829 88.2114 76.5196 90.2079 74.1504 90.2508L11.2491 91.3936C9.02329 91.4343 7.19727 89.641 7.19727 87.4141L7.94823 19.3556C7.94823 15.7916 10.838 12.9019 14.402 12.9019H14.4031Z" fill="#065F34"/>
<path d="M14.5714 12.2569C22.0663 13.2733 47.8373 16.416 69.1454 14.7808C70.1166 14.7063 70.9602 15.4426 71.0121 16.416L74.5083 84.3176C74.567 85.4129 73.7302 86.3502 72.6337 86.4157C63.6719 86.9465 26.7652 88.9961 13.6013 87.6173C12.8007 87.5337 12.192 86.8584 12.1875 86.0532L12.445 14.127C12.4382 12.9864 13.441 12.1045 14.5714 12.2569Z" fill="#F4EF7D"/>
<path d="M15.3745 14.3303C22.5871 15.3083 47.3881 18.3336 67.8934 16.7594C68.8284 16.6871 69.6404 17.3963 69.69 18.3325L73.027 83.2245C73.0835 84.2792 72.2772 85.1804 71.2236 85.2436C62.5994 85.754 27.0828 87.7269 14.4135 86.4C13.6422 86.3187 13.0573 85.6705 13.0527 84.8947L13.3283 16.1304C13.3215 15.0327 14.287 14.1835 15.3745 14.3315V14.3303Z" fill="#D7E38B"/>
<g opacity="0.85">
<path opacity="0.6" d="M19.2287 34.0157C19.0729 34.0134 18.9882 34.1105 19.0412 34.2314L19.9774 36.3611C20.0305 36.482 20.2021 36.5814 20.358 36.5814H64.3146C64.4705 36.5814 64.5947 36.4763 64.5902 36.3476L64.5371 34.8965C64.5326 34.7678 64.4004 34.6616 64.2446 34.6593L19.2287 34.0157Z" fill="white"/>
</g>
<g opacity="0.85">
<path opacity="0.6" d="M18.9482 39.2398C18.8353 39.2375 18.7732 39.3346 18.8127 39.4555L19.4925 41.5853C19.5309 41.7061 19.6551 41.8055 19.7692 41.8055H51.6879C51.8008 41.8055 51.8911 41.7005 51.8877 41.5717L51.8493 40.1206C51.8459 39.9919 51.75 39.8857 51.637 39.8835L18.9471 39.2398H18.9482Z" fill="white"/>
</g>
<g opacity="0.85">
<path opacity="0.6" d="M18.9482 50.5369C18.8353 50.5346 18.7732 50.6318 18.8127 50.7526L19.4925 52.8824C19.5309 53.0032 19.6551 53.1026 19.7692 53.1026H51.6879C51.8008 53.1026 51.8911 52.9976 51.8877 52.8688L51.8493 51.4177C51.8459 51.289 51.75 51.1828 51.637 51.1806L18.9471 50.5369H18.9482Z" fill="white"/>
</g>
<g opacity="0.85">
<path opacity="0.6" d="M18.9811 61.834C18.8422 61.8318 18.7676 61.9289 18.8151 62.0497L19.6473 64.1795C19.6948 64.3003 19.8472 64.3997 19.985 64.3997H59.0621C59.201 64.3997 59.3105 64.2947 59.3072 64.166L59.2597 62.7148C59.2552 62.5861 59.1389 62.48 59 62.4777L18.9811 61.834Z" fill="white"/>
</g>
<g opacity="0.85">
<path opacity="0.6" d="M20.1943 72.5247C20.0734 72.5224 20.0079 72.6196 20.0497 72.7404L20.7725 74.8702C20.8131 74.991 20.9464 75.0904 21.0661 75.0904H55.048C55.1688 75.0904 55.2648 74.9854 55.2614 74.8566L55.2208 73.4055C55.2174 73.2768 55.1158 73.1706 54.9949 73.1684L20.1954 72.5247H20.1943Z" fill="white"/>
</g>
<g opacity="0.85">
<path opacity="0.6" d="M19.2287 45.0362C19.0729 45.0339 18.9882 45.131 19.0412 45.2519L19.9774 47.3817C20.0305 47.5025 20.2021 47.6019 20.358 47.6019H64.3146C64.4705 47.6019 64.5947 47.4968 64.5902 47.3681L64.5371 45.917C64.5326 45.7883 64.4004 45.6821 64.2446 45.6799L19.2287 45.0362Z" fill="white"/>
</g>
<g opacity="0.85">
<path opacity="0.6" d="M19.2277 56.0577C19.0718 56.0554 18.9883 56.1525 19.0414 56.2733L19.9911 58.4043C20.0453 58.5251 20.2169 58.6233 20.3728 58.6233H65.0059C65.1617 58.6233 65.2859 58.5183 65.2814 58.3896L65.2272 56.9385C65.2227 56.8097 65.0906 56.7036 64.9347 56.7013L19.2277 56.0577Z" fill="white"/>
</g>
<g opacity="0.85">
<path opacity="0.6" d="M19.2275 67.0782C19.0717 67.0759 18.9892 67.173 19.0446 67.2927L20.0236 69.4248C20.079 69.5445 20.2518 69.6438 20.4076 69.6438H66.3665C66.5223 69.6438 66.6465 69.5388 66.6409 69.4101L66.5856 67.959C66.5811 67.8303 66.4489 67.7241 66.2931 67.7218L19.2286 67.0782H19.2275Z" fill="white"/>
</g>
<g opacity="0.85">
<path opacity="0.6" d="M20.2691 78.0706C20.1132 78.0683 20.0308 78.1654 20.085 78.2852L21.0618 80.4172C21.1172 80.5369 21.2899 80.6363 21.4458 80.6363H67.3267C67.4826 80.6363 67.6068 80.5313 67.6023 80.4025L67.5469 78.9514C67.5424 78.8227 67.4103 78.7165 67.2544 78.7143L20.2691 78.0706Z" fill="white"/>
</g>
<path opacity="0.85" d="M60.9646 29.1148H23.5068C23.0799 29.1148 22.7344 28.7127 22.7344 28.2159V23.1737C22.7344 22.6712 23.0878 22.2658 23.5203 22.2748L60.9781 23.0303C61.3993 23.0393 61.737 23.4391 61.737 23.9292V28.2159C61.737 28.7127 61.3914 29.1148 60.9646 29.1148Z" fill="white"/>
<path d="M24.4301 11.9556H59.0522C60.2967 11.9556 61.3616 12.8499 61.5739 14.0775L61.6033 14.2468C61.8359 15.5907 60.8015 16.8193 59.4373 16.8193H23.9174C23.1009 16.8193 22.4505 16.1372 22.49 15.3219L22.5668 13.7319C22.6142 12.737 23.4352 11.9556 24.4301 11.9556Z" fill="#107A47"/>
<path d="M27.1063 66.8931L4.3166 91.6985C3.36124 92.7385 3.49337 94.3726 4.60569 95.2443L4.78863 95.3878C5.77222 96.1591 7.1951 95.9829 7.96074 94.9948L28.6929 68.2188L27.1075 66.8942L27.1063 66.8931Z" fill="#065F34"/>
<path opacity="0.27" d="M48.087 69.2308C57.1261 64.5394 60.719 53.5405 56.1121 44.6642C51.5051 35.7879 40.4429 32.3953 31.4038 37.0867C22.3647 41.7782 18.7718 52.777 23.3787 61.6533C27.9857 70.5296 39.048 73.9222 48.087 69.2308Z" fill="white"/>
<path d="M30.4639 35.2781C20.4055 40.4976 16.4056 52.7354 21.5314 62.6131C26.6571 72.4907 38.965 76.2659 49.0245 71.0464C59.0829 65.827 63.0828 53.5891 57.957 43.7115C52.8324 33.8349 40.5234 30.0587 30.4639 35.2781ZM47.6604 68.4198C39.0791 72.8724 28.5791 69.6518 24.2066 61.2252C19.8341 52.7987 23.2456 42.3586 31.8269 37.9059C40.4082 33.4533 50.9093 36.675 55.2807 45.1005C59.6532 53.527 56.2417 63.9671 47.6604 68.4198Z" fill="#065F34"/>
<path d="M24.0086 64.0395C23.9894 64.0417 23.9702 64.0338 23.9578 64.0169C23.6856 63.6239 23.4248 63.214 23.1831 62.7984C23.1684 62.7736 23.1774 62.7408 23.2023 62.7261C23.2271 62.7115 23.2599 62.7205 23.2746 62.7453C23.5151 63.1575 23.7748 63.5652 24.0458 63.9559C24.0628 63.9796 24.056 64.0124 24.0323 64.0293C24.0255 64.0338 24.0176 64.0372 24.0097 64.0383L24.0086 64.0395ZM21.5389 58.9736C21.514 58.977 21.4892 58.9623 21.4813 58.9375C21.0928 57.6862 20.8376 56.3898 20.7224 55.0833C20.3972 51.3838 21.1775 47.6809 22.9787 44.3745C24.8228 40.9901 27.6234 38.2538 31.0778 36.4617C34.3267 34.7757 37.9528 34.0394 41.5653 34.333C41.5946 34.3353 41.6161 34.3613 41.6138 34.3895C41.6116 34.4189 41.5856 34.4403 41.5574 34.4381C37.9652 34.1467 34.3583 34.8796 31.1275 36.5554C27.6922 38.3385 24.9063 41.0601 23.0724 44.4253C21.2814 47.7126 20.5056 51.3951 20.8286 55.0742C20.9426 56.3729 21.1967 57.6625 21.5829 58.907C21.592 58.9352 21.5761 58.9646 21.5479 58.9725C21.5457 58.9725 21.5423 58.9736 21.54 58.9747L21.5389 58.9736Z" fill="#B4FFA8"/>
<path d="M6.70994 95.049C5.71958 95.1867 5.0296 94.9304 4.66033 94.2878C4.28428 93.6329 4.38253 92.7927 4.90651 92.1953L7.59755 89.1293C7.61336 89.1113 7.64159 89.109 7.66078 89.1248C7.67885 89.1406 7.68111 89.1689 7.6653 89.1881L4.97426 92.254C4.47626 92.822 4.3814 93.6216 4.73825 94.2427C5.09171 94.8581 5.7591 95.0986 6.72914 94.9564C6.75286 94.953 6.77544 94.9699 6.77883 94.9936C6.78222 95.0185 6.76528 95.0411 6.74156 95.0444C6.7314 95.0456 6.72011 95.0478 6.70994 95.049Z" fill="#B4FFA8"/>
<path d="M8.46416 88.2575C8.45174 88.2597 8.43819 88.2552 8.42915 88.2473C8.41108 88.2315 8.40883 88.2033 8.42463 88.1841L8.77358 87.7866C8.78939 87.7685 8.81762 87.7662 8.83682 87.7821C8.85489 87.7979 8.85714 87.8261 8.84133 87.8453L8.49239 88.2428C8.48562 88.2507 8.47545 88.2563 8.46529 88.2575H8.46416Z" fill="#B4FFA8"/>
</g>
<g clip-path="url(#clip1_813_511)">
<path d="M40 64C45.5234 64 50 59.5234 50 54C50 48.4766 45.5234 44 40 44C34.4766 44 30 48.4766 30 54C30 59.5234 34.4766 64 40 64ZM40 49C40.5195 49 40.9375 49.418 40.9375 49.9375V54.3125C40.9375 54.832 40.5195 55.25 40 55.25C39.4805 55.25 39.0625 54.832 39.0625 54.3125V49.9375C39.0625 49.418 39.4805 49 40 49ZM41.25 57.75C41.25 58.4414 40.6914 59 40 59C39.3086 59 38.75 58.4414 38.75 57.75C38.75 57.0586 39.3086 56.5 40 56.5C40.6914 56.5 41.25 57.0586 41.25 57.75Z" fill="#FFBB18"/>
</g>
<defs>
<clipPath id="clip0_813_511">
<rect width="93.51" height="95.8689" fill="white"/>
</clipPath>
<clipPath id="clip1_813_511">
<rect width="20" height="20" fill="white" transform="translate(30 44)"/>
</clipPath>
</defs>
</svg>
