<svg width="61" height="70" viewBox="0 0 61 70" fill="none" xmlns="http://www.w3.org/2000/svg">
<g clip-path="url(#clip0_771_15788)">
<path d="M43.8716 0H6.48781C2.73504 0 -0.320312 3.04267 -0.320312 6.77987V55.2201C-0.320312 58.9573 2.73504 62 6.48781 62H43.8716C47.6243 62 50.6797 58.9573 50.6797 55.2201V6.77987C50.6797 3.04267 47.6243 0 43.8716 0Z" fill="#E2F0E1"/>
<path d="M42.7846 10.0377H9.88194C9.43261 10.0377 9.06836 10.402 9.06836 10.8513V11.9396C9.06836 12.3889 9.43261 12.7532 9.88194 12.7532H42.7846C43.2339 12.7532 43.5982 12.3889 43.5982 11.9396V10.8513C43.5982 10.402 43.2339 10.0377 42.7846 10.0377Z" fill="#5FAA58"/>
<path d="M42.7846 18.1419H9.88194C9.43261 18.1419 9.06836 18.5061 9.06836 18.9555V20.0438C9.06836 20.4931 9.43261 20.8573 9.88194 20.8573H42.7846C43.2339 20.8573 43.5982 20.4931 43.5982 20.0438V18.9555C43.5982 18.5061 43.2339 18.1419 42.7846 18.1419Z" fill="#5FAA58"/>
<path d="M42.7846 26.246H9.88194C9.43261 26.246 9.06836 26.6103 9.06836 27.0596V28.1479C9.06836 28.5972 9.43261 28.9615 9.88194 28.9615H42.7846C43.2339 28.9615 43.5982 28.5972 43.5982 28.1479V27.0596C43.5982 26.6103 43.2339 26.246 42.7846 26.246Z" fill="#5FAA58"/>
<path d="M42.6129 53.6966L43.6483 52.7985L54.4891 60.0891L57.6166 62.3502L59.1593 64.3789V67.2106L57.8808 68.8377L55.9155 69.4083L42.6129 53.6966Z" fill="#C1BFBF"/>
<path d="M29.3842 35.5336C27.514 35.5336 25.7811 36.1359 24.3653 37.1502C25.1366 36.9811 25.9396 36.8861 26.7638 36.8861C32.4272 36.8861 37.0974 41.2393 37.6045 46.7759C37.8687 45.9517 38.0061 45.0747 38.0061 44.1661C38.0061 39.4008 34.1494 35.5442 29.3842 35.5442V35.5336Z" fill="#5FAA58"/>
<path d="M58.3668 62.3502C57.2257 61.4732 48.5721 55.1759 41.6619 50.8227C41.8521 50.083 41.7781 49.4596 41.3978 49.1638C41.3978 49.1638 41.3766 49.1532 41.3661 49.1427C41.9895 47.6317 42.3381 45.9834 42.3381 44.2506C42.3381 37.1713 36.5796 31.4128 29.5004 31.4128C22.4211 31.4128 16.6627 37.1713 16.6627 44.2506C16.6627 51.3298 22.4211 57.0883 29.5004 57.0883C32.2053 57.0883 34.7095 56.2536 36.7804 54.8166C36.8121 54.8589 36.8544 54.9012 36.9072 54.9328C37.2981 55.2393 37.9427 55.1442 38.6506 54.7427C44.2295 60.8181 51.9955 68.2144 53.1366 69.1019C54.9962 70.5495 57.68 70.2113 59.1276 68.3412C60.5751 66.4815 60.237 63.7978 58.3668 62.3502ZM29.5004 54.4362C23.8793 54.4362 19.3147 49.8823 19.3147 44.2506C19.3147 38.6189 23.8687 34.0649 29.5004 34.0649C35.1321 34.0649 39.6861 38.6189 39.6861 44.2506C39.6861 49.8823 35.1321 54.4362 29.5004 54.4362ZM58.1555 67.7072C57.7434 68.2461 57.2045 68.6264 56.6129 68.8378C56.8664 68.6476 57.1095 68.4257 57.3102 68.1615C58.5042 66.6295 58.2189 64.4212 56.6868 63.2272C55.7887 62.5298 49.2378 57.7645 43.6906 54.2249C43.5744 54.151 43.5004 54.0136 43.5004 53.8762C43.5004 53.5487 43.8702 53.3479 44.1449 53.517C49.7661 57.0883 56.6234 62.0649 57.5321 62.7729C59.0642 63.9668 59.3495 66.1751 58.1555 67.7072Z" fill="#107A47"/>
</g>
<defs>
<clipPath id="clip0_771_15788">
<rect width="60.0257" height="70" fill="white"/>
</clipPath>
</defs>
</svg>
