<svg width="307" height="292" viewBox="0 0 307 292" fill="none" xmlns="http://www.w3.org/2000/svg">
<g clip-path="url(#clip0_771_13963)">
<path d="M294.172 197.979C263.174 266.895 181.346 296.496 117.232 291.451C99.7283 290.074 64.5056 287.3 37.0036 262.563C-15.8119 215.057 -7.67647 115.761 42.8803 57.3001C49.3901 49.7721 94.459 -0.667346 164.686 0.00669368C216.102 0.499807 252.195 28.1283 256.583 31.5695C262.126 35.9188 274.353 46.2494 285.373 62.6392C311.264 101.152 313.542 154.915 294.172 197.979Z" fill="#F5F2B1" fill-opacity="0.7"/>
<path d="M4.32057 2.22738C3.9475 0.641981 6.1824 -0.411403 7.55034 0.695182C21.443 11.9419 54.8279 45.6218 46.5066 104.477C36.0676 178.32 53.9148 205.264 76.1288 221.7C76.1288 221.7 45.6218 213.972 26.428 186.63C-20.6933 119.501 10.9542 30.4205 4.32057 2.22738Z" fill="#5FAA58"/>
<g style="mix-blend-mode:soft-light">
<path d="M14.8946 25.2918C16.6321 33.5132 18.1812 41.7594 19.3786 50.041C20.6258 58.3156 21.5816 66.6221 22.2353 74.9392C22.8536 83.2598 23.287 91.5876 23.3119 99.9189C23.3794 108.25 23.0348 116.574 22.651 124.934C22.3242 133.287 21.9369 141.703 22.5516 150.176C23.1556 158.632 24.9357 167.165 28.4746 175.16C29.3593 177.153 30.2902 179.139 31.3455 181.058C32.3617 182.994 33.4773 184.895 34.6321 186.775C36.9629 190.528 39.5887 194.156 42.5129 197.596C48.3826 204.47 55.4639 210.567 63.2666 215.724C64.0873 216.266 65.2634 216.132 65.8923 215.426C66.5105 214.731 66.372 213.741 65.5903 213.191H65.5832C63.7285 211.886 61.8915 210.567 60.1292 209.183C59.2338 208.503 58.3775 207.79 57.507 207.091C56.6649 206.364 55.7944 205.665 54.9807 204.92C51.6692 201.976 48.5994 198.838 45.8173 195.518C40.2176 188.91 35.7336 181.544 32.3368 173.911C30.6882 170.077 29.37 166.144 28.4071 162.136C27.4477 158.128 26.8437 154.049 26.5133 149.939C25.8453 141.714 26.1473 133.382 26.4067 125.026C26.6518 116.667 26.833 108.268 26.6127 99.8728C26.5168 95.677 26.3321 91.4812 26.0585 87.2925C25.9377 85.1964 25.7671 83.1038 25.6037 81.0112C25.4154 78.9186 25.2128 76.8296 24.9925 74.7406C24.09 66.388 22.8926 58.0638 21.3932 49.7821C19.8476 41.5076 18.0462 33.272 15.8788 25.1074C15.8184 24.8733 15.5484 24.7279 15.2783 24.7811C15.0154 24.8343 14.8484 25.0542 14.8946 25.2812V25.2918Z" fill="white"/>
</g>
<path d="M40.3135 169.343C38.6116 171.148 35.6128 170.627 34.5895 168.371C28.9329 155.908 16.1382 119.231 37.2721 76.9786C55.1193 41.2948 61.3976 20.252 63.5864 10.5055C64.0483 8.44485 66.8801 8.17175 67.7328 10.1047C77.1592 31.4278 102.045 103.966 40.3135 169.343Z" fill="#80C479"/>
<g style="mix-blend-mode:soft-light">
<path d="M37.2188 168.027C37.1584 168.038 37.0944 168.045 37.0305 168.041C36.4939 168.034 36.0676 167.594 36.0747 167.059C36.0853 166.452 37.265 105.881 59.8343 55.1484C60.051 54.6589 60.6231 54.439 61.1134 54.6554C61.6037 54.8717 61.824 55.4427 61.6073 55.9322C39.2014 106.296 38.0218 166.484 38.0147 167.087C38.0076 167.559 37.6665 167.946 37.2188 168.024V168.027Z" fill="white"/>
</g>
<path d="M133.074 44.1924C132.193 39.1418 145.979 30.6403 142.053 20.4859L131.77 16.6058C131.77 16.6058 132.854 30.2785 129.337 35.244C125.815 40.2094 123.591 36.9641 124.213 33.311C124.838 29.6578 130.633 20.6562 128.48 16.6235C128.48 16.6235 126.753 13.4386 123.126 16.4427C119.498 19.4467 111.749 16.5952 109.343 13.9103C109.343 13.9103 109.407 16.0241 107.293 20.869C105.179 25.7138 102.706 30.4417 106.927 32.6797C111.148 34.9212 117.601 35.6164 117.483 38.5531C117.366 41.4898 105.353 42.6673 101.782 33.8678C101.782 33.8678 97.8347 41.3195 98.5915 43.8413C99.3483 46.363 103.811 49.0408 110.867 47.4802C117.928 45.9232 121.626 47.3206 121.541 49.5196C121.456 51.7186 100.308 53.1798 97.8525 45.7955C97.8525 45.7955 96.5556 61.4509 97.3977 63.2561C98.2398 65.065 107.471 65.0721 112.992 62.9334C118.517 60.7947 124.06 62.8873 125.258 64.8309C126.455 66.7745 118.993 65.448 115.558 66.6326C112.122 67.8208 97.2342 66.4234 97.2342 66.4234C97.2342 66.4234 98.9966 67.5867 99.3483 72.9352C99.7001 78.2837 103.406 86.8846 106.678 86.1327C109.951 85.3807 124.696 78.7767 129.766 78.4539C134.837 78.1312 138.976 78.9505 136.67 80.8125C134.361 82.6746 127.819 83.1853 123.239 84.9339C118.659 86.6824 107.449 92.6338 104.731 90.6157C104.731 90.6157 109.304 104.264 122.795 105.381C122.795 105.381 129.081 101.792 132.35 95.8259C135.622 89.8567 137.264 87.4982 139.605 87.8847C141.947 88.2713 139.648 92.3714 137.512 96.0352C135.377 99.699 130.587 108.325 127.411 108.864C127.411 108.864 147.813 109.36 150.527 95.7337C153.071 82.9512 151.735 81.3729 151.561 81.2275C152.254 81.7276 173.335 96.6239 181.066 68.7642C181.066 68.7642 177.52 74.627 172.951 74.1447C168.382 73.6623 161.144 77.3864 161.062 74.1269C160.98 70.8675 177.573 72.6586 180.65 66.3702C183.727 60.0818 180.199 49.9913 172.912 47.3986C172.912 47.3986 173.058 53.8183 167.234 57.8332C161.41 61.8445 152.471 65.675 154.35 60.4223C156.226 55.1696 173.189 47.5724 173.885 42.912C174.582 38.2516 160.462 29.5408 160.462 29.5408C160.462 29.5408 160.277 32.0022 156.685 39.5142C153.093 47.0298 147.454 54.8362 146.48 52.7294C145.507 50.6226 149.547 45.7884 152.993 41.3266C156.44 36.8684 158.191 29.7678 155.914 27.8206C153.636 25.8735 145.244 21.6918 145.244 21.6918C145.244 21.6918 142.561 32.2221 141.811 37.106C141.062 41.9899 133.952 49.243 133.071 44.1888L133.074 44.1924ZM151.035 70.8284C146.416 75.7797 146.455 70.0624 147.319 66.207C147.973 63.281 155.654 65.8772 151.035 70.8284ZM143.602 60.3336C140.621 63.6782 138.347 63.2136 138.589 60.738C139.147 55.049 146.583 56.989 143.602 60.3336ZM134.457 50.1758C132.957 52.0945 131.884 52.435 130.935 49.8388C129.987 47.2461 135.956 48.257 134.457 50.1758Z" fill="#ADD3AA"/>
<path d="M201.457 51.6548L108.963 42.6532L16.4686 52.8324V269.351L108.963 263.991L201.457 269.932L293.838 260.863V46.622L201.457 51.6548Z" fill="white"/>
<path d="M110.949 259.054L23.0667 264.137V58.7413L110.949 49.0835V259.054Z" fill="#5FAA58"/>
<path d="M198.832 264.69L110.949 259.054V49.0835L198.832 57.6241V264.69Z" fill="#80C479"/>
<path d="M286.604 256.086L198.832 264.69V57.624L286.604 52.8501V256.086Z" fill="#5FAA58"/>
<path opacity="0.47" d="M110.949 49.0835H108.96V259.111H110.949V49.0835Z" fill="white"/>
<g opacity="0.7">
<path opacity="0.7" d="M224.275 61.1174L247.062 77.4857L231.531 91.1584L213.229 75.1696L224.275 61.1174Z" fill="#5FAA58"/>
<path opacity="0.7" d="M74.8852 93.251L76.7861 75.1697L109.954 84.2103V107.151L74.8852 93.251Z" fill="#5FAA58"/>
<path opacity="0.7" d="M264.809 205.743L283.204 197.114L285.694 214.613L269.617 219.462L264.809 205.743Z" fill="#5FAA58"/>
<path opacity="0.7" d="M91.4818 219.664L109.954 228.588L128.367 225.729L126.704 213.904L109.954 210.269L91.4818 219.664Z" fill="#ADD3AA"/>
<path opacity="0.7" d="M77.2161 125.587L29.7572 111.495L30.5318 108.374L77.9906 122.465L77.2161 125.587Z" fill="white"/>
<path opacity="0.7" d="M35.0976 209.864L32.1272 207.456L64.3218 159.997L100.929 157.153L105.534 122.324L72.0605 98.188L23.5997 114.209L22.5302 110.339L72.6503 93.7688L109.532 120.362L104.163 160.955L66.2796 163.895L35.0976 209.864Z" fill="white"/>
<path opacity="0.7" d="M57.006 233.631L18.7391 198.167L21.1303 195.085L59.3972 230.549L57.006 233.631Z" fill="white"/>
<path opacity="0.7" d="M132.335 194.156L131.248 190.293L192.717 169.634L193.804 173.496L132.335 194.156Z" fill="white"/>
<path opacity="0.7" d="M200.42 199.813L177.584 138.337L181.009 136.816L203.849 198.291L200.42 199.813Z" fill="white"/>
<path opacity="0.7" d="M233.592 214.943L230.87 212.209L252.633 186.332L255.354 189.066L233.592 214.943Z" fill="white"/>
<path opacity="0.7" d="M239.366 202.065L216.917 153.904L219.553 152.436L241.998 200.597L239.366 202.065Z" fill="white"/>
<path opacity="0.7" d="M239.259 104.64L237.113 101.348C237.02 101.423 236.96 101.483 236.957 101.487C238.133 100.231 254.065 79.1527 264.489 65.292L265.79 63.5612L289.5 89.7397L286.87 92.5842L266.042 69.5871C263.754 72.6302 258.773 79.2378 253.788 85.8312C239.977 104.083 239.593 104.381 239.259 104.643V104.64Z" fill="white"/>
<path opacity="0.7" d="M191.484 126.065L184.054 98.2625L174.976 72.9211L133.874 75.5918L132.673 71.6229L177.438 68.7111L187.583 97.0425L195.033 124.931L191.484 126.065Z" fill="white"/>
<path opacity="0.7" d="M74.6543 94.1057L71.7052 93.861L73.2437 71.8499L108.959 79.9187V83.2207L75.9369 75.7584L74.6543 94.1057Z" fill="white"/>
<path opacity="0.7" d="M231.065 93.5205L229.221 90.9917L244.613 77.5531L223.284 60.7699L225.015 58.1453L249.506 77.4183L231.065 93.5205Z" fill="white"/>
<path opacity="0.7" d="M271.489 220.668L270.7 217.55L283.662 213.638L281.665 199.625L265.022 207.428L263.857 204.456L284.003 195.011L286.988 215.99L271.489 220.668Z" fill="white"/>
<path opacity="0.7" d="M287.194 219.657L262.66 124.576L266.22 123.48L290.754 218.557L287.194 219.657Z" fill="white"/>
<path opacity="0.7" d="M186.595 268.861L183.88 266.119L228.784 212.985L231.502 215.731L186.595 268.861Z" fill="white"/>
<path opacity="0.7" d="M110.587 256.384L56.1746 232.723L57.5425 228.964L109.262 251.461L123.986 228.949L110.754 232.404L88.2094 220.941L89.7692 217.277L111.145 228.148L132.748 222.509L110.587 256.384Z" fill="white"/>
<path opacity="0.7" d="M192.251 261.714L151.959 220.767L151.888 220.671L130.633 191.34L132.954 189.332L154.137 218.565L194.266 259.345L192.251 261.714Z" fill="white"/>
</g>
<path d="M121.925 124.335L109.002 108.711C80.0408 97.5496 47.0573 86.0156 21.4714 84.6891L21.6277 81.0537C47.7608 82.4086 81.2204 94.1377 110.505 105.434L110.903 105.587L124.391 121.894L121.921 124.335H121.925Z" fill="#ADD3AA"/>
<path d="M284.454 248.804C256.243 229.872 224.336 209.034 202.164 200.976L130.1 230.053L128.949 226.641L202.101 197.125L202.651 197.32C225.185 205.353 257.589 226.506 286.195 245.701L284.454 248.801V248.804Z" fill="#ADD3AA"/>
<path d="M143.741 111.29L121.616 51.4171L124.703 50.0552L146.825 109.928L143.741 111.29Z" fill="#ADD3AA"/>
<path d="M243.999 127.864C238.275 103.593 227.249 86.881 210.294 76.7657L211.889 73.5736C221.245 79.1526 229.005 86.764 234.949 96.1983C240.35 104.764 244.365 114.826 247.225 126.956L244.002 127.864H243.999Z" fill="#ADD3AA"/>
<path d="M71.2397 227.616L68.4612 225.58L101.157 170.563L103.935 172.599L71.2397 227.616Z" fill="#ADD3AA"/>
<path d="M253.18 129.928L157.132 125.743L157.267 122.107L252.59 126.261L287.556 110.591L288.818 113.957L253.18 129.928Z" fill="#ADD3AA"/>
<path d="M23.6637 248.602L22.4663 245.208L109.723 208.414L126.867 210.276L126.537 213.897L110.182 212.12L23.6637 248.602Z" fill="#ADD3AA"/>
<path d="M136.116 174.745C98.6519 174.312 63.5402 172.23 45.6361 151.804L48.038 149.286C65.0502 168.694 99.4265 170.68 136.151 171.106L136.116 174.745Z" fill="#ADD3AA"/>
<path d="M132.826 260.831L124.995 209.836L125.115 209.421L147.671 130.811L157.783 112.102L197.791 88.4629L224.482 56.3578L226.944 58.805L199.873 91.3677L160.177 114.822L150.733 132.301L128.409 210.095L136.109 260.228L132.826 260.831Z" fill="#ADD3AA"/>
<path d="M288.313 256.923L241.561 164.452L155.139 129.839L139.758 125.831L83.9279 121.217L22.2815 170.598L20.3166 167.662L82.9543 117.486L83.5655 117.539L140.273 122.224L156.102 126.353L156.191 126.388L243.874 161.501L244.176 162.097L291.223 255.163L288.313 256.923Z" fill="#ADD3AA"/>
<path d="M44.6661 240.189C44.2575 240.189 43.8666 239.952 43.689 239.554C43.4509 239.015 43.6925 238.387 44.2326 238.15L48.1303 236.426C48.6704 236.188 49.2993 236.43 49.5374 236.969C49.7754 237.508 49.5338 238.136 48.9937 238.373L45.096 240.097C44.9574 240.157 44.8082 240.189 44.6661 240.189ZM52.4651 236.745C52.0565 236.745 51.6657 236.508 51.488 236.11C51.25 235.571 51.4916 234.944 52.0316 234.706L55.9294 232.982C56.4659 232.745 57.0984 232.986 57.3364 233.525C57.5745 234.064 57.3329 234.692 56.7928 234.929L52.8951 236.653C52.7565 236.713 52.6073 236.745 52.4651 236.745ZM60.2642 233.301C59.8556 233.301 59.4647 233.064 59.2871 232.667C59.049 232.127 59.2906 231.5 59.8307 231.262L63.7285 229.538C64.265 229.301 64.8974 229.542 65.1355 230.081C65.3736 230.62 65.1319 231.248 64.5919 231.485L60.6941 233.209C60.5555 233.269 60.4063 233.301 60.2642 233.301ZM109.855 231.521C109.674 231.521 109.492 231.475 109.325 231.379L105.63 229.255C105.119 228.96 104.944 228.311 105.239 227.8C105.534 227.29 106.185 227.116 106.696 227.41L110.391 229.535C110.903 229.829 111.077 230.478 110.782 230.989C110.587 231.329 110.228 231.521 109.858 231.521H109.855ZM114.03 230.801C113.529 230.801 113.081 230.446 112.985 229.936C112.875 229.357 113.252 228.801 113.831 228.691L118.02 227.893C118.595 227.783 119.157 228.159 119.267 228.737C119.377 229.315 119.001 229.872 118.421 229.982L114.232 230.78C114.165 230.794 114.097 230.797 114.03 230.797V230.801ZM68.0633 229.854C67.6546 229.854 67.2638 229.616 67.0861 229.219C66.8481 228.68 67.0897 228.052 67.6298 227.815L71.5275 226.091C72.064 225.853 72.6965 226.094 72.9346 226.634C73.1726 227.173 72.931 227.8 72.3909 228.038L68.4932 229.762C68.3546 229.822 68.2054 229.854 68.0633 229.854ZM122.408 229.201C121.907 229.201 121.459 228.847 121.363 228.336C121.253 227.758 121.63 227.201 122.209 227.091L126.398 226.293C126.977 226.183 127.535 226.563 127.645 227.137C127.755 227.715 127.379 228.272 126.8 228.382L122.61 229.18C122.543 229.194 122.475 229.198 122.408 229.198V229.201ZM130.776 227.563C130.331 227.563 129.916 227.283 129.766 226.843C129.578 226.286 129.873 225.683 130.431 225.491L134.467 224.119C135.025 223.927 135.629 224.225 135.821 224.782C136.009 225.339 135.714 225.942 135.157 226.133L131.12 227.506C131.006 227.545 130.889 227.563 130.776 227.563ZM102.468 227.272C102.287 227.272 102.106 227.226 101.939 227.13L98.2433 225.006C97.7317 224.711 97.5576 224.062 97.8525 223.551C98.1474 223.041 98.7976 222.867 99.3092 223.161L103.004 225.286C103.516 225.58 103.69 226.229 103.395 226.74C103.2 227.08 102.841 227.272 102.472 227.272H102.468ZM75.8623 226.407C75.4537 226.407 75.0629 226.169 74.8852 225.772C74.6472 225.233 74.8888 224.605 75.4288 224.367L79.3266 222.643C79.8631 222.406 80.4956 222.647 80.7336 223.186C80.9717 223.725 80.7301 224.353 80.19 224.591L76.2922 226.314C76.1537 226.375 76.0044 226.407 75.8623 226.407ZM138.848 224.818C138.404 224.818 137.988 224.537 137.839 224.098C137.651 223.541 137.946 222.938 138.504 222.746L142.54 221.374C143.098 221.186 143.702 221.484 143.894 222.037C144.082 222.594 143.787 223.197 143.229 223.388L139.193 224.761C139.079 224.8 138.962 224.818 138.848 224.818ZM95.0775 223.023C94.8963 223.023 94.7151 222.977 94.5481 222.881L90.8529 220.757C90.3412 220.462 90.1671 219.813 90.462 219.302C90.7569 218.792 91.4072 218.618 91.9188 218.912L95.614 221.037C96.1257 221.331 96.2998 221.98 96.0049 222.491C95.8094 222.831 95.4506 223.023 95.0811 223.023H95.0775ZM83.6614 222.959C83.2528 222.959 82.8619 222.721 82.6843 222.324C82.4462 221.785 82.6878 221.157 83.2279 220.92L87.1257 219.196C87.6622 218.958 88.2946 219.2 88.5327 219.739C88.7707 220.278 88.5291 220.906 87.9891 221.143L84.0913 222.867C83.9527 222.927 83.8035 222.959 83.6614 222.959ZM146.921 222.072C146.477 222.072 146.061 221.792 145.912 221.352C145.723 220.796 146.018 220.193 146.576 220.001L150.613 218.629C151.17 218.437 151.774 218.738 151.966 219.292C152.155 219.849 151.86 220.452 151.302 220.643L147.265 222.016C147.152 222.055 147.035 222.072 146.921 222.072ZM154.976 219.278C154.556 219.278 154.162 219.029 153.992 218.621C153.768 218.079 154.023 217.455 154.567 217.231L158.504 215.6C159.048 215.373 159.673 215.632 159.897 216.174C160.121 216.717 159.865 217.341 159.321 217.564L155.384 219.196C155.249 219.253 155.114 219.278 154.976 219.278ZM162.853 216.018C162.434 216.018 162.039 215.77 161.869 215.362C161.645 214.819 161.901 214.195 162.444 213.972L166.381 212.34C166.925 212.117 167.55 212.372 167.774 212.915C167.998 213.457 167.742 214.082 167.198 214.305L163.258 215.937C163.123 215.993 162.988 216.018 162.849 216.018H162.853ZM170.73 212.759C170.311 212.759 169.917 212.51 169.746 212.103C169.522 211.56 169.778 210.936 170.322 210.712L174.258 209.081C174.802 208.854 175.427 209.113 175.651 209.655C175.875 210.198 175.619 210.822 175.076 211.046L171.139 212.677C171.004 212.734 170.865 212.759 170.73 212.759ZM229.392 212.237C229.243 212.237 229.093 212.205 228.951 212.142L225.071 210.375C224.535 210.131 224.3 209.499 224.545 208.967C224.791 208.432 225.423 208.198 225.956 208.442L229.836 210.209C230.373 210.453 230.607 211.085 230.362 211.617C230.184 212.007 229.797 212.241 229.392 212.241V212.237ZM232.696 211.014C232.43 211.014 232.167 210.914 231.961 210.719C231.534 210.311 231.52 209.641 231.929 209.215L234.878 206.14C235.287 205.715 235.962 205.701 236.384 206.108C236.811 206.516 236.825 207.187 236.416 207.612L233.471 210.687C233.261 210.907 232.981 211.017 232.7 211.017L232.696 211.014ZM178.607 209.499C178.188 209.499 177.794 209.251 177.623 208.843C177.399 208.3 177.655 207.676 178.199 207.453L182.139 205.821C182.683 205.594 183.308 205.853 183.532 206.396C183.756 206.938 183.5 207.563 182.956 207.786L179.02 209.418C178.885 209.474 178.75 209.499 178.611 209.499H178.607ZM221.632 208.705C221.483 208.705 221.333 208.673 221.191 208.609L217.311 206.843C216.775 206.598 216.54 205.967 216.786 205.435C217.031 204.899 217.66 204.665 218.196 204.91L222.076 206.676C222.613 206.921 222.847 207.552 222.602 208.084C222.424 208.474 222.037 208.708 221.632 208.708V208.705ZM186.485 206.24C186.065 206.24 185.671 205.991 185.5 205.584C185.277 205.041 185.532 204.417 186.076 204.193L190.016 202.562C190.56 202.335 191.185 202.594 191.409 203.136C191.633 203.679 191.377 204.303 190.834 204.527L186.893 206.158C186.758 206.215 186.623 206.24 186.485 206.24ZM213.876 205.176C213.726 205.176 213.577 205.144 213.435 205.08L209.555 203.314C209.018 203.069 208.784 202.438 209.029 201.906C209.274 201.37 209.907 201.136 210.44 201.381L214.32 203.147C214.856 203.392 215.091 204.023 214.846 204.555C214.668 204.945 214.281 205.179 213.876 205.179V205.176ZM238.591 204.867C238.324 204.867 238.062 204.768 237.855 204.573C237.429 204.165 237.415 203.495 237.823 203.069L240.769 199.994C241.178 199.568 241.853 199.554 242.275 199.962C242.702 200.37 242.716 201.04 242.307 201.466L239.362 204.541C239.152 204.761 238.872 204.871 238.591 204.871V204.867ZM194.362 202.984C193.943 202.984 193.548 202.736 193.378 202.328C193.154 201.785 193.41 201.161 193.953 200.937L197.894 199.306C198.437 199.079 199.063 199.338 199.286 199.88C199.51 200.423 199.255 201.047 198.711 201.271L194.774 202.902C194.639 202.959 194.504 202.984 194.365 202.984H194.362ZM206.116 201.647C205.966 201.647 205.817 201.615 205.675 201.551L201.795 199.785C201.258 199.54 201.024 198.909 201.269 198.377C201.514 197.841 202.143 197.607 202.68 197.852L206.56 199.618C207.096 199.863 207.331 200.494 207.086 201.026C206.908 201.416 206.521 201.65 206.116 201.65V201.647ZM244.486 198.717C244.219 198.717 243.956 198.618 243.75 198.423C243.324 198.015 243.309 197.344 243.718 196.919L246.667 193.844C247.076 193.418 247.751 193.404 248.174 193.812C248.6 194.22 248.614 194.89 248.206 195.316L245.26 198.391C245.05 198.611 244.77 198.721 244.489 198.721L244.486 198.717ZM250.38 192.567C250.114 192.567 249.851 192.468 249.645 192.273C249.218 191.865 249.204 191.194 249.613 190.769L252.558 187.694C252.967 187.268 253.642 187.254 254.065 187.662C254.491 188.07 254.505 188.74 254.097 189.166L251.151 192.241C250.941 192.461 250.661 192.571 250.38 192.571V192.567ZM254.377 186.14C253.99 186.14 253.617 185.931 253.429 185.562L251.478 181.778C251.208 181.256 251.414 180.614 251.94 180.345C252.462 180.075 253.105 180.281 253.375 180.806L255.326 184.59C255.596 185.112 255.39 185.754 254.864 186.023C254.708 186.105 254.541 186.14 254.377 186.14ZM250.476 178.572C250.089 178.572 249.716 178.362 249.527 177.993L247.577 174.209C247.307 173.688 247.513 173.046 248.039 172.776C248.561 172.507 249.204 172.712 249.474 173.237L251.425 177.022C251.695 177.543 251.489 178.185 250.963 178.455C250.806 178.536 250.639 178.572 250.476 178.572ZM246.575 171.003C246.187 171.003 245.814 170.794 245.626 170.425L243.675 166.64C243.405 166.119 243.611 165.477 244.137 165.207C244.66 164.938 245.303 165.144 245.573 165.669L247.523 169.453C247.793 169.974 247.587 170.616 247.062 170.886C246.905 170.967 246.738 171.003 246.575 171.003ZM242.222 163.924C242.087 163.924 241.949 163.899 241.814 163.842L237.877 162.21C237.333 161.983 237.074 161.363 237.301 160.82C237.525 160.277 238.15 160.022 238.694 160.246L242.631 161.877C243.174 162.104 243.434 162.725 243.206 163.267C243.036 163.675 242.638 163.924 242.222 163.924ZM234.345 160.66C234.21 160.66 234.071 160.636 233.936 160.579L230 158.947C229.456 158.72 229.197 158.1 229.424 157.557C229.648 157.014 230.273 156.759 230.817 156.983L234.754 158.614C235.297 158.841 235.557 159.462 235.329 160.004C235.159 160.412 234.761 160.66 234.345 160.66ZM226.468 157.397C226.333 157.397 226.194 157.373 226.059 157.316L222.122 155.684C221.579 155.457 221.319 154.837 221.547 154.294C221.774 153.751 222.396 153.496 222.939 153.72L226.876 155.351C227.42 155.578 227.679 156.199 227.452 156.741C227.281 157.149 226.883 157.397 226.468 157.397ZM218.59 154.134C218.455 154.134 218.317 154.11 218.182 154.053L214.245 152.421C213.701 152.194 213.442 151.574 213.669 151.031C213.897 150.488 214.519 150.233 215.062 150.457L218.999 152.088C219.543 152.315 219.802 152.936 219.575 153.478C219.404 153.886 219.01 154.134 218.59 154.134ZM210.713 150.871C210.578 150.871 210.44 150.847 210.305 150.79L206.368 149.158C205.824 148.931 205.565 148.311 205.792 147.768C206.016 147.225 206.641 146.97 207.185 147.194L211.122 148.825C211.665 149.052 211.925 149.673 211.697 150.215C211.527 150.623 211.129 150.871 210.713 150.871ZM202.836 147.608C202.701 147.608 202.562 147.584 202.427 147.527L198.491 145.895C197.947 145.668 197.688 145.048 197.915 144.505C198.139 143.962 198.764 143.707 199.308 143.93L203.245 145.562C203.788 145.789 204.048 146.41 203.82 146.952C203.65 147.36 203.255 147.608 202.836 147.608ZM194.959 144.345C194.824 144.345 194.685 144.321 194.55 144.264L190.613 142.632C190.07 142.405 189.81 141.785 190.038 141.242C190.262 140.699 190.887 140.444 191.431 140.667L195.367 142.299C195.911 142.526 196.17 143.147 195.943 143.689C195.772 144.097 195.375 144.345 194.959 144.345ZM187.082 141.082C186.947 141.082 186.808 141.058 186.673 141.001L182.736 139.369C182.192 139.142 181.933 138.522 182.161 137.979C182.384 137.436 183.01 137.181 183.553 137.404L187.49 139.036C188.034 139.263 188.293 139.884 188.066 140.426C187.895 140.834 187.497 141.082 187.082 141.082ZM179.204 137.819C179.069 137.819 178.931 137.795 178.796 137.738L174.859 136.106C174.315 135.879 174.056 135.259 174.283 134.716C174.511 134.173 175.132 133.918 175.676 134.141L179.613 135.773C180.157 136 180.416 136.621 180.189 137.163C180.018 137.571 179.62 137.819 179.204 137.819ZM171.327 134.556C171.192 134.556 171.054 134.532 170.919 134.475L166.982 132.843C166.438 132.616 166.179 131.996 166.406 131.453C166.63 130.91 167.255 130.655 167.799 130.878L171.736 132.51C172.279 132.737 172.539 133.358 172.311 133.9C172.141 134.308 171.743 134.556 171.327 134.556ZM163.45 131.293C163.315 131.293 163.176 131.269 163.041 131.212L159.104 129.58C158.561 129.353 158.301 128.733 158.529 128.19C158.753 127.647 159.378 127.392 159.922 127.615L163.858 129.247C164.402 129.474 164.661 130.095 164.434 130.637C164.264 131.045 163.869 131.293 163.45 131.293ZM155.573 128.03C155.438 128.03 155.299 128.006 155.164 127.949L150.463 126.002L151.256 124.622C151.547 124.111 152.201 123.937 152.712 124.228C152.954 124.367 153.121 124.587 153.199 124.831L155.981 125.984C156.525 126.211 156.784 126.832 156.557 127.374C156.386 127.782 155.988 128.03 155.573 128.03ZM154.301 122.522C154.119 122.522 153.938 122.476 153.771 122.38C153.26 122.09 153.085 121.437 153.377 120.926L155.498 117.234C155.793 116.723 156.443 116.55 156.955 116.84C157.466 117.131 157.641 117.784 157.349 118.295L155.228 121.987C155.033 122.331 154.67 122.522 154.301 122.522ZM158.543 115.138C158.362 115.138 158.181 115.092 158.014 114.996C157.502 114.705 157.328 114.053 157.619 113.542L159.581 110.13L160.38 109.687C160.895 109.403 161.545 109.587 161.83 110.098C162.117 110.612 161.933 111.258 161.417 111.545L161.137 111.701L159.47 114.602C159.275 114.946 158.916 115.138 158.547 115.138H158.543ZM164.626 109.612C164.253 109.612 163.887 109.414 163.695 109.066C163.407 108.552 163.592 107.906 164.107 107.619L167.834 105.548C168.35 105.26 169 105.445 169.284 105.959C169.572 106.473 169.387 107.119 168.872 107.406L165.145 109.477C164.981 109.57 164.804 109.612 164.626 109.612ZM172.077 105.473C171.704 105.473 171.338 105.275 171.146 104.927C170.858 104.413 171.043 103.767 171.558 103.48L175.285 101.409C175.8 101.121 176.447 101.309 176.735 101.82C177.023 102.334 176.838 102.98 176.323 103.267L172.596 105.338C172.432 105.431 172.254 105.473 172.077 105.473ZM179.528 101.334C179.155 101.334 178.789 101.135 178.597 100.788C178.309 100.274 178.494 99.6281 179.009 99.3408L182.736 97.2695C183.251 96.9822 183.902 97.1667 184.186 97.6809C184.474 98.1952 184.289 98.8407 183.774 99.128L180.046 101.199C179.883 101.292 179.705 101.334 179.528 101.334ZM186.979 97.195C186.605 97.195 186.239 96.9964 186.048 96.6488C185.76 96.1346 185.945 95.489 186.46 95.2018L190.187 93.1305C190.702 92.8432 191.349 93.0311 191.637 93.5419C191.924 94.0562 191.74 94.7017 191.224 94.989L187.497 97.0603C187.334 97.1525 187.156 97.195 186.979 97.195ZM194.429 93.056C194.056 93.056 193.69 92.8574 193.498 92.5098C193.211 91.9955 193.395 91.35 193.911 91.0627L197.638 88.9914C198.153 88.7041 198.8 88.8886 199.088 89.4028C199.375 89.9171 199.191 90.5626 198.675 90.8499L194.948 92.9212C194.785 93.0134 194.607 93.056 194.429 93.056ZM201.045 87.9167C200.807 87.9167 200.566 87.8352 200.367 87.672C199.912 87.2961 199.851 86.6257 200.225 86.1753L202.943 82.8981C203.316 82.4441 203.991 82.3838 204.442 82.7562C204.897 83.1322 204.957 83.8025 204.584 84.253L201.866 87.5301C201.656 87.7855 201.351 87.9167 201.045 87.9167ZM206.485 81.3624C206.247 81.3624 206.005 81.2808 205.806 81.1176C205.352 80.7417 205.291 80.0713 205.664 79.6209L208.382 76.3437C208.755 75.8897 209.431 75.8294 209.882 76.2018C210.337 76.5778 210.397 77.2481 210.024 77.6986L207.306 80.9758C207.096 81.2311 206.791 81.3624 206.485 81.3624Z" fill="url(#paint0_linear_771_13963)"/>
<path d="M212.891 77.5212C215.089 77.5212 216.871 75.5744 216.871 73.1729C216.871 70.7714 215.089 68.8246 212.891 68.8246C210.694 68.8246 208.912 70.7714 208.912 73.1729C208.912 75.5744 210.694 77.5212 212.891 77.5212Z" fill="url(#paint1_linear_771_13963)"/>
<path d="M158.276 122.15C159.827 115.59 155.757 109.017 149.185 107.469C142.613 105.92 136.028 109.983 134.477 116.543C132.926 123.103 136.996 129.676 143.568 131.225C150.14 132.773 156.724 128.71 158.276 122.15Z" fill="white"/>
<path d="M146.381 128.094C151.218 128.094 155.139 124.18 155.139 119.352C155.139 114.523 151.218 110.609 146.381 110.609C141.544 110.609 137.622 114.523 137.622 119.352C137.622 124.18 141.544 128.094 146.381 128.094Z" fill="#5FAA58"/>
<path d="M209.31 243.246V251.982C209.31 254.241 211.182 256.103 213.577 256.33C213.737 256.348 213.9 256.355 214.071 256.355H214.81C215.258 256.355 215.688 256.298 216.093 256.192V254.475C215.702 254.628 215.268 254.717 214.81 254.717H214.071C213.904 254.717 213.74 254.702 213.577 254.681C212.088 254.475 210.951 253.344 210.951 251.986V243.25C210.951 241.892 212.092 240.76 213.577 240.554C213.737 240.533 213.9 240.519 214.071 240.519H214.81C215.268 240.519 215.702 240.604 216.093 240.76V239.044C215.684 238.934 215.254 238.88 214.81 238.88H214.071C213.904 238.88 213.74 238.887 213.577 238.902C211.179 239.129 209.31 240.994 209.31 243.25V243.246Z" fill="#107A47"/>
<path d="M213.577 237.451V241.931C213.577 242.626 214.138 243.186 214.835 243.186C215.183 243.186 215.499 243.044 215.723 242.817C215.951 242.59 216.089 242.275 216.089 241.931V237.451C216.089 236.759 215.528 236.196 214.831 236.196C214.483 236.196 214.167 236.337 213.943 236.564C213.716 236.795 213.574 237.107 213.574 237.451H213.577Z" fill="url(#paint2_linear_771_13963)"/>
<path d="M213.577 253.075V257.554C213.577 258.246 214.138 258.81 214.835 258.81C215.183 258.81 215.499 258.668 215.723 258.441C215.951 258.21 216.089 257.898 216.089 257.554V253.075C216.089 252.379 215.528 251.819 214.831 251.819C214.483 251.819 214.167 251.961 213.943 252.188C213.716 252.415 213.574 252.73 213.574 253.075H213.577Z" fill="url(#paint3_linear_771_13963)"/>
<path d="M260.364 292C262.735 292 264.656 290.082 264.656 287.716C264.656 285.349 262.735 283.431 260.364 283.431C257.994 283.431 256.072 285.349 256.072 287.716C256.072 290.082 257.994 292 260.364 292Z" fill="#107A47"/>
<path d="M260.364 290.769C262.054 290.769 263.424 289.402 263.424 287.716C263.424 286.029 262.054 284.662 260.364 284.662C258.675 284.662 257.305 286.029 257.305 287.716C257.305 289.402 258.675 290.769 260.364 290.769Z" fill="url(#paint4_linear_771_13963)"/>
<path d="M228.187 292C230.558 292 232.48 290.082 232.48 287.716C232.48 285.349 230.558 283.431 228.187 283.431C225.817 283.431 223.895 285.349 223.895 287.716C223.895 290.082 225.817 292 228.187 292Z" fill="#107A47"/>
<path d="M228.187 290.769C229.877 290.769 231.247 289.402 231.247 287.716C231.247 286.029 229.877 284.662 228.187 284.662C226.498 284.662 225.128 286.029 225.128 287.716C225.128 289.402 226.498 290.769 228.187 290.769Z" fill="url(#paint5_linear_771_13963)"/>
<path d="M259.703 181.136H257.735V209.978H259.703V181.136Z" fill="#107A47"/>
<path d="M230.817 181.136H228.848V209.978H230.817V181.136Z" fill="#107A47"/>
<path d="M224.794 208.109H263.758C269.318 208.109 273.561 212.408 273.561 218.235V277.1C273.561 282.928 269.318 287.389 263.758 287.389H224.794C219.234 287.389 214.096 282.928 214.096 277.1V218.235C214.096 212.408 219.237 208.109 224.794 208.109Z" fill="#F6EF6F"/>
<g opacity="0.7">
<path opacity="0.34" d="M217.286 220.891C217.286 215.589 221.479 212.092 226.539 212.092H261.999C267.058 212.092 270.366 215.585 270.366 220.891V274.444C270.366 279.746 267.058 283.803 261.999 283.803H226.539C221.479 283.803 217.286 279.749 217.286 274.444V220.891Z" fill="#FFBB18"/>
</g>
<g opacity="0.7">
<g style="mix-blend-mode:soft-light" opacity="0.7">
<path d="M261.43 218.866H260.943C259.976 218.866 259.192 219.649 259.192 220.615V274.883C259.192 275.849 259.976 276.632 260.943 276.632H261.43C262.398 276.632 263.182 275.849 263.182 274.883V220.615C263.182 219.649 262.398 218.866 261.43 218.866Z" fill="white"/>
</g>
<g style="mix-blend-mode:soft-light" opacity="0.7">
<path d="M250.256 218.866H249.769C248.802 218.866 248.017 219.649 248.017 220.615V274.883C248.017 275.849 248.802 276.632 249.769 276.632H250.256C251.223 276.632 252.007 275.849 252.007 274.883V220.615C252.007 219.649 251.223 218.866 250.256 218.866Z" fill="white"/>
</g>
<g style="mix-blend-mode:soft-light" opacity="0.7">
<path d="M238.683 218.866H238.197C237.229 218.866 236.445 219.649 236.445 220.615V274.883C236.445 275.849 237.229 276.632 238.197 276.632H238.683C239.651 276.632 240.435 275.849 240.435 274.883V220.615C240.435 219.649 239.651 218.866 238.683 218.866Z" fill="white"/>
</g>
<g style="mix-blend-mode:soft-light" opacity="0.7">
<path d="M226.709 218.866H226.223C225.255 218.866 224.471 219.649 224.471 220.615V274.883C224.471 275.849 225.255 276.632 226.223 276.632H226.709C227.677 276.632 228.461 275.849 228.461 274.883V220.615C228.461 219.649 227.677 218.866 226.709 218.866Z" fill="white"/>
</g>
</g>
<path d="M234.086 165.732H253.322C256.74 165.732 260.204 167.396 260.204 170.577V181.164C260.204 181.512 259.924 181.792 259.576 181.792H257.881C257.533 181.792 257.252 181.512 257.252 181.164V170.577C257.252 169.566 255.418 168.683 253.326 168.683H234.089C231.311 168.683 231.311 170.109 231.311 170.577V181.164C231.311 181.512 231.03 181.792 230.682 181.792H228.987C228.639 181.792 228.358 181.512 228.358 181.164V170.577C228.358 168.236 229.865 165.732 234.089 165.732H234.086Z" fill="#0C4F2F"/>
<path d="M263.484 285.946H264.06C268.767 285.946 272.598 281.899 272.598 276.926V268.152C272.598 268.084 272.541 268.027 272.473 268.027C272.406 268.027 272.349 268.084 272.349 268.152V276.926C272.349 281.764 268.629 285.701 264.06 285.701H263.484C263.416 285.701 263.36 285.758 263.36 285.825C263.36 285.892 263.416 285.949 263.484 285.949V285.946Z" fill="white"/>
<path d="M272.47 266.034C272.537 266.034 272.594 265.977 272.594 265.91V260.831C272.594 260.764 272.537 260.707 272.47 260.707C272.402 260.707 272.345 260.764 272.345 260.831V265.91C272.345 265.977 272.402 266.034 272.47 266.034Z" fill="white"/>
</g>
<defs>
<linearGradient id="paint0_linear_771_13963" x1="43.5966" y1="158.071" x2="255.433" y2="158.071" gradientUnits="userSpaceOnUse">
<stop stop-color="#FF928E"/>
<stop offset="1" stop-color="#FE7062"/>
</linearGradient>
<linearGradient id="paint1_linear_771_13963" x1="221.593" y1="-3.73825" x2="215.762" y2="47.9827" gradientUnits="userSpaceOnUse">
<stop stop-color="#FF928E"/>
<stop offset="1" stop-color="#FE7062"/>
</linearGradient>
<linearGradient id="paint2_linear_771_13963" x1="216.093" y1="239.693" x2="213.577" y2="239.693" gradientUnits="userSpaceOnUse">
<stop stop-color="#09005D"/>
<stop offset="1" stop-color="#1A0F91"/>
</linearGradient>
<linearGradient id="paint3_linear_771_13963" x1="-1370.39" y1="255.316" x2="-1370.75" y2="255.316" gradientUnits="userSpaceOnUse">
<stop stop-color="#09005D"/>
<stop offset="1" stop-color="#1A0F91"/>
</linearGradient>
<linearGradient id="paint4_linear_771_13963" x1="263.427" y1="287.715" x2="257.305" y2="287.715" gradientUnits="userSpaceOnUse">
<stop stop-color="#09005D"/>
<stop offset="1" stop-color="#1A0F91"/>
</linearGradient>
<linearGradient id="paint5_linear_771_13963" x1="231.25" y1="287.715" x2="225.128" y2="287.715" gradientUnits="userSpaceOnUse">
<stop stop-color="#09005D"/>
<stop offset="1" stop-color="#1A0F91"/>
</linearGradient>
<clipPath id="clip0_771_13963">
<rect width="307" height="292" fill="white"/>
</clipPath>
</defs>
</svg>
