<svg width="307" height="292" viewBox="0 0 307 292" fill="none" xmlns="http://www.w3.org/2000/svg">
<g clip-path="url(#clip0_3_2)">
<path d="M294.172 197.979C263.174 266.895 181.346 296.496 117.232 291.451C99.7283 290.074 64.5056 287.3 37.0036 262.563C-15.8119 215.057 -7.67646 115.761 42.8803 57.3001C49.3901 49.7721 94.459 -0.667346 164.686 0.00669368C216.102 0.499807 252.195 28.1283 256.583 31.5695C262.126 35.9188 274.353 46.2494 285.373 62.6392C311.264 101.152 313.542 154.915 294.172 197.979V197.979Z" fill="#F5F2B1" fill-opacity="0.7"/>
<path d="M248.945 29.0489V203.466C242.711 196.048 236.917 188.24 231.641 180.106C231.159 179.367 230.687 178.624 230.219 177.876C224.434 168.733 219.3 159.182 214.924 149.3C211.019 140.487 207.721 131.413 205.097 122.127C203.56 116.691 202.257 111.186 201.197 105.63C201.197 105.63 201.197 105.621 201.197 105.617C200.518 102.07 199.94 98.5057 199.463 94.9319C199.463 94.9319 199.463 94.9227 199.463 94.9181C198.615 88.5092 198.091 82.0544 197.899 75.5996C197.413 58.8777 199.193 42.1099 203.436 25.9293C205.84 16.7586 209.102 7.65217 214.703 0C226.227 6.37681 236.609 14.7813 245.33 24.6448C246.592 26.0715 247.799 27.5441 248.95 29.0535L248.945 29.0489Z" fill="#80C379"/>
<path d="M216.066 6.75743C218.915 14.9234 221.612 23.1399 224.154 31.4022C226.695 39.6645 229.086 47.9773 231.324 56.3314C233.563 64.6855 235.641 73.0808 237.564 81.5083C239.49 89.9404 241.257 98.4046 242.867 106.901C244.477 115.397 245.931 123.921 247.225 132.472C247.386 133.532 247.542 134.592 247.698 135.647C247.826 136.519 249.152 136.147 249.023 135.28C247.766 126.724 246.353 118.191 244.78 109.69C243.206 101.189 241.477 92.7159 239.591 84.2747C237.706 75.838 235.664 67.4335 233.467 59.0702C231.269 50.7069 228.916 42.385 226.411 34.1089C223.906 25.8328 221.245 17.6026 218.438 9.42744C218.089 8.41357 217.74 7.40429 217.387 6.39043C217.098 5.56007 215.768 5.91789 216.061 6.75743H216.066Z" fill="#FFF8E7"/>
<path d="M210.703 18.7175C215.194 20.0984 219.204 22.7363 222.268 26.2917C222.846 26.9615 223.819 25.9843 223.241 25.3191C220.025 21.5893 215.772 18.8368 211.065 17.3917C210.217 17.1302 209.854 18.4606 210.698 18.7175H210.703Z" fill="#FFF8E7"/>
<path d="M229.971 16.0152C226.204 19.5981 224.195 24.8739 224.645 30.0533C224.723 30.9296 226.099 30.9387 226.021 30.0533C225.599 25.2088 227.416 20.3459 230.943 16.9878C231.586 16.3776 230.613 15.405 229.971 16.0152Z" fill="#FFF8E7"/>
<path d="M208.102 35.0404C215.148 37.3388 221.571 41.4172 226.677 46.7847C228.127 48.3078 229.466 49.9318 230.682 51.6476C231.191 52.3633 232.384 51.6751 231.87 50.9549C227.429 44.6973 221.438 39.5684 214.547 36.1873C212.579 35.2193 210.547 34.3981 208.464 33.7192C207.62 33.4439 207.258 34.7743 208.097 35.045L208.102 35.0404Z" fill="#FFF8E7"/>
<path d="M236.949 28.3194C232.43 29.9664 228.879 33.8246 227.682 38.4948C227.462 39.3527 228.787 39.7197 229.008 38.8618C230.081 34.6779 233.247 31.1271 237.316 29.6453C238.142 29.3425 237.784 28.0121 236.949 28.3194Z" fill="#FFF8E7"/>
<path d="M205.528 53.8221C213.9 56.5196 221.773 60.7816 228.59 66.3418C230.531 67.9245 232.384 69.6082 234.146 71.3836C234.77 72.0121 235.742 71.0395 235.118 70.411C228.792 64.0434 221.277 58.8639 213.07 55.2305C210.726 54.1937 208.331 53.2808 205.895 52.4963C205.051 52.2256 204.688 53.5514 205.528 53.8221Z" fill="#FFF8E7"/>
<path d="M234.224 56.68C236.247 52.0373 239.825 48.2112 244.339 45.9082C245.128 45.5045 244.431 44.3164 243.647 44.7201C238.954 47.1194 235.141 51.1519 233.04 55.9873C232.691 56.7901 233.875 57.492 234.228 56.68H234.224Z" fill="#FFF8E7"/>
<path d="M208.726 74.127C217.731 80.5635 226.113 87.8624 233.728 95.8907C235.889 98.1708 237.986 100.506 240.022 102.896C240.596 103.57 241.568 102.593 240.995 101.923C233.737 93.3997 225.668 85.5731 216.915 78.5954C214.465 76.6456 211.969 74.7601 209.423 72.9388C208.703 72.425 208.014 73.6178 208.73 74.127H208.726Z" fill="#FFF8E7"/>
<path d="M239.49 83.9582C242.133 78.1778 245.468 72.7231 249.432 67.7547C249.978 67.0711 249.01 66.0894 248.459 66.7821C244.417 71.8468 240.995 77.3704 238.302 83.2655C237.935 84.0637 239.123 84.7656 239.49 83.9582Z" fill="#FFF8E7"/>
<path d="M227.512 110.571C232.962 114.191 237.747 118.824 241.523 124.169C242.596 125.692 243.592 127.27 244.505 128.894C244.94 129.665 246.129 128.972 245.693 128.201C242.399 122.343 238.022 117.09 232.838 112.814C231.356 111.594 229.81 110.447 228.209 109.383C227.471 108.892 226.778 110.085 227.517 110.571H227.512Z" fill="#FFF8E7"/>
<path d="M248.945 149.516V219.266H237.192C235.82 219.514 234.444 219.757 233.072 220C232.366 219.757 231.659 219.514 230.957 219.266C207.703 211.013 186.104 198.314 169.079 180.583C167.253 178.688 165.492 176.729 163.794 174.715C160.909 171.307 158.207 167.738 155.702 164.035C148.302 153.094 142.636 140.969 139.195 128.234C135.223 113.507 129.41 46.5049 157.899 52.689C171.653 55.671 185.457 64.4838 197.894 75.5951C209.634 86.0824 220.163 98.6204 228.274 110.245C230.87 113.975 233.224 117.595 235.288 121.031C240.715 130.073 245.28 139.625 248.945 149.511V149.516Z" fill="#ADD3AA"/>
<path d="M249.542 217.362C244.243 207.159 238.756 197.048 233.1 187.038C227.443 177.028 221.603 167.118 215.589 157.314C209.597 147.547 203.432 137.886 197.101 128.334C190.756 118.769 184.241 109.314 177.557 99.9828C170.919 90.7112 164.12 81.5543 157.156 72.5258C156.298 71.4111 155.436 70.3008 154.573 69.1906C154.032 68.4933 153.064 69.4705 153.601 70.1632C160.624 79.1963 167.483 88.3532 174.176 97.6294C180.87 106.906 187.384 116.278 193.738 125.775C200.11 135.298 206.313 144.937 212.345 154.677C218.373 164.412 224.227 174.257 229.907 184.198C235.559 194.103 241.041 204.099 246.34 214.197C247.014 215.481 247.684 216.766 248.354 218.05C248.762 218.835 249.95 218.142 249.542 217.357V217.362Z" fill="#FFF8E7"/>
<path d="M177.516 68.4292C178.856 77.9668 179.557 87.5917 179.635 97.2212C179.645 98.1066 181.021 98.1066 181.012 97.2212C180.948 89.6103 180.498 82.0085 179.649 74.4435C179.411 72.3149 179.14 70.1862 178.842 68.0622C178.718 67.1905 177.392 67.5621 177.516 68.4292Z" fill="#FFF8E7"/>
<path d="M145.806 99.6663C154.885 105.204 165.051 108.947 175.552 110.608C178.516 111.076 181.503 111.383 184.503 111.525C185.388 111.567 185.388 110.19 184.503 110.149C174.098 109.654 163.79 107.112 154.353 102.699C151.66 101.437 149.041 100.029 146.504 98.4781C145.747 98.0147 145.054 99.2075 145.811 99.6663H145.806Z" fill="#FFF8E7"/>
<path d="M196.44 88.1148C200.468 97.8451 201.633 108.709 199.752 119.072C199.225 121.99 198.454 124.857 197.463 127.651C197.165 128.486 198.495 128.848 198.789 128.018C202.376 117.925 202.945 106.828 200.537 96.4C199.853 93.4456 198.926 90.5508 197.766 87.7524C197.431 86.9449 196.1 87.2982 196.44 88.1194V88.1148Z" fill="#FFF8E7"/>
<path d="M205.817 140.501C201.505 140.579 197.234 139.432 193.086 138.372C189.081 137.349 185.113 136.175 181.195 134.853C173.383 132.22 165.767 129.009 158.431 125.242C154.293 123.118 150.247 120.82 146.297 118.356C145.545 117.888 144.852 119.077 145.604 119.544C152.711 123.976 160.143 127.876 167.832 131.192C175.479 134.491 183.365 137.234 191.421 139.358C196.091 140.593 200.954 141.964 205.822 141.873C206.707 141.854 206.707 140.478 205.822 140.496L205.817 140.501Z" fill="#FFF8E7"/>
<path d="M213.414 154.649C217.428 145.754 220.204 136.326 221.603 126.669C221.998 123.949 222.287 121.214 222.47 118.466C222.53 117.581 221.154 117.586 221.094 118.466C220.461 128.009 218.488 137.445 215.258 146.446C214.346 148.988 213.336 151.493 212.226 153.952C211.864 154.755 213.052 155.452 213.414 154.644V154.649Z" fill="#FFF8E7"/>
<path d="M220.208 166.953C212.208 166.99 204.225 165.957 196.486 163.921C188.751 161.879 181.282 158.851 174.323 154.906C170.419 152.69 166.671 150.194 163.138 147.423C162.45 146.882 161.468 147.85 162.166 148.396C168.556 153.41 175.585 157.571 183.058 160.755C190.559 163.953 198.454 166.196 206.524 167.366C211.056 168.022 215.63 168.352 220.208 168.329C221.094 168.329 221.094 166.948 220.208 166.953Z" fill="#FFF8E7"/>
<path d="M231.742 181.019C238.252 173.876 242.747 164.944 244.615 155.461C245.138 152.796 245.459 150.094 245.569 147.382C245.606 146.497 244.229 146.497 244.193 147.382C243.807 156.746 240.802 165.935 235.655 173.761C234.192 175.982 232.558 178.083 230.765 180.046C230.168 180.698 231.141 181.675 231.737 181.019H231.742Z" fill="#FFF8E7"/>
<path d="M236.568 192.029C225.053 194.906 213.552 189.91 203.945 183.895C201.147 182.143 198.422 180.276 195.697 178.413C194.963 177.913 194.275 179.101 195.004 179.601C204.739 186.272 215.052 193.185 227.163 194.13C230.439 194.387 233.747 194.153 236.935 193.355C237.793 193.139 237.43 191.814 236.568 192.029Z" fill="#FFF8E7"/>
<path d="M239.779 218.803C238.917 218.954 238.054 219.115 237.192 219.266C235.82 219.514 234.444 219.757 233.072 220L46.117 219.266C46.2317 209.871 52.9434 201.443 61.2378 196.966C69.6378 192.433 79.4278 191.3 88.9655 190.919C96.7737 190.612 104.976 190.662 111.83 186.923C115.711 184.808 118.872 181.615 122.267 178.785C131.741 170.876 143.412 166.293 155.702 164.04C167.432 161.888 179.727 161.866 191.224 163.09H191.238C192.408 163.214 193.568 163.352 194.72 163.503C198.982 164.058 202.982 165.155 206.707 166.701C218.791 171.724 227.934 181.537 233.513 193.309C237.265 201.214 239.417 209.999 239.779 218.807V218.803Z" fill="#FD9F02"/>
<path d="M179.397 170.541C170.497 169.697 161.391 173.729 155.706 180.569C154.078 182.528 152.724 184.698 151.734 187.047C151.587 187.391 151.633 187.781 151.981 187.988C152.27 188.157 152.78 188.084 152.922 187.74C156.275 179.794 163.753 173.991 172.162 172.284C174.539 171.802 176.979 171.683 179.392 171.912C180.273 171.995 180.269 170.619 179.392 170.536L179.397 170.541Z" fill="#FFF8E7"/>
<path d="M172.717 186.845C164.808 185.776 156.505 184.684 148.706 186.997C146.774 187.57 144.958 188.396 143.155 189.277C141.352 190.157 139.388 191.08 137.315 191.456C135.2 191.837 133.034 191.777 130.901 191.942C129.034 192.089 127.204 192.419 125.456 193.094C121.767 194.511 118.602 197.094 116.514 200.452C116.046 201.204 117.235 201.897 117.703 201.145C119.492 198.273 122.153 196.002 125.254 194.653C126.873 193.947 128.607 193.534 130.36 193.364C132.415 193.167 134.489 193.208 136.539 192.951C138.59 192.694 140.425 192.075 142.269 191.222C144.114 190.368 145.779 189.456 147.632 188.79C151.307 187.474 155.206 187.015 159.097 187.015C163.538 187.015 167.96 187.575 172.355 188.166C172.727 188.217 173.089 188.079 173.204 187.685C173.295 187.364 173.089 186.886 172.722 186.836L172.717 186.845Z" fill="#FFF8E7"/>
<path d="M68.468 204.017C74.2897 199.429 82.3319 200.654 88.8004 202.952C90.8878 203.691 92.9293 204.553 94.9662 205.411C95.3103 205.558 95.7186 205.255 95.8149 204.93C95.9296 204.535 95.6773 204.228 95.3332 204.081C88.2774 201.108 80.5106 198.016 72.7896 200.305C70.8582 200.879 69.0736 201.796 67.4954 203.039C66.7981 203.585 67.7799 204.553 68.468 204.012V204.017Z" fill="#FFF8E7"/>
<path d="M65.8654 204.718C87.5587 200.491 110.071 201.825 132.258 203.22C154.444 204.615 176.937 206.038 198.67 201.975C221.419 197.725 242.952 187.53 266.199 187.108C277.748 186.898 290.202 189.611 297.9 197.75C303.284 203.443 305.69 211.18 305.884 218.724C306.076 226.156 304.256 233.599 300.633 240.172C295.502 249.49 286.976 256.815 277.67 262.659C249.228 280.52 213.825 285.539 179.583 288.882C159.386 290.856 139.105 292.404 118.772 292.302C106.645 292.241 94.4452 291.582 82.5914 289.058C56.2225 283.443 32.2984 268.216 16.6898 247.526C11.9616 241.261 10.1301 238.935 14.818 232.588C18.3821 227.757 23.3243 223.583 28.2974 220.062C39.2579 212.3 52.4096 207.336 65.8694 204.714L65.8654 204.718Z" fill="#FFBB18"/>
<path d="M38.3289 187.898C40.7529 187.975 43.427 188.328 45.3925 187.128C46.5628 186.412 47.2361 185.273 47.9928 184.234C50.1443 181.285 53.3089 178.871 56.9994 177.366C58.3974 176.795 59.8915 176.34 61.0651 175.486C62.4438 174.482 63.239 173.041 64.2201 171.744C71.2099 162.528 88.1106 161.829 98.7236 168.102C109.337 174.376 114.524 185.45 116.631 196.251C117.102 198.674 117.388 201.357 115.778 203.398C114.454 205.079 112.129 205.952 109.92 206.722C88.0753 214.359 65.4385 220.386 42.3592 224.711C37.0399 225.709 31.4705 226.611 26.1929 225.462C0.490811 219.866 16.5995 187.202 38.3289 187.901V187.898Z" fill="#107A47"/>
<path d="M230.422 256.748L229.23 264.264H236.297L238.973 255.54L230.422 256.748Z" fill="#F9B99F"/>
<path d="M266.567 256.716L267.56 265.411L273.036 265.728L274.858 254.811L266.567 256.716Z" fill="#F9B99F"/>
<path d="M274.31 257.577H266.67L259.711 197.499L259.471 195.413L259.22 193.253L258.676 188.577L258.61 188.004L257.377 177.355L278.882 174.3L277.233 183.824V183.832L276.074 190.503L275.707 192.622L275.485 193.9L274.314 200.657C284.592 208.911 274.314 257.577 274.314 257.577H274.31Z" fill="#2F2E41"/>
<path d="M257.373 174.296L254.256 188.235L253.168 193.104L252.438 196.357L250.624 204.471C257.884 213.64 238.523 257.573 238.523 257.573H230.327L237.892 195.079L238.404 190.87L238.527 189.847L238.865 187.262L240.313 176.205L257.377 174.296H257.373Z" fill="#2F2E41"/>
<path d="M213.807 117.318C213.807 117.318 209.746 117.14 208.979 122.797C208.212 128.454 211.391 123.679 211.391 123.679C211.391 123.679 214.137 119.478 215.089 119.478L213.803 117.318H213.807Z" fill="#F9B99F"/>
<path d="M213.675 120.084L206.872 123.725V131.393L218.734 127.2L216.087 119.185L213.675 120.084Z" fill="#0C4F2F"/>
<path d="M215.093 120.596C215.093 120.596 211.754 121.89 209.766 125.304C209.144 126.376 209.189 127.708 209.853 128.755C210.517 129.806 210.319 131.031 210.892 131.769C211.642 132.733 217.006 132.655 217.769 128.454C218.531 124.253 215.093 120.596 215.093 120.596Z" fill="#F9B99F"/>
<path d="M231.011 17.4666C231.011 17.4666 222.358 20.9256 226.254 28.5282C226.254 28.5282 221.438 33.5539 226.175 35.5246C226.175 35.5246 223.335 45.7864 229.544 45.1968C229.544 45.1968 230.224 52.0779 236.639 49.5258C236.639 49.5258 241.875 55.4586 245.079 46.6769L231.011 17.4666Z" fill="#2F2E41"/>
<path d="M287.107 184.871C283.714 187.312 280.086 189.113 276.342 190.408C276.284 190.428 276.231 190.445 276.173 190.466C276.14 190.482 276.103 190.49 276.07 190.498C270.525 192.383 264.753 193.154 259.216 193.253C258.911 193.253 258.61 193.261 258.305 193.261C258.094 193.261 257.888 193.261 257.678 193.261C256.796 193.261 255.926 193.24 255.056 193.207C254.421 193.182 253.79 193.149 253.168 193.108C247.639 192.754 242.547 191.843 238.4 190.874C237.901 190.754 237.41 190.639 236.94 190.515C231.349 189.113 227.812 187.699 227.812 187.699C231.378 179.552 233.811 141.061 233.811 141.061H233.836C233.922 132.618 234.367 113.364 236.491 90.4245C239.356 59.4578 247.841 53.5127 247.841 53.5127C288.063 49.4764 283.438 93.8836 283.438 93.8836L281.636 131.649C281.595 132.572 281.619 133.496 281.718 134.419L287.107 184.871Z" fill="#FFF8E7"/>
<path d="M247.915 53.8837C247.915 53.8837 252.199 52.1192 258.226 53.8837L247.915 75.7884L246.88 54.2919L247.915 53.8879V53.8837Z" fill="#107A47"/>
<path d="M257.843 55.4874C254.293 65.1638 247.058 58.7981 247.058 58.7981C248.204 57.0418 248.096 54.1434 247.742 51.8099V51.7851C247.441 49.8268 246.967 48.2725 246.926 48.1323V48.1199L254.062 41.8573C253.864 42.2531 253.848 42.9251 253.959 43.7621C254.108 44.9 254.491 46.3471 254.961 47.8396C256.132 51.5419 257.847 55.4833 257.847 55.4833L257.843 55.4874Z" fill="#F9B99F"/>
<g style="mix-blend-mode:soft-light">
<path d="M229.832 23.2509C229.342 26.2483 229.065 29.2992 229.346 32.3212C229.671 35.838 230.752 39.2847 232.492 42.3604C232.896 43.0777 233.345 43.7786 233.918 44.3682C234.891 45.3659 236.177 45.9843 237.431 46.5863C239.105 47.3861 240.774 48.1859 242.448 48.9858C242.795 49.1507 243.161 49.3197 243.545 49.2785C244.44 49.1796 244.782 48.0705 244.856 47.1717C245.256 42.2779 243.833 37.4377 242.39 32.7459C241.298 29.192 240.152 25.568 237.934 22.583C237.525 22.0347 237.051 21.4905 236.408 21.272C236.008 21.1359 235.575 21.1359 235.155 21.14C233.625 21.1524 232.096 21.1607 230.57 21.173L229.832 23.2509Z" fill="black"/>
</g>
<path d="M257.897 40.5297C257.897 40.5297 257.872 40.5833 257.818 40.6864C257.332 41.6635 256.796 42.5911 256.206 43.4528C254.244 46.3347 251.753 48.4703 248.975 49.1918C248.81 49.233 248.645 49.2701 248.48 49.3031C248.455 49.3031 248.422 49.3196 248.397 49.3237C246.798 49.6247 245.182 49.4763 243.598 48.9568C243.598 48.9568 243.582 48.9568 243.578 48.9568C243.578 48.9568 243.578 48.9568 243.566 48.9568C239.063 47.4767 234.858 43.0653 232.252 37.8746C231.407 36.1883 230.731 34.4238 230.269 32.6468C229.692 30.4328 229.465 28.2807 229.564 26.2523C229.618 24.9866 229.799 23.7703 230.104 22.6242C231.358 17.7798 234.681 14.1146 239.5 12.8571C247.297 10.8287 257.707 13.2364 260.226 24.4836C260.354 25.0484 260.453 25.6256 260.523 26.2152C261.1 30.8822 260.036 36.1842 257.897 40.5462V40.5297Z" fill="#F9B99F"/>
<path d="M257.897 40.5298C257.897 40.5298 257.872 40.5875 257.818 40.6865C257.257 41.7584 253.79 48.0334 248.48 49.3032C248.455 49.3074 248.422 49.3197 248.393 49.3197C246.926 49.6578 245.322 49.6042 243.598 48.9569C243.594 48.9569 243.582 48.9569 243.578 48.9528C243.578 48.9528 243.578 48.9528 243.565 48.9528C239.063 47.4768 234.858 43.0654 232.256 37.8706C232.256 37.8706 236.536 40.3649 245.516 37.8706C252.042 36.0565 256.371 30.301 256.371 30.301L257.897 40.5339V40.5298Z" fill="#FFF8E7"/>
<path d="M233.477 24.6691C233.477 24.6691 238.903 36.2131 248.476 30.8369C248.476 30.8369 252.207 34.2341 256.371 30.2968C260.535 26.3595 259.925 33.8466 258.346 38.1921C258.346 38.1921 253.411 41.9439 256.866 46.9737C256.866 46.9737 265.351 52.5973 268.117 38.9795C268.117 38.9795 273.939 30.2968 266.835 27.5634C266.835 27.5634 272.557 13.422 259.434 12.9272C259.434 12.9272 255.782 4.55374 244.238 7.71184C244.238 7.71184 239.401 6.31419 236.54 8.78378C236.54 8.78378 227.387 12.4366 229.544 21.2183C229.544 21.2183 228.744 26.3513 233.481 24.6733L233.477 24.6691Z" fill="#2F2E41"/>
<path d="M247.841 53.5127C247.841 53.5127 234.714 57.9695 232.257 70.1937C229.803 82.418 225.408 113.743 225.408 113.743L213.807 117.314L217.88 127.324L234.227 125.287C234.227 125.287 240.84 122.76 240.882 114.89L247.841 53.5085V53.5127Z" fill="#FFF8E7"/>
<path d="M229.474 259.981C229.474 259.981 226.303 260.508 222.988 266.874C222.988 266.874 215.604 265.345 212.801 273.24H240.053C240.053 273.24 240.82 263.605 238.016 263.201L229.144 262.681L229.469 259.981H229.474Z" fill="#2F2E41"/>
<path d="M266.402 261.255C266.402 261.255 263.231 261.782 259.917 268.148C259.917 268.148 252.533 266.619 249.729 274.514H276.981C276.981 274.514 277.748 264.879 274.944 264.475L266.072 263.955L266.398 261.255H266.402Z" fill="#2F2E41"/>
<path d="M243.937 122.797C243.937 122.797 235.151 117.755 232.096 126.545L231.139 129.22L233.432 128.099L245.272 123.564" fill="#F9B99F"/>
<path d="M234.615 127.332L227.812 130.977V138.641L239.673 134.448L237.027 126.433L234.615 127.332Z" fill="#0C4F2F"/>
<path d="M246.901 122.76C246.901 122.76 246.86 134.032 242.514 136.407C242.514 136.407 232.768 141.944 230.826 137.392C230.826 137.392 235.081 137.31 235.588 133.673C235.588 133.673 235.283 127.757 233.374 127.794L246.905 122.76H246.901Z" fill="#F9B99F"/>
<path d="M260.791 66.6975C259.476 61.0327 265.911 56.7902 270.603 60.2246C276.754 64.7267 282.91 72.3087 283.285 84.7102C284.048 109.926 282.329 113.743 272.59 120.431C267.111 124.191 259.1 128.313 253.139 131.204C249.234 133.096 244.637 130.536 244.18 126.223C243.916 123.749 245.14 121.354 247.301 120.117L264.118 110.507C266.348 109.233 267.577 106.726 267.214 104.182L263.635 79.0578C263.611 78.8805 263.578 78.7032 263.537 78.5259L260.795 66.6975H260.791Z" fill="#FFF8E7"/>
<path d="M228.583 138.196C229.703 138.196 230.611 136.533 230.611 134.481C230.611 132.43 229.703 130.767 228.583 130.767C227.463 130.767 226.555 132.43 226.555 134.481C226.555 136.533 227.463 138.196 228.583 138.196Z" fill="#0C4F2F"/>
<path d="M228.661 137.013C229.613 137.013 230.385 135.902 230.385 134.531C230.385 133.16 229.613 132.049 228.661 132.049C227.71 132.049 226.938 133.16 226.938 134.531C226.938 135.902 227.71 137.013 228.661 137.013Z" fill="#5FAA58"/>
<path d="M206.872 131.389C207.992 131.389 208.901 129.726 208.901 127.674C208.901 125.623 207.992 123.96 206.872 123.96C205.752 123.96 204.844 125.623 204.844 127.674C204.844 129.726 205.752 131.389 206.872 131.389Z" fill="#0C4F2F"/>
<path d="M204.848 130.528C205.8 130.528 206.571 129.416 206.571 128.046C206.571 126.675 205.8 125.564 204.848 125.564C203.896 125.564 203.124 126.675 203.124 128.046C203.124 129.416 203.896 130.528 204.848 130.528Z" fill="#5FAA58"/>
<path d="M228.661 132.049L222.861 134.44L224.44 138.641L229.647 136.559L228.661 132.049Z" fill="#5FAA58"/>
<path d="M205.211 126.153L200.049 129.686L200.985 132.746L206.196 130.659L205.211 126.153Z" fill="#107A47"/>
<path d="M130.171 221.873L121.937 260.368C121.937 260.368 122.902 266.136 126.056 265.707C129.21 265.279 172.228 255.359 172.228 255.359L175.848 211.323L130.171 221.873Z" stroke="#0C4F2F" stroke-width="4.53513" stroke-miterlimit="10"/>
<path d="M182.238 269.303C203.004 269.303 219.838 252.468 219.838 231.702C219.838 210.936 203.004 194.102 182.238 194.102C161.472 194.102 144.638 210.936 144.638 231.702C144.638 252.468 161.472 269.303 182.238 269.303Z" fill="#107A47"/>
<path d="M119.303 278.789C124.77 278.789 129.202 274.357 129.202 268.89C129.202 263.423 124.77 258.991 119.303 258.991C113.836 258.991 109.404 263.423 109.404 268.89C109.404 274.357 113.836 278.789 119.303 278.789Z" fill="#5FAA58"/>
<path d="M119.336 275.932C122.897 275.932 125.784 273.045 125.784 269.484C125.784 265.923 122.897 263.036 119.336 263.036C115.775 263.036 112.888 265.923 112.888 269.484C112.888 273.045 115.775 275.932 119.336 275.932Z" fill="#80C379"/>
<path d="M141.278 192.91C141.278 192.91 140.89 196.452 144.93 197.116C148.971 197.779 150.187 197.062 151.073 195.013C151.663 193.644 153.127 189.839 154.504 187.542C155.25 186.297 157.167 185.522 158.573 185.172L192.623 176.695C192.813 176.65 192.817 176.382 192.632 176.328L184.295 173.838L146.703 181.948C146.703 181.948 145.318 181.725 144.048 184.714C142.774 187.703 141.282 192.906 141.282 192.906L141.278 192.91Z" fill="#5FAA58"/>
<path d="M147.285 197.355C147.285 197.355 152.764 198.583 154.92 196.258C154.92 196.258 156.582 191.607 157.827 190.033C159.072 188.453 165.215 186.38 166.625 186.05C168.035 185.72 189.952 182.001 189.952 182.001C189.952 182.001 193.889 179.305 192.628 176.699L152.937 184.887L147.285 197.359V197.355Z" fill="#0C4F2F"/>
<path d="M157.245 221.012C157.258 220.974 157.266 220.937 157.27 220.904C157.315 220.608 157.695 218.814 160.321 218.464C162.947 218.113 194.842 213.459 201.232 212.527C201.817 212.44 202.341 212.898 202.341 213.487V223.605C202.341 224.083 201.995 224.487 201.525 224.565L155.53 231.974C154.825 232.086 154.244 231.43 154.442 230.746L157.245 221.016V221.012Z" fill="#0C4F2F"/>
<path d="M140.379 206.178L172.092 200.579C172.607 200.488 173.139 200.537 173.63 200.727L194.78 208.878C197.484 209.921 197.134 213.858 194.281 214.398L160.065 220.913C159.455 221.028 158.824 220.946 158.264 220.673L139.612 211.607C137.097 210.387 137.621 206.66 140.371 206.173L140.379 206.178Z" fill="#107A47"/>
<path d="M132.681 208.239L158.239 220.661C158.754 220.913 159.014 221.498 158.857 222.046L156.301 230.911C156.087 231.649 155.242 231.987 154.578 231.603L128.563 216.485C128.027 216.175 127.825 215.503 128.097 214.947L131.111 208.775C131.395 208.19 132.1 207.946 132.686 208.231L132.681 208.239Z" fill="#0C4F2F"/>
<path d="M226.571 162.785L232.236 140.505C232.236 140.505 232.776 137.499 227.812 135.714C225.219 134.782 198.775 127.332 198.775 127.332C198.775 127.332 193.609 126.672 187.796 138.196C181.982 149.719 226.567 162.785 226.567 162.785H226.571Z" fill="#0C4F2F"/>
<path d="M222.926 138.196C222.926 138.196 231.881 140.785 227.812 157.903C223.133 177.59 217.422 185.955 215.58 189.765C215.287 190.366 214.974 190.952 214.611 191.513C213.287 193.574 210.579 198.509 210.579 201.84C210.579 207.608 209.329 223.77 209.329 223.77L204.209 224.582L203.248 202.949C203.248 202.949 204.345 187.645 212.805 182.319C221.265 176.992 222.931 138.196 222.931 138.196H222.926Z" fill="#0C4F2F"/>
<path d="M204.209 212.51C204.209 212.51 204.398 197.132 209.766 191.731C222.11 179.313 229.23 140.299 229.23 140.299L202.452 132.276L171.704 185.6L172.883 200.443L204.209 212.514V212.51Z" fill="#107A47"/>
<path d="M117.278 269.484L120.927 259.981L113.094 255.541L110.418 266.61L117.278 269.484Z" fill="#F9B99F"/>
<path d="M133.18 276.489L136.982 267.047L129.222 262.479L126.369 273.508L133.18 276.489Z" fill="#F9B99F"/>
<path d="M204.031 127.332C204.031 127.332 202.502 133.422 204.031 136.477C205.561 139.532 193.337 142.842 192.826 141.061C192.314 139.28 195.46 134.184 195.287 129.221L204.031 127.336V127.332Z" fill="#F9B99F"/>
<path d="M187.239 127.357C187.239 127.357 187.284 127.398 187.379 127.472C188.237 128.206 189.123 128.87 190.034 129.447C193.069 131.389 196.301 132.407 199.232 131.966C199.406 131.942 199.579 131.909 199.744 131.872C199.773 131.863 199.806 131.863 199.83 131.855C201.475 131.492 202.947 130.696 204.242 129.563C204.242 129.563 204.254 129.554 204.258 129.55C204.258 129.55 204.258 129.55 204.266 129.542C207.948 126.31 210.15 120.414 210.521 114.424C210.64 112.482 210.566 110.528 210.286 108.652C209.935 106.314 209.276 104.178 208.365 102.286C207.8 101.107 207.132 100.022 206.382 99.0536C203.228 94.9596 198.581 92.8199 193.493 93.5785C185.26 94.8112 176.347 101.321 178.511 113.03C178.622 113.62 178.758 114.205 178.932 114.795C180.276 119.466 183.434 124.075 187.235 127.349L187.239 127.357Z" fill="#F9B99F"/>
<path d="M204.84 97.3262C204.84 97.3262 204.732 113.047 197.563 115.595C197.563 115.595 201.059 113.558 201.203 105.151C201.203 105.151 200.074 115.409 190.393 120.596C190.393 120.596 190.789 112.515 191.865 108.961C191.865 108.961 185.809 114.391 187.59 120.596C187.59 120.596 185.553 119.804 184.279 117.314C184.279 117.314 177.361 118.814 185.809 125.143L190.034 129.447C190.034 129.447 180.498 125.597 178.189 120.596C175.881 115.595 174.095 106.425 176.899 99.804C179.703 93.1827 186.575 90.4245 186.575 90.4245C186.575 90.4245 201.092 86.9531 207.713 95.4173C214.335 103.882 210.529 114.428 210.529 114.428C210.529 114.428 208.868 100.06 204.844 97.3303L204.84 97.3262Z" fill="#2F2E41"/>
<path d="M162.758 202.822C162.758 202.822 151.106 205.271 147.285 206.289C143.755 207.229 138.882 210.766 138.111 213.768C138.086 213.858 138.041 213.937 138.012 214.027L127.61 259.902C126.975 261.82 119.777 264.549 116.244 263.023L109.462 259.202C107.718 258.055 107.392 252.626 107.821 251.352C110.463 243.44 119.88 215.903 126.209 205.625C132.607 195.231 138.016 192.795 139.208 192.362C139.34 192.312 139.472 192.279 139.608 192.251L168.975 186.165C170.517 185.848 172.042 186.759 172.488 188.268L175.44 198.233C175.988 200.084 174.681 201.972 172.756 202.108L162.754 202.822H162.758Z" fill="#FFF8E7"/>
<path d="M168.818 195.813L146.171 199.494C144.118 199.828 142.391 201.131 141.562 202.962C139.896 206.635 137.114 214.584 133.605 231.364C130.096 248.144 126.765 258.08 125.974 262.356C125.541 264.693 125.021 265.101 127.12 266.371L136.408 271.665C141.904 272.7 145.912 269.632 146.221 267.876L158.111 214.085L190.83 212.23C190.83 212.23 203.12 210.758 205.833 191.768L168.818 195.817V195.813Z" fill="#FFF8E7"/>
<path d="M193.287 138.402L165.71 180.641C165.71 180.641 171.84 191.781 182.902 197.499C191.861 202.133 205.231 198.196 205.231 198.196L206.46 135.809L193.287 138.402Z" fill="#FFF8E7"/>
<path d="M160.944 211.756C160.944 211.756 167.247 213.166 169.729 210.494C169.729 210.494 171.638 205.147 173.073 203.333C174.504 201.519 181.574 199.132 183.199 198.748C184.823 198.365 210.034 194.089 210.034 194.089C210.034 194.089 214.561 190.985 213.11 187.992L167.445 197.412L160.944 211.76V211.756Z" fill="#0C4F2F"/>
<path d="M154.034 207.023C154.034 207.023 153.588 211.096 158.235 211.863C162.881 212.626 164.283 211.801 165.301 209.443C165.982 207.868 167.664 203.494 169.247 200.847C170.105 199.416 172.31 198.521 173.926 198.117L213.102 188.367C213.11 187.946 213.324 188.008 213.11 187.946L203.516 185.085L160.263 194.415C160.263 194.415 158.672 194.159 157.208 197.598C155.745 201.036 154.025 207.023 154.025 207.023H154.034Z" fill="#5FAA58"/>
<path d="M194.38 136.605C194.38 136.605 181.348 135.586 171.16 157.235C160.972 178.884 158.425 179.392 162.246 185.506L168.612 194.419L178.181 185.25L171.667 174.3L194.376 136.609L194.38 136.605Z" fill="#FFF8E7"/>
<path d="M172.384 190.915C172.384 190.915 162.646 192.176 159.748 201.317C159.748 201.317 160.511 207.431 160.989 205.143C161.467 202.85 163.471 200.175 163.471 200.175C163.471 200.175 167.202 200.579 170.603 196.452C174.005 192.321 172.384 190.915 172.384 190.915Z" fill="#F9B99F"/>
<path d="M156.297 230.915L147.858 270.939C147.858 270.939 148.901 276.938 152.323 276.489C155.741 276.043 202.386 265.728 202.386 265.728L206.311 219.944L156.301 230.915H156.297Z" stroke="#0C4F2F" stroke-width="4.53513" stroke-miterlimit="10"/>
<path d="M204.58 278.237C225.346 278.237 242.18 261.403 242.18 240.636C242.18 219.87 225.346 203.036 204.58 203.036C183.814 203.036 166.979 219.87 166.979 240.636C166.979 261.403 183.814 278.237 204.58 278.237Z" fill="#5FAA58"/>
<path d="M149.767 287.41C155.234 287.41 159.665 282.978 159.665 277.511C159.665 272.044 155.234 267.612 149.767 267.612C144.299 267.612 139.868 272.044 139.868 277.511C139.868 282.978 144.299 287.41 149.767 287.41Z" fill="#5FAA58"/>
<path d="M149.486 283.939C153.047 283.939 155.934 281.052 155.934 277.491C155.934 273.929 153.047 271.042 149.486 271.042C145.925 271.042 143.038 273.929 143.038 277.491C143.038 281.052 145.925 283.939 149.486 283.939Z" fill="#80C379"/>
<path d="M206.518 267.835C221.555 267.835 233.745 255.645 233.745 240.607C233.745 225.57 221.555 213.38 206.518 213.38C191.48 213.38 179.29 225.57 179.29 240.607C179.29 255.645 191.48 267.835 206.518 267.835Z" fill="#80C379"/>
<path d="M217.773 154.139C214.941 169.299 213.757 183.399 206.959 189.348C205.532 190.593 203.862 191.484 201.875 191.95C196.173 193.285 188.608 194.382 182.444 195.149C176.223 195.92 171.436 196.357 171.436 196.357L167.338 189.377L179.076 184.566L194.273 178.34C194.273 178.34 195.728 178.052 197.472 174.378C199.781 169.509 202.588 158.682 203.149 134.667C203.149 134.667 221.195 135.805 217.773 154.143V154.139Z" fill="#FFF8E7"/>
<path d="M110.418 264.838C110.418 264.838 99.7234 263.23 98.9565 266.61L98 269.228L118.82 274.514C118.82 274.514 119.967 268.639 118.82 267.884L110.414 264.838H110.418Z" fill="#FFF8E7"/>
<path d="M126.996 271.772C126.996 271.772 116.446 269.381 115.436 272.7L114.289 275.24L134.665 282.038C134.665 282.038 136.239 276.262 135.151 275.425L126.992 271.768L126.996 271.772Z" fill="#FFF8E7"/>
<path d="M142.66 46.5436C142.378 42.1851 139.745 38.3217 135.8 36.4489L84.6731 12.1665C81.3987 10.6112 77.5993 10.6112 74.3249 12.1665L23.1985 36.4489C19.2533 38.3237 16.6198 42.1851 16.3383 46.5436C11.5425 120.673 59.073 147.68 74.6543 154.505C77.745 155.858 81.255 155.858 84.3457 154.505C99.927 147.682 147.458 120.673 142.662 46.5436H142.66Z" fill="#0C4F2F"/>
<path d="M64.0348 22.8962C63.5756 22.8962 63.1363 22.6387 62.9267 22.1954C62.6372 21.5845 62.8967 20.8537 63.5077 20.5622L75.587 14.8241C76.1999 14.5346 76.9307 14.7941 77.2202 15.4051C77.5097 16.016 77.2501 16.7468 76.6392 17.0383L64.5599 22.7765C64.3902 22.8563 64.2105 22.8943 64.0348 22.8943V22.8962Z" fill="#ADD3AA"/>
<path d="M20.2476 62.9076C19.5907 62.9076 19.0456 62.3865 19.0237 61.7236C18.8619 56.8859 18.9458 51.8445 19.2772 46.7353C19.4889 43.4509 21.4774 40.5279 24.4623 39.1104L58.8554 22.7764C59.4663 22.4849 60.1971 22.7464 60.4886 23.3574C60.7781 23.9683 60.5185 24.6991 59.9076 24.9906L25.5145 41.3246C23.3303 42.3608 21.8788 44.4951 21.723 46.895C21.3976 51.9244 21.3137 56.8859 21.4735 61.6438C21.4954 62.3206 20.9663 62.8876 20.2895 62.9096C20.2755 62.9096 20.2615 62.9096 20.2476 62.9096V62.9076Z" fill="#ADD3AA"/>
<path d="M130.294 49.4365C130.238 48.3304 129.58 47.3441 128.581 46.8709L80.7872 24.1718C79.9706 23.7845 79.0242 23.7845 78.2076 24.1718L30.4135 46.8709C29.4133 47.3461 28.7564 48.3324 28.7005 49.4365C27.2869 77.0892 33.674 100.162 47.6979 118.043C58.3896 131.676 70.8962 138.983 78.2256 142.391C79.0322 142.767 79.9626 142.767 80.7692 142.391C88.0987 138.983 100.605 131.676 111.297 118.043C125.321 100.162 131.708 77.0892 130.294 49.4365Z" fill="#5FAA58"/>
<path d="M77.6201 100.165C75.9829 100.165 74.4855 99.3802 73.6629 98.1024L60.8548 78.1845C59.7447 76.4575 60.3417 73.9478 62.2085 72.5322C64.1172 71.0847 66.6549 71.3003 67.8548 73.0613L77.2787 86.8896L91.3386 60.423C92.7042 57.8534 96.0585 56.2362 98.8817 56.8571C101.783 57.494 102.959 60.2213 101.455 62.9007L81.9127 97.741C81.1041 99.1846 79.5149 100.109 77.7838 100.165C77.7279 100.165 77.674 100.167 77.6181 100.167L77.6201 100.165Z" fill="#FFBB18"/>
<path d="M61 224V197" stroke="#FFBB18" stroke-width="2" stroke-miterlimit="10"/>
<path d="M61 201C63.2091 201 65 199.209 65 197C65 194.791 63.2091 193 61 193C58.7909 193 57 194.791 57 197C57 199.209 58.7909 201 61 201Z" fill="#FFBB18"/>
<path d="M61 214C61 214 60.4419 201.684 49 203.116L61 214Z" fill="#FFBB18"/>
</g>
<defs>
<clipPath id="clip0_3_2">
<rect width="307" height="292" fill="white"/>
</clipPath>
</defs>
</svg>
