<svg width="307" height="292" viewBox="0 0 307 292" fill="none" xmlns="http://www.w3.org/2000/svg">
<g clip-path="url(#clip0_1_509)">
<path d="M294.172 197.979C263.174 266.895 181.346 296.496 117.232 291.451C99.7283 290.074 64.5056 287.3 37.0036 262.563C-15.8119 215.057 -7.67646 115.761 42.8803 57.3001C49.3901 49.7721 94.459 -0.667346 164.686 0.00669368C216.102 0.499807 252.195 28.1283 256.583 31.5695C262.126 35.9188 274.353 46.2494 285.373 62.6392C311.264 101.152 313.542 154.915 294.172 197.979V197.979Z" fill="#F5F2B1" fill-opacity="0.7"/>
<path d="M254.684 26.0001H253.546C252.99 26.0001 252.284 26.2696 252.284 27.0071V41.0851C252.284 41.8255 252.99 42.4496 253.546 42.4496H254.684C255.24 42.4496 255.118 41.8227 255.118 41.0851V27.0071C255.118 26.2668 255.24 26.0001 254.684 26.0001V26.0001Z" fill="#ADD3AA"/>
<path d="M271.498 26H270.361C269.805 26 268.736 26.2695 268.736 27.007V41.085C268.736 41.8254 269.805 42.4494 270.361 42.4494H271.498C272.054 42.4494 272.137 41.8225 272.137 41.085V27.007C272.137 26.2666 272.054 26 271.498 26V26Z" fill="#ADD3AA"/>
<path d="M275.258 32.374C275.258 33.1001 274.805 33.6561 274.033 33.6561H249.842C249.068 33.6561 248.311 33.1001 248.311 32.374V32.1187C248.311 31.3925 249.068 30.8195 249.842 30.8195H274.033C274.807 30.8195 275.258 31.3925 275.258 32.1187V32.374Z" fill="#ADD3AA"/>
<path d="M274.456 39.0486H253.042C250.83 39.0486 248.311 41.4909 248.311 44.4239V222.009H277.06C277.834 222.009 277.811 221.161 277.811 220.134V44.4211C277.811 41.488 276.668 39.0457 274.456 39.0457V39.0486Z" fill="#ADD3AA"/>
<path d="M261.926 62.876H107.899V72.2368H261.926V62.876Z" fill="#ADD3AA"/>
<path d="M261.926 158.753H107.899V168.681H261.926V158.753Z" fill="#ADD3AA"/>
<path d="M264.479 185.701H107.899V195.629H264.479V185.701Z" fill="#ADD3AA"/>
<path d="M277.812 223.427H96.2693C95.0155 223.427 94 222.412 94 221.158V213.499H277.812V223.427Z" fill="#ADD3AA"/>
<path d="M261.926 113.084H107.899V122.445H261.926V113.084Z" fill="#ADD3AA"/>
<path d="M259.94 142.301H109.884V145.137H259.94V142.301Z" fill="#ADD3AA"/>
<path d="M119.964 39.0485H98.5533C96.3408 39.0485 94.0034 41.4767 94.0034 44.387V218.875C94.0034 219.893 95.1749 220.874 95.9493 220.874H123.504V44.387C123.504 41.4767 122.179 39.0485 119.967 39.0485H119.964Z" fill="#ADD3AA"/>
<path d="M100.194 26H99.0568C98.5009 26 97.9733 26.2695 97.9733 27.007V41.085C97.9733 41.8254 98.5009 42.4494 99.0568 42.4494H100.194C100.75 42.4494 100.526 41.8225 100.526 41.085V27.007C100.526 26.2666 100.75 26 100.194 26V26Z" fill="#ADD3AA"/>
<path d="M117.009 26H115.871C115.315 26 114.425 26.2695 114.425 27.007V41.085C114.425 41.8254 115.315 42.4494 115.871 42.4494H117.009C117.565 42.4494 117.261 41.8225 117.261 41.085V27.007C117.261 26.2666 117.565 26 117.009 26V26Z" fill="#ADD3AA"/>
<path d="M120.949 32.3739C120.949 33.1 120.368 33.656 119.593 33.656H95.403C94.6286 33.656 94.0017 33.1 94.0017 32.3739V32.1186C94.0017 31.3924 94.6286 30.8194 95.403 30.8194H119.593C120.368 30.8194 120.949 31.3924 120.949 32.1186V32.3739Z" fill="#ADD3AA"/>
<path d="M196.332 52.6642H174.919C172.706 52.6642 170.304 54.8569 170.304 57.5971V221.845C170.304 222.803 171.541 223.708 172.315 223.708H200.088V57.5971C200.088 54.8569 198.545 52.6642 196.332 52.6642V52.6642Z" fill="#ADD3AA"/>
<path d="M176.561 39.0486H175.424C174.868 39.0486 173.424 39.7378 173.424 40.4782V54.5562C173.424 55.2966 174.868 55.7845 175.424 55.7845H176.561C177.117 55.7845 177.111 55.2966 177.111 54.5562V40.4754C177.111 39.735 177.117 39.0457 176.561 39.0457V39.0486Z" fill="#ADD3AA"/>
<path d="M193.376 39.0486H192.239C191.683 39.0486 190.727 39.7378 190.727 40.4782V54.5562C190.727 55.2966 191.683 55.7845 192.239 55.7845H193.376C193.932 55.7845 193.564 55.2966 193.564 54.5562V40.4754C193.564 39.735 193.932 39.0457 193.376 39.0457V39.0486Z" fill="#ADD3AA"/>
<path d="M197.252 45.8337C197.252 46.5599 196.559 47.2747 195.785 47.2747H171.594C170.82 47.2747 170.304 46.5599 170.304 45.8337V45.5784C170.304 44.8522 170.823 44.1544 171.594 44.1544H195.785C196.559 44.1544 197.252 44.8522 197.252 45.5784V45.8337Z" fill="#ADD3AA"/>
<path d="M183.638 127.783C164.188 118.779 143.812 109.935 122.406 110.496C114.535 110.702 106.72 112.189 98.8377 112.235C85.691 112.294 72.8337 108.377 61.952 101C56.0713 121.273 50.2441 141.562 44.4702 161.866C42.8799 167.461 40.7633 173.192 39.7107 178.913C37.9717 188.375 59.3778 193.1 66.2652 193.969C74.2053 194.976 82.2826 194.198 90.2913 194.461C97.1044 194.516 103.821 196.078 109.958 199.038C115.93 202.081 122.887 203.763 129.248 206.154C144.91 212.023 161.431 217.069 178.089 215.57C194.747 214.071 211.657 204.644 217.572 189.004C218.979 185.286 219.734 181.35 221.004 177.563C224.276 168.01 234.665 155.551 223.727 147.668C212.08 139.19 196.681 133.801 183.638 127.783Z" fill="#80C379"/>
<path d="M168.845 129.579C160.527 125.793 152.233 121.777 143.343 119.637C122.051 114.546 99.1923 120.656 78.0265 115.061C77.0274 117.312 75.1756 119.074 72.8779 119.96C70.5803 120.846 68.0249 120.783 65.7733 119.786H65.7161C64.7436 123.596 64.7665 128.218 64.0114 132.234C63.0656 137.207 61.9482 142.145 60.6591 147.05C58.1268 156.7 54.9545 166.172 51.1631 175.401C53.0623 175.206 54.6641 177.059 54.9158 178.959C55.0097 180.872 54.616 182.777 53.7717 184.496C53.6458 184.794 59.8926 186.67 60.4875 186.784C62.7675 187.059 65.0722 187.059 67.3521 186.784C72.3175 186.384 77.1456 184.954 82.0766 184.267C100.691 181.682 118.882 189.736 137.062 194.564C143.165 196.169 149.358 197.41 155.608 198.282C160.093 198.912 164.692 199.335 169.108 198.282C173.524 197.23 177.815 194.724 181.693 192.013C189.118 186.796 196.017 180.572 200.857 172.941C204.712 166.831 212.023 150.608 204.815 144.659C200.513 141.112 192.379 139.625 187.196 137.485C181.01 134.968 174.893 132.333 168.845 129.579Z" fill="#5FAA58"/>
<path d="M163.182 132.657C142.588 126.799 121.056 121.216 100.005 125.14C92.2476 126.582 84.7652 129.271 76.9968 130.552C64.0144 132.66 50.6979 130.794 38.7954 125.198C36.1487 146.15 33.5631 167.102 31.0385 188.054C30.3406 193.832 29.1507 199.816 29.002 205.639C28.7617 215.249 50.6368 216.577 57.6044 216.359C65.613 216.108 73.4387 214.071 81.3787 213.099C88.1166 212.046 95.0047 212.515 101.538 214.471C107.91 216.531 115.049 217.114 121.708 218.476C138.092 221.828 155.196 224.196 171.419 220.158C187.642 216.119 202.859 204.14 206.268 187.745C207.069 183.855 207.206 179.851 207.893 175.938C209.643 165.985 217.961 152.061 205.914 145.986C193.008 139.522 177.002 136.616 163.182 132.657Z" fill="#80C379"/>
<path d="M148.846 136.764C140.037 134.316 131.216 131.65 122.109 130.93C100.279 129.225 78.6329 138.835 56.895 136.65C56.5794 137.835 56.0324 138.947 55.2855 139.92C54.5387 140.893 53.6067 141.708 52.5434 142.32C51.48 142.931 50.3062 143.326 49.0895 143.482C47.8728 143.638 46.6373 143.552 45.4541 143.229C45.088 147.153 45.8316 151.706 45.7058 155.814C45.5456 160.871 45.2138 165.939 44.7104 170.973C43.7194 180.9 42.0644 190.75 39.7565 200.456C41.6099 199.964 43.4862 201.6 44.024 203.385C44.403 205.265 44.2967 207.21 43.715 209.037C43.635 209.357 50.0991 210.238 50.7055 210.238C52.9843 210.169 55.2466 209.827 57.4442 209.22C62.2952 208.076 66.8372 205.891 71.5967 204.438C89.5819 198.98 108.803 204.095 127.497 205.971C133.777 206.602 140.088 206.862 146.398 206.749C150.974 206.657 155.55 206.371 159.738 204.689C164.12 202.95 167.747 199.816 171.179 196.532C177.689 190.217 183.546 183.043 187.128 174.703C189.976 168.078 194.679 150.905 186.624 146.1C181.819 143.263 173.547 143.068 168.101 141.764C161.648 140.208 155.23 138.542 148.846 136.764Z" fill="#5FAA58"/>
<path d="M243.36 154.758H110.702C100.933 154.758 93.0142 162.677 93.0142 172.446V266.502C93.0142 276.27 100.933 284.189 110.702 284.189H243.36C253.129 284.189 261.048 276.27 261.048 266.502V172.446C261.048 162.677 253.129 154.758 243.36 154.758Z" fill="#107A47"/>
<path d="M261.048 183.703H93.0142V258.253H261.048V183.703Z" fill="#1F905A"/>
<path d="M259.617 202.604H194.45C187.613 202.604 182.071 208.146 182.071 214.983V224.513C182.071 231.35 187.613 236.893 194.45 236.893H259.617C266.454 236.893 271.997 231.35 271.997 224.513V214.983C271.997 208.146 266.454 202.604 259.617 202.604Z" fill="#0C4F2F"/>
<path d="M199.152 230.875C205.452 230.875 210.559 225.768 210.559 219.468C210.559 213.168 205.452 208.061 199.152 208.061C192.852 208.061 187.745 213.168 187.745 219.468C187.745 225.768 192.852 230.875 199.152 230.875Z" fill="#ADD3AA"/>
<path d="M57.4785 291.654C71.1016 291.654 82.1453 280.61 82.1453 266.987C82.1453 253.364 71.1016 242.32 57.4785 242.32C43.8555 242.32 32.8118 253.364 32.8118 266.987C32.8118 280.61 43.8555 291.654 57.4785 291.654Z" fill="#FFBB18"/>
<path d="M57.49 288.027C69.1037 288.027 78.5185 278.612 78.5185 266.999C78.5185 255.385 69.1037 245.97 57.49 245.97C45.8763 245.97 36.4615 255.385 36.4615 266.999C36.4615 278.612 45.8763 288.027 57.49 288.027Z" fill="#FD9F02"/>
<path d="M55.5565 280.236V276.861C53.7532 276.852 51.9874 276.345 50.4538 275.396L51.2547 273.108C52.6748 274.033 54.331 274.529 56.0255 274.538C58.4167 274.538 60.007 273.177 60.007 271.278C60.007 269.378 58.7142 268.303 56.2429 267.296C52.8106 265.958 50.7284 264.424 50.7284 261.576C50.7284 258.727 52.6962 256.702 55.7738 256.198V252.835H57.8447V256.061C59.3625 256.077 60.8526 256.47 62.1808 257.205L61.357 259.493C60.0899 258.732 58.6366 258.336 57.1582 258.349C54.584 258.349 53.6229 259.894 53.6229 261.221C53.6229 262.96 54.8586 263.818 57.7531 265.031C61.1854 266.427 62.9244 268.166 62.9244 271.129C62.9133 272.565 62.3685 273.946 61.3959 275.004C60.4232 276.061 59.0922 276.719 57.6616 276.849V280.282L55.5565 280.236Z" fill="#FFF8E7"/>
<path d="M92.6026 278.329C106.226 278.329 117.269 267.285 117.269 253.662C117.269 240.039 106.226 228.995 92.6026 228.995C78.9796 228.995 67.9359 240.039 67.9359 253.662C67.9359 267.285 78.9796 278.329 92.6026 278.329Z" fill="#FFBB18"/>
<path d="M92.6026 274.691C104.216 274.691 113.631 265.276 113.631 253.662C113.631 242.048 104.216 232.634 92.6026 232.634C80.9889 232.634 71.5741 242.048 71.5741 253.662C71.5741 265.276 80.9889 274.691 92.6026 274.691Z" fill="#FD9F02"/>
<path d="M82.7634 262.735L84.8914 260.115C83.4958 258.974 82.4426 257.469 81.8481 255.767L83.8732 254.532C84.3979 256.146 85.3747 257.575 86.6877 258.65C88.5411 260.149 90.6348 260.092 91.8361 258.65C93.0374 257.209 92.6942 255.527 91.4128 253.193C89.6051 250.001 88.9415 247.473 90.7606 245.184C92.5798 242.896 95.337 242.645 98.06 244.189L100.177 241.569L101.79 242.873L99.7532 245.379C100.923 246.353 101.831 247.604 102.396 249.017L100.383 250.253C99.8698 248.867 98.9875 247.649 97.8312 246.729C95.829 245.104 94.1129 245.699 93.2548 246.729C92.1107 248.079 92.5798 249.532 94.0671 252.289C95.8633 255.539 96.115 258.01 94.2501 260.298C93.3369 261.398 92.0502 262.123 90.636 262.334C89.2218 262.545 87.7794 262.228 86.5847 261.442L84.3652 264.085L82.7634 262.735Z" fill="#FFF8E7"/>
<path d="M237.285 143.193C250.908 143.193 261.951 132.15 261.951 118.526C261.951 104.903 250.908 93.8597 237.285 93.8597C223.662 93.8597 212.618 104.903 212.618 118.526C212.618 132.15 223.662 143.193 237.285 143.193Z" fill="#FFBB18"/>
<path d="M237.285 139.543C248.898 139.543 258.313 130.129 258.313 118.515C258.313 106.901 248.898 97.4865 237.285 97.4865C225.671 97.4865 216.256 106.901 216.256 118.515C216.256 130.129 225.671 139.543 237.285 139.543Z" fill="#FD9F02"/>
<path d="M238.543 131.844L237.742 128.572C235.987 128.992 234.149 128.917 232.434 128.354L232.685 125.986C234.285 126.546 236.012 126.638 237.662 126.249C239.95 125.688 241.209 123.961 240.763 122.142C240.317 120.323 238.795 119.556 236.186 119.167C232.56 118.664 230.157 117.668 229.471 114.854C228.784 112.039 230.226 109.66 233.097 108.447L232.296 105.175L234.31 104.683L235.077 107.818C236.561 107.478 238.108 107.517 239.573 107.932L239.298 110.3C237.887 109.862 236.383 109.822 234.951 110.186C232.445 110.792 231.873 112.474 232.193 113.813C232.605 115.495 234.013 116.101 237.113 116.524C240.786 117.073 242.834 118.355 243.577 121.238C243.891 122.632 243.68 124.093 242.983 125.341C242.286 126.589 241.153 127.536 239.802 128L240.625 131.432L238.543 131.844Z" fill="#FFF8E7"/>
<path d="M236.484 212.786C236.724 213.073 237.036 213.29 237.388 213.416C242.399 215.635 248.074 215.704 253.565 215.704C253.925 215.738 254.288 215.679 254.618 215.532C254.906 215.323 255.109 215.017 255.191 214.671C255.273 214.325 255.228 213.96 255.064 213.644C254.703 213.032 254.186 212.526 253.565 212.18C251.965 211.125 250.281 210.203 248.531 209.423C247.147 208.816 245.591 208.153 245.03 206.757C244.815 206.011 244.684 205.244 244.641 204.469C244.115 201.254 239.069 202.833 237.376 204.469C235.866 206.013 235.351 211.173 236.484 212.786Z" fill="#FCAB9A"/>
<path d="M188.054 137.539C188.054 137.539 184.919 153.556 198.717 160.261C208.282 164.906 219.86 165.753 230.317 166.153C232.159 166.222 234.219 166.039 236.038 166.29C239.676 166.759 238.623 169.059 238.189 172.114C237.205 179.848 236.152 187.567 235.031 195.27C234.183 199.283 234.242 203.434 235.202 207.421L246.197 205.945C247.367 194.73 249.468 183.632 252.478 172.766C253.783 168.052 255.59 162.183 252.89 157.687C250.226 153.647 246.446 150.467 242.01 148.534L214.368 135.64L188.054 137.539Z" fill="#FFBB18"/>
<path d="M225.867 94.6127C228.956 93.3541 232.479 92.1872 235.557 93.4686C236.337 93.7564 236.992 94.3065 237.411 95.0245C237.665 95.7327 237.68 96.5049 237.452 97.2222C237.225 97.9396 236.768 98.5623 236.152 98.9945C234.881 99.8166 233.45 100.359 231.953 100.585C229.299 101.191 226.667 101.935 224.07 102.793C223.625 102.919 223.197 103.103 222.8 103.342C222.364 103.664 221.978 104.05 221.656 104.486C219.262 107.346 216.522 109.898 213.499 112.083C214.323 111.488 214.025 106.031 214.243 104.898C214.315 104.203 214.555 103.537 214.942 102.955C215.328 102.373 215.85 101.894 216.462 101.557C219.837 99.4064 222.057 96.1686 225.867 94.6127Z" fill="#FCAB9A"/>
<path d="M218.327 66.056C218.739 67.0171 219.757 67.6807 219.997 68.7218C220.238 69.7629 219.288 71.0786 218.693 72.257C217.904 73.8359 217.846 75.6893 217.046 77.314C216.904 77.6664 216.661 77.969 216.348 78.1835C216.053 78.321 215.734 78.3988 215.41 78.4123C214.145 78.5142 212.872 78.4255 211.634 78.1491C211.409 78.0457 211.157 78.0137 210.913 78.0576C210.706 78.1972 210.559 78.4096 210.501 78.6526C209.37 81.7138 209.001 85.0043 209.426 88.2401C209.563 89.2926 209.701 90.5969 208.842 91.2376C208.541 91.4544 208.184 91.5813 207.813 91.6037C205.353 91.8783 203.236 89.8189 201.909 87.7824C200.699 85.9299 199.712 83.9405 198.969 81.856C198.717 81.2538 198.581 80.6095 198.568 79.9568C198.615 79.1871 198.809 78.4335 199.141 77.7373C200.159 75.2182 200.925 72.6046 201.429 69.9345C202.058 66.5022 202.333 62.9098 203.969 59.8894C204.508 58.8522 205.361 58.0115 206.406 57.4868C207.61 57.1042 208.895 57.0568 210.124 57.3495C212.663 57.5108 215.042 58.6412 216.771 60.5072C217.229 61.1822 217.801 64.8547 218.327 66.056Z" fill="#FCAB9A"/>
<path d="M212.492 138.42C210.698 139.604 208.668 140.384 206.543 140.708C203.518 141.408 200.61 142.537 197.905 144.06C196.28 145.033 195.182 146.692 193.752 147.928C192.615 148.889 191.281 149.588 189.843 149.974C188.405 150.359 186.899 150.422 185.434 150.159C185.297 149.758 185.148 149.346 185.011 148.934C180.435 135.205 181.167 120.332 182.528 106.134C183.18 99.4064 188.466 77.8631 198.614 80.3687C198.614 80.3687 208.236 87.0158 210.81 91.5579C213.156 95.7567 216.531 99.1318 215.947 104.315C215.101 111.602 211.199 118.044 210.822 125.629C210.688 126.728 210.821 127.842 211.211 128.878C211.909 130.354 213.556 131.235 214.243 132.7C214.614 133.714 214.644 134.821 214.328 135.854C214.012 136.887 213.368 137.788 212.492 138.42Z" fill="#FFF8E7"/>
<path d="M197.127 126.75C197.346 127.779 197.732 128.765 198.271 129.668C199.732 131.52 201.842 132.747 204.175 133.1C206.814 133.74 209.488 134.225 212.183 134.553C216.165 135.056 219.357 136.841 223.51 135.285C226.36 134.067 228.898 132.221 230.935 129.885C231.576 129.21 232.079 127.929 231.278 127.505C231.055 127.421 230.818 127.383 230.58 127.391H223.659C223.521 126.842 223.922 126.316 224.196 125.824C224.471 125.332 224.585 124.577 224.082 124.302C223.578 124.027 223.155 124.382 222.766 124.657C220.817 125.979 218.578 126.814 216.239 127.091C213.899 127.368 211.527 127.078 209.323 126.247C205.25 124.702 204.941 119.634 204.346 115.756C204.341 115.273 204.22 114.798 203.996 114.37C203.771 113.943 203.448 113.574 203.053 113.296C202.73 113.177 202.387 113.124 202.043 113.14C201.699 113.155 201.362 113.24 201.051 113.387C198.687 114.128 196.687 115.728 195.445 117.872C194.427 120.035 196.498 124.359 197.127 126.75Z" fill="#FCAB9A"/>
<path d="M199.289 93.9376C199.289 93.9376 206.017 111.58 207.298 112.872C208.579 114.165 194.782 122.162 194.782 122.162C194.782 122.162 185.56 105.001 185.903 97.5644C186.247 90.1278 194.107 86.9358 199.289 93.9376Z" fill="#FFF8E7"/>
<path d="M219.059 60.5415C216.92 63.7564 214.952 61.8115 212.515 59.6606L213.224 62.681L209.048 64.5916L206.76 62.4407C207.309 64.992 206.314 67.5891 205.49 70.0718C204.278 73.7215 203.431 77.7258 204.666 81.3641C205.673 84.3387 208.03 86.9701 207.95 90.105L203.076 85.5286C201.935 84.3248 200.611 83.3093 199.152 82.5196C198.433 82.1417 197.637 81.931 196.825 81.9032C196.013 81.8755 195.205 82.0314 194.461 82.3594C193.808 82.7628 193.212 83.2514 192.688 83.8124C190.194 86.2837 187.345 88.6062 185.892 91.8897C184.61 94.7614 184.645 98.3653 182.46 100.871C179.485 104.383 173.822 103.457 169.714 101.409C166.874 100.125 164.394 98.1598 162.495 95.6881C161.538 94.31 160.862 92.7567 160.505 91.117C160.149 89.4773 160.119 87.7834 160.417 86.1321C160.716 84.4809 161.337 82.9047 162.245 81.4937C163.153 80.0827 164.331 78.8645 165.71 77.9089C166.747 77.1901 167.884 76.6273 169.085 76.2385C171.087 75.5978 173.433 75.3347 174.714 73.6643C176.236 71.6736 175.401 68.8476 175.492 66.3421C175.569 64.7041 176.071 63.1143 176.95 61.7299C177.829 60.3454 179.053 59.2142 180.503 58.4478C184.542 56.3656 190.228 57.0863 192.882 53.4023C193.653 52.0411 194.333 50.6308 194.919 49.1806C197.356 44.6042 204.472 43.5517 208.156 47.1899C208.847 48.0858 209.716 48.8297 210.707 49.3751C211.479 49.6027 212.284 49.6956 213.087 49.6497C214.416 49.6255 215.73 49.9393 216.904 50.5617C218.079 51.184 219.076 52.0945 219.803 53.2078C220.867 55.0956 220.398 58.4135 219.265 60.244L219.059 60.5415Z" fill="#FC682D"/>
<path d="M235.66 209.411C234.833 210.747 234.497 212.329 234.711 213.885C234.746 214.385 234.938 214.861 235.26 215.246C235.612 215.543 236.033 215.747 236.484 215.841C242.193 217.602 248.129 218.519 254.103 218.564C254.879 218.611 255.656 218.506 256.391 218.255C256.755 218.129 257.081 217.912 257.339 217.626C257.597 217.34 257.779 216.994 257.867 216.619C257.914 216.1 257.819 215.578 257.592 215.109C256.853 213.366 255.453 211.987 253.698 211.275C251.944 210.563 249.979 210.576 248.234 211.311L248.028 211.402C247.428 211.743 246.796 212.023 246.14 212.237C245.489 212.351 244.823 212.351 244.172 212.237C242.489 212.044 240.824 211.711 239.195 211.242C237.985 210.696 236.805 210.085 235.66 209.411Z" fill="#473F47"/>
</g>
<defs>
<clipPath id="clip0_1_509">
<rect width="307" height="292" fill="white"/>
</clipPath>
</defs>
</svg>
