<svg width="307" height="292" viewBox="0 0 307 292" fill="none" xmlns="http://www.w3.org/2000/svg">
<g clip-path="url(#clip0_1_594)">
<path d="M294.172 197.979C263.174 266.895 181.346 296.496 117.232 291.451C99.7283 290.074 64.5056 287.3 37.0036 262.563C-15.8119 215.057 -7.67646 115.761 42.8803 57.3001C49.3901 49.7721 94.459 -0.667346 164.686 0.00669368C216.102 0.499807 252.195 28.1283 256.583 31.5695C262.126 35.9188 274.353 46.2494 285.373 62.6392C311.264 101.152 313.542 154.915 294.172 197.979V197.979Z" fill="#F5F2B1" fill-opacity="0.7"/>
<path d="M89.421 88.7101C89.3937 87.7631 88.2798 87 86.9103 87H3.86152C2.47504 87 1 87.7869 1 88.7476V223.011C1 223.729 1.58593 224.418 2.32175 224.922C3.05416 225.429 4.13745 225.712 5.17305 225.709L89.1314 225.548C90.1772 225.548 91.1992 225.256 91.9282 224.738C92.6606 224.22 93.0694 223.518 93.0524 222.796L89.4244 88.7067L89.421 88.7101Z" fill="#81CC7A"/>
<g opacity="0.66">
<g style="mix-blend-mode:overlay" opacity="0.66">
<path d="M41.7255 96.5145L14.5616 96.4464L14.5718 94.0924L41.7051 94.1537L41.7255 96.5145Z" fill="white"/>
</g>
<g style="mix-blend-mode:overlay" opacity="0.66">
<path d="M41.8005 105.184L14.5241 105.099L14.5343 102.725L41.7801 102.806L41.8005 105.184Z" fill="white"/>
</g>
<g style="mix-blend-mode:overlay" opacity="0.66">
<path d="M41.8754 113.929L14.4866 113.823L14.4968 111.428L41.855 111.531L41.8754 113.929Z" fill="white"/>
</g>
<g style="mix-blend-mode:overlay" opacity="0.66">
<path d="M41.9538 122.748L14.4491 122.619L14.4593 120.204L41.9299 120.33L41.9538 122.748Z" fill="white"/>
</g>
<g style="mix-blend-mode:overlay" opacity="0.66">
<path d="M42.0287 131.64L14.4083 131.486L14.4185 129.054L42.0083 129.201L42.0287 131.64Z" fill="white"/>
</g>
<g style="mix-blend-mode:overlay" opacity="0.66">
<path d="M42.182 149.643L14.3333 149.446L14.3435 146.973L42.1615 147.163L42.182 149.643Z" fill="white"/>
</g>
<g style="mix-blend-mode:overlay" opacity="0.66">
<path d="M42.4205 177.226L14.2141 176.957L14.2243 174.423L42.4 174.682L42.4205 177.226Z" fill="white"/>
</g>
<g style="mix-blend-mode:overlay" opacity="0.66">
<path d="M42.1071 140.602L14.3708 140.429L14.381 137.976L42.0832 138.143L42.1071 140.602Z" fill="white"/>
</g>
<g style="mix-blend-mode:overlay" opacity="0.66">
<path d="M42.2603 158.759L14.2924 158.541L14.3026 156.044L42.2399 156.259L42.2603 158.759Z" fill="white"/>
</g>
<g style="mix-blend-mode:overlay" opacity="0.66">
<path d="M42.3421 167.954L14.2549 167.712L14.2652 165.194L42.3183 165.433L42.3421 167.954Z" fill="white"/>
</g>
<g style="mix-blend-mode:overlay" opacity="0.66">
<path d="M42.4988 186.577L14.1732 186.284L14.1834 183.726L42.4784 184.012L42.4988 186.577Z" fill="white"/>
</g>
<g style="mix-blend-mode:overlay" opacity="0.66">
<path d="M42.5806 196.01L14.1323 195.693L14.1425 193.111L42.5602 193.421L42.5806 196.01Z" fill="white"/>
</g>
<g style="mix-blend-mode:overlay" opacity="0.66">
<path d="M42.6624 205.525L14.0915 205.181L14.1017 202.578L42.6419 202.912L42.6624 205.525Z" fill="white"/>
</g>
<g style="mix-blend-mode:overlay" opacity="0.66">
<path d="M42.7441 215.117L14.0506 214.75L14.0608 212.123L42.7236 212.484L42.7441 215.117Z" fill="white"/>
</g>
<g style="mix-blend-mode:overlay" opacity="0.66">
<path d="M77.3446 96.5997L50.0069 96.5315L49.9797 94.1708L77.2833 94.2321L77.3446 96.5997Z" fill="white"/>
</g>
<g style="mix-blend-mode:overlay" opacity="0.66">
<path d="M77.5661 105.3L50.1159 105.211L50.0853 102.83L77.5047 102.912L77.5661 105.3Z" fill="white"/>
</g>
<g style="mix-blend-mode:overlay" opacity="0.66">
<path d="M77.7909 114.072L50.2249 113.963L50.1943 111.561L77.7296 111.663L77.7909 114.072Z" fill="white"/>
</g>
<g style="mix-blend-mode:overlay" opacity="0.66">
<path d="M78.0157 122.919L50.3374 122.786L50.3067 120.367L77.9544 120.49L78.0157 122.919Z" fill="white"/>
</g>
<g style="mix-blend-mode:overlay" opacity="0.66">
<path d="M78.244 131.837L50.4464 131.684L50.4157 129.245L78.1793 129.391L78.244 131.837Z" fill="white"/>
</g>
<g style="mix-blend-mode:overlay" opacity="0.66">
<path d="M78.7039 149.902L50.6746 149.705L50.6406 147.221L78.6392 147.412L78.7039 149.902Z" fill="white"/>
</g>
<g style="mix-blend-mode:overlay" opacity="0.66">
<path d="M79.409 177.577L51.0187 177.308L50.988 174.763L79.3443 175.026L79.409 177.577Z" fill="white"/>
</g>
<g style="mix-blend-mode:overlay" opacity="0.66">
<path d="M78.4722 140.831L50.5588 140.657L50.5281 138.194L78.4109 138.364L78.4722 140.831Z" fill="white"/>
</g>
<g style="mix-blend-mode:overlay" opacity="0.66">
<path d="M78.9355 159.049L50.787 158.827L50.7563 156.324L78.8742 156.538L78.9355 159.049Z" fill="white"/>
</g>
<g style="mix-blend-mode:overlay" opacity="0.66">
<path d="M79.1706 168.274L50.9029 168.029L50.8722 165.504L79.1059 165.743L79.1706 168.274Z" fill="white"/>
</g>
<g style="mix-blend-mode:overlay" opacity="0.66">
<path d="M79.6475 186.962L51.1345 186.666L51.1039 184.101L79.5828 184.387L79.6475 186.962Z" fill="white"/>
</g>
<g style="mix-blend-mode:overlay" opacity="0.66">
<path d="M79.8893 196.426L51.2537 196.105L51.2231 193.516L79.8246 193.83L79.8893 196.426Z" fill="white"/>
</g>
<g style="mix-blend-mode:overlay" opacity="0.66">
<path d="M80.1312 205.971L51.373 205.627L51.3389 203.014L80.0665 203.351L80.1312 205.971Z" fill="white"/>
</g>
<g style="mix-blend-mode:overlay" opacity="0.66">
<path d="M80.3765 215.601L51.4921 215.23L51.4615 212.597L80.3118 212.958L80.3765 215.601Z" fill="white"/>
</g>
</g>
<path d="M251.108 32.03C251.061 29.8191 249.061 28 246.608 28H153.926C151.443 28 149 29.9145 149 32.156V232.411C149 233.488 149.688 234.523 150.536 235.283C151.381 236.042 152.638 236.468 153.834 236.468L250.741 236.23C251.946 236.23 253.129 235.787 253.97 235.01C254.815 234.234 255.288 233.161 255.268 232.074L251.108 32.03Z" fill="#81CC7A"/>
<g opacity="0.5">
<g opacity="0.5">
<path opacity="0.5" d="M182.851 51.5973L156.45 51.5666L156.239 39.3643H182.667L182.851 51.5973Z" fill="white"/>
<path opacity="0.5" d="M212.447 51.5905L186.07 51.5598L185.89 39.3643H212.294L212.447 51.5905Z" fill="white"/>
<path opacity="0.5" d="M242.013 51.5871L215.663 51.553L215.51 39.3643H241.887L242.013 51.5871Z" fill="white"/>
</g>
<g opacity="0.5">
<path opacity="0.5" d="M183.181 73.5035L156.825 73.5172L156.617 61.3966L183.001 61.3864L183.181 73.5035Z" fill="white"/>
<path opacity="0.5" d="M212.727 73.4845L186.394 73.4981L186.217 61.3809L212.57 61.3707L212.727 73.4845Z" fill="white"/>
<path opacity="0.5" d="M242.241 73.4674L215.936 73.4811L215.786 61.3707L242.115 61.3605L242.241 73.4674Z" fill="white"/>
</g>
<g opacity="0.5">
<path opacity="0.5" d="M183.512 95.2525L157.199 95.2763L156.992 83.1966L183.328 83.1762L183.512 95.2525Z" fill="white"/>
<path opacity="0.5" d="M213.003 95.2252L186.717 95.249L186.54 83.1762L212.849 83.1558L213.003 95.2252Z" fill="white"/>
<path opacity="0.5" d="M242.466 95.198L216.208 95.2218L216.055 83.1523L242.34 83.1353L242.466 95.198Z" fill="white"/>
</g>
<g opacity="0.5">
<path opacity="0.5" d="M183.839 116.928L157.574 116.963L157.366 104.924L183.658 104.896L183.839 116.928Z" fill="white"/>
<path opacity="0.5" d="M213.278 116.891L187.041 116.925L186.86 104.893L213.125 104.862L213.278 116.891Z" fill="white"/>
<path opacity="0.5" d="M242.691 116.854L216.477 116.888L216.327 104.859L242.568 104.832L242.691 116.854Z" fill="white"/>
</g>
<g opacity="0.5">
<path opacity="0.5" d="M184.166 138.533L157.946 138.574L157.738 126.579L183.985 126.538L184.166 138.533Z" fill="white"/>
<path opacity="0.5" d="M213.554 138.482L187.361 138.526L187.184 126.535L213.401 126.497L213.554 138.482Z" fill="white"/>
<path opacity="0.5" d="M242.916 138.434L216.75 138.475L216.6 126.491L242.793 126.453L242.916 138.434Z" fill="white"/>
</g>
<g opacity="0.5">
<path opacity="0.5" d="M184.49 160.059L158.317 160.114L158.109 148.157L184.309 148.109L184.49 160.059Z" fill="white"/>
<path opacity="0.5" d="M213.83 159.998L187.682 160.052L187.504 148.102L213.677 148.054L213.83 159.998Z" fill="white"/>
<path opacity="0.5" d="M243.14 159.94L217.019 159.991L216.869 148.047L243.014 148L243.14 159.94Z" fill="white"/>
</g>
<g opacity="0.5">
<path opacity="0.5" d="M184.817 181.514L158.685 181.575L158.48 169.659L184.636 169.604L184.817 181.514Z" fill="white"/>
<path opacity="0.5" d="M214.103 181.442L188.002 181.503L187.825 169.594L213.953 169.536L214.103 181.442Z" fill="white"/>
<path opacity="0.5" d="M243.362 181.371L217.285 181.435L217.138 169.529L243.239 169.471L243.362 181.371Z" fill="white"/>
</g>
<g opacity="0.5">
<path opacity="0.5" d="M185.137 202.89L159.053 202.965L158.848 191.089L184.96 191.021L185.137 202.89Z" fill="white"/>
<path opacity="0.5" d="M214.375 202.811L188.319 202.883L188.141 191.014L214.225 190.946L214.375 202.811Z" fill="white"/>
<path opacity="0.5" d="M243.587 202.73L217.554 202.801L217.404 190.94L243.461 190.871L243.587 202.73Z" fill="white"/>
</g>
<g opacity="0.5">
<path opacity="0.5" d="M185.46 224.198L159.421 224.28L159.216 212.445L185.283 212.37L185.46 224.198Z" fill="white"/>
<path opacity="0.5" d="M214.648 224.106L188.635 224.188L188.458 212.36L214.498 212.285L214.648 224.106Z" fill="white"/>
<path opacity="0.5" d="M243.808 224.014L217.819 224.096L217.669 212.275L243.686 212.2L243.808 224.014Z" fill="white"/>
</g>
</g>
<path d="M194.147 61.4985C194.107 59.5772 192.26 58 189.998 58H104.541C102.248 58 100 59.6624 100 61.6076V235.564C100 236.501 100.634 237.397 101.417 238.061C102.197 238.722 103.355 239.093 104.456 239.09L193.803 238.882C194.914 238.882 196.004 238.497 196.781 237.822C197.557 237.148 197.997 236.215 197.976 235.271L194.144 61.4985H194.147Z" fill="#5FAA58"/>
<g opacity="0.5">
<g opacity="0.5">
<path opacity="0.5" d="M131.214 78.4973L106.868 78.47L106.677 67.8688H131.044L131.214 78.4973Z" fill="white"/>
<path opacity="0.5" d="M158.501 78.4905L134.181 78.4633L134.014 67.8688H158.358L158.501 78.4905Z" fill="white"/>
<path opacity="0.5" d="M185.76 78.4871L161.465 78.4564L161.325 67.8688H185.645L185.76 78.4871Z" fill="white"/>
</g>
<g opacity="0.5">
<path opacity="0.5" d="M131.518 97.5247L107.215 97.5383L107.024 87.0086L131.347 86.9984L131.518 97.5247Z" fill="white"/>
<path opacity="0.5" d="M158.756 97.5094L134.481 97.5196L134.314 86.9967L158.613 86.9865L158.756 97.5094Z" fill="white"/>
<path opacity="0.5" d="M185.972 97.4923L161.717 97.506L161.577 86.9865L185.852 86.9763L185.972 97.4923Z" fill="white"/>
</g>
<g opacity="0.5">
<path opacity="0.5" d="M131.821 116.419L107.559 116.44L107.368 105.944L131.654 105.927L131.821 116.419Z" fill="white"/>
<path opacity="0.5" d="M159.012 116.395L134.778 116.416L134.611 105.927L158.872 105.91L159.012 116.395Z" fill="white"/>
<path opacity="0.5" d="M186.179 116.368L161.969 116.392L161.829 105.907L186.064 105.89L186.179 116.368Z" fill="white"/>
</g>
<g opacity="0.5">
<path opacity="0.5" d="M132.124 135.247L107.907 135.278L107.712 124.82L131.954 124.796L132.124 135.247Z" fill="white"/>
<path opacity="0.5" d="M159.267 135.213L135.074 135.244L134.911 124.793L159.128 124.765L159.267 135.213Z" fill="white"/>
<path opacity="0.5" d="M186.387 135.179L162.218 135.21L162.078 124.762L186.271 124.738L186.387 135.179Z" fill="white"/>
</g>
<g opacity="0.5">
<path opacity="0.5" d="M132.424 154.014L108.247 154.052L108.057 143.631L132.257 143.597L132.424 154.014Z" fill="white"/>
<path opacity="0.5" d="M159.523 153.97L135.37 154.007L135.207 143.593L159.38 143.559L159.523 153.97Z" fill="white"/>
<path opacity="0.5" d="M186.595 153.926L162.466 153.966L162.327 143.553L186.479 143.522L186.595 153.926Z" fill="white"/>
</g>
<g opacity="0.5">
<path opacity="0.5" d="M132.724 172.713L108.591 172.76L108.401 162.374L132.557 162.333L132.724 172.713Z" fill="white"/>
<path opacity="0.5" d="M159.775 172.662L135.667 172.706L135.503 162.326L159.635 162.285L159.775 172.662Z" fill="white"/>
<path opacity="0.5" d="M186.799 172.607L162.715 172.655L162.575 162.278L186.687 162.238L186.799 172.607Z" fill="white"/>
</g>
<g opacity="0.5">
<path opacity="0.5" d="M133.023 191.35L108.932 191.405L108.741 181.055L132.856 181.004L133.023 191.35Z" fill="white"/>
<path opacity="0.5" d="M160.027 191.289L135.96 191.343L135.796 180.998L159.887 180.946L160.027 191.289Z" fill="white"/>
<path opacity="0.5" d="M187.007 191.227L162.96 191.282L162.824 180.94L186.891 180.892L187.007 191.227Z" fill="white"/>
</g>
<g opacity="0.5">
<path opacity="0.5" d="M133.32 209.919L109.269 209.984L109.082 199.669L133.156 199.611L133.32 209.919Z" fill="white"/>
<path opacity="0.5" d="M160.279 209.851L136.253 209.913L136.089 199.604L160.14 199.546L160.279 209.851Z" fill="white"/>
<path opacity="0.5" d="M187.212 209.78L163.209 209.841L163.073 199.54L187.096 199.482L187.212 209.78Z" fill="white"/>
</g>
<g opacity="0.5">
<path opacity="0.5" d="M133.619 228.427L109.61 228.499L109.419 218.221L133.452 218.153L133.619 228.427Z" fill="white"/>
<path opacity="0.5" d="M160.531 228.349L136.546 228.42L136.382 218.146L160.392 218.078L160.531 228.349Z" fill="white"/>
<path opacity="0.5" d="M187.416 228.27L163.454 228.339L163.318 218.071L187.3 218.006L187.416 228.27Z" fill="white"/>
</g>
</g>
<path d="M283 292L43 291.63V169.343C43.1376 169.325 43.2901 169.306 43.4574 169.284C45.5772 169.014 50.0548 168.493 56.362 168.016C71.2489 166.892 96.3143 166.016 124.582 169.284C128.892 169.783 133.269 170.382 137.713 171.08C141.406 171.668 145.13 172.335 148.885 173.08C150.517 173.405 152.154 173.748 153.794 174.108C157.368 174.887 160.95 175.751 164.541 176.699C176.65 179.844 188.458 184.037 199.83 189.229C204.583 191.428 209.261 193.827 213.828 196.455C220.534 200.294 226.942 204.625 232.999 209.411C256.391 227.955 274.926 254.694 283 292Z" fill="#1F905A"/>
<path d="M241 292H1V169.351C1.1376 169.332 1.29007 169.314 1.45742 169.291C1.76981 169.251 2.13055 169.206 2.54337 169.158C4.93091 168.869 8.9808 168.428 14.3621 168.02C18.0996 167.738 22.4805 167.471 27.3969 167.278C36.5305 166.926 47.505 166.841 59.6026 167.423C66.9029 167.775 74.6159 168.368 82.5818 169.291C86.892 169.792 91.2692 170.392 95.7133 171.093C99.4062 171.683 103.13 172.351 106.885 173.099C108.517 173.425 110.154 173.768 111.794 174.129C115.368 174.912 118.95 175.778 122.541 176.728C131.615 179.109 140.529 182.061 149.228 185.566C152.122 186.738 154.989 187.981 157.83 189.295C159.437 190.041 161.035 190.811 162.624 191.605C165.733 193.155 168.801 194.801 171.828 196.543C176.52 199.241 181.07 202.179 185.458 205.344C185.793 205.578 186.127 205.822 186.462 206.067C187.994 207.194 189.507 208.351 190.999 209.537C191.509 209.945 192.018 210.352 192.524 210.768C195.064 212.844 197.543 215.017 199.962 217.289C205.904 222.87 211.327 228.976 216.165 235.532C227.426 250.798 236.106 269.371 240.985 291.933C240.989 291.956 240.996 291.978 241 292Z" fill="#107A47"/>
<path opacity="0.1" d="M115.24 217.599C116.254 215.353 108.884 209.832 98.7769 205.266C88.6701 200.701 79.6544 198.821 78.6399 201.067C77.6253 203.312 84.9961 208.834 95.1029 213.4C105.21 217.965 114.225 219.845 115.24 217.599Z" fill="#0C4F2F"/>
<path opacity="0.1" d="M152.054 226.896C153.069 224.65 145.698 219.128 135.591 214.563C125.484 209.997 116.469 208.117 115.454 210.363C114.439 212.609 121.81 218.131 131.917 222.696C142.024 227.262 151.039 229.142 152.054 226.896Z" fill="#0C4F2F"/>
<path d="M21 171V144" stroke="#107A47" stroke-width="2" stroke-miterlimit="10"/>
<path d="M21 148C23.2091 148 25 146.209 25 144C25 141.791 23.2091 140 21 140C18.7909 140 17 141.791 17 144C17 146.209 18.7909 148 21 148Z" fill="#107A47"/>
<path d="M21 161C21 161 20.4419 148.684 9 150.116L21 161Z" fill="#107A47"/>
<path d="M89.4835 55.6308L92.3772 55.9018L102.225 56.8271L118.122 58.3187L119.705 40.7799C119.856 39.1313 119.686 37.4685 119.206 35.8869C118.726 34.3052 117.944 32.8357 116.907 31.5624C115.87 30.2891 114.596 29.2371 113.16 28.4665C111.723 27.696 110.152 27.222 108.536 27.0717C105.08 26.7441 101.61 27.5444 98.6282 29.3573C95.6461 31.1702 93.305 33.9022 91.9421 37.1597L91.9399 37.1654C91.2697 38.7689 90.849 40.4694 90.6931 42.2053L89.4835 55.6308Z" fill="#2F2E41"/>
<path d="M101.677 47.8792C101.677 47.8792 102.804 57.6023 101.677 57.9912C100.549 58.3801 96.7912 59.9358 96.7912 59.9358L103.556 67.3254L113.327 67.7143L115.582 60.3247L113.327 58.3801L112.576 48.657L101.677 47.8792Z" fill="#FFB8B8"/>
<path opacity="0.1" d="M101.677 47.8792C101.677 47.8792 102.804 57.6023 101.677 57.9912C100.549 58.3801 96.7912 59.9358 96.7912 59.9358L103.556 67.3254L113.327 67.7143L115.582 60.3247L113.327 58.3801L112.576 48.657L101.677 47.8792Z" fill="#0C4F2F"/>
<path d="M86.1417 65.6263L83.0953 92.4259L78.9065 119.614C78.9065 119.614 75.4792 132.82 81.9529 132.431C88.4265 132.043 83.8569 118.837 83.8569 118.837L89.9498 95.9215L92.6154 72.6175L86.1417 65.6263Z" fill="#FFB8B8"/>
<path d="M127.699 66.5209L130.43 94.0477L146.428 109.168C146.428 109.168 156.963 114.596 155.012 118.085C153.061 121.574 142.136 112.27 142.136 112.27L123.017 98.7001L121.846 81.6413L123.017 64.5824L127.699 66.5209Z" fill="#FFB8B8"/>
<path d="M87.7526 196.25C87.7526 196.25 82.3013 205.962 85.0269 207.176C87.7526 208.39 95.5402 212.031 95.5402 212.031C95.5402 212.031 107.611 214.459 107.222 210.818C106.832 207.176 102.16 207.176 102.16 207.176C102.16 207.176 95.565 200.297 95.7472 197.869C95.9295 195.441 87.7526 196.25 87.7526 196.25Z" fill="#2F2E41"/>
<path opacity="0.1" d="M87.7526 196.25C87.7526 196.25 82.3013 205.962 85.0269 207.176C87.7526 208.39 95.5402 212.031 95.5402 212.031C95.5402 212.031 107.611 214.459 107.222 210.818C106.832 207.176 102.16 207.176 102.16 207.176C102.16 207.176 95.565 200.297 95.7472 197.869C95.9295 195.441 87.7526 196.25 87.7526 196.25Z" fill="#0C4F2F"/>
<path d="M121.724 120.956L122.89 127.136L114.339 161.514L109.285 166.921L96.0693 198.209H86.3517C86.3517 198.209 92.571 173.874 97.2355 166.535C101.9 159.196 109.674 121.729 109.674 121.729L121.724 120.956Z" fill="#2F2E41"/>
<path opacity="0.1" d="M105.73 147.292L112.777 148.463L114.538 161.143L109.449 166.605L96.1387 198.209H86.3517C86.3517 198.209 92.6154 173.628 97.3132 166.215C102.011 158.802 109.841 120.956 109.841 120.956L105.73 147.292Z" fill="#0C4F2F"/>
<path d="M93.499 110.336C93.499 110.336 87.1665 121.994 97.4569 136.371C107.747 150.749 112.101 165.127 112.101 165.127C112.101 165.127 111.309 191.162 119.621 201.654L122.787 208.648L132.286 203.208C132.286 203.208 121.6 187.276 123.974 167.847C123.974 167.847 126.349 161.629 123.974 156.578C121.6 151.526 115.267 127.434 115.267 127.434L123.183 127.045C123.183 127.045 125.557 112.279 121.6 110.336C117.642 108.393 93.499 110.336 93.499 110.336Z" fill="#2F2E41"/>
<path d="M129.239 201.341C129.239 201.341 137.968 208.715 143.126 209.491C148.285 210.267 148.285 213.76 142.333 214.537C142.333 214.537 130.429 219.194 122.89 215.701V205.998L129.239 201.341Z" fill="#2F2E41"/>
<path d="M108.275 52.0549C113.464 52.0549 117.67 47.8484 117.67 42.6593C117.67 37.4703 113.464 33.2637 108.275 33.2637C103.086 33.2637 98.8791 37.4703 98.8791 42.6593C98.8791 47.8484 103.086 52.0549 108.275 52.0549Z" fill="#FFB8B8"/>
<path d="M100.626 60.8213L101.988 58.3187C101.988 58.3187 83.5057 64.6713 85.4512 67.7514C87.3967 70.8314 92.8441 75.4515 92.8441 75.4515V81.6116C92.8441 81.6116 98.6806 99.3219 92.8441 109.332C87.0076 119.342 124.75 116.262 123.583 109.332C122.416 102.402 120.859 95.0868 122.416 91.6218C123.972 88.1567 126.696 84.3066 124.361 75.0665L130.198 68.9064C130.198 68.9064 128.252 62.7463 123.194 61.5913C118.136 60.4363 114.05 59.0887 114.05 59.0887C114.05 59.0887 116.579 63.9013 112.299 64.2863C108.019 64.6713 100.626 60.8213 100.626 60.8213Z" fill="#FFBB18"/>
<path d="M92.2049 55.8203C93.1032 56.8827 94.2938 57.6553 95.6276 58.0415C96.9613 58.4276 98.3789 58.41 99.7028 57.9909C101.027 57.5718 102.198 56.7699 103.07 55.6855C103.942 54.6011 104.476 53.2825 104.604 51.8949C96.8411 47.4799 99.3748 41.5392 106.157 34.9652C106.285 33.5673 105.996 32.1627 105.327 30.9302C104.657 29.6977 103.638 28.693 102.398 28.0439C100.043 28.7117 97.867 29.8994 96.0283 31.5201C94.1895 33.1409 92.7349 35.1537 91.7706 37.4115L91.7683 37.4171L90.5576 50.5958C90.4708 51.533 90.5718 52.4781 90.8547 53.3754C91.1376 54.2727 91.5967 55.104 92.2049 55.8203Z" fill="#2F2E41"/>
<path d="M103.055 38.1363L117.536 38.4835L117.67 32.3595C116.523 30.6539 115.006 29.2563 113.243 28.281L103.276 28.0439L103.055 38.1363Z" fill="#2F2E41"/>
<path d="M142.427 292H1V207.825C6.2624 208.381 10.2427 202.794 15.0344 200.214C18.7834 198.194 23.2222 198.028 27.4783 198.003C34.3393 197.967 41.3261 198.206 47.822 200.417C49.9077 201.122 51.9093 202.055 53.7903 203.2C57.8152 205.655 61.191 209.101 62.9843 213.424C64.0676 216.033 64.8466 219.231 67.4393 220.348C68.8837 220.974 70.5351 220.751 72.0931 220.519C77.5665 219.698 83.0399 218.879 88.5132 218.061C92.5625 217.451 97.0134 216.923 100.47 219.121C105.802 222.51 105.806 230.194 104.909 236.456C104.008 242.718 103.189 250.105 107.814 254.413C113.421 259.638 122.441 256.375 130.02 257.468C133.561 258.032 136.871 259.588 139.567 261.956C142.263 264.324 144.235 267.407 145.255 270.85C147.211 277.827 144.98 285.141 142.427 292Z" fill="#FFBB18"/>
<path d="M44.1071 292L45.3393 197.125" stroke="#FFF8E7" stroke-width="2" stroke-miterlimit="10"/>
<path d="M44.7232 203.286C48.4659 203.286 51.5 200.527 51.5 197.125C51.5 193.723 48.4659 190.964 44.7232 190.964C40.9805 190.964 37.9464 193.723 37.9464 197.125C37.9464 200.527 40.9805 203.286 44.7232 203.286Z" fill="#FFF8E7"/>
<path d="M45.3393 224.232C45.3393 224.232 44.6825 203.83 24.3929 205.897L45.3393 224.232Z" fill="#FFF8E7"/>
<path d="M43.7226 290.768C43.7226 290.768 48.498 251.181 24.3929 248.875" stroke="#FFF8E7" stroke-width="2" stroke-miterlimit="10"/>
<path d="M23.7768 256.268C27.5195 256.268 30.5536 253.234 30.5536 249.491C30.5536 245.748 27.5195 242.714 23.7768 242.714C20.0341 242.714 17 245.748 17 249.491C17 253.234 20.0341 256.268 23.7768 256.268Z" fill="#FFF8E7"/>
<path d="M81.0714 292V258.732" stroke="#FFF8E7" stroke-width="2" stroke-miterlimit="10"/>
<path d="M81.6875 262.429C84.0692 262.429 86 260.498 86 258.116C86 255.734 84.0692 253.804 81.6875 253.804C79.3058 253.804 77.375 255.734 77.375 258.116C77.375 260.498 79.3058 262.429 81.6875 262.429Z" fill="#FFF8E7"/>
<path d="M81.0714 279.679C81.0714 279.679 80.3837 264.504 66.2857 266.268L81.0714 279.679Z" fill="#FFF8E7"/>
</g>
<defs>
<clipPath id="clip0_1_594">
<rect width="307" height="292" fill="white"/>
</clipPath>
</defs>
</svg>
