<svg width="307" height="292" viewBox="0 0 307 292" fill="none" xmlns="http://www.w3.org/2000/svg">
<g clip-path="url(#clip0_1_596)">
<path d="M294.172 197.979C263.174 266.895 181.346 296.496 117.232 291.451C99.7283 290.074 64.5056 287.3 37.0036 262.563C-15.8119 215.057 -7.67647 115.761 42.8803 57.3001C49.3901 49.7721 94.459 -0.667346 164.686 0.00669368C216.102 0.499807 252.195 28.1283 256.583 31.5695C262.126 35.9188 274.353 46.2494 285.373 62.6392C311.264 101.152 313.542 154.915 294.172 197.979V197.979Z" fill="#F5F2B1" fill-opacity="0.7"/>
<path d="M21.0576 15.4449C20.6275 13.8928 22.7908 12.7642 24.1812 13.8055C38.3152 24.3728 72.5361 56.3399 66.6219 114.79C59.2008 188.124 77.8424 214.041 100.38 229.414C100.38 229.414 70.0042 222.963 50.0207 196.706C0.954441 132.235 28.6953 43.0305 21.0576 15.4449Z" fill="#80C379"/>
<g style="mix-blend-mode:soft-light">
<path d="M32.3776 37.8116C34.4115 45.8632 36.2579 53.9471 37.7615 62.0796C39.3136 70.2055 40.578 78.3703 41.5448 86.5609C42.4761 94.7548 43.2295 102.962 43.5787 111.191C43.97 119.417 43.9506 127.653 43.8988 135.921C43.8988 144.186 43.8471 152.51 44.7816 160.856C45.7032 169.185 47.7953 177.541 51.5947 185.301C52.5454 187.235 53.5381 189.162 54.6537 191.015C55.7305 192.891 56.9043 194.721 58.1169 196.535C60.5614 200.15 63.2906 203.633 66.3075 206.918C72.364 213.479 79.5813 219.225 87.4712 224.017C88.3023 224.521 89.4567 224.344 90.0484 223.619C90.6304 222.908 90.4558 221.938 89.6636 221.424H89.6571C87.7752 220.208 85.9159 218.976 84.1245 217.679C83.2159 217.042 82.3428 216.373 81.4568 215.716C80.5999 215.031 79.7107 214.378 78.8796 213.67C75.5006 210.892 72.3543 207.911 69.4796 204.738C63.7012 198.43 58.9964 191.329 55.3522 183.921C53.5769 180.196 52.125 176.364 51.0224 172.445C49.923 168.522 49.1696 164.519 48.6813 160.474C47.7048 152.377 47.6757 144.138 47.6077 135.873C47.5237 127.608 47.3749 119.304 46.8317 111.023C46.573 106.881 46.227 102.748 45.7969 98.6189C45.5965 96.5527 45.3475 94.4929 45.105 92.4331C44.8398 90.3733 44.5585 88.3168 44.261 86.2635C43.0484 78.0502 41.5448 69.8725 39.7437 61.753C37.8973 53.6399 35.802 45.5754 33.3477 37.5982C33.2765 37.3686 33.0049 37.236 32.743 37.3007C32.4843 37.3621 32.3291 37.5885 32.3841 37.8083L32.3776 37.8116Z" fill="white"/>
</g>
<path d="M59.6657 161.211C58.1491 162.951 55.3521 162.579 54.3173 160.516C48.6133 149.134 35.3945 115.498 53.4637 75.4374C68.7229 41.6078 73.7802 21.8151 75.4552 12.6705C75.8077 10.7368 78.4269 10.3779 79.2902 12.1434C88.8196 31.629 114.572 98.163 59.6657 161.211V161.211Z" fill="#5FAA58"/>
<g style="mix-blend-mode:soft-light">
<path d="M56.7457 160.099C56.6907 160.112 56.6325 160.118 56.5743 160.118C56.0764 160.131 55.6657 159.737 55.6528 159.239C55.6398 158.676 54.521 102.312 73.612 54.3125C73.7963 53.8501 74.3202 53.6238 74.7826 53.8081C75.245 53.9924 75.4713 54.5162 75.287 54.9786C56.3351 102.625 57.4409 158.634 57.4571 159.193C57.4668 159.63 57.1628 160.005 56.7522 160.096L56.7457 160.099Z" fill="white"/>
</g>
<path d="M287.896 160.957C287.499 164.644 282.981 170.833 276.731 177.79C266.487 189.171 251.605 202.596 242.654 210.416C238.037 214.454 235 217 235 217V146.934C235 146.934 245.838 132.959 253.712 132.061C261.586 131.163 277.476 140.437 277.476 140.437C277.476 140.437 289.222 148.136 287.896 160.957Z" fill="#5FAA58"/>
<path d="M276.957 177.463C266.759 188.813 251.942 202.201 243.03 210C242.365 208.932 242.232 207.478 242.172 206.163C241.937 199.593 241.992 193.013 242.052 186.439C242.108 180.054 242.164 173.674 242.563 167.302C242.94 161.368 243.661 155.299 246.354 150C246.962 150.548 247.463 151.205 247.833 151.938C251.226 157.816 253.37 164.3 255.514 170.737C256.575 173.909 257.636 177.094 258.696 180.292C261.073 178.973 263.198 177.238 264.971 175.166C266.6 173.345 268.054 171.377 269.551 169.448C270.597 168.098 272.639 164.257 274.268 165.702C276.91 168.025 277.125 173.341 276.957 177.463Z" fill="url(#paint0_linear_1_596)"/>
<path d="M243 54H64V261H243V54Z" fill="#107A47"/>
<path d="M243 78H64V285H243V78Z" fill="#FDB702"/>
<path d="M90 78H64V285H90V78Z" fill="#FD9F02"/>
<path d="M98 116H78C75.7909 116 74 117.791 74 120V140C74 142.209 75.7909 144 78 144H98C100.209 144 102 142.209 102 140V120C102 117.791 100.209 116 98 116Z" fill="white"/>
<path d="M131 116H111C108.791 116 107 117.791 107 120V140C107 142.209 108.791 144 111 144H131C133.209 144 135 142.209 135 140V120C135 117.791 133.209 116 131 116Z" fill="white"/>
<path d="M164 116H144C141.791 116 140 117.791 140 120V140C140 142.209 141.791 144 144 144H164C166.209 144 168 142.209 168 140V120C168 117.791 166.209 116 164 116Z" fill="white"/>
<path d="M197 116H177C174.791 116 173 117.791 173 120V140C173 142.209 174.791 144 177 144H197C199.209 144 201 142.209 201 140V120C201 117.791 199.209 116 197 116Z" fill="white"/>
<path d="M98 148H78C75.7909 148 74 149.791 74 152V172C74 174.209 75.7909 176 78 176H98C100.209 176 102 174.209 102 172V152C102 149.791 100.209 148 98 148Z" fill="white"/>
<path d="M131 148H111C108.791 148 107 149.791 107 152V172C107 174.209 108.791 176 111 176H131C133.209 176 135 174.209 135 172V152C135 149.791 133.209 148 131 148Z" fill="white"/>
<path d="M164 148H144C141.791 148 140 149.791 140 152V172C140 174.209 141.791 176 144 176H164C166.209 176 168 174.209 168 172V152C168 149.791 166.209 148 164 148Z" fill="white"/>
<path d="M197 148H177C174.791 148 173 149.791 173 152V172C173 174.209 174.791 176 177 176H197C199.209 176 201 174.209 201 172V152C201 149.791 199.209 148 197 148Z" fill="white"/>
<path d="M98 180H78C75.7909 180 74 181.791 74 184V204C74 206.209 75.7909 208 78 208H98C100.209 208 102 206.209 102 204V184C102 181.791 100.209 180 98 180Z" fill="white"/>
<path d="M131 180H111C108.791 180 107 181.791 107 184V204C107 206.209 108.791 208 111 208H131C133.209 208 135 206.209 135 204V184C135 181.791 133.209 180 131 180Z" fill="white"/>
<path d="M164 180H144C141.791 180 140 181.791 140 184V204C140 206.209 141.791 208 144 208H164C166.209 208 168 206.209 168 204V184C168 181.791 166.209 180 164 180Z" fill="white"/>
<path d="M197 180H177C174.791 180 173 181.791 173 184V204C173 206.209 174.791 208 177 208H197C199.209 208 201 206.209 201 204V184C201 181.791 199.209 180 197 180Z" fill="white"/>
<path d="M98 212H78C75.7909 212 74 213.791 74 216V236C74 238.209 75.7909 240 78 240H98C100.209 240 102 238.209 102 236V216C102 213.791 100.209 212 98 212Z" fill="white"/>
<path d="M131 212H111C108.791 212 107 213.791 107 216V236C107 238.209 108.791 240 111 240H131C133.209 240 135 238.209 135 236V216C135 213.791 133.209 212 131 212Z" fill="white"/>
<path d="M163 212H143C140.791 212 139 213.791 139 216V236C139 238.209 140.791 240 143 240H163C165.209 240 167 238.209 167 236V216C167 213.791 165.209 212 163 212Z" fill="white"/>
<path d="M197 212H177C174.791 212 173 213.791 173 216V236C173 238.209 174.791 240 177 240H197C199.209 240 201 238.209 201 236V216C201 213.791 199.209 212 197 212Z" fill="white"/>
<path d="M98 244H78C75.7909 244 74 245.791 74 248V268C74 270.209 75.7909 272 78 272H98C100.209 272 102 270.209 102 268V248C102 245.791 100.209 244 98 244Z" fill="white"/>
<path d="M131 244H111C108.791 244 107 245.791 107 248V268C107 270.209 108.791 272 111 272H131C133.209 272 135 270.209 135 268V248C135 245.791 133.209 244 131 244Z" fill="white"/>
<path d="M163 244H143C140.791 244 139 245.791 139 248V268C139 270.209 140.791 272 143 272H163C165.209 272 167 270.209 167 268V248C167 245.791 165.209 244 163 244Z" fill="white"/>
<path d="M230 116H210C207.791 116 206 117.791 206 120V140C206 142.209 207.791 144 210 144H230C232.209 144 234 142.209 234 140V120C234 117.791 232.209 116 230 116Z" fill="white"/>
<path d="M230 84H210C207.791 84 206 85.7909 206 88V108C206 110.209 207.791 112 210 112H230C232.209 112 234 110.209 234 108V88C234 85.7909 232.209 84 230 84Z" fill="white"/>
<path d="M197 84H177C174.791 84 173 85.7909 173 88V108C173 110.209 174.791 112 177 112H197C199.209 112 201 110.209 201 108V88C201 85.7909 199.209 84 197 84Z" fill="white"/>
<path d="M230 148H210C207.791 148 206 149.791 206 152V172C206 174.209 207.791 176 210 176H230C232.209 176 234 174.209 234 172V152C234 149.791 232.209 148 230 148Z" fill="white"/>
<path d="M230 180H210C207.791 180 206 181.791 206 184V204C206 206.209 207.791 208 210 208H230C232.209 208 234 206.209 234 204V184C234 181.791 232.209 180 230 180Z" fill="white"/>
<path d="M230 212H210C207.791 212 206 213.791 206 216V236C206 238.209 207.791 240 210 240H230C232.209 240 234 238.209 234 236V216C234 213.791 232.209 212 230 212Z" fill="white"/>
<path d="M78 45.6354V62.3646C78 63.2673 79.122 64 80.5 64C81.8823 64 83 63.2673 83 62.3646V45.6354C83 44.7327 81.8823 44 80.5 44C79.122 44 78 44.7327 78 45.6354Z" fill="#0C4F2F"/>
<path d="M102 45.6354V62.3646C102 63.2673 103.341 64 105 64C106.659 64 108 63.2673 108 62.3646V45.6354C108 44.7327 106.659 44 105 44C103.341 44 102 44.7327 102 45.6354Z" fill="#0C4F2F"/>
<path d="M127 45.6354V62.3646C127 63.2673 128.118 64 129.5 64C130.882 64 132 63.2673 132 62.3646V45.6354C132 44.7327 130.882 44 129.5 44C128.118 44 127 44.7327 127 45.6354Z" fill="#0C4F2F"/>
<path d="M151 45.6354V62.3646C151 63.2673 152.118 64 153.5 64C154.878 64 156 63.2673 156 62.3646V45.6354C156 44.7327 154.878 44 153.5 44C152.118 44 151 44.7327 151 45.6354Z" fill="#0C4F2F"/>
<path d="M176 45.6354V62.3646C176 63.2673 177.121 64 178.502 64C179.879 64 181 63.2673 181 62.3646V45.6354C181 44.7327 179.879 44 178.502 44C177.121 44 176 44.7327 176 45.6354Z" fill="#0C4F2F"/>
<path d="M200 45.6354V62.3646C200 63.2673 201.121 64 202.498 64C203.879 64 205 63.2673 205 62.3646V45.6354C205 44.7327 203.879 44 202.498 44C201.121 44 200 44.7327 200 45.6354Z" fill="#0C4F2F"/>
<path d="M224 45.6354V62.3646C224 63.2673 225.122 64 226.5 64C227.882 64 229 63.2673 229 62.3646V45.6354C229 44.7327 227.882 44 226.5 44C225.122 44 224 44.7327 224 45.6354Z" fill="#0C4F2F"/>
<path d="M247 54H243V285H247V54Z" fill="#5FAA58"/>
<path d="M247 54H243V285H247V54Z" fill="#1F905A"/>
<path d="M181 89.4956C181.001 89.99 180.855 90.4736 180.581 90.8852C180.307 91.2968 179.917 91.618 179.461 91.808C179.004 91.998 178.502 92.0484 178.017 91.9528C177.532 91.8572 177.086 91.6199 176.735 91.2709C176.385 90.9219 176.146 90.4769 176.049 89.9921C175.952 89.5073 176 89.0045 176.189 88.5474C176.377 88.0902 176.697 87.6992 177.107 87.4238C177.518 87.1484 178.001 87.0009 178.496 87C179.158 87 179.794 87.2626 180.263 87.7304C180.733 88.1981 180.998 88.8329 181 89.4956Z" fill="url(#paint1_linear_1_596)"/>
<path d="M182 122.496C182.001 122.99 181.855 123.474 181.581 123.885C181.307 124.297 180.917 124.618 180.461 124.808C180.004 124.998 179.502 125.048 179.017 124.953C178.532 124.857 178.086 124.62 177.735 124.271C177.385 123.922 177.146 123.477 177.049 122.992C176.952 122.507 177 122.005 177.189 121.547C177.377 121.09 177.697 120.699 178.107 120.424C178.518 120.148 179.001 120.001 179.496 120C180.158 120 180.794 120.263 181.263 120.73C181.733 121.198 181.998 121.833 182 122.496Z" fill="url(#paint2_linear_1_596)"/>
<path d="M188 122.496C188.001 122.99 187.855 123.474 187.581 123.885C187.307 124.297 186.917 124.618 186.461 124.808C186.004 124.998 185.502 125.048 185.017 124.953C184.532 124.857 184.086 124.62 183.735 124.271C183.385 123.922 183.146 123.477 183.049 122.992C182.952 122.507 183 122.005 183.189 121.547C183.377 121.09 183.697 120.699 184.107 120.424C184.518 120.148 185.001 120.001 185.496 120C186.158 120 186.794 120.263 187.263 120.73C187.733 121.198 187.998 121.833 188 122.496Z" fill="url(#paint3_linear_1_596)"/>
<path d="M194 122.496C194.001 122.99 193.855 123.474 193.581 123.885C193.307 124.297 192.917 124.618 192.461 124.808C192.004 124.998 191.502 125.048 191.017 124.953C190.532 124.857 190.086 124.62 189.735 124.271C189.385 123.922 189.146 123.477 189.049 122.992C188.952 122.507 189 122.005 189.189 121.547C189.377 121.09 189.697 120.699 190.107 120.424C190.518 120.148 191.001 120.001 191.496 120C192.158 120 192.794 120.263 193.263 120.73C193.733 121.198 193.998 121.833 194 122.496Z" fill="url(#paint4_linear_1_596)"/>
<path d="M182 187.5C182 187.994 181.853 188.478 181.579 188.889C181.304 189.3 180.914 189.62 180.457 189.81C180 189.999 179.497 190.048 179.012 189.952C178.527 189.855 178.082 189.617 177.732 189.268C177.383 188.918 177.145 188.473 177.048 187.988C176.952 187.503 177.001 187 177.19 186.543C177.38 186.086 177.7 185.696 178.111 185.421C178.522 185.147 179.006 185 179.5 185C180.162 185 180.797 185.263 181.265 185.731C181.733 186.199 181.996 186.834 181.996 187.496L182 187.5Z" fill="url(#paint5_linear_1_596)"/>
<path d="M79.5 188C80.8807 188 82 186.881 82 185.5C82 184.119 80.8807 183 79.5 183C78.1193 183 77 184.119 77 185.5C77 186.881 78.1193 188 79.5 188Z" fill="#FF2235"/>
<path d="M188 187.5C188 187.994 187.853 188.478 187.579 188.889C187.304 189.3 186.914 189.62 186.457 189.81C186 189.999 185.497 190.048 185.012 189.952C184.527 189.855 184.082 189.617 183.732 189.268C183.383 188.918 183.145 188.473 183.048 187.988C182.952 187.503 183.001 187 183.19 186.543C183.38 186.086 183.7 185.696 184.111 185.421C184.522 185.147 185.006 185 185.5 185C186.162 185 186.797 185.263 187.265 185.731C187.733 186.199 187.996 186.834 187.996 187.496L188 187.5Z" fill="url(#paint6_linear_1_596)"/>
<path d="M194 187.5C194 187.994 193.853 188.478 193.579 188.889C193.304 189.3 192.914 189.62 192.457 189.81C192 189.999 191.497 190.048 191.012 189.952C190.527 189.855 190.082 189.617 189.732 189.268C189.383 188.918 189.145 188.473 189.048 187.988C188.952 187.503 189.001 187 189.19 186.543C189.38 186.086 189.7 185.696 190.111 185.421C190.522 185.147 191.006 185 191.5 185C192.162 185 192.797 185.263 193.265 185.731C193.733 186.199 193.996 186.834 193.996 187.496L194 187.5Z" fill="url(#paint7_linear_1_596)"/>
<path d="M287.615 120.126C286.956 122.918 287.837 126.789 286.587 129.35C284.489 133.656 278.354 136.513 277.448 141.24C277.394 141.514 270.567 144.924 267.047 143.758C265.205 143.154 264.269 141.292 265.687 137.083C266.132 135.778 268.624 135.291 269.296 134.077L269.157 133.969C265.75 131.303 265.381 125.654 266.086 121.883C266.791 118.113 268.406 114.49 270.139 111.046C271.473 108.393 274.486 106.953 277.373 107.001C281.002 107.066 284.833 108.571 286.721 111.785C288.164 114.233 288.269 117.334 287.615 120.126Z" fill="url(#paint8_linear_1_596)"/>
<path d="M270.478 99.3787C268.57 100.405 266.542 101.616 264.407 101.287C264.351 101.809 264.435 102.337 264.649 102.816C264.862 103.294 265.198 103.705 265.621 104.006L264.295 104.309C264.24 104.313 264.187 104.329 264.14 104.356C264.092 104.384 264.051 104.421 264.019 104.467C264.003 104.516 263.997 104.568 264.002 104.619C264.007 104.671 264.023 104.721 264.049 104.765C264.376 105.54 264.912 106.205 265.595 106.682C265.358 107.2 264.501 107.085 264.209 107.559C264.147 107.697 264.115 107.846 264.115 107.998C264.115 108.149 264.147 108.299 264.209 108.436C264.504 109.255 265.01 109.977 265.673 110.529C264.88 111.406 265.375 113.029 266.469 113.428C267.031 113.588 267.633 113.523 268.149 113.247C268.666 112.97 269.06 112.503 269.251 111.941C269.3 112.448 269.185 112.958 268.923 113.393C272.536 113.972 276.398 114.516 279.722 112.954C279.566 113.305 279.481 113.684 279.472 114.069C280.274 114.324 281.125 114.379 281.953 114.226C282.125 116.033 281.966 117.857 281.483 119.604C281.186 120.692 280.76 121.745 280.57 122.854C280.322 123.979 280.519 125.157 281.117 126.135C281.69 126.083 282.095 125.534 282.314 124.995C282.473 124.433 282.712 123.898 283.025 123.407C283.886 122.381 285.677 122.758 286.37 123.894C287.063 125.03 286.801 126.556 286.138 127.701C285.728 128.376 285.186 128.958 284.546 129.411C283.906 129.864 283.182 130.178 282.418 130.333C282.542 131.557 282.672 132.781 282.796 134C285.066 131.807 287.606 129.925 289.647 127.526C291.688 125.126 293.234 122.056 292.971 118.889C292.812 116.937 291.976 115.082 291.912 113.121C291.882 112.244 292.011 111.345 291.976 110.459C291.896 109.047 291.411 107.69 290.58 106.557C289.75 105.424 288.611 104.564 287.305 104.085C286.207 103.704 284.997 103.594 284.024 102.949C282.814 102.151 282.185 100.664 280.984 99.848C279.692 98.9708 277.686 98.6111 276.183 98.1768C274.228 97.6242 272.196 98.462 270.478 99.3787Z" fill="#3F3D56"/>
<path d="M243.572 140.544C243.424 140.64 243.297 140.768 243.198 140.919C243.1 141.07 243.032 141.241 243 141.422C243.016 141.611 243.09 141.789 243.211 141.93C243.331 142.07 243.491 142.166 243.668 142.202C244.022 142.268 244.386 142.25 244.733 142.15L246.84 141.711C245.703 142.384 244.759 143.369 244.107 144.562C244.03 144.7 243.993 144.858 244 145.017C244.006 145.177 244.057 145.331 244.145 145.461C244.427 145.838 244.903 145.689 245.285 145.531L247.114 144.759L245.87 146.036C245.483 146.404 245.145 146.826 244.866 147.29C244.745 147.507 244.656 147.742 244.601 147.987C244.567 148.142 244.591 148.305 244.668 148.44C244.746 148.576 244.87 148.675 245.015 148.715C245.11 148.746 245.211 148.746 245.306 148.715C246.066 148.487 246.772 148.093 247.379 147.558C246.93 148.225 246.43 148.851 245.882 149.43C245.334 150.014 245.025 150.801 245.02 151.623C245.022 151.712 245.049 151.797 245.098 151.869C245.159 151.934 245.24 151.974 245.326 151.983C246.002 152.101 246.616 151.579 247.126 151.106L249.005 149.303C249.307 149.041 249.574 148.735 249.797 148.395C249.921 148.199 249.992 147.969 250 147.733C249.981 147.502 249.876 147.288 249.708 147.138C249.54 146.988 249.323 146.915 249.104 146.935C248.972 146.949 248.844 146.995 248.731 147.071C248.785 146.689 248.926 146.334 249.013 145.961C249.12 145.594 249.097 145.197 248.947 144.847C248.866 144.676 248.727 144.543 248.558 144.476C248.389 144.408 248.202 144.411 248.034 144.483C248.254 144.026 248.395 143.532 248.449 143.023C248.471 142.765 248.426 142.506 248.318 142.274C248.211 142.042 248.045 141.846 247.839 141.707C247.727 141.658 247.623 141.588 247.533 141.501C247.367 141.286 247.499 140.979 247.57 140.711C247.624 140.554 247.648 140.386 247.642 140.219C247.635 140.051 247.597 139.887 247.53 139.735C247.463 139.583 247.368 139.447 247.251 139.333C247.134 139.22 246.997 139.132 246.848 139.075C246.681 139.013 246.503 138.989 246.326 139.005C245.256 139.123 244.364 139.834 243.572 140.544Z" fill="url(#paint9_linear_1_596)"/>
<path d="M278.632 157.007C283.581 152.604 289.709 155.94 287.557 162.229C282.905 175.832 273.167 207 263.92 207C251.871 207 247 185.483 247 185.483L252.564 174.142C252.564 174.142 260.434 191.533 264.398 186.827C268.361 182.12 270.702 164.291 278.404 157.21L278.632 157.007Z" fill="#5FAA58"/>
<path d="M251.068 173.769C250.984 172.739 250.964 171.705 251.009 170.673C250.979 166.167 249.489 161.766 246.719 158C246.427 158.374 246.302 158.831 246.367 159.283L246.442 171.031C246.486 172.005 246.413 172.981 246.224 173.941C246.055 174.64 245.768 175.308 245.545 175.998C245.074 177.433 244.906 178.932 245.05 180.422C245.092 181.221 245.334 182.003 245.758 182.708C245.976 183.059 246.283 183.358 246.655 183.583C247.027 183.807 247.453 183.95 247.898 184C248.19 184 249.384 181.788 249.558 181.488C250.089 180.603 250.585 179.711 251.044 178.811C251.385 178.13 252.114 177.126 251.985 176.361C251.841 175.503 251.187 174.711 251.068 173.769Z" fill="url(#paint10_linear_1_596)"/>
<path d="M274.289 137.114C273.253 138.323 272.226 139.535 271.19 140.748C270.398 141.782 269.457 142.681 268.398 143.414C267.987 143.666 267.547 143.863 267.088 144C265.209 143.382 264.254 141.481 265.701 137.181C266.155 135.848 268.698 135.351 269.383 134.111L269.242 134C269.734 134.241 270.253 134.417 270.787 134.524C271.9 134.697 274.64 133.8 274.979 135.51C275.098 136.101 274.696 136.657 274.289 137.114Z" fill="url(#paint11_linear_1_596)"/>
<path d="M45 246H46.3333L47 276L46.3333 271.059H45V246Z" fill="#1F905A"/>
<path d="M46 256.428V256.462C46 257.39 45.6641 258.317 45.3066 259.427C42.9549 260.096 41.3872 260.634 39.0786 258.288C36.7701 255.941 34.3883 251.404 35.142 249.113C37.4937 248.443 42.0763 250.879 44.3892 253.226C45.5865 254.424 45.9914 255.428 46 256.428Z" fill="#1F905A"/>
<path d="M53.389 258.803C51.1154 260.841 49.5166 260.568 47.4325 259.952V271H46V246H47.4325V253.95C47.5665 253.814 47.7098 253.677 47.8669 253.523C50.4269 251.233 55.376 248.867 57.8759 249.618C58.6107 251.964 55.949 256.509 53.389 258.803Z" fill="#5FAA58"/>
<path d="M46.4786 239H40C40 243.418 42.8976 247 46.474 247L48 243.076L46.4786 239Z" fill="#FD9F02"/>
<path d="M35.142 231.113C34.3883 233.404 36.7701 237.945 39.0829 240.287C41.3957 242.63 42.9591 242.1 45.3064 241.427C46.0601 239.135 46.7018 237.572 44.389 235.226C42.0762 232.879 37.4936 230.443 35.142 231.113Z" fill="#FD9F02"/>
<path d="M52.6627 239.949C52.4633 240.146 52.2682 240.321 52.0775 240.478C51.6136 244.179 49.1385 247 46.1605 247V240.78L46.2646 240.706L46.1605 240.338V240.776C46.0242 240.874 45.879 240.959 45.727 241.03C43.5943 239.783 41.8691 235.816 42.0078 232.443C42.1465 229.071 43.8284 224.085 46.0478 223C48.1805 224.247 49.572 229.342 49.4463 232.719V232.968C51.9041 231.267 55.0815 229.963 56.889 230.554C57.5609 232.951 55.0598 237.6 52.6627 239.949Z" fill="#FDB702"/>
<path d="M34 267.461L36.1293 284H45.9771L50 274.59L45.9771 267L34 267.461Z" fill="#1F905A"/>
<path d="M58 267.461L55.8674 284H46V267L58 267.461Z" fill="#5FAA58"/>
<path d="M51 266.741L50.8863 266.795L47.4013 268.519L46.4504 269H32.5788C32.1601 269 31.7585 268.834 31.4625 268.539C31.1664 268.244 31.0001 267.843 31.0001 267.426V263.425C30.9983 263.239 31.0331 263.055 31.1025 262.884C31.172 262.712 31.2747 262.555 31.4048 262.423C31.5349 262.291 31.6899 262.185 31.8609 262.113C32.0319 262.04 32.2155 262.002 32.4013 262H32.5333L46.4504 262.027L51 266.741Z" fill="#1F905A"/>
<path d="M59.4651 269H46V262H59.4651C59.8721 262 60.2626 262.162 60.5504 262.451C60.8383 262.74 61 263.132 61 263.541V267.459C61 267.868 60.8383 268.26 60.5504 268.549C60.2626 268.838 59.8721 269 59.4651 269Z" fill="#5FAA58"/>
<path opacity="0.18" d="M37.5391 284.013L12.5214 288.883C12.3106 288.885 12.1025 288.931 11.91 289.018C11.7175 289.105 11.5448 289.232 11.4025 289.39C11.2603 289.548 11.1515 289.733 11.0831 289.936C11.0147 290.138 10.9881 290.353 11.0049 290.566C11.0217 290.779 11.0816 290.987 11.1808 291.175C11.28 291.364 11.4165 291.53 11.5817 291.663C11.7469 291.796 11.9372 291.893 12.1409 291.948C12.3446 292.003 12.5573 292.014 12.7656 291.982H12.8398H295.406C295.804 291.999 296.193 291.858 296.49 291.588C296.787 291.318 296.968 290.942 296.996 290.538C297.024 290.135 296.896 289.736 296.639 289.427C296.382 289.118 296.016 288.923 295.62 288.883L259.153 284.226H258.944L37.8575 284.004C37.7514 283.996 37.6447 283.999 37.5391 284.013Z" fill="#1D2741"/>
<path d="M151.629 234.999C151.002 234.999 150.429 234.692 150.114 234.192L145.213 226.398C144.789 225.722 145.017 224.74 145.731 224.186C146.462 223.62 147.433 223.704 147.892 224.393L151.498 229.804L156.878 219.447C157.401 218.442 158.684 217.809 159.764 218.052C160.874 218.301 161.324 219.368 160.749 220.417L153.271 234.051C152.962 234.616 152.354 234.977 151.691 234.999C151.67 234.999 151.649 235 151.628 235L151.629 234.999Z" fill="#5FAA58"/>
<path d="M92.2328 251.501C92.38 251.346 92.5569 251.221 92.7531 251.135C92.9493 251.049 93.1607 251.003 93.3749 251C93.5891 250.997 93.8018 251.037 94.0003 251.118C94.1988 251.198 94.3791 251.318 94.5306 251.469C94.682 251.621 94.8016 251.801 94.8822 252C94.9628 252.198 95.0028 252.411 94.9998 252.625C94.9969 252.839 94.951 253.051 94.8649 253.247C94.7788 253.443 94.6542 253.62 94.4986 253.767L89.8025 258.463C89.7962 258.47 89.7913 258.477 89.7879 258.485C89.7846 258.493 89.7828 258.502 89.7828 258.511C89.7828 258.52 89.7846 258.528 89.7879 258.536C89.7913 258.544 89.7962 258.552 89.8025 258.558L94.4986 263.254C94.6494 263.403 94.7694 263.579 94.8516 263.774C94.9338 263.969 94.9765 264.179 94.9774 264.39C94.9783 264.602 94.9373 264.811 94.8568 265.007C94.7762 265.203 94.6577 265.381 94.5081 265.53C94.3585 265.68 94.1808 265.798 93.9852 265.879C93.7896 265.959 93.5799 266.001 93.3683 266C93.1568 265.999 92.9474 265.956 92.7525 265.874C92.5575 265.792 92.3807 265.672 92.2323 265.521L87.5361 260.825C87.5299 260.819 87.5226 260.814 87.5145 260.81C87.5063 260.807 87.4976 260.805 87.4889 260.805C87.4801 260.805 87.4714 260.807 87.4633 260.81C87.4551 260.814 87.4478 260.819 87.4416 260.825L82.7454 265.521C82.5971 265.672 82.4203 265.792 82.2253 265.874C82.0304 265.956 81.8211 265.999 81.6095 266C81.3979 266.001 81.1883 265.96 80.9926 265.879C80.797 265.799 80.6192 265.68 80.4696 265.531C80.32 265.381 80.2014 265.203 80.1208 265.008C80.0402 264.812 79.9992 264.602 80 264.391C80.0008 264.179 80.0436 263.97 80.1257 263.775C80.2078 263.58 80.3278 263.403 80.4786 263.255L85.1747 258.559C85.1809 258.552 85.1859 258.545 85.1892 258.537C85.1926 258.529 85.1943 258.52 85.1943 258.511C85.1943 258.502 85.1926 258.494 85.1892 258.486C85.1859 258.478 85.1809 258.47 85.1747 258.464L80.4786 253.768C80.182 253.466 80.0165 253.06 80.0182 252.637C80.0199 252.214 80.1886 251.809 80.4875 251.51C80.7864 251.211 81.1914 251.043 81.6143 251.041C82.0371 251.039 82.4435 251.204 82.7449 251.501L87.441 256.197C87.4472 256.203 87.4546 256.208 87.4627 256.212C87.4708 256.215 87.4795 256.217 87.4883 256.217C87.4971 256.217 87.5058 256.215 87.5139 256.212C87.522 256.208 87.5294 256.203 87.5356 256.197L92.2317 251.501L92.2328 251.501Z" fill="#5FAA58"/>
</g>
<defs>
<linearGradient id="paint0_linear_1_596" x1="266.013" y1="155.463" x2="191.7" y2="294.101" gradientUnits="userSpaceOnUse">
<stop stop-opacity="0"/>
<stop offset="0.91" stop-opacity="0.8"/>
<stop offset="1"/>
</linearGradient>
<linearGradient id="paint1_linear_1_596" x1="178.362" y1="87.3996" x2="179.197" y2="100.068" gradientUnits="userSpaceOnUse">
<stop stop-color="#183866"/>
<stop offset="1" stop-color="#1A7FC1"/>
</linearGradient>
<linearGradient id="paint2_linear_1_596" x1="179.362" y1="120.4" x2="180.197" y2="133.073" gradientUnits="userSpaceOnUse">
<stop stop-color="#183866"/>
<stop offset="1" stop-color="#1A7FC1"/>
</linearGradient>
<linearGradient id="paint3_linear_1_596" x1="185.362" y1="120.4" x2="186.193" y2="133.073" gradientUnits="userSpaceOnUse">
<stop stop-color="#183866"/>
<stop offset="1" stop-color="#1A7FC1"/>
</linearGradient>
<linearGradient id="paint4_linear_1_596" x1="191.362" y1="120.4" x2="192.193" y2="133.073" gradientUnits="userSpaceOnUse">
<stop stop-color="#183866"/>
<stop offset="1" stop-color="#1A7FC1"/>
</linearGradient>
<linearGradient id="paint5_linear_1_596" x1="179.358" y1="185.4" x2="180.193" y2="198.073" gradientUnits="userSpaceOnUse">
<stop stop-color="#183866"/>
<stop offset="1" stop-color="#1A7FC1"/>
</linearGradient>
<linearGradient id="paint6_linear_1_596" x1="185.362" y1="185.4" x2="186.193" y2="198.073" gradientUnits="userSpaceOnUse">
<stop stop-color="#183866"/>
<stop offset="1" stop-color="#1A7FC1"/>
</linearGradient>
<linearGradient id="paint7_linear_1_596" x1="191.362" y1="185.4" x2="192.193" y2="198.073" gradientUnits="userSpaceOnUse">
<stop stop-color="#183866"/>
<stop offset="1" stop-color="#1A7FC1"/>
</linearGradient>
<linearGradient id="paint8_linear_1_596" x1="293.871" y1="133.656" x2="254.562" y2="118.866" gradientUnits="userSpaceOnUse">
<stop stop-color="#ECC4D7"/>
<stop offset="0.16" stop-color="#EDCBD5"/>
<stop offset="0.42" stop-color="#EFD4D1"/>
<stop offset="0.7" stop-color="#F2EAC9"/>
</linearGradient>
<linearGradient id="paint9_linear_1_596" x1="243" y1="145.501" x2="250.021" y2="145.501" gradientUnits="userSpaceOnUse">
<stop stop-color="#ECC4D7"/>
<stop offset="0.42" stop-color="#EFD4D1"/>
<stop offset="1" stop-color="#F2EAC9"/>
</linearGradient>
<linearGradient id="paint10_linear_1_596" x1="245" y1="171" x2="252" y2="171" gradientUnits="userSpaceOnUse">
<stop stop-color="#ECC4D7"/>
<stop offset="0.42" stop-color="#EFD4D1"/>
<stop offset="1" stop-color="#F2EAC9"/>
</linearGradient>
<linearGradient id="paint11_linear_1_596" x1="266.968" y1="140.766" x2="249.762" y2="160.24" gradientUnits="userSpaceOnUse">
<stop stop-color="#ECC4D7"/>
<stop offset="0.42" stop-color="#EFD4D1"/>
<stop offset="1" stop-color="#F2EAC9"/>
</linearGradient>
<clipPath id="clip0_1_596">
<rect width="307" height="292" fill="white"/>
</clipPath>
</defs>
</svg>
