<svg width="307" height="292" viewBox="0 0 307 292" fill="none" xmlns="http://www.w3.org/2000/svg">
<g clip-path="url(#clip0_3_57)">
<path d="M181.324 291.451C108.133 297.461 44.5048 241.757 18.6731 184.845C11.6199 169.308 -2.56918 138.04 5.55332 103.021C21.1516 35.7707 109.446 -3.96234 182.933 11.5793C192.395 13.5802 256.48 28.222 288.902 88.2811C312.64 132.252 306.094 175.938 305.228 181.288C304.133 188.047 301.09 203.302 292.324 220.378C271.726 260.499 227.059 287.696 181.324 291.451V291.451Z" fill="#F5F2B1" fill-opacity="0.7"/>
<path d="M286.608 43.0001H285.615C285.129 43.0001 284.512 43.2355 284.512 43.8798V56.1777C284.512 56.8244 285.129 57.3695 285.615 57.3695H286.608C287.094 57.3695 286.987 56.8219 286.987 56.1777V43.8798C286.987 43.233 287.094 43.0001 286.608 43.0001V43.0001Z" fill="#ADD3AA"/>
<path d="M301.297 43H300.303C299.817 43 298.883 43.2354 298.883 43.8797V56.1775C298.883 56.8243 299.817 57.3694 300.303 57.3694H301.297C301.782 57.3694 301.854 56.8218 301.854 56.1775V43.8797C301.854 43.2329 301.782 43 301.297 43V43Z" fill="#ADD3AA"/>
<path d="M304.581 48.5679C304.581 49.2022 304.185 49.6879 303.511 49.6879H282.379C281.703 49.6879 281.041 49.2022 281.041 48.5679V48.3448C281.041 47.7105 281.703 47.21 282.379 47.21H303.511C304.187 47.21 304.581 47.7105 304.581 48.3448V48.5679Z" fill="#ADD3AA"/>
<path d="M303.88 54.3987H285.174C283.241 54.3987 281.041 56.5322 281.041 59.0944V214.224H306.155C306.831 214.224 306.811 213.483 306.811 212.586V59.0919C306.811 56.5297 305.813 54.3962 303.88 54.3962V54.3987Z" fill="#ADD3AA"/>
<path d="M292.935 75.213H158.384V83.3901H292.935V75.213Z" fill="#ADD3AA"/>
<path d="M292.935 158.966H158.384V167.639H292.935V158.966Z" fill="#ADD3AA"/>
<path d="M295.165 182.507H158.384V191.179H295.165V182.507Z" fill="#ADD3AA"/>
<path d="M306.812 215.463H148.225C147.13 215.463 146.243 214.576 146.243 213.481V206.79H306.812V215.463Z" fill="#ADD3AA"/>
<path d="M292.935 119.072H158.384V127.249H292.935V119.072Z" fill="#ADD3AA"/>
<path d="M291.2 144.595H160.119V147.073H291.2V144.595Z" fill="#ADD3AA"/>
<path d="M168.924 54.3986H150.22C148.288 54.3986 146.246 56.5197 146.246 59.062V211.486C146.246 212.375 147.269 213.233 147.946 213.233H172.016V59.062C172.016 56.5197 170.859 54.3986 168.926 54.3986H168.924Z" fill="#ADD3AA"/>
<path d="M151.654 43H150.66C150.174 43 149.714 43.2354 149.714 43.8797V56.1775C149.714 56.8243 150.174 57.3694 150.66 57.3694H151.654C152.139 57.3694 151.944 56.8218 151.944 56.1775V43.8797C151.944 43.2329 152.139 43 151.654 43V43Z" fill="#ADD3AA"/>
<path d="M166.342 43H165.349C164.863 43 164.085 43.2354 164.085 43.8797V56.1775C164.085 56.8243 164.863 57.3694 165.349 57.3694H166.342C166.828 57.3694 166.563 56.8218 166.563 56.1775V43.8797C166.563 43.2329 166.828 43 166.342 43V43Z" fill="#ADD3AA"/>
<path d="M169.784 48.5679C169.784 49.2022 169.276 49.6879 168.6 49.6879H147.468C146.792 49.6879 146.244 49.2022 146.244 48.5679V48.3448C146.244 47.7105 146.792 47.21 147.468 47.21H168.6C169.276 47.21 169.784 47.7105 169.784 48.3448V48.5679Z" fill="#ADD3AA"/>
<path d="M235.635 66.2926H216.93C214.997 66.2926 212.898 68.208 212.898 70.6017V214.08C212.898 214.918 213.978 215.708 214.655 215.708H238.916V70.6017C238.916 68.208 237.568 66.2926 235.635 66.2926V66.2926Z" fill="#ADD3AA"/>
<path d="M218.364 54.3987H217.37C216.885 54.3987 215.624 55.0009 215.624 55.6476V67.9455C215.624 68.5922 216.885 69.0184 217.37 69.0184H218.364C218.85 69.0184 218.845 68.5922 218.845 67.9455V55.6451C218.845 54.9984 218.85 54.3962 218.364 54.3962V54.3987Z" fill="#ADD3AA"/>
<path d="M233.053 54.3987H232.059C231.574 54.3987 230.739 55.0009 230.739 55.6476V67.9455C230.739 68.5922 231.574 69.0184 232.059 69.0184H233.053C233.539 69.0184 233.217 68.5922 233.217 67.9455V55.6451C233.217 54.9984 233.539 54.3962 233.053 54.3962V54.3987Z" fill="#ADD3AA"/>
<path d="M236.438 60.3258C236.438 60.9602 235.834 61.5846 235.157 61.5846H214.026C213.349 61.5846 212.898 60.9602 212.898 60.3258V60.1028C212.898 59.4685 213.352 58.8589 214.026 58.8589H235.157C235.834 58.8589 236.438 59.4685 236.438 60.1028V60.3258Z" fill="#ADD3AA"/>
<path d="M75.2255 205.905C70.4049 196.573 62.9891 189.746 55.0018 186.348C47.8613 183.311 42.1291 177.665 39.1473 170.523C38.8342 169.773 38.4854 169.025 38.1037 168.285C32.3076 157.062 20.7025 151.532 12.1824 155.934C3.66371 160.333 1.45609 172.998 7.25396 184.221C8.43876 186.516 9.86743 188.572 11.4619 190.353C16.5525 196.039 19.42 203.409 19.202 211.047C19.006 217.872 20.6271 225.244 24.2417 232.24C29.6314 242.673 38.2672 249.979 47.3173 252.858C50.7414 253.945 53.949 255.646 56.7491 257.885C61.4008 261.605 67.2541 262.73 72.0367 260.259C77.197 257.594 79.6647 251.491 78.8139 245.005C78.332 241.334 78.5819 237.613 79.4045 233.996C81.348 225.456 80.0977 215.339 75.2237 205.905L75.2255 205.905Z" fill="#80C379"/>
<path opacity="0.57" d="M21.3329 166.33C26.2777 173.173 30.9963 180.167 35.6408 187.214C36.8031 188.974 37.9363 190.754 39.0759 192.53L40.7845 195.193L42.4704 197.872C43.5873 199.662 44.7303 201.436 45.8259 203.239L49.1162 208.646C51.2633 212.278 53.4417 215.893 55.5218 219.565C56.5635 221.4 57.643 223.215 58.6468 225.071L61.6861 230.623C65.6634 238.068 69.4564 245.616 72.8565 253.343L72.5236 253.493L69.7574 247.809L69.0689 246.388L68.3454 244.983L66.8936 242.177L65.4466 239.367C64.9668 238.431 64.4502 237.512 63.9534 236.582C62.9487 234.732 61.9569 232.872 60.9406 231.027C56.8241 223.675 52.6073 216.379 48.2414 209.169C46.0299 205.582 43.851 201.975 41.6149 198.403L39.9462 195.72L38.2545 193.049C37.1284 191.268 36.0004 189.487 34.8548 187.719C32.5943 184.161 30.3093 180.619 27.9952 177.096C25.6989 173.561 23.3699 170.046 21.0299 166.54L21.3294 166.331L21.3329 166.33Z" fill="white"/>
<path d="M98.178 181.825C94.8768 171.3 88.4531 162.891 80.828 157.926C74.0113 153.488 69.1121 146.607 67.3158 138.682C67.1273 137.849 66.9024 137.014 66.6395 136.177C62.6693 123.52 51.6949 115.692 42.1292 118.692C32.5619 121.691 28.0244 134.385 31.9946 147.043C32.8057 149.631 33.9106 152.017 35.237 154.15C39.4676 160.955 41.1061 169.096 39.5165 176.953C38.0964 183.973 38.4504 191.892 40.9252 199.781C44.6162 211.55 52.2119 220.674 61.0268 225.295C64.3613 227.042 67.3647 229.385 69.8499 232.209C73.979 236.902 79.8126 239.129 85.1829 237.445C90.9772 235.628 94.6122 229.767 94.8935 222.904C95.053 219.022 95.9756 215.221 97.4692 211.63C100.998 203.154 101.517 192.466 98.1798 181.825L98.178 181.825Z" fill="#5FAA58"/>
<path opacity="0.57" d="M49.7007 131.106C53.5734 139.08 57.1884 147.17 60.7182 155.3C61.6005 157.332 62.4511 159.378 63.3083 161.421L64.5935 164.486L65.8532 167.561C66.6851 169.614 67.5441 171.657 68.3544 173.72L70.7795 179.909C72.3438 184.055 73.944 188.189 75.4305 192.364C76.1763 194.451 76.9645 196.522 77.6677 198.624L79.8082 204.918C82.5787 213.339 85.1384 221.834 87.2631 230.44L86.8938 230.535L85.0596 224.157L84.6047 222.562L84.1102 220.978L83.1143 217.813L82.1255 214.647C81.7982 213.591 81.4298 212.547 81.0853 211.496C80.3792 209.399 79.6905 207.298 78.9723 205.204C76.0426 196.854 73.0006 188.542 69.7895 180.295C68.1517 176.183 66.5495 172.058 64.8831 167.959L63.6426 164.88L62.375 161.812C61.5318 159.766 60.6882 157.719 59.8231 155.683C58.1296 151.593 56.4076 147.516 54.65 143.451C52.9159 139.378 51.1417 135.322 49.3558 131.271L49.7012 131.11L49.7007 131.106Z" fill="white"/>
<path d="M38 292L266.936 291.647V174.998C266.805 174.98 266.659 174.962 266.5 174.941C264.478 174.684 260.207 174.187 254.19 173.732C239.99 172.66 216.08 171.824 189.115 174.941C185.004 175.417 180.828 175.988 176.589 176.655C173.066 177.215 169.514 177.851 165.933 178.562C164.375 178.872 162.814 179.199 161.25 179.542C157.841 180.286 154.423 181.11 150.998 182.014C139.448 185.014 128.184 189.014 117.336 193.967C112.802 196.065 108.339 198.353 103.983 200.86C97.5867 204.522 91.474 208.653 85.6958 213.218C63.3822 230.907 45.7016 256.413 38 292Z" fill="#1F905A"/>
<path d="M78.0638 292H307V175.005C306.869 174.987 306.723 174.969 306.564 174.948C306.266 174.909 305.922 174.867 305.528 174.821C303.25 174.545 299.387 174.124 294.254 173.735C290.689 173.467 286.51 173.212 281.82 173.028C273.107 172.692 262.639 172.611 251.099 173.166C244.135 173.502 236.778 174.068 229.179 174.948C225.068 175.426 220.892 175.999 216.653 176.667C213.13 177.229 209.578 177.867 205.996 178.58C204.439 178.891 202.878 179.219 201.314 179.563C197.905 180.309 194.487 181.136 191.061 182.042C182.406 184.313 173.903 187.129 165.605 190.473C162.845 191.59 160.11 192.776 157.399 194.03C155.867 194.741 154.343 195.475 152.827 196.233C149.861 197.711 146.934 199.282 144.047 200.944C139.571 203.517 135.231 206.319 131.045 209.339C130.726 209.562 130.407 209.795 130.088 210.028C128.626 211.103 127.183 212.207 125.76 213.338C125.274 213.727 124.788 214.116 124.305 214.512C121.882 216.493 119.517 218.566 117.21 220.733C111.542 226.057 106.369 231.882 101.754 238.135C91.0121 252.698 82.7323 270.414 78.078 291.936C78.0744 291.958 78.0673 291.979 78.0638 292Z" fill="#107A47"/>
<path d="M204.161 291.987C165.834 291.433 134.933 278.211 135.134 262.489C135.134 260.731 133.791 250.836 134.584 249.268C140.627 236.033 170.843 234.397 204.953 234.965C238.527 235.451 266.661 234.965 272.946 248.01C273.846 249.876 274.021 262.57 273.98 264.463C273.738 280.225 242.488 292.46 204.161 291.987Z" fill="#FD9F02"/>
<path d="M267.969 246.295C268.125 230.704 237.274 217.758 199.062 217.377C160.85 216.997 129.748 229.328 129.593 244.918C129.438 260.509 160.289 273.456 198.5 273.836C236.712 274.216 267.814 261.886 267.969 246.295Z" fill="#FFBB18"/>
<path d="M263.218 251.203C263.409 237.919 237.172 226.773 204.617 226.307C172.062 225.841 145.518 236.232 145.327 249.515C145.137 262.799 171.374 273.945 203.929 274.411C236.483 274.877 263.028 264.486 263.218 251.203Z" fill="#FD9F02"/>
<path d="M167.278 247.594L176.761 247.734C176.946 246.573 177.425 245.471 178.156 244.521C178.888 243.571 179.851 242.801 180.965 242.275L187.238 243.225C186.16 243.708 185.222 244.43 184.506 245.33C183.79 246.231 183.317 247.281 183.128 248.392C183.128 250.925 186.929 252.724 192.274 252.812C194.336 252.951 196.405 252.671 198.342 251.992C200.279 251.312 202.039 250.249 203.503 248.874C205.596 246.829 208.149 245.254 210.973 244.263C213.798 243.273 216.822 242.892 219.823 243.149C227.64 243.149 233.51 245.441 234.88 248.798L244.362 248.937V251.166L235.283 251.039C235.122 252.002 234.738 252.919 234.158 253.724C233.577 254.53 232.815 255.205 231.925 255.7L225.733 254.687C226.613 254.231 227.365 253.582 227.923 252.796C228.482 252.009 228.832 251.107 228.943 250.165C228.943 247.43 224.658 246.29 220.884 246.227C218.858 246.116 216.833 246.451 214.969 247.205C213.104 247.959 211.45 249.111 210.139 250.571C206.109 254.231 201.22 256.029 192.771 256.029C185.357 256.029 178.306 253.876 176.882 250.102H167.13L167.278 247.594Z" fill="#FFBB18"/>
<path d="M211.561 269.766C173.216 269.211 142.312 256.016 142.54 240.251C142.54 238.507 141.197 228.597 141.989 227.028C148.033 213.806 178.253 212.251 212.367 212.724C245.944 213.224 274.069 212.724 280.341 225.771C281.268 227.637 281.415 240.332 281.388 242.225C281.187 257.949 249.893 270.306 211.561 269.766Z" fill="#FD9F02"/>
<path d="M280.603 229.337C280.826 213.747 250.032 200.665 211.822 200.118C173.613 199.572 142.457 211.766 142.234 227.356C142.011 242.946 172.805 256.028 211.014 256.574C249.224 257.121 280.38 244.927 280.603 229.337Z" fill="#FFBB18"/>
<path d="M270.364 229.19C270.554 215.907 244.317 204.76 211.763 204.294C179.208 203.829 152.663 214.219 152.473 227.503C152.283 240.786 178.52 251.933 211.074 252.398C243.629 252.864 270.174 242.474 270.364 229.19Z" fill="#FD9F02"/>
<path d="M174.669 225.98H184.012C184.195 224.719 184.668 223.522 185.393 222.491C186.117 221.46 187.071 220.625 188.173 220.058L194.375 221.102C193.305 221.606 192.374 222.379 191.666 223.351C190.958 224.323 190.495 225.462 190.32 226.667C190.32 229.415 194.057 231.407 199.305 231.462C201.343 231.634 203.394 231.342 205.312 230.606C207.23 229.87 208.97 228.709 210.41 227.203C212.471 224.974 214.99 223.257 217.781 222.179C220.571 221.101 223.56 220.691 226.525 220.979C234.198 220.979 240.029 223.493 241.367 227.107L250.71 227.258V229.69L241.712 229.538C241.574 230.589 241.202 231.593 240.628 232.47C240.053 233.347 239.29 234.074 238.399 234.595L232.316 233.537C233.185 233.037 233.928 232.33 234.483 231.475C235.038 230.62 235.39 229.641 235.51 228.618C235.51 225.664 231.322 224.414 227.558 224.359C225.572 224.242 223.585 224.594 221.748 225.389C219.912 226.184 218.274 227.401 216.957 228.948C212.981 232.905 208.17 234.87 199.822 234.87C192.493 234.87 185.549 232.493 184.157 228.439L174.536 228.288L174.669 225.98Z" fill="#FFBB18"/>
<path d="M211.561 246.489C173.216 245.935 142.312 232.736 142.54 216.982C142.54 215.237 141.197 205.325 141.989 203.756C148.033 190.517 178.253 188.976 212.367 189.449C245.944 189.936 274.069 189.449 280.341 202.499C281.268 204.365 281.415 217.063 281.388 218.956C281.187 234.724 249.893 247.044 211.561 246.489Z" fill="#FD9F02"/>
<path d="M280.605 205.992C280.829 190.402 250.034 177.321 211.825 176.774C173.615 176.227 142.459 188.422 142.236 204.012C142.013 219.602 172.807 232.683 211.017 233.23C249.226 233.777 280.382 221.582 280.605 205.992Z" fill="#FFBB18"/>
<path d="M270.367 200.943C270.557 187.66 244.32 176.513 211.766 176.047C179.211 175.581 152.666 185.972 152.476 199.256C152.286 212.539 178.522 223.685 211.077 224.151C243.632 224.617 270.177 214.227 270.367 200.943Z" fill="#FD9F02"/>
<path d="M174.656 202.49L184 202.639C184.178 201.39 184.649 200.204 185.375 199.183C186.1 198.163 187.056 197.339 188.162 196.783L194.365 197.775C193.294 198.283 192.363 199.055 191.656 200.023C190.948 200.99 190.485 202.123 190.309 203.319C190.309 206.036 194.047 207.993 199.296 208.061C201.336 208.229 203.387 207.937 205.305 207.207C207.224 206.477 208.964 205.326 210.403 203.835C212.465 201.633 214.985 199.936 217.776 198.873C220.567 197.809 223.556 197.406 226.521 197.693C234.195 197.693 240.027 200.18 241.366 203.754L250.71 203.903V206.295L241.71 206.159C241.567 207.196 241.194 208.186 240.62 209.053C240.045 209.92 239.285 210.641 238.397 211.159L232.339 210.154C233.21 209.664 233.954 208.968 234.509 208.125C235.065 207.281 235.416 206.313 235.534 205.303C235.534 202.368 231.345 201.145 227.581 201.077C225.584 200.971 223.589 201.336 221.751 202.144C219.913 202.952 218.28 204.181 216.977 205.737C213.001 209.665 208.176 211.594 199.839 211.594C192.509 211.594 185.564 209.257 184.159 205.235L174.536 205.099L174.656 202.49Z" fill="#FFBB18"/>
<path d="M211.635 220.05C173.3 219.585 142.378 206.668 142.552 191.216C142.552 189.503 141.21 179.785 141.975 178.232C147.99 165.236 178.228 163.629 212.293 164.041C245.861 164.452 274.058 163.908 280.315 176.706C281.214 178.538 281.416 191.003 281.389 192.862C281.188 208.341 249.969 220.421 211.635 220.05Z" fill="#FD9F02"/>
<path d="M280.709 174.651C280.864 159.061 250.013 146.114 211.802 145.733C173.59 145.353 142.488 157.684 142.332 173.275C142.177 188.865 173.028 201.812 211.24 202.192C249.452 202.573 280.554 190.242 280.709 174.651Z" fill="#FFBB18"/>
<path d="M171.51 178.178L180.993 178.328C181.178 177.077 181.657 175.89 182.388 174.867C183.12 173.844 184.083 173.015 185.197 172.449L191.469 173.486C190.391 174.001 189.453 174.777 188.737 175.744C188.02 176.711 187.548 177.842 187.359 179.037C187.359 181.765 191.161 183.701 196.506 183.797C198.567 183.946 200.635 183.646 202.571 182.917C204.508 182.188 206.269 181.046 207.735 179.569C209.827 177.365 212.379 175.666 215.203 174.596C218.028 173.527 221.053 173.115 224.055 173.39C231.872 173.39 237.741 175.859 239.111 179.473L248.594 179.623V182.024L239.514 181.887C239.354 182.924 238.97 183.911 238.39 184.779C237.809 185.647 237.046 186.373 236.157 186.906L229.965 185.815C230.845 185.325 231.596 184.626 232.155 183.779C232.714 182.931 233.064 181.96 233.175 180.946C233.175 178 228.89 176.773 225.116 176.718C223.091 176.594 221.065 176.95 219.2 177.76C217.334 178.57 215.681 179.81 214.37 181.383C210.341 185.324 205.452 187.261 197.003 187.261C189.589 187.261 182.537 184.942 181.114 180.878H171.362L171.51 178.178Z" fill="#FFBB18"/>
<path d="M213.671 194.649C175.322 194.105 144.414 181.153 144.656 165.68C144.656 163.968 143.313 154.254 144.105 152.702C150.15 139.723 180.372 138.21 214.476 138.662C248.057 139.153 276.184 138.662 282.47 151.481C283.383 153.299 283.531 165.773 283.504 167.631C283.303 183.144 252.019 195.193 213.671 194.649Z" fill="#FD9F02"/>
<path d="M282.743 154.292C282.966 138.702 252.172 125.621 213.962 125.074C175.753 124.527 144.597 136.722 144.374 152.312C144.151 167.902 174.945 180.983 213.154 181.53C251.364 182.077 282.52 169.882 282.743 154.292Z" fill="#FFBB18"/>
<path d="M272.504 154.146C272.694 140.862 246.457 129.716 213.903 129.25C181.348 128.784 154.803 139.175 154.613 152.459C154.423 165.742 180.659 176.888 213.214 177.354C245.769 177.82 272.314 167.43 272.504 154.146Z" fill="#FD9F02"/>
<path d="M178.983 156.165H188.456C188.641 154.901 189.122 153.702 189.856 152.669C190.591 151.636 191.557 150.8 192.675 150.232L198.963 151.278C197.887 151.777 196.948 152.54 196.231 153.501C195.513 154.462 195.039 155.59 194.851 156.784C194.851 159.537 198.64 161.533 203.961 161.588C206.028 161.761 208.107 161.468 210.052 160.731C211.997 159.994 213.761 158.83 215.221 157.321C217.312 155.098 219.866 153.386 222.693 152.314C225.519 151.241 228.545 150.835 231.546 151.127C239.326 151.127 245.238 153.646 246.595 157.266L256 157.417V159.854L246.877 159.703C246.736 160.755 246.36 161.76 245.777 162.639C245.195 163.518 244.421 164.247 243.518 164.768L237.35 163.708C238.232 163.207 238.984 162.499 239.547 161.643C240.11 160.786 240.467 159.805 240.589 158.78C240.589 155.821 236.343 154.568 232.527 154.513C230.512 154.396 228.498 154.749 226.636 155.545C224.774 156.342 223.113 157.561 221.778 159.111C217.747 163.089 212.869 165.044 204.405 165.044C196.974 165.044 189.934 162.662 188.523 158.601L178.768 158.45L178.983 156.165Z" fill="#FFBB18"/>
<path d="M212.611 172.432C174.276 171.888 143.37 158.936 143.598 143.463C143.598 141.751 142.255 132.023 143.047 130.484C149.092 117.506 179.313 115.993 213.43 116.444C247.01 116.935 275.123 116.444 281.409 129.25C282.336 131.081 282.484 143.555 282.443 145.413C282.296 160.873 250.959 172.976 212.611 172.432Z" fill="#FD9F02"/>
<path d="M281.686 132.061C281.909 116.472 251.115 103.39 212.905 102.843C174.696 102.296 143.54 114.491 143.317 130.081C143.094 145.671 173.888 158.752 212.097 159.299C250.307 159.846 281.463 147.651 281.686 132.061Z" fill="#FFBB18"/>
<path d="M271.447 131.915C271.637 118.632 245.4 107.485 212.846 107.019C180.291 106.554 153.746 116.944 153.556 130.228C153.366 143.511 179.602 154.658 212.157 155.123C244.712 155.589 271.257 145.199 271.447 131.915Z" fill="#FD9F02"/>
<path d="M175.714 128.466L185.006 128.603C185.193 127.35 185.671 126.162 186.399 125.139C187.126 124.116 188.083 123.288 189.188 122.725L195.388 123.734C194.319 124.246 193.39 125.02 192.681 125.988C191.973 126.956 191.507 128.088 191.325 129.285C191.325 132.013 195.082 133.99 200.339 134.045C202.382 134.215 204.435 133.925 206.357 133.195C208.279 132.465 210.022 131.312 211.464 129.817C213.526 127.606 216.048 125.902 218.841 124.832C221.634 123.762 224.626 123.354 227.594 123.638C235.293 123.638 241.135 126.134 242.475 129.721L251.768 129.871V132.285L242.767 132.135C242.629 133.178 242.257 134.174 241.681 135.045C241.106 135.916 240.341 136.638 239.449 137.154L233.355 136.104C234.225 135.606 234.967 134.904 235.523 134.056C236.079 133.207 236.432 132.236 236.555 131.222C236.555 128.289 232.346 127.048 228.589 126.994C226.59 126.883 224.592 127.246 222.75 128.054C220.909 128.863 219.273 130.096 217.969 131.658C213.986 135.6 209.154 137.536 200.804 137.536C193.45 137.536 186.507 135.19 185.099 131.167L175.594 131.003L175.714 128.466Z" fill="#FFBB18"/>
<path d="M177.068 86.2191C176.329 86.6094 175.485 86.7657 174.652 86.6667C174.794 83.1568 175.546 79.6969 176.873 76.4365C178.237 73.5976 180.458 71.2446 182.302 68.6743C183.278 67.1898 184.332 65.7557 185.458 64.3776C186.568 62.9681 188.084 61.9209 189.809 61.3725C189.941 61.3139 190.088 61.2925 190.232 61.3105C190.377 61.3286 190.513 61.3854 190.627 61.4748C190.722 61.597 190.781 61.7433 190.796 61.8968L192.367 70.7076C192.749 72.1096 192.726 73.5885 192.302 74.9787C191.508 76.2371 190.487 77.3422 189.289 78.2395C186.992 80.3846 184.456 82.2678 181.73 83.8534C180.226 84.7342 178.669 85.5242 177.068 86.2191Z" fill="#FCAB9A"/>
<path d="M165.437 197.436C166.107 199.838 166.725 202.663 165.437 204.684C164.812 205.544 163.983 206.198 163.042 206.577C161.948 207.168 160.724 207.407 159.511 207.264C158.298 207.122 157.147 206.604 156.193 205.772C155.185 204.547 154.472 203.066 154.12 201.463C152.391 195.606 151.141 189.592 150.386 183.492C150.275 182.929 150.302 182.344 150.463 181.796C150.741 181.205 151.196 180.736 151.75 180.468C154.673 178.745 159.231 177.36 160.866 181.189C162.991 186.091 163.956 192.18 165.437 197.436Z" fill="#FCAB9A"/>
<path d="M155.566 199.944C154.922 199.861 154.267 199.921 153.652 200.121C153.234 200.342 152.869 200.643 152.582 201.006L146.01 208.097C144.738 209.463 143.333 211.346 144.283 212.964C144.597 213.414 145.013 213.792 145.502 214.07C145.991 214.348 146.539 214.519 147.107 214.57C150.239 215.101 153.411 214.039 156.343 212.838C158.364 212.004 160.358 211.081 162.312 210.095C163.785 209.468 165.068 208.503 166.046 207.288C167.546 205.089 167.987 199.83 165.31 198.187C163.972 197.365 162.794 197.959 161.509 198.528C159.684 199.46 157.641 199.946 155.566 199.944Z" fill="#FC682D"/>
<path d="M129.183 222.789C129.126 223.2 129.172 223.618 129.32 224.009C129.548 224.401 129.888 224.725 130.301 224.943C131.567 225.789 133.06 226.274 134.606 226.344C135.384 226.374 136.159 226.229 136.869 225.923C137.579 225.617 138.203 225.157 138.693 224.58C139.412 223.486 139.846 222.245 139.96 220.96C140.522 218.19 140.8 215.374 140.791 212.553C140.809 212.355 140.786 212.155 140.723 211.966C140.66 211.777 140.558 211.601 140.423 211.45C140.2 211.29 139.937 211.188 139.66 211.151C137.235 210.671 132.453 209.452 131.227 212.306C129.961 215.674 129.271 219.213 129.183 222.789Z" fill="#FCAB9A"/>
<path d="M118.715 222.213C116.672 222.315 114.652 222.695 112.716 223.34C111.748 223.671 110.859 224.19 110.103 224.866C109.347 225.543 108.741 226.361 108.322 227.272C107.939 228.182 107.896 229.193 108.2 230.13C108.861 231.502 110.024 232.587 111.463 233.171C118.273 236.747 125.982 238.387 133.706 237.902C135.699 237.972 137.638 237.27 139.098 235.949C140.352 234.547 140.447 232.502 140.527 230.628L140.797 221.728C139.072 221.466 137.481 222.567 135.836 223.117C133.005 224.061 131.886 221.806 129.541 221.243C126.467 220.574 121.843 221.911 118.715 222.213Z" fill="#FC682D"/>
<path d="M142.494 122.32C140.56 122.717 138.774 123.645 137.334 125.003C135.654 126.907 135.507 129.724 135.507 132.286C135.551 150.686 138.95 168.921 145.534 186.087C145.854 187.362 146.665 188.457 147.787 189.132C148.793 189.424 149.868 189.373 150.841 188.984C154.794 187.869 158.688 186.553 162.508 185.04L157.334 150.072C157.092 149.099 157.148 148.075 157.494 147.135C157.871 146.456 158.407 145.881 159.054 145.458C164.956 141.067 171.198 137.16 177.721 133.775C182.895 131.092 188.828 128.034 190.255 122.28C190.542 121.313 190.598 120.292 190.42 119.299C190.242 118.307 189.833 117.37 189.228 116.566C188.412 115.737 187.442 115.077 186.375 114.621C182.935 112.89 178.601 110.664 174.641 111.08C171.481 111.415 170.268 113.279 167.615 114.661C160.188 118.537 150.454 119.973 142.494 122.32Z" fill="#2F2E41"/>
<path d="M199.022 121.99C195.807 120.716 192.683 119.218 189.672 117.507C178.225 111.041 187.602 107.855 191.422 100.051C194.093 94.5296 193.038 87.9009 191.609 81.9066C189.125 71.3627 185.799 60.4543 188.203 49.8969C188.514 48.1875 189.179 46.5637 190.153 45.1313C190.851 44.2478 191.654 43.4543 192.544 42.7687C194.958 40.646 197.732 38.9813 200.732 37.8545C206.502 35.9374 212.9 37.3415 218.323 40.1361C239.627 51.0985 244.168 78.8285 243.326 100.983C243.086 107.139 242.178 113.66 238.304 118.358C234.671 122.773 228.955 124.852 223.385 125.567C215.096 126.441 206.722 125.212 199.022 121.99Z" fill="#FFF8E7"/>
<path d="M211.6 53.0682C210.715 54.2302 209.606 55.1854 208.345 55.8725C207.085 56.5596 205.7 56.9633 204.282 57.0576C203.838 57.1135 203.389 57.0104 203.009 56.765C202.609 56.3326 202.381 55.7573 202.372 55.156C202.245 53.9592 202.079 52.4166 201.952 50.8874C201.825 49.3582 201.596 47.4832 201.443 46.18C201.101 42.7102 199.84 39.4087 197.803 36.6454C197.389 36.0409 196.906 35.4916 196.364 35.0098C192.851 31.6987 207.158 33.0019 209.093 28.5072C211.27 31.4327 211.079 35.5683 212.033 39.1454C212.652 40.8882 213.183 42.6637 213.624 44.4646C213.891 45.9666 213.849 47.5107 213.5 48.9942C213.151 50.4776 212.503 51.8665 211.6 53.0682Z" fill="#FCAB9A"/>
<path d="M189.537 30.7281C189.299 32.5768 189.644 34.4528 190.526 36.1019C190.995 36.7919 191.585 37.3941 192.268 37.8802C196.938 41.3459 203.957 40.645 208.601 37.0624C213.245 33.4799 215.646 27.522 215.896 21.6938C216.015 18.6564 215.527 15.3984 213.456 13.1788C212.307 12.083 210.897 11.2879 209.355 10.8661C207.813 10.4444 206.189 10.4094 204.63 10.7644C200.359 11.73 196.47 13.905 193.442 17.0209C190.487 20.292 189.748 26.5744 189.537 30.7281Z" fill="#FCAB9A"/>
<path d="M147.144 146.028C144.698 149.195 142.766 152.732 141.42 156.507C133.96 174.938 129.12 194.336 127.043 214.127C133.129 214.904 139.288 214.904 145.373 214.127C145.852 200.142 147.965 186.262 151.67 172.775C152.324 169.882 153.444 167.116 154.984 164.587C157.646 160.567 162.146 158.249 166.419 156.078C176.251 151.15 186.547 147.222 197.154 144.353C201.627 143.08 206.14 141.941 210.466 140.427C214.231 139.293 217.759 137.477 220.875 135.067C222.439 133.835 223.741 132.301 224.706 130.554C225.671 128.807 226.278 126.883 226.493 124.897C226.426 125.902 204.263 124.803 202.199 124.575C195.251 123.824 187.051 119.751 180.182 122.619C174.858 124.87 169.893 129.56 165.061 132.803C159.124 136.742 151.883 140.4 147.144 146.028Z" fill="#473F47"/>
<path d="M178.63 144.884L216.971 125.34L172.587 108.913L137.623 124.852L178.63 144.884Z" fill="#5FAA58"/>
<path d="M177.901 141.71L210.623 125.615L172.75 112.087L142.913 125.214L177.901 141.71Z" fill="#107A47"/>
<path d="M233.152 61.9471C233.26 62.6227 233.342 63.2982 233.409 63.9738C234.477 73.9586 233.517 83.7947 233.152 93.6984C232.922 99.8595 232.125 111.587 225.675 114.735C213.613 120.64 190.355 118.37 190.355 118.37C187.656 117.933 184.897 118.044 182.242 118.694C180.795 119.153 179.469 119.924 178.05 120.464C172.965 122.45 167.232 121.45 161.931 120.464C161.005 120.348 160.113 120.045 159.308 119.572C157.226 118.221 157.32 114.803 158.875 112.817C160.593 110.961 162.857 109.698 165.339 109.209C172.1 107.237 179.469 106.372 186.258 108.385C187.15 108.642 188.043 108.953 188.962 109.128C190.031 109.299 191.112 109.376 192.194 109.358L200.415 109.425C209.881 109.52 218.738 109.561 220.158 98.3462C220.685 94.2017 220.793 90.0147 220.482 85.8484C219.914 78.3092 217.98 70.851 218.386 63.3117C218.401 60.9314 218.98 58.5884 220.076 56.4751C220.631 55.4333 221.445 54.5517 222.44 53.9151C223.435 53.2786 224.576 52.9086 225.756 52.8406C226.989 52.939 228.175 53.3572 229.197 54.0539C230.219 54.7505 231.042 55.7015 231.584 56.8129C232.402 58.4199 232.933 60.1574 233.152 61.9471Z" fill="#FCAB9A"/>
<path d="M121.754 88.8116L172.136 114.791L178.884 144.884L136.597 124.822L121.754 88.8116Z" fill="#5FAA58"/>
<path d="M207.586 26.1723C208.021 28.4204 208.196 30.7106 208.108 32.9982C209.686 31.6676 209.566 28.1149 211.666 28.2081C212.923 28.2081 213.511 30.0044 212.923 31.1354C212.572 31.6654 212.118 32.1199 211.587 32.4719C211.056 32.8239 210.46 33.0662 209.833 33.1845C209.472 37.9879 213.311 41.2877 216.52 44.2017C220.03 47.5906 222.482 51.915 223.582 56.656C225.107 62.617 225.026 68.8708 224.919 75.058C226.631 73.7274 229.052 74.4193 231.205 74.6455C237.558 75.2975 243.897 70.2945 245.275 64.0008C245.861 60.8475 245.456 57.5913 244.116 54.6749C242.776 51.7585 240.566 49.3235 237.785 47.7012C236.073 46.7298 234.094 45.9714 233.038 44.3082C231.593 42.0329 232.449 39.0657 232.529 36.3247C232.556 33.3473 231.578 30.447 229.753 28.0878C227.927 25.7286 225.359 24.0469 222.458 23.3115C223.63 21.2013 224.371 18.8816 224.638 16.4856C224.64 14.878 224.308 13.2873 223.664 11.8129C223.019 10.3386 222.076 9.01224 220.894 7.91668C218.542 5.7642 215.825 4.04333 212.869 2.83385C210.101 1.56979 206.998 0.438795 204.069 1.30367C200.632 2.32822 198.492 5.78775 197.275 9.16743C196.45 8.78762 195.524 8.67832 194.633 8.85527C193.741 9.03223 192.929 9.48631 192.313 10.1521C191.694 10.8406 191.218 11.6442 190.913 12.5166C190.608 13.3889 190.479 14.3128 190.534 15.2349C190.563 16.4362 190.812 17.6222 191.27 18.7343C192.407 17.4038 193.771 16.0732 195.135 17.0445C196.499 18.0158 197.315 20.0117 198.572 21.0362C199.934 22.17 201.413 23.1558 202.986 23.9768C203.534 24.3228 207.493 25.7199 207.586 26.1723Z" fill="#FC682D"/>
<path d="M190.245 53.995C190.271 53.8412 190.329 53.6949 190.416 53.5658C190.502 53.4367 190.615 53.3278 190.746 53.2463C191.209 53.0725 191.644 53.5806 192.146 53.6608C192.329 53.6743 192.513 53.6466 192.684 53.5796C192.855 53.5125 193.01 53.4078 193.136 53.2731C193.392 53.0082 193.63 52.7268 193.849 52.4308C194.232 52.003 194.707 51.6554 195.077 51.2142C195.429 50.7698 195.663 50.2421 195.758 49.6808C195.852 49.1195 195.804 48.543 195.618 48.0056C196.184 47.8792 196.686 47.5525 197.035 47.0843C197.383 46.6162 197.555 46.0373 197.52 45.4521C197.474 45.2814 197.474 45.1013 197.52 44.9307C197.638 44.69 197.929 44.6365 198.18 44.5697C198.581 44.4535 198.949 44.2427 199.255 43.9546C199.56 43.6664 199.793 43.3091 199.936 42.9119C200.034 42.6926 200.066 42.449 200.028 42.2114C199.991 41.9737 199.885 41.7525 199.725 41.575C199.524 41.436 199.293 41.3488 199.051 41.321C197.137 40.9333 195.222 40.599 193.295 40.3183C193.006 40.2818 192.722 40.21 192.45 40.1044C192.04 39.9038 191.75 39.5295 191.367 39.3022C190.825 39.0585 190.215 39.0203 189.648 39.1946C189.081 39.3689 188.594 39.744 188.278 40.2514C187.728 41.3841 187.341 42.5907 187.129 43.8344C186.64 45.1713 186.693 46.6687 186.139 48.0056C185.728 48.9383 185.237 49.833 184.673 50.6794C182.204 54.6902 172.434 67.9391 170.269 70.7333C167.958 73.7547 165.7 77.0302 165.225 80.8137C165.015 82.1331 165.156 83.4853 165.634 84.7309C167.39 88.9288 173.305 90.0786 176.646 87.2844C178.27 85.7815 179.507 83.8999 180.25 81.803C180.884 80.2388 181.227 78.5944 181.821 77.0302C182.392 75.8744 183.022 74.7498 183.709 73.6612C185.256 70.6452 186.58 67.5171 187.67 64.3027C188.33 62.3642 188.885 60.3989 189.36 58.4069C189.585 57.4042 189.796 56.4015 189.981 55.3854C190.086 55.0913 190.113 54.4897 190.245 53.995Z" fill="#FCAB9A"/>
<path d="M70 105C97.062 105 119 83.062 119 56C119 28.938 97.062 7 70 7C42.938 7 21 28.938 21 56C21 83.062 42.938 105 70 105Z" fill="#FFBB18"/>
<path d="M69.9999 97.7497C93.0704 97.7497 111.773 79.0474 111.773 55.9769C111.773 32.9065 93.0704 14.2042 69.9999 14.2042C46.9295 14.2042 28.2272 32.9065 28.2272 55.9769C28.2272 79.0474 46.9295 97.7497 69.9999 97.7497Z" fill="#FD9F02"/>
<path d="M72.4999 82.4544L70.909 75.9544C67.4217 76.7897 63.7709 76.6402 60.3636 75.5226L60.8636 70.8181C64.0418 71.9314 67.472 72.1128 70.7499 71.3408C75.2953 70.2272 77.7954 66.7953 76.909 63.1817C76.0227 59.5681 72.9999 58.0453 67.8181 57.2726C60.6136 56.2726 55.8408 54.2953 54.4772 48.7044C53.1136 43.1135 55.9772 38.3862 61.6817 35.9772L60.0909 29.4772L64.0908 28.4999L65.6136 34.7271C68.5627 34.052 71.6344 34.1302 74.5454 34.9544L73.9999 39.659C71.1972 38.788 68.2082 38.7094 65.3635 39.4317C60.3863 40.6362 59.2499 43.9771 59.8862 46.6362C60.7044 49.9771 63.4999 51.1817 69.659 52.0226C76.9545 53.1135 81.0226 55.659 82.4999 61.3862C83.1241 64.1558 82.7038 67.0583 81.3197 69.5371C79.9356 72.0158 77.6852 73.8964 74.9999 74.8181L76.6363 81.6362L72.4999 82.4544Z" fill="#FFF8E7"/>
</g>
<defs>
<clipPath id="clip0_3_57">
<rect width="307" height="292" fill="white"/>
</clipPath>
</defs>
</svg>
