<svg width="220" height="304" viewBox="0 0 220 304" fill="none" xmlns="http://www.w3.org/2000/svg">
<path d="M167.317 24.9719C166.227 17.0202 162.743 10.252 156.134 5.57147C150.27 1.44938 142.731 -0.319133 135.63 0.053185C118.822 0.930792 106.204 13.9752 99.2891 28.3892C95.6457 35.9819 93.1325 44.0399 91.6432 52.3107C90.1673 47.6434 88.319 43.0958 85.9787 38.7477C77.0963 22.3125 60.0627 10.9834 41.0479 11.5153C23.4027 11.994 5.62451 24.0278 0.824265 41.447C-1.6224 50.3028 1.5556 59.2118 8.08447 65.4482C12.1401 69.3309 17.0068 71.8042 22.2325 73.3067C26.0621 74.9955 30.131 75.8731 34.0669 75.4476C34.6254 75.3944 35.1839 75.3146 35.7424 75.2215C47.5901 75.4875 59.451 72.5754 71.2721 74.0514C78.0137 74.8891 85.0878 77.6017 89.5955 82.6413C89.8348 84.9284 90.0609 87.2155 90.2869 89.4627C90.4465 91.045 91.3507 92.0955 92.481 92.6407C93.2389 93.8108 94.5952 94.1831 95.8983 93.9305C96.2307 94.8746 96.6164 95.8187 97.0818 96.7362C99.329 101.177 105.924 97.1617 103.69 92.747C99.8343 85.1411 104.249 76.3385 110.339 71.4186C117.626 65.5413 127.133 63.4536 136.002 61.2197C144.552 59.0789 153.94 56.8317 160.535 50.5821C167.397 44.0665 168.527 33.8809 167.317 24.9586V24.9719Z" fill="#5CA256"/>
<path d="M167.317 24.9719C166.226 17.0203 162.742 10.2521 156.134 5.57149C155.908 5.41192 155.682 5.26565 155.456 5.11938C162.078 13.7093 164.232 24.8788 156.918 34.8383C150.589 43.4681 140.058 47.9094 130.55 52.0314C124.46 54.6776 118.556 57.5098 113.397 61.2862C107.081 63.9057 101.722 68.3868 97.9857 74.1445C97.1879 67.1901 95.1668 60.4751 91.9888 54.2654C92.0154 53.5606 92.0552 52.8426 92.1217 52.1378C92.0818 51.5926 92.0286 51.0608 92.0021 50.5156C91.8824 51.1007 91.7627 51.6857 91.6563 52.2841C90.1804 47.6168 88.3321 43.0692 85.9918 38.7211C85.6992 38.1759 85.3934 37.6573 85.0743 37.1254C85.287 38.3887 85.4466 39.6519 85.5397 40.8885C86.3242 51.6325 83.3457 62.7622 72.3091 66.7646C66.7376 68.7858 60.5412 68.5597 54.7171 68.1209C47.8159 67.6023 41.1807 67.4427 34.2396 67.8417C26.2613 68.2938 17.7379 68.1741 10.9431 63.3871C5.75726 59.7304 1.55539 54.5047 0.664486 48.0822C0.518218 47.0716 0.46503 46.0611 0.491624 45.0771C0.411841 44.7712 0.345356 44.4654 0.278871 44.1596C-0.904569 52.0979 2.24684 59.8368 8.09755 65.4482C12.1532 69.3309 17.0199 71.8042 22.2456 73.3068C26.0752 74.9955 30.1441 75.8731 34.08 75.4476C34.6385 75.3944 35.197 75.3146 35.7554 75.2215C47.6031 75.4875 59.4641 72.5754 71.2852 74.0514C78.0268 74.8891 85.1009 77.6017 89.6086 82.6413C89.8479 84.9284 90.074 87.2155 90.3 89.4627C90.4596 91.045 91.3638 92.0955 92.494 92.6407C93.252 93.8108 94.6083 94.1832 95.9114 93.9305C96.2438 94.8746 96.6294 95.8187 97.0948 96.7362C99.342 101.177 105.937 97.1617 103.703 92.7471C99.8473 85.1412 104.262 76.3385 110.352 71.4186C117.639 65.5413 127.146 63.4536 136.015 61.2197C144.565 59.0789 153.953 56.8317 160.548 50.5821C167.41 44.0665 168.54 33.8809 167.33 24.9586L167.317 24.9719Z" fill="#157645"/>
<path d="M219.241 192.103C217.619 176.652 213.391 161.533 206.37 147.877C189.576 115.246 156.466 90.4467 119.553 87.641C116.548 87.4149 113.53 87.375 110.511 87.5346C103.876 87.2288 97.201 88.0133 90.9115 90.0344C58.0278 100.579 35.5026 131.747 29.3593 164.844C26.075 182.516 26.8728 200.786 30.0641 218.471C34.5851 243.576 44.6909 268.853 64.3173 285.142C85.7522 302.947 114.221 306.537 141.095 303.28C156.798 301.378 172.635 297.296 185.533 288.147C201.184 277.044 211.197 259.226 215.837 240.597C219.733 224.973 220.93 208.352 219.228 192.076L219.241 192.103Z" fill="#F2F5E1"/>
<path d="M156.387 219.681C155.842 215.745 155.071 211.782 153.089 208.392C152.69 207.713 152.358 207.182 152.039 206.769C150.842 204.908 149.911 201.743 148.183 202.248C122.386 209.748 93.7844 217.753 66.6716 214.508C66.5254 214.827 66.419 215.16 66.2993 215.492C64.8233 221.822 64.2782 230.638 65.7541 236.834C66.9243 240.597 69.1715 242.126 71.2192 245.677C99.8611 248.203 128.569 245.105 156.174 237.14C157.304 231.794 157.198 225.399 156.4 219.694L156.387 219.681Z" fill="#E2E5CB"/>
<path d="M219.242 192.103C217.62 176.652 213.391 161.533 206.37 147.877C189.576 115.246 156.466 90.4467 119.554 87.641C116.549 87.4149 113.53 87.375 110.512 87.5346C103.876 87.2288 97.2013 88.0133 90.9118 90.0344C79.9683 93.5449 70.1817 99.3424 61.7646 106.736C61.8178 108.424 62.0306 109.475 63.0811 110.512C88.3455 115.831 116.269 113.171 136.215 95.8852C201.371 127.798 210.679 214.229 169.458 267.417C145.097 297.854 101.403 303.492 67.868 287.921C88.8375 303.319 115.671 306.378 141.108 303.306C156.812 301.405 172.649 297.322 185.547 288.174C201.198 277.071 211.21 259.253 215.851 240.624C219.747 225 220.944 208.378 219.242 192.103Z" fill="#E2E5CB"/>
<path d="M35.2367 19.653C34.7979 18.2967 33.4947 17.4856 32.165 17.1798C29.3195 16.5149 26.0883 17.592 23.5219 18.7754C20.7163 20.0652 18.1632 22.0199 16.2219 24.4134C15.2512 25.6101 14.081 27.0595 13.722 28.5753C13.4295 29.7721 13.8949 30.9023 14.7858 31.6204C15.198 32.0991 15.7698 32.4581 16.4479 32.6443C17.5117 32.9235 18.602 32.8038 19.6525 32.5246C20.6232 32.3118 21.5939 31.9794 22.4848 31.6603C25.4766 30.5965 28.2557 29.0407 30.729 27.0462C31.4071 26.501 32.0853 25.8362 32.6437 25.1048C32.9762 24.799 33.2953 24.4931 33.6144 24.174C34.7979 22.9906 35.8084 21.3949 35.25 19.6663L35.2367 19.653Z" fill="#9AC596"/>
<path d="M43.5214 15.7969C43.5081 15.5709 43.4416 15.4113 43.3486 15.1986C43.322 15.1321 43.2821 15.0656 43.2289 14.9991C43.0161 14.7066 42.8167 14.5071 42.4976 14.3077C42.0853 14.055 41.5535 13.9353 41.0748 13.9486C40.8354 13.9486 40.5828 13.9885 40.3567 14.0683C40.1307 14.1348 39.8913 14.2412 39.7052 14.3741C39.3993 14.5869 39.2132 14.7863 39.0004 15.0922C38.9605 15.1454 38.9339 15.2119 38.894 15.2783C38.7877 15.531 38.6946 15.757 38.7079 16.0496C38.7079 16.1293 38.7212 16.2224 38.7478 16.3022C38.4951 16.5947 38.3489 16.9671 38.3622 17.366C38.3888 18.0441 38.9073 18.5893 39.5589 18.7489C39.9578 18.842 40.3966 18.8021 40.7822 18.6691C41.3673 18.4696 41.8593 18.1638 42.338 17.7649C42.4976 17.6319 42.6438 17.4724 42.7768 17.3128C42.9629 17.0734 43.1491 16.8341 43.2821 16.5682C43.3087 16.5283 43.3353 16.4751 43.3486 16.4352C43.4416 16.2224 43.5214 16.0363 43.5081 15.7969H43.5214Z" fill="#9AC596"/>
<path d="M128.197 8.08464C127.772 8.08464 127.346 8.11123 126.921 8.13783C125.418 7.3666 123.304 8.44366 121.881 9.09521C121.07 9.41434 120.286 9.81326 119.541 10.2787C118.451 10.8903 117.387 11.5552 116.376 12.2865C115.525 12.9115 114.687 13.5763 113.89 14.2811C113.118 14.9592 112.347 15.757 112.161 16.8075C112.015 17.6452 112.254 18.3101 112.706 18.8154C112.467 19.693 113.251 20.5573 114.195 20.3179C114.581 20.2249 114.967 20.1052 115.352 19.9722C115.565 19.9855 115.778 19.9988 115.991 19.9855C117.852 19.9057 119.687 19.3738 121.363 18.5893C125.139 16.8341 128.078 13.5098 129.381 9.56061C129.633 8.78938 128.902 8.05804 128.171 8.05804L128.197 8.08464Z" fill="#9AC596"/>
<path d="M131.029 27.9372C131.029 27.7244 130.963 27.525 130.856 27.3388C130.75 27.1527 130.604 27.0064 130.417 26.9133C130.138 26.7936 129.952 26.7139 129.646 26.7272C129.487 26.7272 129.327 26.7537 129.181 26.8069C128.941 26.9 128.835 26.9532 128.649 27.0995C128.543 27.1925 128.463 27.259 128.383 27.3521C128.316 27.3521 128.25 27.3654 128.197 27.3787C128.17 27.3787 128.157 27.3787 128.13 27.392C127.891 27.4718 127.692 27.5915 127.519 27.7643C127.226 28.0436 127.12 28.4425 127.106 28.8281C127.106 29.0275 127.133 29.2403 127.2 29.4265C127.319 29.7456 127.439 29.945 127.665 30.1977C127.758 30.3041 127.891 30.3971 128.011 30.4769C128.144 30.57 128.303 30.6232 128.449 30.6764C128.729 30.7695 129.074 30.7562 129.367 30.6764C129.925 30.5035 130.404 30.078 130.657 29.5594C130.776 29.3068 130.883 29.0408 130.936 28.7749C131.002 28.4957 131.029 28.2164 131.056 27.9239L131.029 27.9372Z" fill="#9AC596"/>
<path d="M71.3784 108.504C79.7954 110.844 89.0901 110.166 97.5869 108.677C106.669 107.068 115.511 104.289 123.889 100.459C125.099 99.9142 126.282 99.3025 127.426 98.6376C127.691 98.4781 127.957 98.3185 128.21 98.1456C128.263 98.1058 128.316 98.0792 128.383 98.0393C128.582 97.9063 128.769 97.7866 128.968 97.6537C129.247 97.4675 129.513 97.268 129.779 97.0686C129.859 97.0021 129.939 96.9489 130.018 96.8824C130.258 96.6963 130.484 96.5101 130.697 96.3107C131.255 95.8054 131.747 95.2735 132.159 94.6884C134.313 91.6035 132.412 88.8377 129.261 87.8005C128.662 87.6011 128.13 87.3351 127.665 87.0027C121.801 85.8592 115.737 85.3406 109.74 85.673C103.105 85.3672 96.4301 86.1517 90.1405 88.1728C81.0852 91.0716 73.0139 95.3799 65.8601 101.005C64.2644 104.542 66.7643 107.228 71.3651 108.504H71.3784Z" fill="#157645"/>
<path d="M146.268 113.278C145.949 113.517 145.616 113.756 145.284 113.996C145.018 114.182 144.739 114.355 144.473 114.541C144.393 114.594 144.313 114.634 144.234 114.687C143.875 114.913 143.502 115.153 143.13 115.379C141.534 116.323 139.859 117.16 138.17 117.932C126.429 123.304 114.076 127.2 101.364 129.447C89.4895 131.548 76.4717 132.505 64.6905 129.234C63.0682 128.782 61.6189 128.21 60.4221 127.519C52.0184 139.127 46.7261 153.142 45.1172 167.33C44.08 176.425 44.3726 185.627 45.6225 194.709C88.8114 208.91 141.986 202.355 180.84 176.771C176 153.395 165.243 128.583 146.255 113.291L146.268 113.278Z" fill="#3E3A39"/>
<path d="M60.4348 127.506C52.0311 139.114 46.7388 153.129 45.1299 167.317C44.0927 176.412 44.3853 185.614 45.6352 194.696C50.5551 196.318 55.608 197.648 60.7539 198.725C54.4112 175.628 59.012 150.975 69.6763 130.351C68.0009 130.059 66.3387 129.686 64.7032 129.234C63.0809 128.782 61.6316 128.21 60.4348 127.519V127.506Z" fill="#231815"/>
<path d="M146.268 113.278C145.949 113.517 145.616 113.756 145.284 113.996C145.018 114.182 144.739 114.355 144.473 114.541C144.393 114.594 144.313 114.634 144.233 114.687C143.874 114.913 143.502 115.153 143.13 115.379C141.534 116.323 139.859 117.16 138.17 117.932C126.428 123.304 114.076 127.2 101.364 129.447C91.1381 131.255 80.0616 132.213 69.6633 130.351C68.3602 132.878 67.1502 135.471 66.0332 138.103C94.9543 140.55 128.529 136.574 150.297 116.815C148.994 115.591 147.651 114.408 146.268 113.291V113.278Z" fill="#231815"/>
<path d="M168.221 184.138C162.982 163.381 136.215 137.093 102.972 143.741C80.0879 148.316 68.5461 162.982 62.2699 178.62C60.6742 175.96 58.4935 174.205 55.4219 175.149C49.2387 177.064 51.9114 188.06 54.0789 192.023C54.4911 192.781 55.1692 193.752 56.0202 194.749C56.3394 195.307 56.6984 195.813 57.0973 196.291C56.9909 196.81 56.8978 197.302 56.7915 197.807C93.0393 206.49 134.5 201.623 168.221 184.125V184.138Z" fill="#ECE671"/>
<g opacity="0.5">
<path d="M60.4216 187.635C56.7915 188.539 53.1614 186.345 51.6455 183.167C51.8716 186.558 53.0284 190.121 54.0789 192.05C54.4911 192.807 55.1692 193.778 56.0202 194.775C56.3128 195.294 56.6585 195.759 57.0175 196.198C57.443 193.406 57.3234 189.709 60.4349 187.635H60.4216Z" fill="#F5B524"/>
</g>
<g opacity="0.5">
<path d="M168.222 184.138C165.27 172.41 155.443 158.927 141.455 150.616C148.981 165.907 138.955 184.204 125.578 190.294C111.323 196.943 95.6993 200.187 80.1816 201.504C110.1 203.897 141.574 197.967 168.222 184.138Z" fill="#F5B524"/>
</g>
<path d="M89.7286 170.601C89.7685 170.016 89.6489 169.418 89.4361 168.873C86.7501 161.918 77.3092 169.471 80.5005 174.763C81.2717 176.04 82.9338 176.612 84.3832 176.279C86.0852 175.894 87.3352 174.484 88.4521 173.141C88.8776 172.636 89.3031 172.117 89.5292 171.506C89.6356 171.213 89.702 170.907 89.7153 170.588L89.7286 170.601Z" fill="#3E3A39"/>
<path d="M131.481 163.261C131.149 162.676 130.723 162.144 130.205 161.706C128.941 160.615 127.266 160.057 125.604 159.977C123.716 159.884 121.216 160.496 120.591 162.53C119.673 165.495 123.157 168.341 125.484 169.511C126.681 170.109 128.104 170.375 129.367 169.95C130.949 169.418 132.053 167.809 132.159 166.134C132.226 165.136 131.96 164.139 131.468 163.275L131.481 163.261Z" fill="#3E3A39"/>
<path d="M112.44 170.455C111.962 169.258 110.765 168.979 109.595 169.032C108.478 169.086 107.361 169.179 106.257 169.365C103.877 169.75 101.55 170.455 99.3293 171.426C98.5714 171.758 98.2788 172.742 98.6246 173.474C98.7575 173.753 98.9836 173.939 99.2229 174.085C99.3293 174.285 99.4623 174.471 99.6617 174.63C100.566 175.322 101.47 176.013 102.374 176.691C102.84 177.05 103.305 177.436 103.784 177.795C103.85 177.848 103.917 177.902 103.983 177.941C104.316 178.194 104.648 178.447 105.007 178.659C106.111 179.351 107.347 179.311 108.385 178.54C109.209 177.941 109.728 176.997 110.273 176.173C110.858 175.282 111.523 174.404 112.028 173.46C112.52 172.543 112.826 171.479 112.427 170.455H112.44Z" fill="#ED7B6C"/>
<path d="M106.124 171.173C107.081 170.296 108.145 169.604 109.236 169.072C108.238 169.125 107.241 169.219 106.257 169.378C103.877 169.764 101.55 170.468 99.3293 171.439C98.5714 171.772 98.2788 172.756 98.6246 173.487C98.7575 173.766 98.9836 173.952 99.2229 174.099C99.3293 174.298 99.4623 174.484 99.6617 174.644C100.446 175.242 101.217 175.827 102.002 176.426C103.079 174.458 104.502 172.676 106.111 171.2L106.124 171.173Z" fill="#D85E55"/>
<path d="M78.4391 160.283C78.0402 159.831 77.4684 159.871 77.003 160.177C73.9713 162.211 71.3783 164.87 69.3971 167.929C68.6923 169.032 70.3678 170.189 71.0725 169.086C72.9607 166.147 75.434 163.66 78.3327 161.719C78.7848 161.413 78.7715 160.669 78.4391 160.283Z" fill="#F4F0D0"/>
<path d="M83.8377 156.865C83.8111 156.733 83.7446 156.626 83.6515 156.52L83.452 156.347C83.452 156.347 83.4254 156.334 83.4122 156.32C83.3723 156.241 83.3457 156.147 83.2792 156.081L83.0797 155.908C82.9335 155.802 82.7606 155.749 82.5744 155.735H82.2952C82.1223 155.788 81.9628 155.868 81.8298 155.975C81.75 156.028 81.6569 156.161 81.617 156.201C81.617 156.201 81.6038 156.227 81.5905 156.241C81.5373 156.32 81.4841 156.413 81.4575 156.506C81.4442 156.586 81.4043 156.733 81.4043 156.799C81.4043 156.799 81.4043 156.839 81.4043 156.852C81.4043 156.945 81.4043 157.065 81.4309 157.171C81.4575 157.264 81.4974 157.371 81.524 157.464C81.524 157.477 81.524 157.49 81.5373 157.504C81.5905 157.61 81.6569 157.703 81.7234 157.796L81.75 157.823C81.8165 157.889 81.8963 157.969 81.9761 158.022C81.9761 158.022 82.0027 158.036 82.016 158.049C82.0957 158.102 82.1888 158.142 82.2819 158.195C82.2819 158.195 82.3085 158.195 82.3218 158.208C82.4149 158.235 82.5212 158.262 82.6276 158.275C82.7207 158.275 82.9335 158.262 82.9468 158.262C82.9601 158.262 82.9733 158.262 82.9866 158.262C83.0531 158.235 83.1861 158.208 83.2792 158.155C83.359 158.102 83.4387 158.062 83.5185 157.996H83.5451C83.6515 157.889 83.7313 157.783 83.7845 157.663C83.851 157.544 83.8908 157.424 83.9041 157.278C83.9174 157.145 83.9041 157.012 83.851 156.879L83.8377 156.865Z" fill="#F4F0D0"/>
<path d="M152.477 214.362C151.892 209.881 150.696 205.48 148.276 201.783C148.209 201.677 148.129 201.57 148.01 201.53C147.903 201.49 147.784 201.53 147.677 201.557C131.122 206.69 114.049 209.788 96.7228 210.519C86.1517 210.971 75.0353 210.998 64.5572 209.256C62.5627 209.017 62.3233 209.974 61.951 211.636C61.5255 213.577 61.2463 215.545 61.1133 217.54C60.8473 221.476 61.1133 225.532 62.2701 229.321C62.8951 231.369 63.6796 233.377 64.5838 235.318C65.1822 236.608 65.98 239.307 67.1502 240.145C68.3203 240.983 71.6977 240.637 73.2003 240.73C75.4342 240.863 77.6814 240.969 79.9153 241.036C88.8776 241.302 97.8664 241.062 106.802 240.278C114.847 239.587 122.852 238.47 130.777 236.927C136.747 235.77 142.651 234.374 148.568 232.991C149.698 232.725 150.868 232.433 151.746 231.688C153.727 229.986 153.076 225.399 153.036 223.111C152.983 220.279 152.863 217.301 152.464 214.349L152.477 214.362Z" fill="#5CA256"/>
<path d="M153.036 223.125C152.983 220.292 152.863 217.314 152.464 214.362C151.879 209.881 150.682 205.48 148.262 201.783C148.196 201.677 148.116 201.57 147.996 201.53C147.89 201.49 147.77 201.53 147.664 201.557C147.052 201.743 146.454 201.916 145.842 202.102C148.369 211.011 150.549 219.88 144.18 227.513C117.945 234.068 90.4199 238.031 64.1582 234.308C64.3045 234.64 64.4374 234.986 64.597 235.331C65.1954 236.621 65.9932 239.321 67.1633 240.158C68.3867 241.036 71.7109 240.65 73.2135 240.743C75.4474 240.876 77.6946 240.983 79.9285 241.049C88.8908 241.315 97.8796 241.076 106.815 240.291C114.86 239.6 122.865 238.483 130.79 236.94C136.76 235.784 142.664 234.387 148.581 233.004C149.712 232.739 150.882 232.446 151.759 231.701C153.741 229.999 153.089 225.412 153.049 223.125H153.036Z" fill="#157645"/>
<path d="M63.0812 222.207C86.1916 206.809 117.958 224.84 136.88 204.589C123.729 207.913 110.312 209.961 96.7228 210.533C86.1517 210.985 75.0353 211.011 64.5572 209.269C62.5627 209.03 62.3233 209.987 61.951 211.649C61.5255 213.591 61.2463 215.559 61.1133 217.553C60.8473 221.489 61.1133 225.545 62.2701 229.335C61.8446 226.21 62.1106 223.165 63.068 222.207H63.0812Z" fill="#9AC596"/>
<path d="M83.5189 170.136C84.0477 170.136 84.4763 169.707 84.4763 169.179C84.4763 168.65 84.0477 168.221 83.5189 168.221C82.9902 168.221 82.5615 168.65 82.5615 169.179C82.5615 169.707 82.9902 170.136 83.5189 170.136Z" fill="white"/>
<path d="M123.41 163.487C123.938 163.487 124.367 163.059 124.367 162.53C124.367 162.001 123.938 161.573 123.41 161.573C122.881 161.573 122.452 162.001 122.452 162.53C122.452 163.059 122.881 163.487 123.41 163.487Z" fill="white"/>
</svg>
