<svg width="120" height="21" viewBox="0 0 120 21" fill="none" xmlns="http://www.w3.org/2000/svg">
<path d="M37.9084 9.27916C37.7705 8.4401 37.5409 7.61859 37.2235 6.82927C35.8538 3.42188 32.9113 0.857666 29.0891 0.857666C25.267 0.857666 22.3225 3.42188 20.9609 6.82723C20.6436 7.61655 20.4139 8.43806 20.2761 9.27712C20.1709 9.91488 20.1181 10.5601 20.1182 11.2064C20.1188 11.7484 20.1599 12.2895 20.2412 12.8254C20.9015 17.2515 24.3074 20.1424 29.0932 20.1424C33.8791 20.1424 37.2953 17.2515 37.9494 12.8254C38.0309 12.2902 38.0714 11.7497 38.0704 11.2084C38.0691 10.562 38.0149 9.91681 37.9084 9.27916ZM29.0912 15.163C28.2301 15.1901 27.3855 14.9229 26.698 14.4059C26.0105 13.8889 25.5214 13.1532 25.3121 12.3211C25.1754 11.8402 25.1064 11.3428 25.1071 10.843C25.1067 10.4065 25.1534 9.97116 25.2465 9.54457C25.3886 8.86126 25.6562 8.20997 26.0359 7.62344C26.7372 6.5557 27.7994 5.83707 29.085 5.83707C30.3707 5.83707 31.4349 6.5557 32.1362 7.62344C32.5159 8.20997 32.7835 8.86126 32.9256 9.54457C33.0187 9.97116 33.0654 10.4065 33.0651 10.843C33.0657 11.3428 32.9967 11.8402 32.86 12.3211C32.3741 14.0626 30.9715 15.163 29.0891 15.163H29.0912Z" fill="white"/>
<path d="M79.8332 9.27917C79.6944 8.44032 79.4648 7.61891 79.1484 6.82928C77.7786 3.42189 74.8361 0.857666 71.014 0.857666C67.1918 0.857666 64.2473 3.42189 62.8857 6.82724C62.5684 7.61655 62.3387 8.43807 62.2009 9.27713C62.0957 9.91489 62.0429 10.5601 62.043 11.2064C62.0423 11.7476 62.0821 12.288 62.1619 12.8233C62.8222 17.2495 66.2281 20.1404 71.014 20.1404C75.7999 20.1404 79.216 17.2495 79.8701 12.8233C79.9517 12.2882 79.9922 11.7477 79.9911 11.2064C79.9911 10.5608 79.9383 9.91626 79.8332 9.27917ZM71.016 15.163C70.1549 15.1901 69.3104 14.9229 68.6229 14.4059C67.9354 13.8889 67.4463 13.1532 67.2369 12.3211C67.1002 11.8402 67.0312 11.3428 67.0319 10.843C67.0315 10.4065 67.0783 9.97117 67.1713 9.54457C67.3134 8.86127 67.5811 8.20998 67.9608 7.62345C68.662 6.55571 69.7242 5.83707 71.0099 5.83707C72.2956 5.83707 73.3598 6.55571 74.061 7.62345C74.4407 8.20998 74.7084 8.86127 74.8505 9.54457C74.9435 9.97117 74.9903 10.4065 74.9899 10.843C74.9906 11.3428 74.9216 11.8402 74.7849 12.3211C74.2969 14.0626 72.8963 15.163 71.014 15.163H71.016Z" fill="white"/>
<path d="M120.193 9.27917C120.056 8.44011 119.826 7.61859 119.509 6.82928C118.139 3.42189 115.196 0.857666 111.376 0.857666C107.556 0.857666 104.61 3.42189 103.246 6.82724C102.929 7.61655 102.699 8.43807 102.561 9.27713C102.456 9.91489 102.403 10.5601 102.403 11.2064C102.402 11.7477 102.443 12.2882 102.524 12.8233C103.183 17.2495 106.588 20.1404 111.376 20.1404C116.164 20.1404 119.578 17.2495 120.23 12.8233C120.312 12.2882 120.352 11.7477 120.351 11.2064C120.351 10.5608 120.298 9.91626 120.193 9.27917ZM111.376 15.163C109.496 15.163 108.096 14.0626 107.597 12.3211C107.461 11.8402 107.392 11.3428 107.392 10.843C107.392 10.4066 107.438 9.9714 107.53 9.54457C107.671 8.86087 107.94 8.20941 108.321 7.62345C109.02 6.55571 110.082 5.83707 111.37 5.83707C112.658 5.83707 113.72 6.55571 114.419 7.62345C114.8 8.20954 115.067 8.86099 115.209 9.54457C115.302 9.97117 115.348 10.4065 115.348 10.843C115.349 11.3428 115.28 11.8402 115.143 12.3211C114.659 14.0626 113.259 15.163 111.376 15.163Z" fill="white"/>
<path d="M98.4537 8.96476C98.3902 8.91984 98.3245 8.87901 98.2487 8.83818C98.654 8.38495 98.958 7.85122 99.1406 7.27229C99.3089 6.75748 99.3933 6.21919 99.3908 5.67782C99.3919 5.35534 99.3631 5.03344 99.3047 4.71624C99.1995 4.09075 98.96 3.4952 98.6026 2.97024C98.2452 2.44527 97.7783 2.00324 97.2337 1.6743C96.2106 1.1752 95.0917 0.900883 93.9529 0.869915C93.8688 0.869915 93.7847 0.869915 93.7006 0.869915V0.857666H88.2729C87.2451 0.857666 86.2594 1.26419 85.5326 1.98782C84.8058 2.71144 84.3975 3.69288 84.3975 4.71624H93.8073C93.8867 4.71683 93.9661 4.7216 94.0451 4.73053C94.3099 4.74837 94.562 4.84985 94.7649 5.02023C94.9677 5.1906 95.1107 5.42097 95.1729 5.67782C95.1963 5.78168 95.208 5.88782 95.2078 5.99427C95.2078 6.75373 94.6439 7.27229 93.8073 7.27229H93.512C92.6533 7.27229 91.8297 7.61192 91.2226 8.21648C90.6154 8.82103 90.2742 9.64097 90.2742 10.4959H93.6945V10.4857H93.797H93.9241C95.6322 10.4857 96.7949 11.5433 96.7949 13.1051C96.813 13.6377 96.6577 14.1618 96.352 14.5993C96.0464 15.0368 95.6069 15.3641 95.0991 15.5325C94.7232 15.6614 94.3279 15.7256 93.9303 15.7224C93.9016 15.7244 93.8728 15.7244 93.8442 15.7224C93.797 15.7224 93.7499 15.7224 93.7006 15.7224C92.1443 15.7224 91.035 15.2957 90.2804 14.5423C89.3823 13.642 89.0029 12.2741 89.0029 10.6184C89.0029 10.5756 89.0029 10.5327 89.0029 10.4898V5.83298H84.4221V10.5C84.4077 10.7348 84.3975 10.9696 84.3975 11.2064C84.3975 15.4549 86.2901 18.6153 90.266 19.7136C91.3813 20.0105 92.5319 20.1547 93.6863 20.1424V20.126C93.7704 20.126 93.8544 20.1362 93.9385 20.1362C95.4646 20.1284 96.9663 19.7544 98.3163 19.046C99.9957 17.9803 100.992 16.1878 100.992 13.9646C101 11.7985 100.055 10.0447 98.4537 8.96476Z" fill="white"/>
<path d="M18.2997 11.2064C18.3038 11.7466 18.2675 12.2864 18.191 12.8213C18.0167 14.091 17.566 15.3075 16.8705 16.3859C15.4946 18.4846 13.2247 19.83 10.3765 20.0954C10.0341 20.126 9.68551 20.1424 9.32668 20.1424C4.54078 20.1424 1.13078 17.2474 0.472562 12.8213C0.390999 12.2868 0.350554 11.747 0.351582 11.2064C0.350882 10.4525 0.424368 9.70032 0.570986 8.96068C0.784958 7.82716 1.17076 6.73262 1.71517 5.71457C3.2346 2.88087 5.93513 0.857666 9.32668 0.857666H11.978C13.2728 0.857666 14.5147 1.3698 15.4303 2.28142C16.3459 3.19303 16.8603 4.42944 16.8603 5.71866H9.32668C7.43405 5.71866 6.00074 7.13347 5.41225 8.96476C5.21433 9.57759 5.11468 10.2177 5.11697 10.8614C5.10868 11.5361 5.23483 12.2057 5.48812 12.8315C6.11557 14.3545 7.50787 15.2916 9.32668 15.2916C9.67984 15.293 10.032 15.2547 10.3765 15.1773C11.0006 15.0448 11.5818 14.7603 12.0682 14.3491C12.5546 13.9379 12.9308 13.4129 13.1632 12.8213C12.7971 12.8213 12.4345 12.7495 12.0963 12.6099C11.7581 12.4703 11.4508 12.2658 11.192 12.0079C10.9332 11.7501 10.728 11.444 10.5881 11.1071C10.4481 10.7703 10.3763 10.4093 10.3765 10.0448V8.96272H18.0844C18.2285 9.70197 18.3006 10.4534 18.2997 11.2064Z" fill="white"/>
<path d="M60.2263 11.2064C60.227 11.7469 60.1873 12.2867 60.1074 12.8213C59.9343 14.0907 59.4851 15.3072 58.791 16.3859C57.4253 18.4846 55.1554 19.83 52.3072 20.0954C51.9648 20.1261 51.6162 20.1424 51.2574 20.1424C46.4715 20.1424 43.0553 17.2474 42.4032 12.8213C42.3217 12.2869 42.2812 11.747 42.2822 11.2064C42.2815 10.4525 42.355 9.70033 42.5016 8.96068C42.7156 7.82717 43.1014 6.73263 43.6458 5.71458C45.1591 2.88087 47.8597 0.85767 51.2512 0.85767H53.9025C54.5442 0.856865 55.1797 0.982004 55.7728 1.22593C56.3659 1.46986 56.9048 1.82779 57.3588 2.27925C57.8128 2.73072 58.173 3.26686 58.4187 3.85702C58.6645 4.44719 58.791 5.07979 58.791 5.71866H51.2512C49.3586 5.71866 47.9253 7.13347 47.3368 8.96476C47.1389 9.57759 47.0392 10.2177 47.0415 10.8614C47.0332 11.5361 47.1594 12.2057 47.4126 12.8315C48.0401 14.3545 49.4324 15.2916 51.2512 15.2916C51.6044 15.293 51.9566 15.2547 52.3011 15.1773C52.9251 15.0449 53.5064 14.7603 53.9928 14.3491C54.4791 13.9379 54.8554 13.4129 55.0877 12.8213C54.7216 12.8213 54.3591 12.7495 54.0209 12.6099C53.6826 12.4703 53.3753 12.2658 53.1165 12.0079C52.8578 11.7501 52.6525 11.444 52.5126 11.1071C52.3727 10.7703 52.3008 10.4093 52.3011 10.0448V8.96272H60.009C60.1538 9.70191 60.2266 10.4533 60.2263 11.2064Z" fill="white"/>
</svg>
