<svg width="182" height="23" viewBox="0 0 182 23" fill="none" xmlns="http://www.w3.org/2000/svg">
<g clip-path="url(#clip0_873_638)">
<path d="M36.0037 10.3406C35.8727 9.54371 35.6546 8.76347 35.3532 8.01382C34.0523 4.77765 31.2577 2.34229 27.6276 2.34229C23.9975 2.34229 21.201 4.77765 19.9078 8.01188C19.6064 8.76153 19.3883 9.54177 19.2574 10.3387C19.1575 10.9444 19.1074 11.5572 19.1074 12.171C19.108 12.6857 19.147 13.1997 19.2243 13.7086C19.8514 17.9123 23.0861 20.6579 27.6315 20.6579C32.1769 20.6579 35.4214 17.9123 36.0426 13.7086C36.1201 13.2004 36.1585 12.687 36.1575 12.1729C36.1563 11.559 36.1049 10.9462 36.0037 10.3406ZM27.6296 15.9288C26.8117 15.9545 26.0096 15.7008 25.3567 15.2097C24.7037 14.7187 24.2392 14.02 24.0404 13.2297C23.9105 12.773 23.845 12.3005 23.8456 11.8259C23.8453 11.4113 23.8897 10.9978 23.978 10.5927C24.113 9.9437 24.3672 9.32514 24.7278 8.76808C25.3939 7.75399 26.4027 7.07147 27.6237 7.07147C28.8448 7.07147 29.8555 7.75399 30.5216 8.76808C30.8822 9.32514 31.1364 9.9437 31.2713 10.5927C31.3597 10.9978 31.4041 11.4113 31.4038 11.8259C31.4044 12.3005 31.3388 12.773 31.209 13.2297C30.7475 14.8836 29.4154 15.9288 27.6276 15.9288H27.6296Z" fill="white"/>
<path d="M75.8221 10.3406C75.6902 9.54392 75.4721 8.76378 75.1716 8.01382C73.8707 4.77765 71.0761 2.34229 67.446 2.34229C63.8159 2.34229 61.0193 4.77765 59.7262 8.01189C59.4248 8.76154 59.2067 9.54178 59.0757 10.3387C58.9759 10.9444 58.9257 11.5572 58.9258 12.171C58.9252 12.685 58.9629 13.1983 59.0387 13.7067C59.6658 17.9104 62.9006 20.656 67.446 20.656C71.9914 20.656 75.2359 17.9104 75.8571 13.7067C75.9346 13.1985 75.973 12.6851 75.972 12.171C75.972 11.5578 75.9218 10.9457 75.8221 10.3406ZM67.4479 15.9288C66.6301 15.9545 65.828 15.7008 65.175 15.2098C64.5221 14.7187 64.0576 14.02 63.8587 13.2297C63.7289 12.773 63.6634 12.3005 63.664 11.8259C63.6637 11.4113 63.7081 10.9978 63.7964 10.5927C63.9314 9.94371 64.1856 9.32514 64.5462 8.76809C65.2122 7.754 66.221 7.07148 67.4421 7.07148C68.6632 7.07148 69.6739 7.754 70.3399 8.76809C70.7005 9.32514 70.9547 9.94371 71.0897 10.5927C71.1781 10.9978 71.2225 11.4113 71.2221 11.8259C71.2228 12.3005 71.1572 12.773 71.0274 13.2297C70.5639 14.8837 69.2338 15.9288 67.446 15.9288H67.4479Z" fill="white"/>
<path d="M114.154 10.3406C114.023 9.54372 113.805 8.76348 113.504 8.01382C112.203 4.77765 109.408 2.34229 105.78 2.34229C102.152 2.34229 99.3533 4.77765 98.0582 8.01189C97.7568 8.76154 97.5387 9.54178 97.4078 10.3387C97.3079 10.9444 97.2578 11.5572 97.2578 12.171C97.2569 12.6851 97.2953 13.1985 97.3727 13.7067C97.9979 17.9104 101.233 20.656 105.78 20.656C110.327 20.656 113.57 17.9104 114.189 13.7067C114.267 13.1985 114.305 12.6851 114.304 12.171C114.304 11.5578 114.254 10.9457 114.154 10.3406ZM105.78 15.9288C103.994 15.9288 102.664 14.8837 102.191 13.2297C102.061 12.773 101.995 12.3005 101.996 11.8259C101.996 11.4114 102.04 10.9981 102.126 10.5927C102.261 9.94333 102.516 9.32461 102.878 8.76809C103.542 7.754 104.551 7.07148 105.774 7.07148C106.997 7.07148 108.006 7.754 108.67 8.76809C109.031 9.32473 109.286 9.94345 109.42 10.5927C109.508 10.9978 109.552 11.4113 109.552 11.8259C109.553 12.3005 109.487 12.773 109.357 13.2297C108.898 14.8837 107.568 15.9288 105.78 15.9288Z" fill="#FFBB18"/>
<path d="M93.5072 10.042C93.4468 9.99934 93.3845 9.96056 93.3124 9.92178C93.6973 9.49132 93.9861 8.98442 94.1596 8.43458C94.3194 7.94564 94.3996 7.4344 94.3972 6.92023C94.3982 6.61395 94.3708 6.30823 94.3154 6.00697C94.2155 5.4129 93.988 4.84729 93.6486 4.3487C93.3091 3.85012 92.8657 3.4303 92.3484 3.11788C91.3768 2.64387 90.3141 2.38333 89.2325 2.35392C89.1526 2.35392 89.0728 2.35392 88.9929 2.35392V2.34229H83.838C82.8618 2.34229 81.9256 2.72838 81.2353 3.41565C80.545 4.10291 80.1572 5.03503 80.1572 6.00697H89.0942C89.1697 6.00753 89.2451 6.01206 89.3201 6.02054C89.5716 6.03748 89.811 6.13387 90.0037 6.29568C90.1963 6.45749 90.3321 6.67629 90.3912 6.92023C90.4135 7.01887 90.4246 7.11968 90.4243 7.22077C90.4243 7.94208 89.8888 8.43458 89.0942 8.43458H88.8138C87.9982 8.43458 87.216 8.75714 86.6394 9.33132C86.0627 9.90549 85.7387 10.6842 85.7387 11.4962H88.9871V11.4865H89.0845H89.2052C90.8274 11.4865 91.9317 12.4909 91.9317 13.9743C91.9489 14.4801 91.8014 14.9779 91.5111 15.3934C91.2208 15.8089 90.8034 16.1198 90.3211 16.2797C89.9641 16.4022 89.5887 16.4631 89.211 16.46C89.1838 16.4619 89.1565 16.4619 89.1292 16.46C89.0845 16.46 89.0397 16.46 88.9929 16.46C87.5148 16.46 86.4612 16.0548 85.7445 15.3393C84.8915 14.4842 84.5313 13.1851 84.5313 11.6126C84.5313 11.5719 84.5313 11.5311 84.5313 11.4904V7.06759H80.1806V11.5001C80.167 11.7231 80.1572 11.9461 80.1572 12.171C80.1572 16.206 81.9547 19.2076 85.7309 20.2508C86.7901 20.5327 87.8829 20.6697 88.9793 20.6579V20.6424C89.0591 20.6424 89.139 20.6521 89.2188 20.6521C90.6682 20.6446 92.0944 20.2895 93.3767 19.6167C94.9717 18.6046 95.9181 16.9021 95.9181 14.7906C95.9259 12.7333 95.0281 11.0677 93.5072 10.042Z" fill="#FFBB18"/>
<path d="M17.3802 12.171C17.3841 12.6841 17.3496 13.1968 17.277 13.7047C17.1114 14.9107 16.6834 16.0661 16.0229 17.0902C14.7161 19.0835 12.5602 20.3613 9.8552 20.6133C9.52997 20.6424 9.1989 20.6579 8.8581 20.6579C4.31269 20.6579 1.07404 17.9085 0.448903 13.7047C0.371439 13.1972 0.333027 12.6844 0.334002 12.171C0.333338 11.455 0.403131 10.7406 0.542382 10.0381C0.745602 8.96157 1.11202 7.92203 1.62907 6.95513C3.07215 4.26382 5.63697 2.34229 8.8581 2.34229H11.3762C12.606 2.34229 13.7854 2.82869 14.655 3.69449C15.5246 4.5603 16.0131 5.73458 16.0131 6.95901H8.8581C7.06058 6.95901 5.69929 8.30273 5.14037 10.042C4.95239 10.624 4.85775 11.2319 4.85993 11.8433C4.85205 12.4841 4.97186 13.1201 5.21242 13.7144C5.80835 15.1609 7.13069 16.0509 8.8581 16.0509C9.19351 16.0523 9.52801 16.0159 9.8552 15.9423C10.4479 15.8166 10.9999 15.5463 11.4619 15.1558C11.9238 14.7652 12.2811 14.2667 12.5018 13.7047C12.1541 13.7047 11.8098 13.6365 11.4886 13.504C11.1673 13.3714 10.8755 13.1772 10.6297 12.9323C10.3839 12.6874 10.189 12.3966 10.0561 12.0767C9.92321 11.7568 9.85495 11.4139 9.8552 11.0677V10.0401H17.1758C17.3126 10.7422 17.3811 11.4558 17.3802 12.171Z" fill="white"/>
<path d="M57.2006 12.171C57.2013 12.6843 57.1635 13.197 57.0877 13.7047C56.9233 14.9104 56.4966 16.0657 55.8374 17.0902C54.5404 19.0835 52.3845 20.3613 49.6795 20.6134C49.3542 20.6424 49.0232 20.6579 48.6823 20.6579C44.1369 20.6579 40.8924 17.9085 40.2731 13.7047C40.1957 13.1972 40.1572 12.6844 40.1582 12.171C40.1576 11.455 40.2273 10.7406 40.3666 10.0381C40.5698 8.96157 40.9362 7.92203 41.4533 6.95514C42.8905 4.26382 45.4554 2.34229 48.6765 2.34229H51.1946C51.804 2.34152 52.4076 2.46038 52.9709 2.69205C53.5341 2.92372 54.046 3.26366 54.4772 3.69244C54.9084 4.12122 55.2505 4.63042 55.4839 5.19093C55.7173 5.75143 55.8374 6.35225 55.8374 6.95901H48.6765C46.879 6.95901 45.5177 8.30273 44.9588 10.042C44.7708 10.624 44.6761 11.2319 44.6783 11.8433C44.6704 12.4841 44.7903 13.1201 45.0308 13.7144C45.6267 15.1609 46.9491 16.0509 48.6765 16.0509C49.0119 16.0523 49.3464 16.0159 49.6736 15.9423C50.2663 15.8166 50.8184 15.5463 51.2803 15.1558C51.7422 14.7652 52.0995 14.2667 52.3202 13.7047C51.9725 13.7047 51.6282 13.6365 51.307 13.504C50.9857 13.3714 50.6939 13.1772 50.4481 12.9323C50.2023 12.6874 50.0074 12.3967 49.8745 12.0767C49.7416 11.7568 49.6734 11.4139 49.6736 11.0677V10.0401H56.9942C57.1317 10.7421 57.2008 11.4557 57.2006 12.171Z" fill="white"/>
</g>
<path d="M124.005 16.2168L127.208 11.5391L124.513 7.37891C124.259 6.97526 124.067 6.63021 123.937 6.34375C123.813 6.05078 123.751 5.77083 123.751 5.50391C123.751 5.23047 123.871 4.98633 124.112 4.77148C124.36 4.55013 124.659 4.43945 125.011 4.43945C125.414 4.43945 125.727 4.5599 125.948 4.80078C126.176 5.03516 126.489 5.47461 126.886 6.11914L129.034 9.5957L131.329 6.11914C131.518 5.82617 131.677 5.57552 131.808 5.36719C131.944 5.15885 132.075 4.98633 132.198 4.84961C132.322 4.71289 132.459 4.61198 132.608 4.54688C132.765 4.47526 132.944 4.43945 133.146 4.43945C133.51 4.43945 133.806 4.55013 134.034 4.77148C134.269 4.98633 134.386 5.24349 134.386 5.54297C134.386 5.97917 134.135 6.57161 133.634 7.32031L130.812 11.5391L133.849 16.2168C134.122 16.627 134.321 16.9688 134.444 17.2422C134.568 17.5091 134.63 17.763 134.63 18.0039C134.63 18.2318 134.575 18.4401 134.464 18.6289C134.353 18.8177 134.197 18.9674 133.995 19.0781C133.793 19.1888 133.565 19.2441 133.312 19.2441C133.038 19.2441 132.807 19.1855 132.618 19.0684C132.429 18.9577 132.276 18.8177 132.159 18.6484C132.042 18.4792 131.824 18.1504 131.505 17.6621L128.985 13.6973L126.31 17.7793C126.101 18.1048 125.951 18.3327 125.86 18.4629C125.776 18.5931 125.672 18.7201 125.548 18.8438C125.424 18.9674 125.278 19.0651 125.108 19.1367C124.939 19.2083 124.741 19.2441 124.513 19.2441C124.161 19.2441 123.868 19.1367 123.634 18.9219C123.406 18.707 123.292 18.3945 123.292 17.9844C123.292 17.5026 123.53 16.9134 124.005 16.2168ZM152.969 4.52734C152.878 4.37109 152.832 4.20833 152.832 4.03906C152.832 3.92188 152.852 3.80469 152.891 3.6875C152.982 3.40104 153.171 3.19922 153.457 3.08203L153.711 2.98438C153.867 2.91927 154.03 2.88672 154.199 2.88672C154.343 2.88672 154.486 2.91276 154.629 2.96484C154.929 3.06901 155.163 3.26432 155.332 3.55078C156.348 5.26953 157.643 6.9362 159.219 8.55078C159.427 8.77214 159.531 9.02604 159.531 9.3125C159.531 9.63802 159.414 9.91146 159.18 10.1328C159.037 10.276 158.9 10.4193 158.77 10.5625C158.561 10.7839 158.307 10.8945 158.008 10.8945C158.008 10.8945 158.001 10.8945 157.988 10.8945C157.702 10.8945 157.461 10.7904 157.266 10.582C155.651 8.69401 154.219 6.67578 152.969 4.52734ZM146.348 3.57031C146.478 3.27083 146.686 3.04948 146.973 2.90625C147.155 2.8151 147.344 2.76953 147.539 2.76953C147.656 2.76953 147.774 2.78255 147.891 2.80859L148.399 2.96484C148.685 3.04297 148.9 3.22526 149.043 3.51172C149.108 3.64193 149.141 3.77865 149.141 3.92188C149.141 4.0651 149.108 4.20182 149.043 4.33203C147.91 6.75391 146.524 8.84375 144.883 10.6016C144.675 10.8359 144.408 10.9531 144.082 10.9531C144.069 10.9531 144.063 10.9531 144.063 10.9531C143.737 10.9531 143.457 10.8555 143.223 10.6602C143.067 10.5299 142.91 10.4062 142.754 10.2891C142.507 10.1068 142.383 9.85938 142.383 9.54688C142.383 9.28646 142.481 9.0651 142.676 8.88281C144.16 7.45052 145.384 5.67969 146.348 3.57031ZM153.418 14.6445C153.301 14.4753 153.242 14.293 153.242 14.0977C153.242 14.0195 153.249 13.9414 153.262 13.8633C153.34 13.5638 153.516 13.3555 153.789 13.2383L154.024 13.1211C154.219 13.0299 154.421 12.9844 154.629 12.9844C154.733 12.9844 154.844 12.9974 154.961 13.0234C155.3 13.1016 155.567 13.2773 155.762 13.5508C157.064 15.2565 158.177 16.9167 159.102 18.5312C159.206 18.7005 159.258 18.8763 159.258 19.0586C159.258 19.1758 159.238 19.2865 159.199 19.3906C159.108 19.7031 158.919 19.931 158.633 20.0742L158.203 20.3086C158.034 20.3867 157.865 20.4258 157.696 20.4258C157.578 20.4258 157.461 20.4062 157.344 20.3672C157.044 20.263 156.823 20.0742 156.68 19.8008C156.602 19.6576 156.517 19.5143 156.426 19.3711C156.387 19.2799 156.315 19.2409 156.211 19.2539C151.511 19.5664 147.487 19.8008 144.141 19.957C144.128 19.9701 144.108 19.9766 144.082 19.9766C143.783 19.9766 143.516 19.8789 143.281 19.6836C143.034 19.4622 142.891 19.1953 142.852 18.8828L142.832 18.668C142.819 18.6159 142.813 18.5638 142.813 18.5117C142.813 18.2643 142.897 18.043 143.067 17.8477C143.262 17.6133 143.516 17.4896 143.828 17.4766L145.313 17.418C145.417 17.418 145.488 17.3724 145.528 17.2812C146.712 15.0547 147.709 12.7695 148.516 10.4258C148.633 10.1263 148.828 9.89193 149.102 9.72266C149.297 9.61849 149.499 9.56641 149.707 9.56641C149.811 9.56641 149.909 9.57943 150 9.60547L150.625 9.74219C150.912 9.80729 151.126 9.97656 151.27 10.25C151.335 10.3932 151.367 10.5365 151.367 10.6797C151.367 10.7969 151.341 10.9206 151.289 11.0508C150.3 13.2773 149.284 15.3151 148.242 17.1641C148.229 17.2031 148.229 17.2357 148.242 17.2617C148.268 17.2878 148.294 17.3008 148.321 17.3008C149.857 17.2227 152.031 17.112 154.844 16.9688C154.883 16.9688 154.909 16.9557 154.922 16.9297C154.935 16.8906 154.935 16.8581 154.922 16.832C154.453 16.1029 153.952 15.3737 153.418 14.6445ZM175.049 13.2773C175.049 13.3685 175.094 13.4141 175.185 13.4141H177.881C177.907 13.4141 177.926 13.401 177.939 13.375C177.952 13.349 177.946 13.3294 177.92 13.3164C177.334 12.5872 176.832 11.7474 176.416 10.7969C176.377 10.7057 176.312 10.6602 176.221 10.6602H173.135C173.03 10.6602 172.952 10.7057 172.9 10.7969C172.366 11.7604 171.767 12.6003 171.103 13.3164C171.077 13.3294 171.071 13.349 171.084 13.375C171.097 13.401 171.116 13.4141 171.142 13.4141H172.724C172.829 13.4141 172.887 13.3685 172.9 13.2773C172.913 13.0951 172.926 12.8932 172.939 12.6719C172.965 12.3724 173.089 12.1185 173.31 11.9102C173.532 11.7018 173.792 11.5977 174.092 11.5977C174.391 11.5977 174.638 11.7018 174.834 11.9102C175.016 12.1055 175.107 12.3333 175.107 12.5938C175.107 12.6719 175.088 12.8997 175.049 13.2773ZM175.322 7.51562C175.296 7.42448 175.231 7.37891 175.127 7.37891H174.443C174.352 7.37891 174.287 7.42448 174.248 7.51562C174.157 7.84115 174.04 8.20573 173.896 8.60938C173.883 8.63542 173.883 8.66797 173.896 8.70703C173.922 8.73307 173.955 8.74609 173.994 8.74609H175.498C175.537 8.74609 175.563 8.73307 175.576 8.70703C175.602 8.66797 175.609 8.63542 175.596 8.60938C175.53 8.34896 175.439 7.98438 175.322 7.51562ZM164.931 11.793C164.918 11.8971 164.964 11.9492 165.068 11.9492H166.318C166.409 11.9492 166.455 11.8971 166.455 11.793V9.60547C166.455 9.51432 166.409 9.46875 166.318 9.46875H165.088C164.984 9.46875 164.931 9.51432 164.931 9.60547V9.99609C164.931 10.7773 164.931 11.3763 164.931 11.793ZM166.455 5.05469C166.455 4.95052 166.409 4.89844 166.318 4.89844H165.088C164.984 4.89844 164.931 4.95052 164.931 5.05469V7.14453C164.931 7.2487 164.984 7.30078 165.088 7.30078H166.318C166.409 7.30078 166.455 7.2487 166.455 7.14453V5.05469ZM180.166 9.01953C180.361 9.20182 180.459 9.42969 180.459 9.70312C180.459 9.96354 180.361 10.1914 180.166 10.3867C179.984 10.569 179.762 10.6602 179.502 10.6602H178.877C178.851 10.6602 178.831 10.6732 178.818 10.6992C178.805 10.7253 178.805 10.7513 178.818 10.7773C179.209 11.3503 179.619 11.8385 180.049 12.2422C180.27 12.4375 180.394 12.6784 180.42 12.9648C180.433 13.0039 180.439 13.043 180.439 13.082C180.439 13.3294 180.355 13.5573 180.185 13.7656C180.055 13.9219 179.931 14.0781 179.814 14.2344C179.723 14.3776 179.593 14.4622 179.424 14.4883C179.254 14.5143 179.105 14.4753 178.974 14.3711C178.935 14.332 178.916 14.3451 178.916 14.4102C178.825 16.1549 178.714 17.4375 178.584 18.2578C178.454 19.0651 178.271 19.6185 178.037 19.918C177.724 20.2695 177.262 20.4909 176.65 20.582C176.377 20.6211 175.993 20.6406 175.498 20.6406C175.485 20.6406 175.478 20.6406 175.478 20.6406C175.205 20.6406 174.957 20.543 174.736 20.3477C174.515 20.1523 174.365 19.9115 174.287 19.625C174.261 19.5469 174.248 19.4753 174.248 19.4102C174.248 19.2669 174.293 19.1302 174.385 19C174.515 18.8307 174.684 18.7461 174.892 18.7461C174.905 18.7461 174.918 18.7461 174.931 18.7461C175.166 18.7591 175.368 18.7656 175.537 18.7656C175.81 18.7656 176.019 18.6875 176.162 18.5312C176.357 18.2839 176.52 17.2747 176.65 15.5039C176.65 15.4128 176.605 15.3672 176.513 15.3672H174.892C174.788 15.3672 174.723 15.4128 174.697 15.5039C174.437 16.5716 174.033 17.4961 173.486 18.2773C172.939 19.0456 172.184 19.7031 171.221 20.25C171.051 20.3411 170.875 20.3867 170.693 20.3867C170.576 20.3867 170.459 20.3672 170.342 20.3281C170.055 20.237 169.814 20.0547 169.619 19.7812C169.489 19.625 169.424 19.4492 169.424 19.2539C169.424 19.2018 169.437 19.1367 169.463 19.0586C169.515 18.7982 169.658 18.6029 169.892 18.4727C171.155 17.7956 172.008 16.806 172.451 15.5039C172.464 15.4648 172.457 15.4323 172.431 15.4062C172.418 15.3802 172.392 15.3672 172.353 15.3672H171.377C171.077 15.3672 170.817 15.263 170.596 15.0547C170.387 14.8333 170.283 14.5664 170.283 14.2539C170.283 14.2279 170.27 14.2083 170.244 14.1953C170.218 14.1823 170.198 14.1823 170.185 14.1953C170.029 14.3255 169.853 14.3906 169.658 14.3906C169.606 14.3906 169.554 14.3906 169.502 14.3906C169.241 14.3385 169.033 14.2083 168.877 14C168.812 13.9089 168.734 13.8047 168.642 13.6875C168.629 13.6745 168.61 13.6745 168.584 13.6875C168.571 13.6875 168.564 13.7005 168.564 13.7266V18.2383C168.564 18.7721 168.512 19.2018 168.408 19.5273C168.304 19.8529 168.115 20.1068 167.842 20.2891C167.516 20.4974 167.06 20.6211 166.474 20.6602C166.448 20.6732 166.416 20.6797 166.377 20.6797C166.103 20.6797 165.856 20.582 165.635 20.3867C165.374 20.1784 165.198 19.9115 165.107 19.5859C165.094 19.4948 165.088 19.4167 165.088 19.3516C165.088 19.1693 165.14 19.0065 165.244 18.8633C165.4 18.6419 165.609 18.5312 165.869 18.5312H166.201C166.305 18.5312 166.37 18.5117 166.396 18.4727C166.435 18.4206 166.455 18.3294 166.455 18.1992V14.2734C166.455 14.1693 166.409 14.1172 166.318 14.1172H164.971C164.866 14.1172 164.814 14.1693 164.814 14.2734C164.658 16.5 164.372 18.3099 163.955 19.7031C163.89 19.9505 163.727 20.1198 163.467 20.2109C163.375 20.237 163.284 20.25 163.193 20.25C163.037 20.25 162.887 20.2109 162.744 20.1328C162.484 19.9896 162.295 19.7812 162.178 19.5078C162.112 19.3516 162.08 19.1888 162.08 19.0195C162.08 18.9154 162.093 18.8047 162.119 18.6875C162.666 16.7604 162.939 13.8633 162.939 9.99609V3.92188C162.939 3.59635 163.05 3.32292 163.271 3.10156C163.506 2.88021 163.779 2.76953 164.092 2.76953H167.412C167.724 2.76953 167.991 2.88021 168.213 3.10156C168.447 3.32292 168.564 3.59635 168.564 3.92188V12.4766C168.564 12.5026 168.577 12.5221 168.603 12.5352C168.629 12.5482 168.655 12.5482 168.681 12.5352C169.293 12.0534 169.86 11.4674 170.381 10.7773C170.394 10.7513 170.394 10.7253 170.381 10.6992C170.368 10.6732 170.348 10.6602 170.322 10.6602H169.892C169.632 10.6602 169.404 10.569 169.209 10.3867C169.026 10.1914 168.935 9.96354 168.935 9.70312C168.935 9.42969 169.026 9.20182 169.209 9.01953C169.404 8.83724 169.632 8.74609 169.892 8.74609H171.416C171.507 8.74609 171.572 8.70052 171.611 8.60938C171.78 8.23177 171.93 7.86719 172.06 7.51562C172.06 7.48958 172.047 7.46354 172.021 7.4375C172.008 7.39844 171.989 7.37891 171.963 7.37891H170.283C170.01 7.37891 169.782 7.28776 169.599 7.10547C169.417 6.91016 169.326 6.68229 169.326 6.42188C169.326 6.16146 169.417 5.9401 169.599 5.75781C169.782 5.5625 170.01 5.46484 170.283 5.46484H170.322C170.413 5.46484 170.446 5.41927 170.42 5.32812C170.29 4.80729 170.114 4.29297 169.892 3.78516C169.84 3.66797 169.814 3.55078 169.814 3.43359C169.814 3.31641 169.84 3.20573 169.892 3.10156C169.984 2.86719 170.14 2.71094 170.361 2.63281C170.491 2.59375 170.615 2.57422 170.732 2.57422C170.875 2.57422 171.012 2.60026 171.142 2.65234C171.403 2.75651 171.592 2.92578 171.709 3.16016C171.813 3.38151 171.911 3.60286 172.002 3.82422C172.054 3.96745 172.08 4.10417 172.08 4.23438C172.08 4.39062 172.047 4.54688 171.982 4.70312C171.839 5.0026 171.611 5.20443 171.299 5.30859L171.025 5.40625C171.012 5.41927 171.006 5.43229 171.006 5.44531C171.006 5.45833 171.012 5.46484 171.025 5.46484H172.49C172.594 5.46484 172.653 5.41276 172.666 5.30859C172.809 4.68359 172.933 3.96094 173.037 3.14062C173.089 2.84115 173.232 2.59375 173.467 2.39844C173.662 2.24219 173.89 2.16406 174.15 2.16406C174.189 2.16406 174.228 2.16406 174.267 2.16406C174.554 2.1901 174.795 2.32031 174.99 2.55469C175.133 2.73698 175.205 2.9388 175.205 3.16016C175.205 3.22526 175.198 3.28385 175.185 3.33594C175.081 4.02604 174.964 4.68359 174.834 5.30859C174.808 5.41276 174.847 5.46484 174.951 5.46484H177.197C177.21 5.46484 177.217 5.45833 177.217 5.44531C177.217 5.43229 177.21 5.41927 177.197 5.40625C176.911 5.3151 176.709 5.13281 176.592 4.85938C176.54 4.72917 176.513 4.59896 176.513 4.46875C176.513 4.3125 176.546 4.16276 176.611 4.01953C176.728 3.77214 176.839 3.52474 176.943 3.27734C177.073 2.99089 177.282 2.77604 177.568 2.63281C177.75 2.54167 177.933 2.49609 178.115 2.49609C178.232 2.49609 178.349 2.50911 178.467 2.53516C178.74 2.6263 178.935 2.80208 179.053 3.0625C179.092 3.17969 179.111 3.29688 179.111 3.41406C179.111 3.55729 179.072 3.70052 178.994 3.84375C178.681 4.39062 178.382 4.88542 178.096 5.32812C178.082 5.35417 178.082 5.38672 178.096 5.42578C178.109 5.45182 178.135 5.46484 178.174 5.46484H179.189C179.45 5.46484 179.671 5.5625 179.853 5.75781C180.049 5.9401 180.146 6.16146 180.146 6.42188C180.146 6.68229 180.049 6.91016 179.853 7.10547C179.671 7.28776 179.45 7.37891 179.189 7.37891H177.431C177.392 7.37891 177.36 7.39844 177.334 7.4375C177.321 7.46354 177.314 7.48958 177.314 7.51562C177.444 7.90625 177.575 8.27083 177.705 8.60938C177.744 8.70052 177.809 8.74609 177.9 8.74609H179.502C179.762 8.74609 179.984 8.83724 180.166 9.01953Z" fill="white"/>
<defs>
<clipPath id="clip0_873_638">
<rect width="113.97" height="18.3157" fill="white" transform="translate(0 2.34229)"/>
</clipPath>
</defs>
</svg>
