<svg width="48" height="48" viewBox="0 0 48 48" fill="none" xmlns="http://www.w3.org/2000/svg">
<path d="M9.5 23.5H16L18.5 17.5L20.5 18L24 25L27.5 19.5L29 20L31.5 23.5H38.5L33.5 29L35 26.5H29L28 24.5L24 31L22 28.5L19.5 23.5L18 26.5H14.5H12L9.5 23.5Z" fill="#FFBB18"/>
<path fill-rule="evenodd" clip-rule="evenodd" d="M28.9129 20.6402L30.6423 24.1233H38.2366C40.9511 20.44 40.5386 15.0751 36.9509 11.9456C33.5532 8.98387 28.3566 9.51847 25.2314 12.769L24 14.0506L22.7687 12.769C19.6435 9.51847 14.4494 8.98387 11.0498 11.9456C7.45959 15.0751 7.05144 20.44 9.76037 24.1217H16.3233L18.5691 18.6843C18.7271 18.3115 19.0517 18.1067 19.3922 18.0719C19.4618 18.0648 19.532 18.0648 19.6016 18.0719C19.9334 18.1058 20.2511 18.3014 20.4154 18.6606L24.0538 26.8184L27.1209 20.6402C27.2972 20.2851 27.6317 20.1002 27.9727 20.0856C27.9933 20.0847 28.0138 20.0844 28.0343 20.0848C28.3844 20.0908 28.7318 20.2759 28.9129 20.6402ZM19.5435 21.6189L17.6653 26.1422L11.5336 26.1391L22.5593 37.6255C23.3506 38.4495 24.6445 38.4495 25.4364 37.6255L36.4621 26.1391L29.4554 26.1394L28.0253 23.3526L24.9107 29.6254C24.7342 29.9809 24.4005 30.164 24.0605 30.1782C24.0095 30.1803 23.9584 30.1786 23.9076 30.1732C23.5766 30.1375 23.2614 29.9407 23.1031 29.586L19.5435 21.6189ZM19.5939 25.4089L18.6664 27.6428L15.0544 27.6409L23.6412 36.5865C23.842 36.7953 24.153 36.7961 24.3549 36.5861L32.9429 27.6393L28.5392 27.6395L28.0474 26.6811L26.2543 30.2924C25.3119 32.1903 22.5928 32.1221 21.7336 30.1979L19.5939 25.4089ZM24.1264 23.2987L25.7773 19.9732C26.6968 18.1213 29.3366 18.1225 30.2561 19.9726L31.5723 22.6233H37.4341C39.2438 19.5831 38.7476 15.5033 35.9649 13.076C33.2439 10.7046 28.954 11.0617 26.3131 13.8082L24 16.2157L21.6874 13.8086C19.0466 11.0623 14.7585 10.7043 12.0354 13.0764M24.1264 23.2987L21.7825 18.0432L21.7795 18.0367C20.8715 16.0515 18.0434 16.0814 17.1881 18.0988L15.3199 22.6217H10.5637C8.75777 19.5821 9.25208 15.5027 12.0354 13.0764" fill="white"/>
</svg>
