<svg width="48" height="48" viewBox="0 0 48 48" fill="none" xmlns="http://www.w3.org/2000/svg">
<path d="M35.9596 14.564C37.6183 14.9012 40.5779 15.8755 41.0459 19.5701C40.1716 18.838 39.1562 18.3315 38.076 18.0888C36.9959 17.846 35.8792 17.8734 34.8102 18.1687" stroke="white" stroke-width="1.6" stroke-linecap="round" stroke-linejoin="round"/>
<path d="M32.0777 15.8755C33.6952 12.7579 36.2074 10.5097 38.5544 9.78277C36.875 8.19402 33.1721 9.13079 30.887 11.6263" stroke="white" stroke-width="1.6" stroke-linecap="round" stroke-linejoin="round"/>
<path d="M29.772 19.7125C28.6655 22.5102 28.1188 25.5324 28.1683 28.578C26.5027 26.8843 25.4772 24.9059 25.6906 22.5228" stroke="white" stroke-width="1.6" stroke-linecap="round" stroke-linejoin="round"/>
<path d="M38.9398 39.9016C39.9722 28.6604 36.7442 21.541 30.0336 17.067" stroke="white" stroke-width="1.6" stroke-linecap="round" stroke-linejoin="round"/>
<path d="M31.3688 21.7509C33.5024 24.6136 36.5308 28.6604 34.1219 39.9016" stroke="white" stroke-width="1.6" stroke-linecap="round" stroke-linejoin="round"/>
<path d="M27.2598 15.5457C23.4399 15.4183 19.8196 19.5551 20.7419 23.542C22.4763 21.3537 25.4841 18.9706 27.7623 18.6258" stroke="white" stroke-width="1.6" stroke-linecap="round" stroke-linejoin="round"/>
<path d="M29.772 14.9612C29.0838 9.76779 24.142 9.26568 21.3476 11.9111C23.4124 12.3832 25.0023 13.1551 25.429 14.002" stroke="white" stroke-width="1.6" stroke-linecap="round" stroke-linejoin="round"/>
<path d="M9 32.4075C10.1494 32.4075 11.2919 33.9063 12.4414 33.9063C13.5908 33.9063 14.7333 32.4075 15.8827 32.4075C17.0321 32.4075 18.1747 33.9063 19.3241 33.9063C20.4735 33.9063 21.616 32.4075 22.7654 32.4075C23.9148 32.4075 25.0574 33.9063 26.2068 33.9063C27.3562 33.9063 28.4987 32.4075 29.6481 32.4075C30.7975 32.4075 31.9401 33.9063 33.0895 33.9063" stroke="white" stroke-width="1.6" stroke-linecap="round" stroke-linejoin="round"/>
<path d="M9 36.904C10.1494 36.904 11.2919 38.4028 12.4414 38.4028C13.5908 38.4028 14.7333 36.904 15.8827 36.904C17.0321 36.904 18.1747 38.4028 19.3241 38.4028C20.4735 38.4028 21.616 36.904 22.7654 36.904C23.9148 36.904 25.0574 38.4028 26.2068 38.4028C27.3562 38.4028 28.4987 36.904 29.6481 36.904C30.7975 36.904 31.9401 38.4028 33.0895 38.4028" stroke="white" stroke-width="1.6" stroke-linecap="round" stroke-linejoin="round"/>
<path d="M13.8179 18.9181C15.7185 18.9181 17.2593 17.2405 17.2593 15.171C17.2593 13.1016 15.7185 11.424 13.8179 11.424C11.9173 11.424 10.3766 13.1016 10.3766 15.171C10.3766 17.2405 11.9173 18.9181 13.8179 18.9181Z" stroke="#FFBB18" stroke-width="1.6" stroke-linecap="round" stroke-linejoin="round"/>
</svg>
