<svg width="48" height="48" viewBox="0 0 48 48" fill="none" xmlns="http://www.w3.org/2000/svg">
<path d="M34.0002 32.8848H14.0002" stroke="white" stroke-width="1.6" stroke-linecap="round" stroke-linejoin="round"/>
<path d="M28.0002 25.8843H25.0003" stroke="#FFBB18" stroke-width="1.6" stroke-linecap="round" stroke-linejoin="round"/>
<path d="M5.00043 24.8846H2.00049" stroke="#FFBB18" stroke-width="1.6" stroke-linecap="round" stroke-linejoin="round"/>
<path d="M41.3286 35.713C42.8906 34.151 42.8906 31.6186 41.3286 30.0566C39.7667 28.4947 37.2342 28.4947 35.6723 30.0566C34.1103 31.6186 34.1103 34.151 35.6723 35.713C37.2342 37.2749 39.7667 37.2749 41.3286 35.713Z" stroke="#FFBB18" stroke-width="1.6" stroke-linecap="round" stroke-linejoin="round"/>
<path d="M12.8292 35.7124C14.3912 34.1505 14.3912 31.618 12.8292 30.0561C11.2673 28.4941 8.73484 28.4941 7.17289 30.0561C5.61094 31.618 5.61094 34.1505 7.17289 35.7124C8.73484 37.2744 11.2673 37.2744 12.8292 35.7124Z" stroke="#FFBB18" stroke-width="1.6" stroke-linecap="round" stroke-linejoin="round"/>
<path d="M22.9999 21.8847V15.8839" stroke="white" stroke-width="1.6" stroke-linecap="round" stroke-linejoin="round"/>
<path d="M38.0007 21.8847H14.0002L16.5479 16.6583" stroke="#FFBB18" stroke-width="1.6" stroke-linecap="round" stroke-linejoin="round"/>
<path d="M5.99996 32.8847H5.00027C3.93927 32.8847 2.92172 32.4633 2.17148 31.713C1.42124 30.9628 0.999756 29.9452 0.999756 28.8842V26.8849L2.00033 24.8846V22.8843C2.00033 22.354 2.21094 21.8453 2.58587 21.4703C2.96081 21.0952 3.46935 20.8843 3.9997 20.8841H5.99996L10.6068 16.8537C12.7945 14.9396 15.6025 13.8846 18.5093 13.8845H23.7893C26.514 13.8847 29.1575 14.812 31.2852 16.514L37.9988 21.882C46.8587 23.4986 46.9986 25.798 46.9986 25.798V30.8845C46.9986 31.415 46.7879 31.9238 46.4128 32.2989C46.0376 32.674 45.5289 32.8847 44.9984 32.8847H42.0002" stroke="white" stroke-width="1.6" stroke-linecap="round" stroke-linejoin="round"/>
<path d="M44.0002 26.884H47.0002" stroke="#FFBB18" stroke-width="1.6" stroke-linecap="round" stroke-linejoin="round"/>
</svg>
